<?xml version="1.0" standalone="no"?>
<!DOCTYPE svg PUBLIC "-//W3C//DTD SVG 20010904//EN"
 "http://www.w3.org/TR/2001/REC-SVG-20010904/DTD/svg10.dtd">
<svg version="1.0" xmlns="http://www.w3.org/2000/svg"
 width="360.000000pt" height="360.000000pt" viewBox="0 0 360.000000 360.000000"
 preserveAspectRatio="xMidYMid meet">
<metadata>
Created by potrace 1.14, written by Peter Selinger 2001-2017
</metadata>
<g transform="translate(0.000000,360.000000) scale(0.100000,-0.100000)"
fill="#000000" stroke="none">
<path d="M1712 3039 c-53 -27 -78 -58 -97 -124 -14 -46 -14 -56 0 -95 40 -113
159 -164 262 -112 47 24 68 47 88 95 67 160 -96 313 -253 236z"/>
<path d="M2527 2806 c-122 -45 -163 -197 -81 -296 32 -37 66 -55 121 -65 60
-10 142 28 178 84 34 51 38 138 8 190 -45 81 -142 118 -226 87z"/>
<path d="M982 2794 c-70 -31 -119 -120 -108 -196 20 -136 162 -203 281 -133
56 32 85 85 85 155 0 137 -135 228 -258 174z"/>
<path d="M1748 2575 c-65 -28 -101 -100 -86 -172 13 -61 75 -113 135 -113 50
0 87 16 123 55 21 22 25 36 25 88 0 46 -5 69 -20 89 -38 51 -123 77 -177 53z"/>
<path d="M2330 2412 c-106 -13 -165 -137 -107 -222 59 -88 182 -95 241 -13 20
27 32 98 23 135 -14 55 -97 108 -157 100z"/>
<path d="M1245 2393 c-87 -24 -133 -141 -85 -218 73 -118 249 -83 274 55 7 42
-25 114 -64 142 -27 19 -92 30 -125 21z"/>
<path d="M1734 2156 c-45 -45 -47 -92 -6 -137 23 -26 38 -33 74 -35 38 -2 50
2 77 26 26 24 31 36 31 73 0 39 -5 49 -35 76 -50 44 -95 43 -141 -3z"/>
<path d="M2128 2083 c-39 -6 -78 -56 -78 -102 0 -64 46 -107 110 -102 70 4
110 58 93 128 -8 37 -60 85 -87 82 -6 -1 -23 -4 -38 -6z"/>
<path d="M490 2069 c-101 -30 -155 -157 -108 -256 31 -66 79 -100 147 -105
198 -14 286 229 122 338 -43 28 -111 38 -161 23z"/>
<path d="M1435 2050 c-59 -23 -88 -102 -55 -155 48 -77 161 -59 190 31 9 27 8
40 -6 69 -9 20 -24 39 -33 44 -27 14 -75 19 -96 11z"/>
<path d="M892 1863 c-45 -22 -73 -65 -75 -116 -2 -58 18 -101 62 -131 101 -71
244 12 227 132 -15 107 -117 163 -214 115z"/>
<path d="M1223 1722 c-62 -49 -46 -151 30 -183 35 -15 108 11 125 44 24 48 18
92 -17 128 -24 23 -38 29 -73 29 -25 0 -52 -8 -65 -18z"/>
<path d="M1860 1490 c-132 -3 -186 -8 -167 -14 15 -4 32 -16 37 -26 6 -11 10
-121 10 -254 l0 -236 60 0 60 0 0 130 0 130 80 0 c73 0 80 2 80 20 0 18 -7 20
-80 20 l-80 0 0 95 0 96 88 -3 c87 -3 87 -3 90 -30 2 -16 9 -28 18 -28 10 0
14 14 14 55 0 30 -3 54 -7 53 -5 -1 -96 -5 -203 -8z"/>
<path d="M1282 1369 c-18 -12 -35 -33 -38 -48 -3 -14 -7 -32 -10 -39 -5 -18
18 -65 41 -82 29 -21 86 -28 116 -13 31 14 59 77 52 115 -13 67 -103 105 -161
67z"/>
<path d="M2580 1339 c-101 -19 -114 -29 -61 -47 35 -12 41 -41 41 -209 l0
-123 60 0 60 0 0 128 c0 143 14 192 60 202 66 16 80 -18 80 -202 l0 -128 60 0
60 0 0 118 c0 147 11 189 53 207 41 17 70 5 78 -31 4 -16 7 -89 8 -161 l1
-133 60 0 60 0 0 143 c0 160 -10 191 -71 223 -45 23 -139 15 -180 -15 l-31
-23 -24 23 c-32 30 -123 38 -177 16 -35 -15 -37 -15 -37 4 0 21 -22 23 -100 8z"/>
<path d="M2171 1323 c-39 -19 -71 -66 -71 -105 0 -35 47 -81 119 -117 31 -16
67 -38 81 -50 25 -21 25 -21 5 -37 -20 -16 -90 -15 -172 2 -32 6 -33 5 -33
-24 0 -30 2 -31 56 -38 76 -9 173 0 212 20 35 18 62 61 62 100 0 37 -42 80
-130 130 -89 52 -96 59 -75 76 11 9 38 11 95 7 79 -6 80 -6 80 17 0 30 -21 36
-120 36 -50 0 -86 -6 -109 -17z"/>
<path d="M977 1208 c-107 -62 -90 -221 27 -261 145 -49 256 119 157 237 -40
48 -124 58 -184 24z"/>
<path d="M605 1004 c-96 -52 -130 -153 -86 -250 62 -137 268 -138 333 -1 40
82 13 188 -60 236 -48 32 -142 39 -187 15z"/>
</g>
</svg>
