<svg xmlns="http://www.w3.org/2000/svg" xmlns:xlink="http://www.w3.org/1999/xlink" width="472.835" height="349.214" viewBox="0 0 472.835 349.214">
  <defs>
    <linearGradient id="linear-gradient" x1="0.5" y1="1" x2="0.5" gradientUnits="objectBoundingBox">
      <stop offset="0" stop-color="gray" stop-opacity="0.251"/>
      <stop offset="0.54" stop-color="gray" stop-opacity="0.122"/>
      <stop offset="1" stop-color="gray" stop-opacity="0.102"/>
    </linearGradient>
    <linearGradient id="linear-gradient-2" x1="0.5" y1="1" x2="0.5" y2="0" xlink:href="#linear-gradient"/>
  </defs>
  <g id="Groupe_1633" data-name="Groupe 1633" transform="translate(-0.005 -0.003)">
    <path id="Tracé_3302" data-name="Tracé 3302" d="M91.12,356.76h41.07v55.984H94.123c-.1.579-.194,1.153-.3,1.732H132.19v45.142a.577.577,0,0,1-.19-.073q-1.619-.644-3.238-1.364c-.231-.105-.457-.215-.692-.316q-1.619-.765-3.238-1.619c-.376-.2-.753-.4-1.121-.615a67.356,67.356,0,0,1-16.148-12.57c-.142-.134-.271-.279-.4-.4-.656-.712-1.3-1.433-1.922-2.169-.235-.271-.461-.546-.692-.809-.737-.9-1.449-1.829-2.137-2.764-.105-.142-.2-.279-.3-.4a59.784,59.784,0,0,1-6.961-12.587c-.057-.134-.109-.279-.162-.4-.559-1.417-1.064-2.853-1.5-4.318-.186-.611-.368-1.214-.522-1.85-.057-.182-.1-.368-.15-.55-2.275-8.964-2.538-18.281-2.538-27.553v-3.238q.049-5.678.134-11.344.032-1.457.061-2.926.085-3.719.243-7.455c.024-.688.057-1.38.093-2.064q.024-.595.061-1.19Q90.97,358.881,91.12,356.76Z" transform="translate(-59.9 -219.884)" fill="#6c63ff" opacity="0.1"/>
    <path id="Tracé_3303" data-name="Tracé 3303" d="M160.71,160.868H138.18a171.492,171.492,0,0,1,11.984-16.488c3.351-4.112,6.88-8.119,10.547-11.98Z" transform="translate(-88.42 -86.325)" fill="#6c63ff" opacity="0.1"/>
    <path id="Tracé_3304" data-name="Tracé 3304" d="M133.631,207v58.878H92.69c0-.17.024-.344.04-.514.036-.465.073-.927.113-1.392.04-.542.093-1.085.146-1.619s.105-1.182.17-1.769.117-1.182.182-1.769.13-1.174.2-1.756.138-1.174.219-1.757c.061-.482.121-.967.19-1.453.093-.684.19-1.368.291-2.048a1.946,1.946,0,0,1,.049-.308,141.214,141.214,0,0,1,3.011-14.78,109.435,109.435,0,0,1,5.079-14.974A112.455,112.455,0,0,1,110.024,207Z" transform="translate(-61.341 -130.734)" fill="#6c63ff" opacity="0.1"/>
    <path id="Tracé_3305" data-name="Tracé 3305" d="M218.09,155.436V211.42h87.726V155.436Zm0,57.716v48.08c.5.1,1,.2,1.493.287.668.129,1.34.247,2.024.348l.4.057c.267.045.538.081.809.113.676.1,1.352.17,2.024.235.316.032.643.057.963.085l.781.057h0c.425.032.846.057,1.267.073.259,0,.518.02.781.028s.4,0,.615,0h2.25c.348,0,.7,0,1.04-.032h.02a6.2,6.2,0,0,0,.724-.028,1.778,1.778,0,0,0,.206,0,4.874,4.874,0,0,0,.6-.024.849.849,0,0,1,.138,0c.449-.028.9-.065,1.36-.105s.89-.089,1.348-.138l.919-.113a80.6,80.6,0,0,0,11.109-2.364c8.187-2.283,16.189-5.476,24.372-7.811,10.571-3.015,22.259-4.5,32.474-.83V213.152ZM305.816,93.1V18.57a112.725,112.725,0,0,0-28.5,3.339C255.1,27.49,235.153,39.595,218.09,55.055V93.1h4.415v1.728H218.09V153.7h87.726V94.826H240.568V93.094Zm112.7-25.177A36.317,36.317,0,0,1,402.615,63.3c-9.446-5.136-17-13.076-25.432-19.77A116.772,116.772,0,0,0,315.63,19.072V93.1H440.853l.312-.328ZM429.93,65.9l12.1,13.279V62.409a48.43,48.43,0,0,0-12.1,3.477Zm12.1,207.27V213.152h-25.8c-.065-.255-.138-.514-.218-.773.077.259.146.518.215.773H315.63v43.4c.955.708,1.9,1.457,2.833,2.21h0q1.514,1.238,3.007,2.505l1,.83c.482.4.971.809,1.457,1.194q1.461,1.178,2.942,2.331.741.583,1.489,1.145a203.2,203.2,0,0,0,24.947,16.314c1.951,1.089,3.922,2.137,5.9,3.161q1.979,1.02,3.986,2,3.011,1.469,6.071,2.833h0a222.833,222.833,0,0,0,59.088,17.208q6.791,1,13.643,1.578v-36.7h.4ZM315.63,94.826V153.7h126.4V94.826Zm0,60.6V211.42h126.4V155.436Zm136.207-93.1V81.066l15.436-16.945Q459.6,62.854,451.837,62.328Zm0,93.109V211.42H574.769V155.436Zm122.5,122.175.433-64.459H451.837v97.362a221.5,221.5,0,0,0,23.757-.287h.138q5.666-.364,11.279-1.036h.085a207.413,207.413,0,0,0,57.967-15.484m53.422-129.075q-.7-1.619-1.437-3.238c-.915-2.024-1.878-3.99-2.873-5.953h-9.592v55.98h24.247c-.02-15.857-4.035-32.045-10.345-46.789Zm-13.9,48.521V268.6A79.341,79.341,0,0,0,601.338,246a77.784,77.784,0,0,0,7.475-32.851Zm0-74.03v14.57h8.693a158.307,158.307,0,0,0-8.693-14.57ZM501.212,73.316c-.639-.247-1.283-.494-1.926-.728a174.9,174.9,0,0,0-20.762-6.241L454.9,92.272h0l-.461.5.3.328H538.83a179.654,179.654,0,0,0-37.618-19.782ZM541.3,94.826H453.561L451.837,96.4v57.3H574.769V125.941A175.034,175.034,0,0,0,541.3,94.826Z" transform="translate(-135.989 -18.56)" fill="#6c63ff" opacity="0.1"/>
    <path id="Tracé_3306" data-name="Tracé 3306" d="M133.631,280.39v29.176H92.69c0-.17.024-.344.04-.514.036-.465.073-.927.113-1.392.04-.542.093-1.085.146-1.619s.105-1.182.17-1.769.117-1.182.182-1.769.13-1.174.2-1.756.138-1.174.219-1.756c.061-.482.121-.967.19-1.453.093-.684.19-1.368.291-2.048a1.947,1.947,0,0,1,.049-.308A141.212,141.212,0,0,1,97.3,280.4Z" transform="translate(-61.341 -174.422)" fill="#6c63ff" opacity="0.1"/>
    <path id="Tracé_3307" data-name="Tracé 3307" d="M91.12,356.76h41.07v55.984H94.123c-.1.579-.194,1.153-.3,1.732H132.19v45.142a.577.577,0,0,1-.19-.073q-1.619-.644-3.238-1.364c-.231-.105-.457-.215-.692-.316q-1.619-.765-3.238-1.619c-.376-.2-.753-.4-1.121-.615a67.356,67.356,0,0,1-16.148-12.57c-.142-.134-.271-.279-.4-.4-.656-.712-1.3-1.433-1.922-2.169-.235-.271-.461-.546-.692-.809-.737-.9-1.449-1.829-2.137-2.764-.105-.142-.2-.279-.3-.4a59.784,59.784,0,0,1-6.961-12.587c-.057-.134-.109-.279-.162-.4-.559-1.417-1.064-2.853-1.5-4.318-.186-.611-.368-1.214-.522-1.85-.057-.182-.1-.368-.15-.55-2.275-8.964-2.538-18.281-2.538-27.553v-3.238q.049-5.678.134-11.344.032-1.457.061-2.926.085-3.719.243-7.455c.024-.688.057-1.38.093-2.064q.024-.595.061-1.19Q90.97,358.881,91.12,356.76Z" transform="translate(-59.9 -219.884)" fill="#6c63ff" opacity="0.1"/>
    <path id="Tracé_3308" data-name="Tracé 3308" d="M233.014,184.159V234.6H202.13V184.159h4.4V167.08h18.075v17.079Z" transform="translate(-120.033 -99.458)" fill="#6c63ff" opacity="0.1"/>
    <rect id="Rectangle_1265" data-name="Rectangle 1265" width="30.88" height="55.984" transform="translate(82.097 136.872)" fill="#6c63ff" opacity="0.1"/>
    <path id="Tracé_3309" data-name="Tracé 3309" d="M218.09,499.37h30.88v46.542a79.992,79.992,0,0,1-11.109,2.359c-.308.044-.611.081-.919.113-.453.053-.9.1-1.352.142l-1.356.109H234.1l-.6.032h-.206c-.243,0-.482.028-.724.032h-.02c-.348,0-.692.024-1.04.032h-2.865a6.363,6.363,0,0,1-.785-.032q-.623-.024-1.263-.073h0l-.781-.057c-.324-.024-.648-.057-.967-.089q-1.02-.089-2.024-.231l-.809-.113-.4-.057c-.676-.1-1.348-.214-2.024-.344-.5-.089-1-.19-1.493-.3Z" transform="translate(-135.989 -304.777)" fill="#6c63ff" opacity="0.1"/>
    <rect id="Rectangle_1266" data-name="Rectangle 1266" width="25.465" height="56.397" transform="translate(280.568 78.743)" fill="#6c63ff" opacity="0.1"/>
    <path id="Tracé_3310" data-name="Tracé 3310" d="M569.546,338.19v55.988H443.15V370.029h67.324v14.246h33.6V338.19Z" transform="translate(-263.509 -201.318)" fill="#6c63ff" opacity="0.1"/>
    <path id="Tracé_3311" data-name="Tracé 3311" d="M585.9,558.264a2.286,2.286,0,0,1-.4-.024v36.728q-6.844-.563-13.639-1.574a223.136,223.136,0,0,1-59.113-17.2q-8.147-3.675-15.962-8.009a203.946,203.946,0,0,1-24.942-16.314q-2.987-2.283-5.885-4.666c-1.34-1.109-2.667-2.242-4.019-3.339-.931-.757-1.874-1.505-2.833-2.218V498.233H559.7c-.073-.259-.138-.514-.21-.773.077.259.15.514.214.773h25.8v60C585.63,558.24,585.763,558.252,585.9,558.264Z" transform="translate(-279.459 -303.64)" fill="#6c63ff" opacity="0.1"/>
    <path id="Tracé_3312" data-name="Tracé 3312" d="M911.1,172.565H894.51v-5.156h7.435V152.05q.967.356,1.927.728v14.63H911.1Z" transform="translate(-538.653 -98.023)" fill="#6c63ff" opacity="0.1"/>
    <path id="Tracé_3313" data-name="Tracé 3313" d="M892.235,265.878H810.766a.053.053,0,0,0,.024,0H795.65v-56.4h4.282v41.686H819.5V226.479h16.168V207h16.593v19.491h16.16v24.688h23.822Z" transform="translate(-479.803 -130.734)" fill="#6c63ff" opacity="0.1"/>
    <path id="Tracé_3314" data-name="Tracé 3314" d="M795.65,356.76v55.984h96.589V356.76ZM918.444,478.64l.138-44.316H892.239V414.492H795.65v97.346a221.468,221.468,0,0,0,23.757-.287h.138q5.666-.364,11.279-1.036h.085a207.409,207.409,0,0,0,57.967-15.484" transform="translate(-479.803 -219.884)" fill="#6c63ff" opacity="0.1"/>
    <path id="Tracé_3315" data-name="Tracé 3315" d="M1125.35,499.37h22.531a77.83,77.83,0,0,1-7.475,32.847,79.305,79.305,0,0,1-16.755,22.6V519.205h1.7Z" transform="translate(-675.056 -304.777)" fill="#6c63ff" opacity="0.1"/>
    <path id="Tracé_3316" data-name="Tracé 3316" d="M1150.4,426.269H1127.85V379.48h12.2C1146.362,394.224,1150.377,410.412,1150.4,426.269Z" transform="translate(-677.557 -233.409)" fill="#6c63ff" opacity="0.1"/>
    <rect id="Rectangle_1267" data-name="Rectangle 1267" width="13.643" height="17.682" transform="translate(292.394 94.422)" fill="#6c63ff" opacity="0.1"/>
    <rect id="Rectangle_1268" data-name="Rectangle 1268" width="13.643" height="4.071" transform="translate(292.394 131.073)" fill="#6c63ff" opacity="0.1"/>
    <rect id="Rectangle_1269" data-name="Rectangle 1269" width="13.643" height="11.878" transform="translate(292.394 136.872)" fill="#6c63ff" opacity="0.1"/>
    <rect id="Rectangle_1270" data-name="Rectangle 1270" width="13.643" height="17.682" transform="translate(292.394 167.724)" fill="#6c63ff" opacity="0.1"/>
    <rect id="Rectangle_1271" data-name="Rectangle 1271" width="13.643" height="17.682" transform="translate(292.394 204.374)" fill="#6c63ff" opacity="0.1"/>
    <path id="Tracé_3317" data-name="Tracé 3317" d="M751.343,627.67a1.966,1.966,0,0,1,.4.028,2.293,2.293,0,0,1-.4-.024v4.108H737.7V614.1h13.643Z" transform="translate(-445.306 -373.075)" fill="#6c63ff" opacity="0.1"/>
    <path id="Tracé_3318" data-name="Tracé 3318" d="M751.343,704.65v13.655q-6.848-.563-13.643-1.574V704.65Z" transform="translate(-445.306 -426.978)" fill="#6c63ff" opacity="0.1"/>
    <rect id="Rectangle_1272" data-name="Rectangle 1272" width="58.469" height="1.299" transform="translate(179.641 191.561)" fill="#6c63ff" opacity="0.1"/>
    <rect id="Rectangle_1273" data-name="Rectangle 1273" width="58.469" height="4.978" transform="translate(179.641 194.588)" fill="#6c63ff" opacity="0.1"/>
    <rect id="Rectangle_1274" data-name="Rectangle 1274" width="58.469" height="8.005" transform="translate(179.641 215.885)" fill="#6c63ff" opacity="0.1"/>
    <path id="Tracé_3319" data-name="Tracé 3319" d="M521.736,612.08v8.005H476q-2.987-2.274-5.885-4.67c-1.344-1.1-2.671-2.238-4.019-3.335Z" transform="translate(-283.626 -371.872)" fill="#6c63ff" opacity="0.1"/>
    <path id="Tracé_3320" data-name="Tracé 3320" d="M572.99,672.17V680.2h-4.828q-8.147-3.675-15.962-8.009Z" transform="translate(-334.88 -407.643)" fill="#6c63ff" opacity="0.1"/>
    <rect id="Rectangle_1275" data-name="Rectangle 1275" width="11.51" height="11.51" transform="translate(339.604 142.299)" fill="#6c63ff" opacity="0.1"/>
    <rect id="Rectangle_1276" data-name="Rectangle 1276" width="11.51" height="11.51" transform="translate(90.389 88.671)" fill="#6c63ff" opacity="0.1"/>
    <rect id="Rectangle_1277" data-name="Rectangle 1277" width="11.51" height="11.51" transform="translate(90.389 115.406)" fill="#6c63ff" opacity="0.1"/>
    <rect id="Rectangle_1278" data-name="Rectangle 1278" width="11.51" height="11.51" transform="translate(90.389 142.142)" fill="#6c63ff" opacity="0.1"/>
    <rect id="Rectangle_1279" data-name="Rectangle 1279" width="11.51" height="11.51" transform="translate(90.389 168.873)" fill="#6c63ff" opacity="0.1"/>
    <rect id="Rectangle_1280" data-name="Rectangle 1280" width="11.51" height="11.51" transform="translate(90.389 195.608)" fill="#6c63ff" opacity="0.1"/>
    <rect id="Rectangle_1281" data-name="Rectangle 1281" width="11.51" height="11.51" transform="translate(90.389 222.344)" fill="#6c63ff" opacity="0.1"/>
    <rect id="Rectangle_1282" data-name="Rectangle 1282" width="11.51" height="11.51" transform="translate(383.544 142.299)" fill="#6c63ff" opacity="0.1"/>
    <rect id="Rectangle_1283" data-name="Rectangle 1283" width="11.51" height="11.51" transform="translate(339.604 170.69)" fill="#6c63ff" opacity="0.1"/>
    <rect id="Rectangle_1284" data-name="Rectangle 1284" width="11.51" height="11.51" transform="translate(383.544 170.69)" fill="#6c63ff" opacity="0.1"/>
    <rect id="Rectangle_1285" data-name="Rectangle 1285" width="11.51" height="11.51" transform="translate(339.604 199.077)" fill="#6c63ff" opacity="0.1"/>
    <rect id="Rectangle_1286" data-name="Rectangle 1286" width="11.51" height="11.51" transform="translate(383.544 199.077)" fill="#6c63ff" opacity="0.1"/>
    <rect id="Rectangle_1287" data-name="Rectangle 1287" width="11.51" height="11.51" transform="translate(339.604 227.467)" fill="#6c63ff" opacity="0.1"/>
    <rect id="Rectangle_1288" data-name="Rectangle 1288" width="11.51" height="11.51" transform="translate(383.544 227.467)" fill="#6c63ff" opacity="0.1"/>
    <rect id="Rectangle_1289" data-name="Rectangle 1289" width="11.51" height="11.51" transform="translate(339.604 255.858)" fill="#6c63ff" opacity="0.1"/>
    <rect id="Rectangle_1290" data-name="Rectangle 1290" width="11.51" height="11.51" transform="translate(383.544 255.858)" fill="#6c63ff" opacity="0.1"/>
    <path id="Tracé_3321" data-name="Tracé 3321" d="M838.4,709.752V702.33h11.506V708.7Z" transform="translate(-498.796 -418.085)" fill="#6c63ff" opacity="0.1"/>
    <path id="Tracé_3322" data-name="Tracé 3322" d="M96.53,316.91v6.585h39.387V316.91Zm3.922,6.172H97.214v-5.755h3.238Zm3.922,0h-3.238v-5.755h3.238Zm3.914,0h-3.238v-5.755h3.238Zm3.922,0h-3.238v-5.755h3.238Zm3.918,0h-3.238v-5.755h3.238Zm3.922,0H116.81v-5.755h3.238Zm3.922,0h-3.238v-5.755h3.238Zm3.918,0H124.65v-5.755h3.238Zm3.918,0h-3.238v-5.755H131.8Zm3.922,0h-3.238v-5.755h3.238Z" transform="translate(-63.626 -196.162)" fill="#6c63ff" opacity="0.1"/>
    <path id="Tracé_3323" data-name="Tracé 3323" d="M96.53,364.27v6.585h39.387V364.27Zm3.922,6.172H97.214v-5.755h3.238Zm3.922,0h-3.238v-5.755h3.238Zm3.914,0h-3.238v-5.755h3.238Zm3.922,0h-3.238v-5.755h3.238Zm3.918,0h-3.238v-5.755h3.238Zm3.922,0H116.81v-5.755h3.238Zm3.922,0h-3.238v-5.755h3.238Zm3.918,0H124.65v-5.755h3.238Zm3.918,0h-3.238v-5.755H131.8Zm3.922,0h-3.238v-5.755h3.238Z" transform="translate(-63.626 -224.354)" fill="#6c63ff" opacity="0.1"/>
    <path id="Tracé_3324" data-name="Tracé 3324" d="M96.53,411.64v6.581h39.387V411.64Zm3.922,6.164H97.214v-5.755h3.238Zm3.922,0h-3.238v-5.755h3.238Zm3.914,0h-3.238v-5.755h3.238Zm3.922,0h-3.238v-5.755h3.238Zm3.918,0h-3.238v-5.755h3.238Zm3.922,0H116.81v-5.755h3.238Zm3.922,0h-3.238v-5.755h3.238Zm3.918,0H124.65v-5.755h3.238Zm3.918,0h-3.238v-5.755H131.8Zm3.922,0h-3.238v-5.755h3.238Z" transform="translate(-63.626 -252.553)" fill="#6c63ff" opacity="0.1"/>
    <path id="Tracé_3325" data-name="Tracé 3325" d="M96.53,459v6.581h39.387V459Zm3.922,6.168H97.214V459.4h3.238Zm3.922,0h-3.238V459.4h3.238Zm3.914,0h-3.238V459.4h3.238Zm3.922,0h-3.238V459.4h3.238Zm3.918,0h-3.238V459.4h3.238Zm3.922,0H116.81V459.4h3.238Zm3.922,0h-3.238V459.4h3.238Zm3.918,0H124.65V459.4h3.238Zm3.918,0h-3.238V459.4H131.8Zm3.922,0h-3.238V459.4h3.238Z" transform="translate(-63.626 -280.746)" fill="#6c63ff" opacity="0.1"/>
    <path id="Tracé_3326" data-name="Tracé 3326" d="M97,506.34c.154.623.336,1.238.522,1.85v-1.433h3.238v5.751H99.024c.049.138.1.279.158.4h37.031V506.34Zm7.69,6.168h-3.238v-5.751h3.238Zm3.914,0h-3.238v-5.751H108.6Zm3.922,0h-3.238v-5.751h3.238Zm3.918,0H113.2v-5.751h3.238Zm3.922,0h-3.238v-5.751h3.238Zm3.922,0h-3.238v-5.751h3.238Zm3.918,0h-3.238v-5.751H128.2Zm3.918,0h-3.238v-5.751h3.238Zm3.922,0h-3.238v-5.751h3.238Z" transform="translate(-63.906 -308.927)" fill="#6c63ff" opacity="0.1"/>
    <path id="Tracé_3327" data-name="Tracé 3327" d="M119.54,553.7c.105.13.2.275.3.4h2.141v2.764l.692.809v-3.59h3.238v5.8h-1.332c.13.134.255.275.4.4h24.619v-6.6Zm10.3,6.192h-3.238v-5.779h3.238Zm3.922,0h-3.238v-5.779h3.238Zm3.922,0H134.45v-5.779h3.238Zm3.918,0h-3.238v-5.779H141.6Zm3.918,0h-3.238v-5.779h3.238Zm3.922,0h-3.238v-5.779h3.238Z" transform="translate(-77.324 -337.119)" fill="#6c63ff" opacity="0.1"/>
    <path id="Tracé_3328" data-name="Tracé 3328" d="M172.93,601.06c.372.21.749.4,1.125.611v-.2h3.238v1.825c.235.1.457.21.688.316v-2.141h3.238v3.5a1.3,1.3,0,0,0,.19.069V601.06Z" transform="translate(-109.106 -365.312)" fill="#6c63ff" opacity="0.1"/>
    <path id="Tracé_3329" data-name="Tracé 3329" d="M473.447,263.33Zm-24.93,119.451Zm-26.011-60.776c.077.259.146.518.215.773h0C422.66,322.523,422.587,322.264,422.506,322.005Zm50.941-58.675ZM229,202.728v1.724h18.079V202.72ZM448.521,382.781Zm-26.015-60.776c.077.259.146.518.215.773h0C422.66,322.523,422.587,322.264,422.506,322.005Zm50.941-58.675Zm-24.93,119.451Zm-26.011-60.776c.077.259.146.518.215.773h0C422.66,322.523,422.587,322.264,422.506,322.005Z" transform="translate(-142.484 -128.186)" fill="#6c63ff" opacity="0.1"/>
    <ellipse id="Ellipse_35" data-name="Ellipse 35" cx="39.435" cy="6.334" rx="39.435" ry="6.334" transform="translate(316.774 336.55)" fill="#6c63ff" opacity="0.1"/>
    <ellipse id="Ellipse_36" data-name="Ellipse 36" cx="39.435" cy="6.334" rx="39.435" ry="6.334" transform="translate(138.918 330.216)" fill="#6c63ff" opacity="0.1"/>
    <path id="Tracé_3330" data-name="Tracé 3330" d="M464.669,341.131a.214.214,0,0,0-.061-.105c-.6-.595-8.293-11.47-8.293-11.47s-.4-1.214-1.06-2.793a2.774,2.774,0,0,0,.465-.911,3.122,3.122,0,0,0,.077-.425c0-.045.032-.081.045-.125a3.072,3.072,0,0,0-.041-1.667,2.882,2.882,0,0,1-.166.4,6.767,6.767,0,0,0-.607-1.352c-1.02-1.756-2.477-3.238-3.549-4.95a13.392,13.392,0,0,1-1.825-8.888v.478a13.855,13.855,0,0,1,.243-1.821,12.637,12.637,0,0,1,.676-2c.963-2.206,2.521-4.128,3.468-6.342a12.017,12.017,0,0,0,.72-2.319,12.989,12.989,0,0,0,.36-4.067,6.479,6.479,0,0,1-.1.967,13.174,13.174,0,0,0-3.719-8.77c-3.307-3.323-8.054-4.614-12.595-5.294a11.538,11.538,0,0,1-5.3-2.024,9.217,9.217,0,0,0-6.038-1.153,9.96,9.96,0,0,0-6.148,3.039c-2.157,2.372-3.092,5.731-5.609,7.73-1.526,1.214-3.46,1.781-5.237,2.606s-3.456,2.024-4.027,3.8v.065l-.024.065c-.591,2.1.55,4.229,1.145,6.322a25.614,25.614,0,0,1,.692,6.69c.045,2.736.085,5.476.04,8.216-.02,1.077-.057,2.165-.138,3.238a16.957,16.957,0,0,0-2.78,1.117,55.057,55.057,0,0,0-4.3,4.254l-6.633,25.343.089.1-.089.344.336-.077a34.147,34.147,0,0,0,6.771,5.69l.283,4.97a8.834,8.834,0,0,0,4.925,7.046c.105,1.728.433,8.746-1.085,11.526a12.951,12.951,0,0,0-1.433,6.589s.53,4.217-.073,6.435a10.523,10.523,0,0,0-.077,4.517h0v1.331c0,4.488.053,18.872,0,20.5-.077,1.922,0,30.354,0,30.354s-.376,14.21-1.582,18.058-.9,16.593-.9,16.593-.757,15.181,1.918,18.176c0,.134-.024.271-.028.4v.19c-.032,1.153.19,2.38,1.182,2.756a16.934,16.934,0,0,1,5.2,3.776c.506.668,3.448,2.331,7.285,1.886a54.839,54.839,0,0,1,7.24-.332h0s1.514-.275,1.024-2.157h0A16.853,16.853,0,0,0,423,503.5c.154.04.3.073.445.1l.146.028h.113a1.541,1.541,0,0,0,.186,0h.081a1.4,1.4,0,0,0,.227,0h0c1.016-.1,4.8,1.667,5.48,2.833s3.06,2.052,4.857,2.274a34.5,34.5,0,0,0,6.026-.38,22.181,22.181,0,0,0,3.375-.615c.534-.2.648-.85.494-1.578h0a4.108,4.108,0,0,0-1.4-2.363,11.366,11.366,0,0,1-2.161-2.7l-.17-.271c1.129-1.077,3.169-4.6,3.788-5.326.753-.886-1.214-33.3-1.214-33.3V445.956l3.015-15.379,2.109-8.139,1.809-12.287s3.165-14.351,2.189-15.76h0c0-.028-.809-14.8-1.659-18.354-.368-1.582-.275-5.144-.057-8.608a1.7,1.7,0,0,0,.4-1.773,3.679,3.679,0,0,0-.235-.6v-.186a27.867,27.867,0,0,1,5.452-1.854c3.015-.591,2.262-2.145,2.262-2.145s.68-1.332,1.129-2.145.077-7.993,0-8.584c-.028-.239-.215-1.558-.429-3.056.967-.688,2.226-1.542,3.6-2.351C465.47,343.187,464.884,341.556,464.669,341.131ZM425.331,443.738s-2.262,5.771-1.356,7.248-.15,6.961-.15,6.961l-.757,8.139s-2.109,15.1-1.356,18.645c.591,2.784.809,11.1.878,14.57h0a1.021,1.021,0,0,0-.15.073l-.1.053c.348-1.364.2-4.124-1.526-9.677l-.146-22.935s-.267-26.493,1.825-29.455,2.833-7.993,2.833-7.993-.453,7.257-.749,9.179S425.331,443.738,425.331,443.738Zm-4.213,57.008c-.02.049-.045.1-.061.142l-.113-.146a1.183,1.183,0,0,0,.174,0Z" transform="translate(-240.914 -172.06)" fill="url(#linear-gradient)"/>
    <path id="Tracé_3331" data-name="Tracé 3331" d="M483.988,840.033a40.188,40.188,0,0,1-9.284,1c-1.773-.214-4.12-1.113-4.788-2.287s-4.411-2.946-5.415-2.833a3.642,3.642,0,0,1-1.214-.17,14.946,14.946,0,0,1-2.024-.777,3.756,3.756,0,0,1,.044-1.538,2.47,2.47,0,0,1,.089-.3,2.675,2.675,0,0,1,1.36-1.514l.146-.069a4.12,4.12,0,0,1,.874-.267c3.181-.611,16.306.615,16.306.615s.368.66.874,1.477a11.294,11.294,0,0,0,2.137,2.712,4.148,4.148,0,0,1,1.38,2.38C484.628,839.179,484.514,839.835,483.988,840.033Z" transform="translate(-280.712 -502.257)" fill="#fff"/>
    <path id="Tracé_3332" data-name="Tracé 3332" d="M484,841.7a40.155,40.155,0,0,1-9.28,1c-1.773-.215-4.12-1.117-4.792-2.287s-4.407-2.946-5.411-2.833a9.377,9.377,0,0,1-3.238-.947,3.355,3.355,0,0,1,.664-2.724l2.024,1.437s5.415,1.68,6.419,3.238,2.833,2.428,5.476,2.586a51.242,51.242,0,0,0,8.637-1.024C484.635,840.847,484.526,841.5,484,841.7Z" transform="translate(-280.72 -503.924)" opacity="0.1"/>
    <path id="Tracé_3333" data-name="Tracé 3333" d="M439.233,842.312a53.894,53.894,0,0,0-7.147.336c-3.8.445-6.7-1.214-7.208-1.9a16.887,16.887,0,0,0-5.136-3.8c-.983-.38-1.214-1.619-1.17-2.776v-.19a11.334,11.334,0,0,1,.324-2.173l15.747-.336,1.364,1.85.21.283.83,1.129s.376.494.87,1.214a17.277,17.277,0,0,1,2.311,4.193h0C440.726,842.037,439.233,842.312,439.233,842.312Z" transform="translate(-255.331 -502.472)" fill="#fff"/>
    <path id="Tracé_3334" data-name="Tracé 3334" d="M439.233,846.295a53.894,53.894,0,0,0-7.147.336c-3.8.445-6.7-1.214-7.2-1.9a16.414,16.414,0,0,0-5.14-3.8c-.983-.38-1.214-1.619-1.17-2.776,1.125.263,3.489.935,4.415,2.1,1.214,1.562,3.387,4.189,6.475,4.355,2.493.134,8.564-.312,10.79-.49C440.73,846.02,439.233,846.295,439.233,846.295Z" transform="translate(-255.331 -506.454)" opacity="0.1"/>
    <path id="Tracé_3335" data-name="Tracé 3335" d="M437.337,831.8c-.182,1.352-.745,1.716-1.149,1.8a.782.782,0,0,1-.3,0,1.014,1.014,0,0,1-.158-.024s-14.141,3.124-17,.595a1.986,1.986,0,0,1-.2-.211,11.33,11.33,0,0,1,.324-2.173l15.747-.336,1.364,1.85a2.675,2.675,0,0,1,1.36-1.514Z" transform="translate(-255.308 -502.46)" opacity="0.1"/>
    <path id="Tracé_3336" data-name="Tracé 3336" d="M483.426,833.3c-.316.348-.579.546-.745.477-.745-.3-6.848-1.34-8.786-.445s-8.5.146-8.5.146,0-.777-.036-2.024a4.115,4.115,0,0,1,.874-.267c3.181-.611,16.306.615,16.306.615S482.925,832.484,483.426,833.3Z" transform="translate(-283.186 -502.203)" opacity="0.1"/>
    <path id="Tracé_3337" data-name="Tracé 3337" d="M461.929,579.779l-1.789,12.36-2.08,8.191-2.979,15.484v16.391s1.935,32.612,1.19,33.5-3.574,5.961-4.318,5.666-6.848-1.34-8.786-.449-8.5.15-8.5.15-.15-12.655-.894-16.229,1.34-18.763,1.34-18.763l.745-8.187s1.044-5.512.15-7,1.34-7.285,1.34-7.285-1.04-3.282-.741-5.217.741-9.231.741-9.231-.741,5.067-2.809,8.042-1.805,29.633-1.805,29.633l.146,23.069c3.727,12.214,0,11.02,0,11.02s-14.141,3.128-17,.595-2.04-18.479-2.04-18.479-.3-12.805.894-16.674S416.3,618.2,416.3,618.2s-.077-28.593,0-30.524c.057-1.619,0-16.112,0-20.64v-1.34l1.708-4.241,20.236-2.534h9.681s14.57,3.424,16.075,4.9a.334.334,0,0,1,.081.089C465.057,565.339,461.929,579.779,461.929,579.779Z" transform="translate(-252.453 -340.227)" fill="#6c63ff"/>
    <path id="Tracé_3338" data-name="Tracé 3338" d="M472.11,770.88s4.452,10.721,6.552,11.466S472.11,770.88,472.11,770.88Z" transform="translate(-287.204 -466.404)" opacity="0.1"/>
    <path id="Tracé_3339" data-name="Tracé 3339" d="M476.18,809.88s15.031.745,14.881,2.384S476.18,809.88,476.18,809.88Z" transform="translate(-289.627 -489.62)" opacity="0.1"/>
    <path id="Tracé_3340" data-name="Tracé 3340" d="M426.49,799.29c.595.563,11.466,1.619,10.571,2.647s-9.677,3.027-9.677,3.027Z" transform="translate(-260.047 -483.316)" opacity="0.1"/>
    <path id="Tracé_3341" data-name="Tracé 3341" d="M422.08,753.59c0,.445,2.234,14.294,2.833,14.889s5.508,1.19,5.508,1.19Z" transform="translate(-257.422 -456.111)" opacity="0.1"/>
    <path id="Tracé_3342" data-name="Tracé 3342" d="M439.2,281.212c-2.133,2.384-3.056,5.763-5.541,7.779-1.51,1.214-3.42,1.793-5.176,2.618s-3.5,2.084-4.019,3.954c-.583,2.1.542,4.254,1.133,6.358a26.323,26.323,0,0,1,.684,6.73c.04,2.756.085,5.512.036,8.268-.073,4.294-.429,8.786-2.708,12.425,8.228,2.619,16.978,2.975,25.606,3.311a25.839,25.839,0,0,0,4.974-.125,42.682,42.682,0,0,0,4.237-1.073,32.492,32.492,0,0,1,8.442-1.081,14.174,14.174,0,0,0,3.707-.247,3.658,3.658,0,0,0,2.675-2.351,4.368,4.368,0,0,0-.684-3.189c-1-1.765-2.428-3.238-3.5-4.978a13.679,13.679,0,0,1-.878-12.3c.955-2.222,2.493-4.156,3.432-6.382a13.461,13.461,0,0,0-2.712-14.278c-3.266-3.343-7.953-4.638-12.437-5.326a11.3,11.3,0,0,1-5.237-2.024,8.964,8.964,0,0,0-5.966-1.157,9.737,9.737,0,0,0-6.067,3.068Z" transform="translate(-258.332 -173.034)" fill="#3f3d56"/>
    <g id="Groupe_1630" data-name="Groupe 1630" transform="translate(165.439 121.477)" opacity="0.1">
      <path id="Tracé_3343" data-name="Tracé 3343" d="M532.494,329.176a13.465,13.465,0,0,0-1.032,6.18,13.233,13.233,0,0,1,1.032-4.387c.951-2.222,2.489-4.156,3.428-6.382a12.913,12.913,0,0,0,.943-5.876,12.584,12.584,0,0,1-.943,4.088C534.983,325.024,533.445,326.954,532.494,329.176Z" transform="translate(-487.956 -318.71)"/>
      <path id="Tracé_3344" data-name="Tracé 3344" d="M427.608,333.6c.024,1.586.049,3.177.053,4.763q0-3.278-.053-6.548a26.265,26.265,0,0,0-.684-6.734,33.353,33.353,0,0,1-1.214-4.185c-.36,1.983.664,3.995,1.214,5.974A26.142,26.142,0,0,1,427.608,333.6Z" transform="translate(-424.977 -320.014)"/>
      <path id="Tracé_3345" data-name="Tracé 3345" d="M470.953,397.678a13.687,13.687,0,0,1-3.7.247,32.466,32.466,0,0,0-8.438,1.06,42.989,42.989,0,0,1-4.237,1.068,25.568,25.568,0,0,1-4.978.13c-8.337-.328-16.792-.68-24.777-3.064a13.742,13.742,0,0,1-.809,1.538c8.228,2.614,16.978,2.975,25.6,3.311a25.563,25.563,0,0,0,4.978-.13,41.844,41.844,0,0,0,4.221-1.064,32.467,32.467,0,0,1,8.422-1.072,13.975,13.975,0,0,0,3.7-.251,3.661,3.661,0,0,0,2.675-2.347,3.213,3.213,0,0,0-.04-1.684A3.778,3.778,0,0,1,470.953,397.678Z" transform="translate(-424.01 -364.374)"/>
    </g>
    <path id="Tracé_3346" data-name="Tracé 3346" d="M469.637,354.123c-.3.672-1.562,6.475-1.862,7.07s-1.935,10.118-2.084,10.652-10.777-2.234-10.777-2.234l-6.4-5.362-6.577-6.544s-.194-5.9,4.65-7.8a7.39,7.39,0,0,1,1.012-.316c5.876-1.412,5.286-19.281,5.286-19.281l12.06,5.209s-2.234,10.425-2.157,12.437c.02.676.55,1.1,1.242,1.352a9.822,9.822,0,0,0,3.294.356S469.937,353.456,469.637,354.123Z" transform="translate(-269.243 -204.138)" fill="#fbbebe"/>
    <path id="Tracé_3347" data-name="Tracé 3347" d="M540.294,436.22l1.712.449s1.267,1.926-1.712,3.719a51.611,51.611,0,0,0-5.435,3.8l-8.8,2.679-1.7-5.322,8.191-6.216Z" transform="translate(-318.308 -266.655)" fill="#6c63ff"/>
    <path id="Tracé_3348" data-name="Tracé 3348" d="M540.294,436.22l1.712.449s1.267,1.926-1.712,3.719a51.611,51.611,0,0,0-5.435,3.8l-8.8,2.679-1.7-5.322,8.191-6.216Z" transform="translate(-318.308 -266.655)" opacity="0.1"/>
    <path id="Tracé_3349" data-name="Tracé 3349" d="M399.964,448.807l-3.424,3.351s6.176,7.147,10.927,7.592,7.815-5.435,7.815-5.435l-4.112-6.475Z" transform="translate(-242.218 -274.102)" fill="#6c63ff"/>
    <path id="Tracé_3350" data-name="Tracé 3350" d="M399.964,448.807l-3.424,3.351s6.176,7.147,10.927,7.592,7.815-5.435,7.815-5.435l-4.112-6.475Z" transform="translate(-242.218 -274.102)" opacity="0.1"/>
    <circle id="Ellipse_37" data-name="Ellipse 37" cx="11.911" cy="11.911" r="11.911" transform="translate(178.358 114.026)" opacity="0.1"/>
    <circle id="Ellipse_38" data-name="Ellipse 38" cx="11.911" cy="11.911" r="11.911" transform="translate(178.358 113.132)" fill="#fbbebe"/>
    <path id="Tracé_3351" data-name="Tracé 3351" d="M467.863,565.28a38.451,38.451,0,0,0-7.969,1.785c-4.452,1.481-39.338.024-39.824,0v-1.34l1.708-4.241,20.236-2.534h9.681s14.57,3.424,16.075,4.9C467.83,564.741,467.863,565.28,467.863,565.28Z" transform="translate(-256.225 -340.245)" opacity="0.1"/>
    <path id="Tracé_3352" data-name="Tracé 3352" d="M469.637,382.066c-.3.672-1.562,6.475-1.862,7.07s-1.935,10.118-2.084,10.652-10.777-2.234-10.777-2.234l-6.4-5.362-6.577-6.544s-.194-5.9,4.65-7.8l12.028,13.829,5.415-14.428a9.821,9.821,0,0,0,3.294.356S469.937,381.4,469.637,382.066Z" transform="translate(-269.243 -232.081)" opacity="0.1"/>
    <path id="Tracé_3353" data-name="Tracé 3353" d="M441.206,391.212l-12.311-14.165a5.16,5.16,0,0,0-4.885-.36c-2.756,1.194-6.18,2.161-7.074,2.756a55.2,55.2,0,0,0-4.245,4.278l9.98,26.108-4.4,17.2s.672,8.786-1.04,11.988a13.157,13.157,0,0,0-1.417,6.625s.522,4.245-.073,6.475a10.786,10.786,0,0,0-.077,4.541s35.368,1.489,39.832,0a38.108,38.108,0,0,1,7.969-1.785s-.809-14.893-1.619-18.467.672-17.2.672-17.2l-.967-14.594,5.8-14.974s-3.145-9.6-6.423-10.567a63.644,63.644,0,0,1-7.22-2.084,25.315,25.315,0,0,0-4.99-1.267l-1.955.656Z" transform="translate(-251.832 -231.17)" fill="#6c63ff"/>
    <rect id="Rectangle_1291" data-name="Rectangle 1291" width="28.346" height="43.377" rx="2.94" transform="translate(179.458 171.108) rotate(3.89)" opacity="0.1"/>
    <rect id="Rectangle_1292" data-name="Rectangle 1292" width="28.346" height="43.377" rx="2.94" transform="translate(180.35 170.219) rotate(3.89)" fill="#3f3d56"/>
    <rect id="Rectangle_1293" data-name="Rectangle 1293" width="24.696" height="37.323" transform="translate(181.95 173.592) rotate(3.89)" fill="#fff"/>
    <rect id="Rectangle_1294" data-name="Rectangle 1294" width="20.176" height="5.623" transform="translate(184.253 183.363) rotate(4.004)" opacity="0.1"/>
    <rect id="Rectangle_1295" data-name="Rectangle 1295" width="3.201" height="2.93" transform="translate(200.458 206.846) rotate(3.89)" opacity="0.1"/>
    <rect id="Rectangle_1296" data-name="Rectangle 1296" width="16.387" height="2.93" transform="translate(184.152 198.896) rotate(3.89)" opacity="0.1"/>
    <rect id="Rectangle_1297" data-name="Rectangle 1297" width="17.063" height="4.504" transform="translate(186.516 172.718) rotate(3.89)" fill="#3f3d56"/>
    <rect id="Rectangle_1298" data-name="Rectangle 1298" width="17.063" height="4.504" transform="translate(186.516 172.718) rotate(3.89)" opacity="0.1"/>
    <path id="Tracé_3354" data-name="Tracé 3354" d="M478.067,572.56s-.15,22.041-5.957,34.7c0,0,7-16.678,7-17.346s3.869-7.669,2.833-9.754S478.067,572.56,478.067,572.56Z" transform="translate(-287.204 -348.346)" opacity="0.1"/>
    <path id="Tracé_3355" data-name="Tracé 3355" d="M466.542,301.734a8.285,8.285,0,0,1,1.348-5.549,6.836,6.836,0,0,0,5.286,7.2.894.894,0,0,1-.255-.979,29.963,29.963,0,0,0,2.4,2.878,3.2,3.2,0,0,0,3.452.733c1.5-.809,1.518-2.942,1.129-4.6a21.612,21.612,0,0,0-4.974-9.5,6.581,6.581,0,0,0-5.221-2.655,12.843,12.843,0,0,0-6.747,1.056,17.927,17.927,0,0,0-3.238,2.262l-5.666,4.622a5.378,5.378,0,0,0-1.376,1.449,3.966,3.966,0,0,0-.429,1.518,8.179,8.179,0,0,0,3.812,7.718,6.034,6.034,0,0,1,3.614-5.666,1.57,1.57,0,0,1,.563,1.17l1.194-2.129a2.343,2.343,0,0,1,.809-.959,2.114,2.114,0,0,1,2.283.643,4.075,4.075,0,0,0,2.08,1.372l.032-3.169" transform="translate(-275.362 -179.671)" opacity="0.1"/>
    <path id="Tracé_3356" data-name="Tracé 3356" d="M466.566,300.634a8.289,8.289,0,0,1,1.348-5.553,6.84,6.84,0,0,0,5.29,7.2.886.886,0,0,1-.255-.975,30.481,30.481,0,0,0,2.4,2.877,3.179,3.179,0,0,0,3.452.728c1.5-.809,1.518-2.942,1.129-4.6a21.612,21.612,0,0,0-4.974-9.5,7.961,7.961,0,0,0-2.78-2.161,8.093,8.093,0,0,0-2.428-.494A12.841,12.841,0,0,0,463,289.217a18.154,18.154,0,0,0-3.238,2.266L454.1,296.1a5.323,5.323,0,0,0-1.376,1.449,3.945,3.945,0,0,0-.429,1.518,8.175,8.175,0,0,0,3.812,7.714,6.042,6.042,0,0,1,3.614-5.666,1.582,1.582,0,0,1,.563,1.17l1.19-2.121a2.319,2.319,0,0,1,.809-.959,2.113,2.113,0,0,1,2.283.643,4.1,4.1,0,0,0,2.08,1.372l.032-3.173" transform="translate(-275.386 -179.015)" fill="#3f3d56"/>
    <path id="Tracé_3357" data-name="Tracé 3357" d="M448.665,470.83c-1.04-.526-18.24,2.157-18.24,2.157a98.432,98.432,0,0,0-9.681-1.935c-6.848-1.125-7.285-7.819-7.285-7.819l-.749-13.4,2.311-2.024,9.9,6.475a31.985,31.985,0,0,1,0,3.865,5.447,5.447,0,0,0-.332,1.214.4.4,0,0,0,.332.364c.672.17,9.826,1.651,9.826,1.651s21.219-1.453,26.509,5.694a5.373,5.373,0,0,1,.935,1.765C463.5,473.724,449.608,471.3,448.665,470.83Z" transform="translate(-251.844 -274.085)" fill="#fbbebe"/>
    <path id="Tracé_3358" data-name="Tracé 3358" d="M479.211,485.9c-.809.36-1.311.619-1.311.619s-7.592-.223-11.858-1.769a27.853,27.853,0,0,0-9.45-1.271s-17.775-3.06-15.019-7.054a.4.4,0,0,0,.332.364c.672.17,9.826,1.651,9.826,1.651s21.219-1.453,26.509,5.694a5.373,5.373,0,0,1,.971,1.765Z" transform="translate(-268.853 -291.122)" opacity="0.1"/>
    <path id="Tracé_3359" data-name="Tracé 3359" d="M486.613,441.58s1.044,7.37,1.117,7.969.449,7.815,0,8.637-1.117,2.157-1.117,2.157.745,1.562-2.234,2.161a30.574,30.574,0,0,0-6.475,2.38s-7.6-.223-11.838-1.785a27.319,27.319,0,0,0-9.454-1.267s-22.563-3.873-12.882-8.6a14.9,14.9,0,0,1,16.529,1.676l10.794-.668s4.023-2.461,5.14-2.234a4.132,4.132,0,0,0,2.307-.372l.077-7.819Z" transform="translate(-268.872 -270.376)" fill="#fbbebe"/>
    <path id="Tracé_3360" data-name="Tracé 3360" d="M405.189,396.713l-2.161-.113-6.548,25.5s7.07-1.789,10.118,0,8.637,2.157,8.637,2.157l-2.084-20.325Z" transform="translate(-242.182 -243.6)" opacity="0.1"/>
    <path id="Tracé_3361" data-name="Tracé 3361" d="M405.189,395.6l-2.161-.113-6.548,25.5s7.07-1.789,10.118,0,8.637,2.157,8.637,2.157l-2.084-20.325Z" transform="translate(-242.182 -242.939)" fill="#6c63ff"/>
    <path id="Tracé_3362" data-name="Tracé 3362" d="M533.347,409.57l2.975.672s7.6,10.927,8.191,11.538-2.833,2.833-4.245,2.833-8.337.809-10.349,2.679-1.174-7.54-1.174-7.754,2.5-6.152,2.5-6.152Z" transform="translate(-320.815 -251.321)" opacity="0.1"/>
    <path id="Tracé_3363" data-name="Tracé 3363" d="M533.347,408.47l2.975.668s7.6,10.947,8.191,11.542-2.833,2.833-4.245,2.833-8.337.809-10.349,2.679-1.174-7.54-1.174-7.754,2.513-6.172,2.513-6.172Z" transform="translate(-320.815 -250.666)" fill="#6c63ff"/>
    <g id="Groupe_1631" data-name="Groupe 1631" transform="translate(176.871 115.171)" opacity="0.1">
      <path id="Tracé_3364" data-name="Tracé 3364" d="M467.892,304.061a5.974,5.974,0,0,1,.02-.931,8.284,8.284,0,0,0-1.246,3.056v1.129c0,.656,0,1.315-.02,1.971h-.057v.3a1.616,1.616,0,0,0-.02-.312,4.3,4.3,0,0,1-1.991-1.352c-.6-.542-1.546-1.06-2.283-.644a2.32,2.32,0,0,0-.809.959l-1.2,2.121a1.566,1.566,0,0,0-.563-1.166,6.034,6.034,0,0,0-3.614,5.666,8.224,8.224,0,0,1-3.841-6.447,8.183,8.183,0,0,0,3.841,7.337,6.042,6.042,0,0,1,3.614-5.666,1.583,1.583,0,0,1,.563,1.17l1.19-2.121a2.319,2.319,0,0,1,.809-.959,2.113,2.113,0,0,1,2.283.643,4.1,4.1,0,0,0,2.08,1.372q0-1.554.032-3.1A8.244,8.244,0,0,1,467.892,304.061Z" transform="translate(-452.256 -303.13)"/>
      <path id="Tracé_3365" data-name="Tracé 3365" d="M487.5,312.666c.02-.275.053-.55.093-.809l.045-1.117A8.189,8.189,0,0,0,487.5,312.666Z" transform="translate(-473.229 -307.66)"/>
      <path id="Tracé_3366" data-name="Tracé 3366" d="M509.158,322.126a3.186,3.186,0,0,1-3.452-.728,29.967,29.967,0,0,1-2.4-2.878.9.9,0,0,0,.255.979.953.953,0,0,1-.235-.061,26.742,26.742,0,0,0,2.384,2.833,3.213,3.213,0,0,0,3.452.728c1.1-.591,1.421-1.975,1.323-3.323A2.81,2.81,0,0,1,509.158,322.126Z" transform="translate(-482.611 -312.291)"/>
      <path id="Tracé_3367" data-name="Tracé 3367" d="M495.93,311.924a6.88,6.88,0,0,1-5.043-6.014,6.836,6.836,0,0,0,5.3,6.973A.89.89,0,0,1,495.93,311.924Z" transform="translate(-475.244 -304.785)"/>
    </g>
    <path id="Tracé_3368" data-name="Tracé 3368" d="M856.749,353.214s-1.595-.223-1.595-2.542a36.465,36.465,0,0,0-1.141-6.662h0s-.988-7.556-2.351-8.754-3.116-8.232-3.116-8.232-.3-3.816-.911-4.638a39.4,39.4,0,0,1-2.655-5.7c-1.218-2.869-6.285-4.836-6.285-4.836s-9.183-5.326-11.785-7.062h0a4.026,4.026,0,0,1-.664-.5c-.453-.591-2.428-.6-2.428-.6a39.989,39.989,0,0,1-.469-4.16v-.437a14,14,0,0,0,6.156-7.617c.048-.154.089-.312.133-.469a1.316,1.316,0,0,0,.81-.712,14.269,14.269,0,0,1,.53-1.619,6,6,0,0,1,1.5-1.311,5.675,5.675,0,0,0,1.558-4.61c-.04-1.36-.259-2.728-.174-4.076a1.6,1.6,0,0,1,.024-.34c.024-.2.053-.4.089-.6.2-1,.631-1.951.874-2.946a3.79,3.79,0,0,0-.3-2.975c-.83-1.259-2.558-1.51-4.075-1.619-1.72-.146-3.238.04-4.359-1.388a15.257,15.257,0,0,0-1.732-2.088c-.227-.21-2.428-1.558-2.428-1.643a9.839,9.839,0,0,0-6.88-.53c-1.145.332-2.218.874-3.379,1.145-2.493.591-5.367-.049-7.487,1.38a8.835,8.835,0,0,0-2.554,3.351q-.81,1.546-1.643,3.1a19.925,19.925,0,0,0-2.181,5.3,8.987,8.987,0,0,0-.15,1.242h0v.643a2.22,2.22,0,0,0,.024.4,2.31,2.31,0,0,0,.028.251c.028.085.036.275.061.4s.073.36.121.534a.821.821,0,0,0,.073.227c.024.077.089.271.142.4s.057.142.089.21a3.809,3.809,0,0,0,.206.4c.032.053.057.105.089.158a4.587,4.587,0,0,0,.372.542c.862,1.081,2.141,1.769,3.084,2.78v.453a13.853,13.853,0,0,0,6.346,11.292c0,.154.02.312.028.469a23.1,23.1,0,0,1-.044,3.6,1.708,1.708,0,0,0-1.344-.6,1.926,1.926,0,0,0-.518.044l-.036-.028h0v.036c-.89.219-1.987,1.145-3.035,3.78,0,0-3.189,3.594-5.617,3.444s-8.576,3.744-8.576,3.744-6,3.889-7.285,7.856A54.915,54.915,0,0,1,779.3,327.7l-7.435,15.266h0L770.5,355.108a56.134,56.134,0,0,1,.607,6.212c-.15.826,3.112,8.232,3.112,8.232S785,388.485,789.4,389.456l.316-.219a2.756,2.756,0,0,0,.595.219l.907-.635a9.478,9.478,0,0,1-.073,2.133c-.6,1.874.231,14.072,1.291,16.464s.684,33.757.684,33.757l-.15,2.764a1.173,1.173,0,0,0,.036.243l-.036.656.109.057a7.823,7.823,0,0,1-.109,2.639,29.261,29.261,0,0,0-.534,4.642s-3.035,19.378-1.595,23.271S793.5,483.6,793.5,483.6s1.518,4.857.073,5.666-5.536,2.246-4.7,4.266c.769,1.87,3.687,6.88,4.12,7.613l-.036.4L792.358,508a8.092,8.092,0,0,0,.684,2.461,4.231,4.231,0,0,0,4.326,2.7c.4-.028.87-.073,1.328-.133a57.521,57.521,0,0,0,9.83-2.562,3.88,3.88,0,0,1-.765-.635h0a2.222,2.222,0,0,1-.676-1.619c.065-1.178-2.133-6.767-2.683-8.147l-.125-.308s5.01-5.241,4.177-9.879c0,0-5.545-3.238-3.719-5.018a56.871,56.871,0,0,0,5.087-6.88s.15-19.082,0-21.927a23.633,23.633,0,0,1,.279-5.925c.061-.291.134-.579.211-.866a51.7,51.7,0,0,0,7.633.579q1.4,0,2.833-.057,0,.4.037.874c.21,4.727.6,13.02.923,16.1.453,4.411,2.958,16.314,2.958,16.314s-4.78,3.064.834,10.628c0,0,0,2.736-.372,3.137h0a34.243,34.243,0,0,0-.959,3.954,6.948,6.948,0,0,0,.049,3.61c.911,1.789,6.374,1.643,6.374,1.643h0a.868.868,0,0,1,.134-.02,7.8,7.8,0,0,1,5.783,1.74c2.076,1.667,9.952.939,14.222.4,1.672-.215,2.789-.4,2.789-.4a1.64,1.64,0,0,0,.057-.583h0c-.045-1.048-.866-3.347-6.435-5.4,0,0-5.237-3.521-5.164-6.589h-.72c.38-.012.648-.012.648-.012s-2.052-7.483-1.214-8.094-1.671-8.9-1.671-8.9-1.437-13.922-1.518-14.893a8.559,8.559,0,0,1,.38-2.469l-.38-7.637s-.073-2.538,0-3.363a15.8,15.8,0,0,0-.17-2.141c-.036-.283-.073-.579-.113-.87,1.963-.5,3.238-.955,3.238-.955l-.227-26.569c1.667-3.238,1.975-10.345,1.967-15.379,0-3.238-.146-5.634-.146-5.634l2.279-3.719s.526-4.452-.308-5.427a.934.934,0,0,1,.1-1.275,4.242,4.242,0,0,1,.506-.356.64.64,0,0,1-.053-.089,4.013,4.013,0,0,1,.506-.36s-.809-1.255-.085-1.785c.68.461,1.287.83,1.748,1.093-.032.3-.065.465-.065.465l.194-.4.716.4s3.57-7.111,3.493-8.155,2.428-5.464,2.428-5.464.3-2.323,1.671-3.294,1.06-8.009,1.06-8.009.38-3.667,1.291-5.16S856.749,353.214,856.749,353.214Zm-68.3-3.12.069,1.7c-.4-.652-.7-1.117-.7-1.117Z" transform="translate(-464.831 -164.757)" fill="url(#linear-gradient-2)"/>
    <path id="Tracé_3369" data-name="Tracé 3369" d="M947.72,543.982l-.874,3.723s-7-3.582-8.26-8.115,2.109-6.261,2.109-6.261l6.528,2.76Z" transform="translate(-564.723 -324.993)" fill="#fff"/>
    <path id="Tracé_3370" data-name="Tracé 3370" d="M947.72,543.982l-.874,3.723s-7-3.582-8.26-8.115,2.109-6.261,2.109-6.261l6.528,2.76Z" transform="translate(-564.723 -324.993)" opacity="0.1"/>
    <path id="Tracé_3371" data-name="Tracé 3371" d="M841.175,851.1s-6.475,2.38-10.927,2.679A4.158,4.158,0,0,1,826,851.1a8.216,8.216,0,0,1-.672-2.428l.587-6.415.308-3.412,9.458-2.461,1.34,4.1.125.308c.534,1.372,2.7,6.933,2.631,8.094a2.221,2.221,0,0,0,.66,1.619A3.76,3.76,0,0,0,841.175,851.1Z" transform="translate(-497.471 -505.395)" fill="#fff"/>
    <path id="Tracé_3372" data-name="Tracé 3372" d="M930.987,847.187a1.619,1.619,0,0,1-.057.583s-13.849,2.307-16.682,0a7.5,7.5,0,0,0-5.812-1.712s-5.358.146-6.253-1.619a7.012,7.012,0,0,1-.044-3.59,34.423,34.423,0,0,1,.939-3.934l.215-.17,1.275-1.024,14.926-.441h.113c-.073,3.052,5.063,6.552,5.063,6.552C930.138,843.856,930.943,846.143,930.987,847.187Z" transform="translate(-543.073 -504.74)" fill="#fff"/>
    <path id="Tracé_3373" data-name="Tracé 3373" d="M930.988,855.372a1.667,1.667,0,0,1-.061.583s-13.849,2.307-16.678,0a7.5,7.5,0,0,0-5.816-1.712s-5.362.146-6.257-1.619a7.07,7.07,0,0,1-.044-3.594c2.064.206,5.322.72,6.6,1.951,1.935,1.862,5.213,3.723,7.22,3.873C917.539,854.951,926.973,855.25,930.988,855.372Z" transform="translate(-543.069 -512.925)" opacity="0.1"/>
    <path id="Tracé_3374" data-name="Tracé 3374" d="M842.163,871.849s-6.475,2.38-10.927,2.679a4.157,4.157,0,0,1-4.245-2.687c1.651.554,3.938,1.133,5.14.6,1.425-.635,6.475-1.04,9.308-1.214a3.683,3.683,0,0,0,.724.619Z" transform="translate(-498.459 -526.141)" opacity="0.1"/>
    <path id="Tracé_3375" data-name="Tracé 3375" d="M872.384,363.147c-5.342-2.076-12.214-8.936-10.5-12.141a7.259,7.259,0,0,0,.668-2.574,23.494,23.494,0,0,0,.048-3.642,50.015,50.015,0,0,0-.716-5.929s16.678.376,15.707,2.833a9.115,9.115,0,0,0-.251,3.371c.081,1.4.279,2.987.49,4.326.287,1.833.583,3.238.583,3.238s-1.024,1.429-1.619,1.506S880.049,366.122,872.384,363.147Z" transform="translate(-519.072 -209.228)" fill="#cf6f80"/>
    <path id="Tracé_3376" data-name="Tracé 3376" d="M837.971,840.737l-.125.138c-4.986-6.03-11.016,1.489-11.016,1.489l-.089-.162.308-3.412,9.458-2.461,1.34,4.1Z" transform="translate(-498.31 -505.365)" opacity="0.1"/>
    <path id="Tracé_3377" data-name="Tracé 3377" d="M921.314,835.681s-3.642-.073-5.585,1.643-11.332.368-10.927,0a1.4,1.4,0,0,0,.21-.619l1.275-1.024,14.926-.441C921.269,835.523,921.314,835.681,921.314,835.681Z" transform="translate(-544.771 -504.716)" opacity="0.1"/>
    <path id="Tracé_3378" data-name="Tracé 3378" d="M838.11,707.563a11.353,11.353,0,0,0-.615,2.076,23.763,23.763,0,0,0-.279,5.893c.15,2.833,0,21.818,0,21.818a57.767,57.767,0,0,1-4.99,6.848c-1.789,1.785,3.643,4.99,3.643,4.99.809,4.618-4.1,9.831-4.1,9.831-4.986-6.03-11.016,1.485-11.016,1.485s-3.278-5.666-4.1-7.69,3.2-3.42,4.614-4.245-.073-5.666-.073-5.666-1.19-4.245-2.606-8.119,1.562-23.15,1.562-23.15a29.921,29.921,0,0,1,.522-4.622,7.827,7.827,0,0,0,.109-2.622c-.024-.3-.053-.538-.073-.708s-.036-.243-.036-.243l.057-.1,2.024-3.772S839.081,705.187,838.11,707.563Z" transform="translate(-492.245 -423.954)" fill="#6c63ff"/>
    <path id="Tracé_3379" data-name="Tracé 3379" d="M914.879,760.325s-3.642-.077-5.585,1.619-11.332.372-10.927,0,.368-3.124.368-3.124c-5.508-7.524-.81-10.575-.81-10.575s-2.457-11.838-2.9-16.229c-.312-3.064-.7-11.332-.9-16.015-.089-2.023-.142-3.42-.142-3.42l4.46-.886.579-.113,10.854-2.182s.3,2.024.5,3.679a16.181,16.181,0,0,1,.166,2.133c-.069.81,0,3.347,0,3.347l.372,7.592a8.757,8.757,0,0,0-.372,2.457c.077.971,1.489,14.817,1.489,14.817s2.457,8.264,1.619,8.859S914.879,760.325,914.879,760.325Z" transform="translate(-538.337 -429.805)" fill="#6c63ff"/>
    <path id="Tracé_3380" data-name="Tracé 3380" d="M877.987,341.723a9.114,9.114,0,0,0-.251,3.371,13.861,13.861,0,0,1-14.74-.275,50.039,50.039,0,0,0-.716-5.929S878.958,339.266,877.987,341.723Z" transform="translate(-519.467 -209.246)" opacity="0.1"/>
    <path id="Tracé_3381" data-name="Tracé 3381" d="M876.271,303.439a13.846,13.846,0,1,1-27.69.332c0-.113,0-.219,0-.332a13.849,13.849,0,1,1,27.7,0Z" transform="translate(-511.311 -179.898)" fill="#cf6f80"/>
    <path id="Tracé_3382" data-name="Tracé 3382" d="M872.384,377.225c-5.342-2.076-12.214-8.936-10.5-12.141a7.258,7.258,0,0,0,.668-2.574l7.313,6.014,4.525,3.711,3.44-8.754c.287,1.833.583,3.238.583,3.238s-1.024,1.429-1.619,1.506S880.049,380.2,872.384,377.225Z" transform="translate(-519.072 -223.307)" opacity="0.1"/>
    <path id="Tracé_3383" data-name="Tracé 3383" d="M867.96,384.32l-6.107,102.6-7.965.522L833.26,427.948l3.383-70.627.716-14.922,9.171,7.532,4.525,3.711,3.541-9.013,6.585,5.739Z" transform="translate(-495.736 -203.824)" fill="#6c63ff"/>
    <path id="Tracé_3384" data-name="Tracé 3384" d="M844.169,707.611a11.341,11.341,0,0,0-.615,2.076,58.683,58.683,0,0,1-16.715-5.217l-.109-.057.036-.652v-.34l2.024-3.772S845.14,705.235,844.169,707.611Z" transform="translate(-498.304 -424.001)" opacity="0.1"/>
    <path id="Tracé_3385" data-name="Tracé 3385" d="M898.538,718.882a40.993,40.993,0,0,1-4.476.514c-.089-2.024-.142-3.42-.142-3.42l4.484-.907Z" transform="translate(-538.301 -433.181)" opacity="0.1"/>
    <path id="Tracé_3386" data-name="Tracé 3386" d="M917.826,713.079a31.424,31.424,0,0,1-11.3,1.065l-.057-2.562,10.854-2.182S917.612,711.407,917.826,713.079Z" transform="translate(-545.772 -429.805)" opacity="0.1"/>
    <path id="Tracé_3387" data-name="Tracé 3387" d="M829.227,507.148c-16.593,2.833-31.79-5.29-31.79-5.29l.146-2.752s.376-31.2-.668-33.591-1.858-14.5-1.267-16.355-2.157-29.775-2.157-29.775l-.445-11.332-16.306-6.625,7.285-15.189a54.868,54.868,0,0,0,2.533-6.556c1.267-3.946,7.147-7.819,7.147-7.819s6.03-3.869,8.414-3.723,5.508-3.424,5.508-3.424c2.307-5.88,4.4-3.238,4.4-3.238a5.2,5.2,0,0,1-.113.87C811.1,368.8,825,389.2,825.2,389.566h0l1.34,32.24,1.34,40.8Z" transform="translate(-468.546 -222.34)" opacity="0.1"/>
    <path id="Tracé_3388" data-name="Tracé 3388" d="M828.11,507.148c-16.593,2.833-31.794-5.29-31.794-5.29l.15-2.752s.372-31.2-.672-33.591S793.935,451,794.53,449.132s-2.169-29.763-2.169-29.763l-.449-11.332-16.3-6.625,7.285-15.189a55.745,55.745,0,0,0,2.534-6.552c1.267-3.934,7.167-7.811,7.167-7.811s6.03-3.869,8.41-3.723,5.52-3.42,5.52-3.42c2.311-5.88,4.857-3.238,4.857-3.238,0,.283-.243.4-.113.87,1.781,6.261,12.643,26.853,12.842,27.217h0l1.34,32.24,1.311,40.82Z" transform="translate(-467.873 -222.34)" fill="#fff"/>
    <path id="Tracé_3389" data-name="Tracé 3389" d="M871.8,391.836c-1.785-.745-11.239-11.538-11.239-11.538v-2.457c-.344-.809-2.392-.316-4.047.251l.712-14.922.809.672C859.8,370.1,871.6,391.476,871.8,391.836Z" transform="translate(-516.032 -223.7)" opacity="0.1"/>
    <path id="Tracé_3390" data-name="Tracé 3390" d="M872.9,389.654c-1.789-.749-11.243-11.538-11.243-11.538v-2.461c-.344-.809-2.388-.316-4.047.251l.7-14.906.809.668C860.9,367.917,872.7,389.29,872.9,389.654Z" transform="translate(-516.687 -222.408)" fill="#fff"/>
    <path id="Tracé_3391" data-name="Tracé 3391" d="M826.541,563.05c.223,0,11.538-1.19,11.538-1.19s6.852,13.477,6.4,16.751-1.263,6.18-4.019,5.666-14.833.4-14.833.4Z" transform="translate(-497.649 -341.977)" opacity="0.1"/>
    <path id="Tracé_3392" data-name="Tracé 3392" d="M825.431,560.84c.227,0,11.542-1.19,11.542-1.19s6.848,13.5,6.4,16.735-1.267,6.18-4.019,5.666-14.837.4-14.837.4Z" transform="translate(-496.989 -340.661)" fill="#fff"/>
    <path id="Tracé_3393" data-name="Tracé 3393" d="M838.738,547s10.385,5.585,10.608,7.285-5.286-.745-6.475-1.044a15.436,15.436,0,0,0-2.384-.372l-7.936.214Z" transform="translate(-501.769 -333.131)" fill="#cf6f80"/>
    <circle id="Ellipse_39" data-name="Ellipse 39" cx="1.093" cy="1.093" r="1.093" transform="translate(351.77 166.647)" opacity="0.1"/>
    <circle id="Ellipse_40" data-name="Ellipse 40" cx="1.093" cy="1.093" r="1.093" transform="translate(351.77 166.202)" fill="#3f3d56"/>
    <circle id="Ellipse_41" data-name="Ellipse 41" cx="1.093" cy="1.093" r="1.093" transform="translate(353.781 213.95)" opacity="0.1"/>
    <circle id="Ellipse_42" data-name="Ellipse 42" cx="1.093" cy="1.093" r="1.093" transform="translate(353.781 213.501)" fill="#3f3d56"/>
    <circle id="Ellipse_43" data-name="Ellipse 43" cx="1.093" cy="1.093" r="1.093" transform="translate(352.862 190.298)" opacity="0.1"/>
    <circle id="Ellipse_44" data-name="Ellipse 44" cx="1.093" cy="1.093" r="1.093" transform="translate(352.862 189.853)" fill="#3f3d56"/>
    <path id="Tracé_3394" data-name="Tracé 3394" d="M922.047,444.175s.745,1.117,0,1.619.073,1.789.073,1.789-1.858,1.085-1.04,2.068.3,5.4.3,5.4l-2.234,3.719s.134,2.384.142,5.605c0,5.027-.3,12.093-1.931,15.314l.219,26.432s-7.823,2.861-14.371,1.987l-.971-42.414s1.417-24.052,1.939-28.666a48.01,48.01,0,0,0,.372-7.224,80.625,80.625,0,0,0-.971-10.567s-.809-14.521-.89-18.54c-.036-1.922.065-7.532.178-12.866.125-5.832.267-11.332.267-11.332l-1.477-11.692s1.477-.146,1.922.445a4.263,4.263,0,0,0,.648.5h0c2.554,1.724,11.563,7.026,11.563,7.026s4.986,1.983,6.18,4.824a42.05,42.05,0,0,0,2.6,5.666c.579.809.894,4.614.894,4.614s1.716,7,3.056,8.187,2.3,8.714,2.3,8.714l-11.838,9.308s-1.04,15.484-1.263,16.083S922.047,444.175,922.047,444.175Z" transform="translate(-542.903 -224.664)" fill="#fff"/>
    <path id="Tracé_3395" data-name="Tracé 3395" d="M922.479,443.966s.741,1.117,0,1.619.069,1.789.069,1.789-1.858,1.085-1.04,2.068.3,5.4.3,5.4l-2.226,3.719s.134,2.384.146,5.605c0,5.027-.3,12.093-1.93,15.314l.223,26.432s-7.823,2.861-14.371,1.987l-.967-42.414s1.413-24.052,1.939-28.666a47.594,47.594,0,0,0,.368-7.224,81.122,81.122,0,0,0-.967-10.567s-.809-14.521-.894-18.54c-.036-1.922.065-7.532.178-12.866.126-5.832.267-11.332.267-11.332l-1.951-11.85s1.951,0,2.4.6a3.843,3.843,0,0,0,.648.5h0c2.55,1.724,11.559,7.026,11.559,7.026s4.974,1.983,6.188,4.824a44.882,44.882,0,0,0,2.6,5.666c.579.809.894,4.614.894,4.614s1.716,7,3.056,8.187,2.307,8.714,2.307,8.714l-11.838,9.308s-1.04,15.484-1.267,16.083S922.479,443.966,922.479,443.966Z" transform="translate(-542.885 -224.456)" fill="#fff"/>
    <path id="Tracé_3396" data-name="Tracé 3396" d="M908.951,381.036l1.073,3.116-5.63,5.666c.125-5.832.267-11.332.267-11.332L902.71,366.64s1.951,0,2.4.6a3.841,3.841,0,0,0,.648.5h0l4.784,13.8Z" transform="translate(-543.534 -225.765)" opacity="0.1"/>
    <path id="Tracé_3397" data-name="Tracé 3397" d="M907.821,378.814l1.072,3.112-5.626,5.666c.121-5.832.267-11.332.267-11.332l-1.955-11.85s1.955,0,2.4.6a4.048,4.048,0,0,0,.648.5h0l4.812,13.809Z" transform="translate(-542.861 -224.438)" fill="#fff"/>
    <path id="Tracé_3398" data-name="Tracé 3398" d="M876.271,303.439a13.806,13.806,0,0,1-.68,4.294.575.575,0,0,1-.437-.105c-.109-3.642-1.9-7.066-4.1-9.976a10.569,10.569,0,0,0-2.226-2.307,4.359,4.359,0,0,0-3.019-.854c-1.214.166-2.287.992-3.513,1.1-1.619.134-3.068-.988-4.674-1.04a4.581,4.581,0,0,0-3.436,1.595,9.373,9.373,0,0,0-1.841,3.412,19.984,19.984,0,0,0-1.028,5.893c-.02,1.133-.13,2.554-1.182,2.966A6.03,6.03,0,0,0,848.6,303.8l-.024-.028v-.332a13.849,13.849,0,1,1,27.7,0Z" transform="translate(-511.311 -179.898)" opacity="0.1"/>
    <path id="Tracé_3399" data-name="Tracé 3399" d="M861.979,268.146a9.535,9.535,0,0,0-6.726-.526c-1.121.332-2.177.87-3.315,1.141-2.428.587-5.261-.049-7.346,1.372a8.768,8.768,0,0,0-2.5,3.335l-1.619,3.08a20.01,20.01,0,0,0-2.141,5.261,6.729,6.729,0,0,0,1.032,5.435c.854,1.085,2.125,1.769,3.056,2.793a6.071,6.071,0,0,1,1.522,4.626c1.052-.4,1.157-1.833,1.182-2.967a20.013,20.013,0,0,1,1.028-5.893,9.375,9.375,0,0,1,1.841-3.412,4.585,4.585,0,0,1,3.436-1.6c1.619.057,3.072,1.178,4.674,1.04,1.214-.1,2.291-.927,3.513-1.093a4.338,4.338,0,0,1,3.019.854,10.366,10.366,0,0,1,2.222,2.307c2.21,2.914,4,6.322,4.108,9.976.457.332,1.117-.105,1.344-.623a14.779,14.779,0,0,1,.522-1.619,5.984,5.984,0,0,1,1.465-1.307,5.728,5.728,0,0,0,1.53-4.585,22.847,22.847,0,0,1-.057-4.986c.19-1,.619-1.943.854-2.934a3.836,3.836,0,0,0-.291-2.958c-.809-1.251-2.513-1.5-4-1.619-1.688-.146-3.2.04-4.274-1.38a15.816,15.816,0,0,0-1.7-2.08C864.136,269.571,861.979,268.235,861.979,268.146Z" transform="translate(-505.113 -166.593)" fill="#512e4e"/>
    <path id="Tracé_3400" data-name="Tracé 3400" d="M780.095,468.865l-4.225-7.815-1.34,12.06a55.912,55.912,0,0,1,.595,6.18c-.15.822,3.052,8.187,3.052,8.187s10.575,18.839,14.893,19.807l14.57-10.425-3.869-4.913s-1.34-.522-1.675,0c0,0-7.188-12.36-7.928-13.25a4.5,4.5,0,0,1-.6-2.683s-1.117-1.19-.745-2.307-2.137-4.986-2.137-4.986l2.307-2.157Z" transform="translate(-467.23 -281.966)" opacity="0.1"/>
    <path id="Tracé_3401" data-name="Tracé 3401" d="M774.777,458.84l-1.117.894-1.34,12.06a55.937,55.937,0,0,1,.6,6.18c-.15.822,3.055,8.187,3.055,8.187S786.542,505,790.86,505.969l14.594-10.425-3.873-4.913s-1.34-.522-1.676,0c0,0-7.184-12.36-7.928-13.25a4.457,4.457,0,0,1-.595-2.683s-1.117-1.19-.745-2.307-2.161-4.986-2.161-4.986l2.307-2.157Z" transform="translate(-465.915 -280.651)" fill="#fff"/>
    <path id="Tracé_3402" data-name="Tracé 3402" d="M937.235,565.024c.809.984.3,5.4.3,5.4l-2.234,3.695s.134,2.388.142,5.609l-3.756,1.174a2.234,2.234,0,0,1-2.9-2.2l.652-20.883,8.762,3.347c-.745.518.073,1.789.073,1.789S936.417,564.041,937.235,565.024Z" transform="translate(-559.057 -339.572)" opacity="0.1"/>
    <path id="Tracé_3403" data-name="Tracé 3403" d="M938.347,563.918c.809.979.3,5.4.3,5.4l-2.226,3.7s.134,2.384.146,5.605l-3.825,1.194a2.182,2.182,0,0,1-2.833-2.149l.652-20.956,8.758,3.355c-.749.518.069,1.789.069,1.789S937.529,562.935,938.347,563.918Z" transform="translate(-559.724 -338.911)" fill="#fff"/>
    <path id="Tracé_3404" data-name="Tracé 3404" d="M947.627,545.107s-.595,3.8-2.084,4.023-2.157,6.148-3.643,5.941-.5-5.512-.449-6.54-1.619-5.286-.372-6.253,5.213,0,5.213,0Z" transform="translate(-566.099 -330.064)" fill="#cf6f80"/>
    <path id="Tracé_3405" data-name="Tracé 3405" d="M948.483,469.266l2.8-5.666a36.664,36.664,0,0,1,1.121,6.625c0,2.307,1.562,2.534,1.562,2.534s1.712,2.024.809,3.5-1.263,5.136-1.263,5.136.3,7-1.044,7.965-1.639,3.278-1.639,3.278-2.457,4.391-2.38,5.435-3.424,8.115-3.424,8.115,1.712-8.786-8.264-12.583c0,0-.077-2.979.668-3.8s1.906-1.214,1.178-5.326-.211-9.07-.211-10.061,2.234-7.172,2.234-7.172Z" transform="translate(-563.806 -283.484)" opacity="0.1"/>
    <path id="Tracé_3406" data-name="Tracé 3406" d="M951.07,461.6l2.453.809a36.663,36.663,0,0,1,1.121,6.625c0,2.307,1.562,2.534,1.562,2.534s1.712,2.024.809,3.5-1.267,5.136-1.267,5.136.3,7-1.04,7.965-1.619,3.278-1.619,3.278-2.457,4.391-2.38,5.435S947.281,505,947.281,505s1.712-8.786-8.264-12.583c0,0-.073-2.979.672-3.8s1.906-1.214,1.178-5.326-.211-9.07-.211-10.061,2.234-7.172,2.234-7.172Z" transform="translate(-565.146 -282.294)" fill="#fff"/>
    <path id="Tracé_3407" data-name="Tracé 3407" d="M834.92,822.526s3.91-2.457,6.475-.672S834.92,822.526,834.92,822.526Z" transform="translate(-503.179 -496.361)" opacity="0.1"/>
    <path id="Tracé_3408" data-name="Tracé 3408" d="M910,805.668a7.914,7.914,0,0,1,6.366,2.683C919.272,811.48,910,805.668,910,805.668Z" transform="translate(-547.874 -487.099)" opacity="0.1"/>
    <g id="Groupe_1632" data-name="Groupe 1632" transform="translate(333.05 109.558)" opacity="0.1">
      <path id="Tracé_3409" data-name="Tracé 3409" d="M880.8,307.96c-.5.433-1.137.737-1.469,1.307a15.086,15.086,0,0,0-.518,1.619c-.227.522-.886.955-1.348.623-.105-3.642-1.9-7.062-4.1-9.976a10.349,10.349,0,0,0-2.222-2.3,4.351,4.351,0,0,0-3.023-.858c-1.214.166-2.283.992-3.509,1.1-1.619.134-3.072-.988-4.679-1.04a4.565,4.565,0,0,0-3.432,1.595,9.373,9.373,0,0,0-1.842,3.412,20.013,20.013,0,0,0-1.028,5.893c-.024,1.129-.129,2.538-1.174,2.958a5.612,5.612,0,0,1,0,.9c1.056-.4,1.161-1.833,1.186-2.967a20.009,20.009,0,0,1,1.028-5.893,9.372,9.372,0,0,1,1.841-3.412,4.581,4.581,0,0,1,3.432-1.6c1.619.057,3.076,1.178,4.678,1.04,1.214-.1,2.291-.927,3.509-1.093a4.351,4.351,0,0,1,3.023.854,10.368,10.368,0,0,1,2.222,2.307c2.206,2.914,4,6.322,4.1,9.976.461.332,1.121-.105,1.348-.623a15.694,15.694,0,0,1,.518-1.619,6,6,0,0,1,1.469-1.307,5.728,5.728,0,0,0,1.53-4.585v-.154A5.322,5.322,0,0,1,880.8,307.96Z" transform="translate(-846.665 -294.673)"/>
      <path id="Tracé_3410" data-name="Tracé 3410" d="M842.406,312.407c-.927-1.024-2.2-1.712-3.052-2.8a5.873,5.873,0,0,1-1.178-3.311,6.237,6.237,0,0,0,1.178,4.205c.854,1.085,2.125,1.769,3.052,2.792a6.071,6.071,0,0,1,1.53,3.61A6.071,6.071,0,0,0,842.406,312.407Z" transform="translate(-838.155 -299.404)"/>
      <path id="Tracé_3411" data-name="Tracé 3411" d="M926.777,290.041c-.239.992-.664,1.935-.858,2.934a9.371,9.371,0,0,0-.125,2.048,7.861,7.861,0,0,1,.125-1.153c.194-1,.619-1.943.858-2.934a5.081,5.081,0,0,0,.134-1.676A5.6,5.6,0,0,1,926.777,290.041Z" transform="translate(-890.318 -289.26)"/>
    </g>
    <ellipse id="Ellipse_45" data-name="Ellipse 45" cx="39.435" cy="6.334" rx="39.435" ry="6.334" transform="translate(14.574 326.841)" fill="#6c63ff" opacity="0.1"/>
    <rect id="Rectangle_1299" data-name="Rectangle 1299" width="2.538" height="57.134" transform="translate(52.743 211.837)" fill="#535461"/>
    <path id="Tracé_3412" data-name="Tracé 3412" d="M140.568,677.027l-.162,2.574-.223,3.642-.093,1.514-.227,3.642-.1,1.514-.223,3.642-2.562,41.309A6.993,6.993,0,0,1,130,741.429H116.7a6.989,6.989,0,0,1-6.981-6.593l-2.562-41.309-.223-3.642-.093-1.514-.231-3.642-.093-1.514-.223-3.642L106.131,677a3.643,3.643,0,0,1,3.618-3.849h27.2a3.642,3.642,0,0,1,3.614,3.877Z" transform="translate(-69.338 -408.226)" fill="#3f3d56"/>
    <path id="Tracé_3413" data-name="Tracé 3413" d="M124.7,670.52l-.227,3.634H90.807l-.227-3.634Z" transform="translate(-53.629 -399.149)" fill="#9d9cb5"/>
    <path id="Tracé_3414" data-name="Tracé 3414" d="M124.848,683.24l-.223,3.634H91.6l-.227-3.634Z" transform="translate(-54.1 -406.721)" fill="#9d9cb5"/>
    <path id="Tracé_3415" data-name="Tracé 3415" d="M125,695.97l-.223,3.63H92.387l-.227-3.63Z" transform="translate(-54.57 -414.299)" fill="#9d9cb5"/>
    <path id="Tracé_3416" data-name="Tracé 3416" d="M49.044,578.292c14.78,10.693,20.936,27.415,20.936,27.415s-17.807-.611-32.592-11.3S16.44,567,16.44,567,34.247,567.6,49.044,578.292Z" transform="translate(-15.95 -345.037)" fill="#6c63ff"/>
    <path id="Tracé_3417" data-name="Tracé 3417" d="M16.44,567s18.483,10.26,24.412,18.755,29.111,19.961,29.111,19.961" transform="translate(-15.95 -345.037)" fill="none" stroke="#535461" stroke-miterlimit="10" stroke-width="2"/>
    <path id="Tracé_3418" data-name="Tracé 3418" d="M94.439,532.632a35.831,35.831,0,0,1,11.4,14.918A35.8,35.8,0,0,1,88.1,541.4,36.04,36.04,0,0,1,76.7,526.48,35.831,35.831,0,0,1,94.439,532.632Z" transform="translate(-51.822 -320.916)" fill="#6c63ff"/>
    <path id="Tracé_3419" data-name="Tracé 3419" d="M76.7,526.48s10.061,5.585,13.291,10.207,15.845,10.863,15.845,10.863" transform="translate(-51.822 -320.916)" fill="none" stroke="#535461" stroke-miterlimit="10" stroke-width="2"/>
    <path id="Tracé_3420" data-name="Tracé 3420" d="M161.1,557.756c-9.24,10.154-11.194,23.425-11.194,23.425s13.028-3.2,22.259-13.356S183.364,544.4,183.364,544.4,170.344,547.6,161.1,557.756Z" transform="translate(-95.403 -331.583)" fill="#6c63ff"/>
    <path id="Tracé_3421" data-name="Tracé 3421" d="M183.372,544.41s-12.036,10.409-15.1,17.581-18.366,19.2-18.366,19.2" transform="translate(-95.403 -331.589)" fill="none" stroke="#535461" stroke-miterlimit="10" stroke-width="2"/>
  </g>
</svg>
