<svg xmlns="http://www.w3.org/2000/svg" xmlns:xlink="http://www.w3.org/1999/xlink" width="583.49" height="389.105" viewBox="0 0 583.49 389.105">
  <defs>
    <clipPath id="clip-path">
      <path id="Tracé_26" data-name="Tracé 26" d="M1940.717,311.269s9.738-43.631,2.7-52.722-21.113.915-19.888,19.324,2.234,19.237,3.693,27.4c1.187,6.641,5.216,8.743,13.494,6Z" fill="none" clip-rule="evenodd"/>
    </clipPath>
    <clipPath id="clip-path-2">
      <path id="Tracé_30" data-name="Tracé 30" d="M1946.3,251.788a4.244,4.244,0,0,1,.521,2.157c.075,1.879-1.365,5.328-3.9,9.883-5.059,9.114-9.484,13.089-10.09,21.788s-6.742,68.858-5.974,89.282c0,0,28.168,5.824,39.632-3.364,0,0-2.913-23.084-6.308-44.268-3.769-23.5-.521-30.72,1.82-42.969s1.79-22.425-2.893-27.5c-4.86-5.272-12.813-5.005-12.813-5.005Z" fill="none" clip-rule="evenodd"/>
    </clipPath>
    <clipPath id="clip-path-3">
      <path id="Tracé_33" data-name="Tracé 33" d="M1938.2,251.845s-6.9,3.512-9.422,19.12c-1.8,11.153-7.544,78.605-6.912,102.054,0,0-4.855,2.32-9.753-3.38,0,0-.024-38.838,2.388-66.545,1.361-15.637,2.436-25.074,6.555-34.293,8.565-19.169,17.144-16.956,17.144-16.956Z" fill="none" clip-rule="evenodd"/>
    </clipPath>
    <clipPath id="clip-path-4">
      <path id="Tracé_37" data-name="Tracé 37" d="M1945.819,243.626s-.012,7.329.68,9.447c.665,2.038-9.858,7.374-11.128,6.663-1.06-.594-1.618-5,1.986-7.187a33.522,33.522,0,0,0,.4-8.705l8.061-.218Z" fill="none" clip-rule="evenodd"/>
    </clipPath>
  </defs>
  <g id="Groupe_1" data-name="Groupe 1" transform="translate(-1541.825 -148.935)">
    <path id="Tracé_1" data-name="Tracé 1" d="M1589.511,342.9c-52.194,84.392,274.018,192.569,275.443,192.779,53.221,7.846,184.307,6.07,225.209-170.752,20.826-90.034-56.7-252.127-200.7-208.767-69.285,20.861-104.888,79.691-162.7,114.249-43.834,26.2-110.138,28.654-137.251,72.491Z" fill="#eaedf9" fill-rule="evenodd"/>
    <path id="Tracé_2" data-name="Tracé 2" d="M2125.046,297.906a9.833,9.833,0,0,0-9.565-12.119H1914.31a9.834,9.834,0,0,0-9.59,7.657c-6.043,26.637-27.064,116.2-34.09,147.168a8.874,8.874,0,0,0,8.612,10.835c38.359.175,166.108-.155,200.466,0a10.906,10.906,0,0,0,10.659-8.373c6.513-27.256,27.047-113.214,34.679-145.168" fill="#58595b" fill-rule="evenodd"/>
    <path id="Tracé_3" data-name="Tracé 3" d="M2119.905,297.2a9.833,9.833,0,0,0-9.561-12.134H1906.651a9.833,9.833,0,0,0-9.587,7.644c-6.1,26.7-26.478,115.891-33.58,146.98a8.873,8.873,0,0,0,8.611,10.85c38.706.173,167.441.755,202.058.912a10.909,10.909,0,0,0,10.655-8.357c6.573-27.327,27.379-113.811,35.1-145.895" fill="#303d5d" fill-rule="evenodd"/>
    <path id="Tracé_4" data-name="Tracé 4" d="M2113.615,300.422c-7.338,29.32-27.129,108.342-33.376,133.314a10.307,10.307,0,0,1-10.132,7.631c-29.593-.127-131.513-.574-178.548-.784-5.285-.017-9.877-.035-13.6-.053a8.561,8.561,0,0,1-6.566-3.065,7.859,7.859,0,0,1-1.618-6.848c1.727-7.258,4.274-17.98,7.21-30.34,1.5-6.31,3.111-13.04,4.758-19.96v-.01c2.483-10.468,5.065-21.336,7.557-31.776v-.008c5.22-22,9.986-42.044,12.4-52.2a9.279,9.279,0,0,1,9.123-6.984h193.69a9.516,9.516,0,0,1,7.348,3.42,8.737,8.737,0,0,1,1.747,7.666" fill="#f8f9fd" fill-rule="evenodd"/>
    <path id="Tracé_5" data-name="Tracé 5" d="M1986.5,287.775l-1.856,7.5a1.2,1.2,0,0,0,.264,1.071,1.416,1.416,0,0,0,1.07.48l31.3.131a1.667,1.667,0,0,0,1.649-1.2l2.082-7.988Z" fill="#303d5d" fill-rule="evenodd"/>
    <path id="Tracé_6" data-name="Tracé 6" d="M2088.415,439.606H1773.344a2.039,2.039,0,0,0-1.774,2.226v5.323h316.845v-7.549Z" fill="#3f507b" fill-rule="evenodd"/>
    <path id="Tracé_7" data-name="Tracé 7" d="M2088.415,439.606H1961.1c-.4,0-.719,1-.719,2.226v5.323h128.034v-7.549Z" fill="#303d5d" fill-rule="evenodd"/>
    <path id="Tracé_8" data-name="Tracé 8" d="M2088.415,446.462H1769.673v3.044a2,2,0,0,0,2,1.994h314.123a2.674,2.674,0,0,0,2.675-2.737c-.027-1.183-.052-2.3-.052-2.3" fill="#818286" fill-rule="evenodd"/>
    <path id="Tracé_9" data-name="Tracé 9" d="M2088.415,446.462h-128.8v3.044c0,1.1.36,1.994.806,1.994h125.34a2.673,2.673,0,0,0,2.674-2.7c-.011-1.2-.021-2.338-.021-2.338" fill="#58595b" fill-rule="evenodd"/>
    <path id="Tracé_10" data-name="Tracé 10" d="M1871.518,423.29l24.328-102.285h126.818a3,3,0,0,1,2.979,3.931l-22.261,94.423a5.262,5.262,0,0,1-4.833,3.931Z" fill="#bdd3d8" fill-rule="evenodd"/>
    <path id="Tracé_11" data-name="Tracé 11" d="M2018.844,315.046a3.124,3.124,0,0,0-3.1-4.09h-153.1a5.474,5.474,0,0,0-5.029,4.09c-3.988,16.916-19.169,81.312-23.158,98.227a3.124,3.124,0,0,0,3.1,4.09h153.1a5.474,5.474,0,0,0,5.028-4.09l23.158-98.227Z" fill="#deeaeb" fill-rule="evenodd"/>
    <path id="Tracé_12" data-name="Tracé 12" d="M2018.348,317.62h-161.34l.957-4.057c.34-1.44,2.434-2.607,4.679-2.607h153.212c2.244,0,3.789,1.167,3.449,2.607l-.957,4.057Z" fill="#373f41" fill-rule="evenodd"/>
    <path id="Tracé_13" data-name="Tracé 13" d="M2018.2,317.62H1857.008l-1.374,5.961,161.082.484,1.48-6.445Z" fill="#bfd6d8" fill-rule="evenodd"/>
    <path id="Tracé_14" data-name="Tracé 14" d="M1965.214,320.841a1.575,1.575,0,0,0-1.5-2.054h-83.6a2.755,2.755,0,0,0-2.621,1.913h0a1.453,1.453,0,0,0,1.379,1.894l83.531.294a2.94,2.94,0,0,0,2.812-2.046v0Z" fill="#deeaeb" fill-rule="evenodd"/>
    <path id="Tracé_15" data-name="Tracé 15" d="M2003.472,320a1.659,1.659,0,0,0-1.6-1.214H1976.45a2.1,2.1,0,0,0-2.022,2.657c.026.094.052.185.075.272a1.2,1.2,0,0,0,1.146.881c3.9.041,19.4.2,25.815.27a2.114,2.114,0,0,0,2.06-2.677l-.052-.189Z" fill="#deeaeb" fill-rule="evenodd"/>
    <path id="Tracé_16" data-name="Tracé 16" d="M1864.267,313.19a.839.839,0,0,1,.832,1.1,1.471,1.471,0,0,1-1.35,1.1.838.838,0,0,1-.831-1.1,1.471,1.471,0,0,1,1.349-1.1Z" fill="#fff" fill-rule="evenodd"/>
    <path id="Tracé_17" data-name="Tracé 17" d="M1871.288,313.19a.839.839,0,0,1,.832,1.1,1.469,1.469,0,0,1-1.349,1.1.839.839,0,0,1-.832-1.1,1.47,1.47,0,0,1,1.349-1.1Z" fill="#fff" fill-rule="evenodd"/>
    <path id="Tracé_18" data-name="Tracé 18" d="M1867.778,313.19a.839.839,0,0,1,.832,1.1,1.471,1.471,0,0,1-1.35,1.1.839.839,0,0,1-.832-1.1,1.47,1.47,0,0,1,1.35-1.1Z" fill="#fff" fill-rule="evenodd"/>
    <path id="Tracé_19" data-name="Tracé 19" d="M1867.995,263.745s-5.337-10.416-9.057-11.835c0,0-2.86-.963-2.619.807,0,0-2.083.425-1.794,1.764,0,0-1.746,1.077-1.175,2.6s-1.812,1.346-.463,2.948c0,0,11.745,7.36,14.094,6.952l1.014-3.236Z" fill="#fec6ad" fill-rule="evenodd"/>
    <path id="Tracé_20" data-name="Tracé 20" d="M1909.066,278.882s-34.505-9.967-40.512-18.146c-3.856,1.547-4.1,3.42-4.944,6.7,0,0,30.342,22.887,40.152,25.355,0,0,3.778-8.909,5.3-13.908Z" fill="#fff" fill-rule="evenodd"/>
    <path id="Tracé_21" data-name="Tracé 21" d="M1903.015,292.529c5.928,2.887,28.335-10.517,39.69-24.132a37.723,37.723,0,0,0,4.865-7.217c1.731-3.429-.218-17.051-20.272-3.119-13.632,13.944-17.816,14.854-24.859,20.07-2.213,3.358-2.623,11.109.576,14.4Z" fill="#fff" fill-rule="evenodd"/>
    <path id="Tracé_22" data-name="Tracé 22" d="M1915.757,343.033l39.888-5.583s-.12.471-.342,1.327c-1.272,4.895-5.916,22.341-10.9,36-2.668,7.315-4.722,20.337-6.484,34.276-.347,2.746-.683,5.529-1.011,8.309H1916.9l-1.14-74.33Z" fill="#2e3537" fill-rule="evenodd"/>
    <path id="Tracé_23" data-name="Tracé 23" d="M1959.382,417.363h-19.9c-.509-2.717-1.029-5.5-1.558-8.309-5.142-27.368-10.984-57.974-12.774-67.335-.355-1.853-.549-2.874-.549-2.874l30.905-.068c4.031,14.7,3.977,55.545,3.877,78.586Z" fill="#373f41" fill-rule="evenodd"/>
    <path id="Tracé_24" data-name="Tracé 24" d="M1940.717,311.269s9.738-43.631,2.7-52.722-21.113.915-19.888,19.324,2.234,19.237,3.693,27.4c1.187,6.641,5.216,8.743,13.494,6Z" fill="#74abe1" fill-rule="evenodd"/>
    <g id="Groupe_2" data-name="Groupe 2">
      <g id="Groupe_1-2" data-name="Groupe 1" clip-path="url(#clip-path)">
        <path id="Tracé_25" data-name="Tracé 25" d="M1928.1,282.271a21.718,21.718,0,0,0,1.143,3.028,76.353,76.353,0,0,1,2.757,9.639c.7,3.328,1.7,7.315.228,10.587-.793,1.763-2.1,1.932-3.715,2.512-.43.153-.654.462-.4.892a9.025,9.025,0,0,0,3.383,2.681c4.153,2.255,10.045,2.906,12.573-1.917,2.538-4.842.86-10.944-.919-15.738a54.522,54.522,0,0,0-5.456-10.706c-1.792-2.762-3.815-5.115-4.664-8.181" fill="#386c81" fill-rule="evenodd"/>
      </g>
    </g>
    <path id="Tracé_27" data-name="Tracé 27" d="M1958.366,259.783a40.524,40.524,0,0,0-12.555-7.129c-3.229-1-6.015-2.048-9.7-.17-11.377,5.793-15.823,16.627-16.35,30.127-1.38,35.334-6.792,41.112-3.789,65.14-2.007,5.567,41.284,11.455,42.23-1.754,0,0-3.465-28.77-1.242-42.431,5.183-16.814,7.228-33.785,1.407-43.783Z" fill="#118793" fill-rule="evenodd"/>
    <path id="Tracé_28" data-name="Tracé 28" d="M1946.3,251.788a4.244,4.244,0,0,1,.521,2.157c.075,1.879-1.365,5.328-3.9,9.883-5.059,9.114-9.484,13.089-10.09,21.788s-6.742,68.858-5.974,89.282c0,0,28.168,5.824,39.632-3.364,0,0-2.913-23.084-6.308-44.268-3.769-23.5-.521-30.72,1.82-42.969s1.79-22.425-2.893-27.5c-4.86-5.272-12.813-5.005-12.813-5.005Z" fill="#fff" fill-rule="evenodd"/>
    <g id="Groupe_4" data-name="Groupe 4">
      <g id="Groupe_3" data-name="Groupe 3" clip-path="url(#clip-path-2)">
        <path id="Tracé_29" data-name="Tracé 29" d="M1945.278,251.53s6.679-.122,6.877,5.926a13.551,13.551,0,0,1-3.144,9.474l-5.837,1.182,2.938,1.334s-9.589,13.859-14.542,20.861c-4.007-10.854,5.139-27.707,13.708-38.777Z" fill="#e2edf6" fill-rule="evenodd"/>
      </g>
    </g>
    <path id="Tracé_31" data-name="Tracé 31" d="M1938.2,251.845s-6.9,3.512-9.422,19.12c-1.8,11.153-7.544,78.605-6.912,102.054,0,0-4.855,2.32-9.753-3.38,0,0-.024-38.838,2.388-66.545,1.361-15.637,2.436-25.074,6.555-34.293,8.565-19.169,17.144-16.956,17.144-16.956Z" fill="#fff" fill-rule="evenodd"/>
    <g id="Groupe_6" data-name="Groupe 6">
      <g id="Groupe_5" data-name="Groupe 5" clip-path="url(#clip-path-3)">
        <path id="Tracé_32" data-name="Tracé 32" d="M1937.4,251.415s-6.346.588-8.693,6.156a76.247,76.247,0,0,0-3.688,11.811l2.355,2.058-2.139.871s-1.716,11.478,2.634,20.74l9.531-41.636Z" fill="#e2edf6" fill-rule="evenodd"/>
      </g>
    </g>
    <path id="Tracé_34" data-name="Tracé 34" d="M1953.429,335.516c-1.476,1.139-5.357,1.766-12.075,2.633,0,0,.5,10.783,4.909,11.825,3.974.94,4.5.162,6.32-.759a3.006,3.006,0,0,1-1.642,1.238c-10.947,3.148-10.8-13.562-10.8-13.562a33.336,33.336,0,0,0,13.263-1.514l.025.139Z" fill="#b3cedb" fill-rule="evenodd"/>
    <path id="Tracé_35" data-name="Tracé 35" d="M1945.819,243.626s-.012,7.329.68,9.447c.665,2.038-9.858,7.374-11.128,6.663-1.06-.594-1.618-5,1.986-7.187a33.522,33.522,0,0,0,.4-8.705l8.061-.218Z" fill="#fec6ad" fill-rule="evenodd"/>
    <g id="Groupe_8" data-name="Groupe 8">
      <g id="Groupe_7" data-name="Groupe 7" clip-path="url(#clip-path-4)">
        <path id="Tracé_36" data-name="Tracé 36" d="M1946.291,244.728c-.058.03-.107.186-.138.239-.127.221-.27.433-.411.645a19.025,19.025,0,0,1-1.61,2.068,11.87,11.87,0,0,1-6.272,3.6c-.487.122-.981.227-1.473.328a2.241,2.241,0,0,1-.788.1c-.224-.039-.214-.319-.213-.5,0-.514.068-1.03.106-1.543.114-1.526.154-3.061.17-4.593,0-.445-.011-.892.031-1.334a.885.885,0,0,1,.126-.5c.2-.213.694-.218.953-.253.8-.1,1.6-.183,2.392-.317,1.633-.273,3.264-.576,4.89-.894a19.333,19.333,0,0,1,4.111-.56" fill="#fd905f" fill-rule="evenodd"/>
      </g>
    </g>
    <path id="Tracé_38" data-name="Tracé 38" d="M1929.037,230.485s-2.783-1.386-1.309-5.942.593-3.957,2.416-4.888,5.015-1.136,8.833-1.739c2.944-.467,5.041,2.026,6.467,2.477s3.169-.047,4.537,3.373,2.976,8.973-.968,16.495a18.479,18.479,0,0,1-4.2,5.331c-3.071,2.547-5.927,2.019-8.509,1.089-3.7-1.333-7.462-15.707-7.267-16.2Z" fill="#16110d" fill-rule="evenodd"/>
    <path id="Tracé_39" data-name="Tracé 39" d="M1929.095,227.378s-1.483,10.883-.642,16.248,3.463,6.8,8.73,5.467,8.133-3.579,8.576-5.7c.081-.393.206-2.281.368-4.643.309-4.489,1.787-10.455.486-12.39-1.917-2.85-14.96-8.41-17.518,1.016Z" fill="#fec6ad" fill-rule="evenodd"/>
    <path id="Tracé_40" data-name="Tracé 40" d="M1945.561,227.252s-2.577,5.064.2,9.077c0,0,3.54-2.14,3.362-5.712s1.583-6.538-5.847-8.246-15.434-4.087-14.785,6.332c0,0,1.785.455,4.507-1.708s9.759-2.042,12.564.257Z" fill="#16110d" fill-rule="evenodd"/>
    <path id="Tracé_41" data-name="Tracé 41" d="M1945.76,236.329s1.67-3.314,2.965-2.3-1.693,5.2-2.876,5.794-.089-3.5-.089-3.5Z" fill="#fec6ad" fill-rule="evenodd"/>
    <path id="Tracé_42" data-name="Tracé 42" d="M1924.6,335.806l16.619-26.929,37.467,25.955-14.223,27.043L1924.6,335.806Z" fill="#373f41" fill-rule="evenodd"/>
    <path id="Tracé_43" data-name="Tracé 43" d="M1952.927,338.192s-9.557,5.6-10.7,9.185c0,0-.757,2.753.9,2.431,0,0,.513,1.946,1.763,1.6,0,0,1.11,1.593,2.517.973s1.369,1.64,2.81.28c0,0,6.329-11.486,5.819-13.683l-3.111-.787Z" fill="#fec6ad" fill-rule="evenodd"/>
    <path id="Tracé_44" data-name="Tracé 44" d="M1965.044,298.59s-7.582,33.126-14.99,39.234c1.667,3.561,3.45,3.692,6.591,4.314,0,0,20.127-30.075,21.936-39.475,0,0-8.734-2.9-13.537-4.073Z" fill="#fff" fill-rule="evenodd"/>
    <path id="Tracé_45" data-name="Tracé 45" d="M1977.663,305.122c4.726-5.631-6.053-37.462-18.537-48.1-2.75-2.376-14.762-1.163-6.582,20.446,9.666,15.714,8.6,17.208,11.771,24.872,2.574,2.8,9.593,4.959,13.348,2.78Z" fill="#fff" fill-rule="evenodd"/>
    <path id="Tracé_46" data-name="Tracé 46" d="M1937.472,252.009a12.425,12.425,0,0,0-6.669,4.63c-3.282,4.144-6.965,12.2-8.674,27.808l-1.052-.115c3.41-33.121,16.552-33.327,16.552-33.327l-.157,1Z" fill-rule="evenodd"/>
    <path id="Tracé_47" data-name="Tracé 47" d="M1921.758,282.636a2.678,2.678,0,1,0,2.678,2.678,2.679,2.679,0,0,0-2.678-2.678Z" fill="#0b1e64" fill-rule="evenodd"/>
    <path id="Tracé_48" data-name="Tracé 48" d="M1921.758,283.291a1.524,1.524,0,1,0,1.523,1.523,1.524,1.524,0,0,0-1.523-1.523Z" fill="#535170" fill-rule="evenodd"/>
    <path id="Tracé_49" data-name="Tracé 49" d="M1921.758,283.5a1.317,1.317,0,1,0,1.318,1.317,1.318,1.318,0,0,0-1.318-1.317Z" fill="#0b1e64" fill-rule="evenodd"/>
    <path id="Tracé_50" data-name="Tracé 50" d="M1946.245,251.794s1.973.438,2.85,3.419c.779,2.651.924,7.621-1.738,16.89l-1.015-.292c2.568-8.948,2.49-13.742,1.737-16.3-.655-2.231-1.695-2.692-1.695-2.692l-.139-1.024Z" fill-rule="evenodd"/>
    <path id="Tracé_51" data-name="Tracé 51" d="M1949.373,282.987s-1.739,7.608-5.628,12.714c-2.653,3.484-6.3,5.8-11.034,3.941a.317.317,0,0,1,.232-.591c4.429,1.74,7.816-.478,10.3-3.734,3.814-5.007,5.514-12.47,5.514-12.47a.317.317,0,1,1,.619.14Z" fill="#afafaf" fill-rule="evenodd"/>
    <path id="Tracé_52" data-name="Tracé 52" d="M1939.1,281.054s-2.337,7.411-1.715,13.52c.4,3.952,2.046,7.367,6.513,7.693a.318.318,0,0,1-.045.634c-4.828-.353-6.667-3.993-7.1-8.263-.631-6.225,1.742-13.773,1.742-13.773a.317.317,0,0,1,.606.189Z" fill="#afafaf" fill-rule="evenodd"/>
    <path id="Tracé_53" data-name="Tracé 53" d="M1943.874,302.072a.512.512,0,1,0,.512.513.511.511,0,0,0-.512-.513Z" fill="#3c3a51" fill-rule="evenodd"/>
    <path id="Tracé_54" data-name="Tracé 54" d="M1932.827,298.824a.511.511,0,1,0,.513.51.511.511,0,0,0-.513-.51Z" fill="#3c3a51" fill-rule="evenodd"/>
    <path id="Tracé_55" data-name="Tracé 55" d="M1938.274,281.177a20.287,20.287,0,0,1,2.685-6.913c1.4-2.021,3.411-3.412,6.171-2.563a5.1,5.1,0,0,1,3.677,5.034,16.417,16.417,0,0,1-1.258,6.392l-.97-.422a15.09,15.09,0,0,0,1.17-5.907,4.111,4.111,0,0,0-2.93-4.086c-2.244-.689-3.852.512-4.991,2.154a18.975,18.975,0,0,0-2.511,6.493l-1.043-.182Z" fill-rule="evenodd"/>
    <path id="Tracé_56" data-name="Tracé 56" d="M1827.265,213a.612.612,0,0,0-.828-.131c-.021.013-.04.028-.061.041a.614.614,0,0,0-.147.872l40.56,54.611,2.286-1.721L1827.265,213Z" fill="#2e3537" fill-rule="evenodd"/>
    <path id="Tracé_57" data-name="Tracé 57" d="M1861.378,253.876s-2.946-2.285-3.73-.708,5.735,4.272,5.735,4.272l-2.005-3.564Z" fill="#fec6ad" fill-rule="evenodd"/>
    <path id="Tracé_58" data-name="Tracé 58" d="M1681.971,371.576s8.6-.568,13.466,9.389c4.183,8.57,5.78,25.626,5.924,35.731a107.482,107.482,0,0,0,1.049,15.256h-40.98s-11.338-44.207-6.76-54.087,9.929-7.616,9.929-7.616l17.372,1.327Z" fill="#f99325" fill-rule="evenodd"/>
    <path id="Tracé_59" data-name="Tracé 59" d="M1698.6,404.6a32.875,32.875,0,0,0-10.4-18.382,28.241,28.241,0,0,0-18.542-7.614h-28.762a19.425,19.425,0,0,0-15.819,7.614c-3.683,4.875-5.061,11.488-3.828,18.382,3.747,20.956,8.4,46.955,8.4,46.955H1707s-4.649-26-8.4-46.955Z" fill="#292f30" fill-rule="evenodd"/>
    <path id="Tracé_60" data-name="Tracé 60" d="M1691.163,404.6a32.875,32.875,0,0,0-10.4-18.382,28.243,28.243,0,0,0-18.542-7.614h-28.762a19.425,19.425,0,0,0-15.819,7.614c-3.685,4.875-5.062,11.488-3.829,18.382,3.748,20.956,8.4,46.955,8.4,46.955h77.356s-4.65-26-8.4-46.955Z" fill="#333a3c" fill-rule="evenodd"/>
    <path id="Tracé_61" data-name="Tracé 61" d="M1685.391,333.237s3.58,2.28,3.6,8.876.658,7.858-1.47,14.356c-1.268,3.873-7.2,3.722-7.2,3.722l-.273,10.058-11.825-.75,3.12-10.729,4.745-18.995,9.3-6.538Z" fill="#fec6ad" fill-rule="evenodd"/>
    <path id="Tracé_62" data-name="Tracé 62" d="M1683.944,371.857l-1.673-4s-8.9,1.486-15.691-.722l-1.981,4.346s15.419,3.5,19.345.378Z" fill="#faab55" fill-rule="evenodd"/>
    <path id="Tracé_63" data-name="Tracé 63" d="M1677.74,360.218c-.009-4.328-2.212-6.032.255-10.5-4.39-2.187-1.95-11.487,1.887-5.14,8.363-6.675,13.7-15.963,4.241-17.478-4.4-8.117-30.176-5.286-30.072,14.128s-.77,12.7-4.573,19.912-7.38,11.242-4.7,22.942c1.432,6.256,6.241,6.291,19.822,8.725s20.784-9.089,16.247-15.241-3.094-11.715-3.106-17.349Z" fill="#373f41" fill-rule="evenodd"/>
    <path id="Tracé_64" data-name="Tracé 64" d="M1809.092,371.75s8.6-.568,13.465,9.388c4.184,8.569,5.779,25.626,5.925,35.731a107.5,107.5,0,0,0,1.049,15.257H1788.55s-11.337-44.207-6.76-54.086,9.931-7.618,9.931-7.618l17.371,1.328Z" fill="#118793" fill-rule="evenodd"/>
    <path id="Tracé_65" data-name="Tracé 65" d="M1839.362,404.771a33.246,33.246,0,0,0-10.568-18.381c-5.473-4.876-12.168-7.614-18.611-7.614h-28.762a19.23,19.23,0,0,0-15.75,7.614c-3.642,4.875-4.959,11.487-3.665,18.381,3.937,20.956,8.82,46.955,8.82,46.955h77.356s-4.883-26-8.82-46.955Z" fill="#292f30" fill-rule="evenodd"/>
    <path id="Tracé_66" data-name="Tracé 66" d="M1831.926,404.771a33.254,33.254,0,0,0-10.569-18.381c-5.472-4.876-12.167-7.614-18.611-7.614h-28.762a19.234,19.234,0,0,0-15.751,7.614c-3.64,4.875-4.958,11.487-3.663,18.381,3.937,20.956,8.82,46.955,8.82,46.955h77.356s-4.884-26-8.82-46.955Z" fill="#333a3c" fill-rule="evenodd"/>
    <path id="Tracé_67" data-name="Tracé 67" d="M1812.511,333.41s3.579,2.28,3.6,8.876,2.277,11.159.15,17.658c-1.268,3.871-8.818.421-8.818.421l-.274,10.057-11.824-.75,3.12-10.73,4.744-18.993,9.3-6.539Z" fill="#f4a37c" fill-rule="evenodd"/>
    <path id="Tracé_68" data-name="Tracé 68" d="M1811.245,372.894l-1.854-4.864s-8.9,1.483-15.691-.724l-1.979,4.347s1.474,4.718,19.524,1.241Z" fill="#16b0c0" fill-rule="evenodd"/>
    <path id="Tracé_69" data-name="Tracé 69" d="M1804.861,360.392c-.009-4.328-2.213-6.033.256-10.5-4.391-2.187-1.951-11.487,1.886-5.141,8.363-6.675,13.7-15.963,4.242-17.478-4.4-8.117-32.222-4.788-30.543,14.554.16,1.84-1.439,10.787,3.637,17.166,6.016,7.563,20.535,7.032,20.522,1.4Z" fill="#373f41" fill-rule="evenodd"/>
    <path id="Tracé_70" data-name="Tracé 70" d="M1782.063,323.142a7.839,7.839,0,1,1-7.994,7.836,7.92,7.92,0,0,1,7.994-7.836Z" fill="#373f41" fill-rule="evenodd"/>
    <path id="Tracé_71" data-name="Tracé 71" d="M1779.056,330.978a4.891,4.891,0,1,1-4.987,4.891,4.942,4.942,0,0,1,4.987-4.891Z" fill="#373f41" fill-rule="evenodd"/>
    <path id="Tracé_72" data-name="Tracé 72" d="M1751.069,367.609s11.988-.791,18.761,13.08c5.828,11.939,8.052,35.7,8.253,49.781s1.463,21.256,1.463,21.256h-57.1s-15.795-61.589-9.417-75.354,13.834-10.612,13.834-10.612l24.2,1.849Z" fill="#f99325" fill-rule="evenodd"/>
    <path id="Tracé_73" data-name="Tracé 73" d="M1778.854,402.518a33.738,33.738,0,0,0-11.561-19.265,32.719,32.719,0,0,0-20.749-7.979h-32.252c-7.226,0-13.621,2.871-17.78,7.979s-5.741,12.039-4.4,19.265c4.085,21.962,9.152,49.208,9.152,49.208h86.74l-9.153-49.208Z" fill="#2d3435" fill-rule="evenodd"/>
    <path id="Tracé_74" data-name="Tracé 74" d="M1770.516,402.518a33.737,33.737,0,0,0-11.563-19.265,32.714,32.714,0,0,0-20.748-7.979h-32.251c-7.226,0-13.623,2.871-17.782,7.979s-5.739,12.039-4.4,19.265c4.084,21.962,9.153,49.208,9.153,49.208h86.739s-5.067-27.246-9.152-49.208Z" fill="#373f41" fill-rule="evenodd"/>
    <path id="Tracé_75" data-name="Tracé 75" d="M1755.833,314.2s4.987,3.176,5.022,12.365,2.595,17.9-.357,22.642-11.72,2.545-11.72,2.545l-.381,14.013-16.475-1.045,4.349-14.948,6.609-26.463,12.953-9.109Z" fill="#fec6ad" fill-rule="evenodd"/>
    <path id="Tracé_76" data-name="Tracé 76" d="M1753.355,332.489s2.8-5.209-.82-12.272c0,0,2.446-2.675,8.73-2.9,0,0,1.7-6.592-2.194-7.751,0,0,.6-1.387,3.69-.545,0,0-12.57-8.517-24.183-3.473s-8.415,11.2-8.415,11.2-8.034,2.133-7.7,9.217,7.719,24.249,14.16,25.933,14.658-2.028,14.18-11.923c0,0-3.511-2.87-3.047-6.638s2.586-4.91,5.6-.85Z" fill="#373f41" fill-rule="evenodd"/>
    <path id="Tracé_77" data-name="Tracé 77" d="M1754.068,369.2l-2.583-6.779s-12.4,2.068-21.859-1.006l-2.759,6.056s2.054,6.572,27.2,1.729Z" fill="#faab55" fill-rule="evenodd"/>
    <path id="Tracé_78" data-name="Tracé 78" d="M1611.693,364.818s12.362-.816,19.345,13.488c6.01,12.31,8.3,36.813,8.511,51.329s1.508,21.918,1.508,21.918h-58.873s-16.287-63.507-9.711-77.7,14.266-10.943,14.266-10.943l24.954,1.908Z" fill="#118793" fill-rule="evenodd"/>
    <path id="Tracé_79" data-name="Tracé 79" d="M1640.344,400.813a34.784,34.784,0,0,0-11.922-19.864,33.724,33.724,0,0,0-21.4-8.228h-33.255c-7.45,0-14.045,2.959-18.334,8.228s-5.918,12.413-4.533,19.864c4.212,22.645,9.437,50.74,9.437,50.74h89.439s-5.225-28.1-9.437-50.74Z" fill="#2d3435" fill-rule="evenodd"/>
    <path id="Tracé_80" data-name="Tracé 80" d="M1631.746,400.813a34.789,34.789,0,0,0-11.922-19.864,33.726,33.726,0,0,0-21.4-8.228h-33.255c-7.451,0-14.046,2.959-18.334,8.228s-5.919,12.413-4.533,19.864c4.211,22.645,9.437,50.74,9.437,50.74h89.44l-9.438-50.74Z" fill="#373f41" fill-rule="evenodd"/>
    <path id="Tracé_81" data-name="Tracé 81" d="M1616.606,309.741s5.143,3.275,5.178,12.75,2.677,18.455-.366,23.347-12.085,2.624-12.085,2.624l-.393,14.448-16.988-1.077,4.483-15.413,6.816-27.286,13.355-9.393Z" fill="#feab83" fill-rule="evenodd"/>
    <path id="Tracé_82" data-name="Tracé 82" d="M1613.126,315.749s9.313-5.762,5.079-13.3-17.835-3.3-24.437.329c0,0,10.178-.33,5.283,1.647s-20.546,11.419-16.072,22.206,7.249,12.642,8.973,18.177,11.974,5.088,15.465.19,3.871-8.677,3.871-8.677-4.969-2.252-3.871-6.369,3.114-5.866,6.7-1.306c0,0,2.76-4.324-.992-12.9Z" fill="#373f41" fill-rule="evenodd"/>
    <path id="Tracé_83" data-name="Tracé 83" d="M1614.787,366.461l-2.663-6.989s-12.788,2.133-22.54-1.038l-2.845,6.245s2.118,6.778,28.048,1.782Z" fill="#16b0c0" fill-rule="evenodd"/>
  </g>
</svg>
