<svg xmlns="http://www.w3.org/2000/svg" xmlns:xlink="http://www.w3.org/1999/xlink" width="464.35" height="323.611" viewBox="0 0 464.35 323.611">
  <defs>
    <clipPath id="clip-path">
      <rect id="Rectangle_725" data-name="Rectangle 725" width="464.35" height="323.611" fill="none"/>
    </clipPath>
    <clipPath id="clip-path-2">
      <path id="Tracé_2953" data-name="Tracé 2953" d="M1528.046,1372.9v6.15h-6.158v6.941h6.158v6.15H1535v-6.15h6.158v-6.941H1535v-6.15Z" transform="translate(-1521.888 -1372.903)" fill="none"/>
    </clipPath>
    <clipPath id="clip-path-4">
      <path id="Tracé_2989" data-name="Tracé 2989" d="M1403.682,172.026v5.254h-5.261v5.929h5.261v5.254h5.937v-5.254h5.261V177.28h-5.261v-5.254Z" transform="translate(-1398.421 -172.026)" fill="none"/>
    </clipPath>
  </defs>
  <g id="Groupe_1099" data-name="Groupe 1099" transform="translate(0 0.004)">
    <g id="Groupe_1092" data-name="Groupe 1092" transform="translate(0 -0.004)">
      <g id="Groupe_1091" data-name="Groupe 1091" transform="translate(0 0)" clip-path="url(#clip-path)">
        <path id="Tracé_2901" data-name="Tracé 2901" d="M99.461,291.355c.837-2.964,1.839-5.826,2.938-8.629,4.4-11.84,10.771-22.474,14.866-34.526.013-.04.028-.078.042-.117,4.748-14.037,5.546-29.848,2.869-44.655-.484-2.678-1.081-5.323-1.789-7.919-.593-2.174-1.287-4.3-2.045-6.4q-.248-.688-.433-1.4c-2.063-7.882-5.19-15.39-7.687-22.9-4.74-13.855-6.32-29.2-2.765-43.546,7.9-32.659,29.625-57.4,57.274-64.329,21.33-5.443,41.869.495,61.619-8.907,14.22-6.928,25.675-17.814,39.1-27.711,19.355-13.361,40.684-16.329,61.619-18.8,43.449-4.948,86.9,1.979,126.4,23.752C472.4,36.65,500.45,56.444,494.92,90.093c-.79,5.938-3.16,10.886-5.135,16.824-4.74,15.34-17.38,22.268-25.28,36.123a28.258,28.258,0,0,0-4.113,14.682v7.063a15,15,0,0,0,.615,4.25c.219.742.457,1.48.733,2.211a52.552,52.552,0,0,0,14.678,20.633,122.874,122.874,0,0,0,10.207,8.068c5.609,4.425,11.546,8.3,16.949,13,5.645,4.6,10.839,9.891,14.667,17.3,10.732,22.268,12.322,46.02,8.744,70.762a73.765,73.765,0,0,1-2.142,9.833,17.1,17.1,0,0,1-16.466,12.207H114.348a17.242,17.242,0,0,1-17.17-18.434,64.44,64.44,0,0,1,2.283-13.265" transform="translate(-77.237 0.004)" fill="#eaedfa"/>
        <path id="Tracé_2902" data-name="Tracé 2902" d="M1563.543,401.382a13.452,13.452,0,1,1-13.2,13.682,13.445,13.445,0,0,1,13.2-13.682" transform="translate(-1232.69 -319.141)" fill="#fafdff"/>
        <path id="Tracé_2903" data-name="Tracé 2903" d="M1283.973,1207.7v-2.838a.531.531,0,1,1,1.063,0v2.838a.531.531,0,1,1-1.063,0m0-5.675v-2.838a.531.531,0,1,1,1.063,0v2.838a.531.531,0,1,1-1.063,0m0-5.675v-2.838a.531.531,0,1,1,1.063,0v2.838a.531.531,0,1,1-1.063,0m0-5.675v-2.838a.531.531,0,1,1,1.063,0v2.838a.531.531,0,1,1-1.063,0m0-5.675v-2.838a.531.531,0,1,1,1.063,0V1185a.531.531,0,1,1-1.063,0m0-5.675v-2.838a.531.531,0,1,1,1.063,0v2.838a.531.531,0,1,1-1.063,0m0-5.675v-2.838a.531.531,0,1,1,1.063,0v2.838a.531.531,0,1,1-1.063,0m0-5.675v-2.838a.531.531,0,1,1,1.063,0v2.838a.531.531,0,1,1-1.063,0m0-5.675v-2.838a.531.531,0,1,1,1.063,0v2.838a.531.531,0,1,1-1.063,0m.945,47.293a.532.532,0,0,1,.531-.532h2.834a.532.532,0,0,1,0,1.064h-2.834a.531.531,0,0,1-.531-.532m5.668,0a.532.532,0,0,1,.531-.532h2.834a.532.532,0,0,1,0,1.064h-2.834a.532.532,0,0,1-.531-.532m5.668,0a.532.532,0,0,1,.531-.532h2.834a.532.532,0,0,1,0,1.064h-2.834a.532.532,0,0,1-.531-.532m5.668,0a.532.532,0,0,1,.531-.532h2.834a.532.532,0,0,1,0,1.064h-2.834a.532.532,0,0,1-.531-.532m5.668,0a.532.532,0,0,1,.531-.532h2.834a.532.532,0,0,1,0,1.064h-2.834a.532.532,0,0,1-.531-.532" transform="translate(-1020.901 -921.476)" fill="#fff"/>
        <path id="Tracé_2904" data-name="Tracé 2904" d="M1028.69,1171.57a18.806,18.806,0,1,1-18.458,19.127,18.8,18.8,0,0,1,18.458-19.127" transform="translate(-803.244 -931.525)" fill="#fafdff"/>
        <path id="Tracé_2905" data-name="Tracé 2905" d="M1684.7,354.483a3.512,3.512,0,1,1-3.447,3.572,3.51,3.51,0,0,1,3.447-3.572" transform="translate(-1336.784 -281.852)" fill="#fafdff"/>
        <path id="Tracé_2906" data-name="Tracé 2906" d="M944.122,1352.927a3.512,3.512,0,1,1-3.447,3.572,3.51,3.51,0,0,1,3.447-3.572" transform="translate(-747.941 -1075.726)" fill="#fafdff"/>
        <path id="Tracé_2907" data-name="Tracé 2907" d="M1238.982,351.551a7.05,7.05,0,1,1-6.919,7.17,7.046,7.046,0,0,1,6.919-7.17" transform="translate(-979.626 -279.52)" fill="#fafdff"/>
        <path id="Tracé_2908" data-name="Tracé 2908" d="M1024.428,1404.154a7.05,7.05,0,1,1-6.919,7.17,7.046,7.046,0,0,1,6.919-7.17" transform="translate(-809.032 -1116.456)" fill="#fafdff"/>
        <path id="Tracé_2909" data-name="Tracé 2909" d="M1851.7,416.436a1.428,1.428,0,0,1,0-2.015l11.094-11.082a1.426,1.426,0,0,1,2.017,2.015l-11.095,11.082a1.431,1.431,0,0,1-2.017,0" transform="translate(-1471.977 -320.368)" fill="#fafdff"/>
        <path id="Tracé_2910" data-name="Tracé 2910" d="M1851.7,403.339a1.432,1.432,0,0,1,2.017,0l11.095,11.082a1.426,1.426,0,1,1-2.017,2.015L1851.7,405.354a1.428,1.428,0,0,1,0-2.015" transform="translate(-1471.977 -320.368)" fill="#fafdff"/>
        <path id="Tracé_2911" data-name="Tracé 2911" d="M1764.891,1099.774l21.74.012a4.831,4.831,0,0,0-.005-9.662l-21.74-.012-.012-21.74a4.831,4.831,0,0,0-9.662-.006l.012,21.74-21.74-.012a4.831,4.831,0,0,0,.005,9.662l21.74.012.012,21.74a4.831,4.831,0,1,0,9.662.005Z" transform="translate(-1374.473 -845.63)" fill="#fafdff"/>
        <path id="Tracé_2912" data-name="Tracé 2912" d="M1850.838,1484.782a1.653,1.653,0,1,1-1.653-1.651,1.652,1.652,0,0,1,1.653,1.651" transform="translate(-1468.993 -1179.253)" fill="#6f5192"/>
        <path id="Tracé_2913" data-name="Tracé 2913" d="M1877.783,1484.782a1.653,1.653,0,1,1-1.653-1.651,1.652,1.652,0,0,1,1.653,1.651" transform="translate(-1490.417 -1179.253)" fill="#6f5192"/>
        <path id="Tracé_2914" data-name="Tracé 2914" d="M1903.481,1484.782a1.653,1.653,0,1,1-1.653-1.651,1.652,1.652,0,0,1,1.653,1.651" transform="translate(-1510.85 -1179.253)" fill="#6f5192"/>
        <path id="Tracé_2915" data-name="Tracé 2915" d="M398.792,1125.543l-1.974,15.882a1.8,1.8,0,0,0,.59,1.567l11.971,10.643a1.8,1.8,0,0,1-.854,3.109l-15.723,3.015a1.8,1.8,0,0,0-1.308,1.044l-6.415,14.658a1.8,1.8,0,0,1-3.223.146l-7.743-14.018a1.8,1.8,0,0,0-1.4-.922l-15.936-1.583a1.8,1.8,0,0,1-1.138-3.019l10.938-11.678a1.8,1.8,0,0,0,.443-1.613l-3.434-15.637a1.8,1.8,0,0,1,2.52-2.011l14.5,6.8a1.8,1.8,0,0,0,1.672-.076l13.814-8.081a1.8,1.8,0,0,1,2.7,1.776" transform="translate(-282.387 -893.32)" fill="#fff"/>
        <rect id="Rectangle_676" data-name="Rectangle 676" width="27.458" height="1.927" transform="translate(68.336 84.866)" fill="#fafdff"/>
        <rect id="Rectangle_677" data-name="Rectangle 677" width="13.803" height="1.927" transform="translate(98.916 84.866)" fill="#fafdff"/>
        <rect id="Rectangle_678" data-name="Rectangle 678" width="11.846" height="1.926" transform="translate(68.336 90.279)" fill="#fafdff"/>
        <rect id="Rectangle_679" data-name="Rectangle 679" width="17.722" height="1.926" transform="translate(87.018 90.279)" fill="#fafdff"/>
        <rect id="Rectangle_680" data-name="Rectangle 680" width="5.786" height="1.926" transform="translate(106.934 90.279)" fill="#fafdff"/>
        <rect id="Rectangle_681" data-name="Rectangle 681" width="17.769" height="1.926" transform="translate(94.95 95.692)" fill="#fafdff"/>
        <rect id="Rectangle_682" data-name="Rectangle 682" width="17.891" height="1.926" transform="translate(75.203 95.692)" fill="#fafdff"/>
        <rect id="Rectangle_683" data-name="Rectangle 683" width="2.901" height="1.926" transform="translate(68.336 95.692)" fill="#fafdff"/>
        <rect id="Rectangle_684" data-name="Rectangle 684" width="12.521" height="1.927" transform="translate(68.336 101.104)" fill="#fafdff"/>
        <rect id="Rectangle_685" data-name="Rectangle 685" width="19.832" height="1.927" transform="translate(87.439 101.104)" fill="#fafdff"/>
        <rect id="Rectangle_686" data-name="Rectangle 686" width="3.93" height="1.927" transform="translate(108.79 101.104)" fill="#fafdff"/>
        <rect id="Rectangle_687" data-name="Rectangle 687" width="2.394" height="1.926" transform="translate(68.336 106.517)" fill="#fafdff"/>
        <rect id="Rectangle_688" data-name="Rectangle 688" width="22.364" height="1.926" transform="translate(72.671 106.517)" fill="#fafdff"/>
        <rect id="Rectangle_689" data-name="Rectangle 689" width="12.537" height="1.926" transform="translate(100.182 106.517)" fill="#fafdff"/>
        <rect id="Rectangle_690" data-name="Rectangle 690" width="11.885" height="1.927" transform="translate(68.336 111.93)" fill="#fafdff"/>
        <rect id="Rectangle_691" data-name="Rectangle 691" width="14.576" height="1.927" transform="translate(81.609 111.93)" fill="#fafdff"/>
        <rect id="Rectangle_692" data-name="Rectangle 692" width="14.886" height="1.927" transform="translate(97.834 111.93)" fill="#fafdff"/>
        <rect id="Rectangle_693" data-name="Rectangle 693" width="3.867" height="1.926" transform="translate(108.853 117.342)" fill="#fafdff"/>
        <rect id="Rectangle_694" data-name="Rectangle 694" width="17.264" height="1.926" transform="translate(68.336 117.342)" fill="#fafdff"/>
        <rect id="Rectangle_695" data-name="Rectangle 695" width="15.617" height="1.926" transform="translate(89.851 117.342)" fill="#fafdff"/>
        <rect id="Rectangle_696" data-name="Rectangle 696" width="10.635" height="1.927" transform="translate(102.085 122.755)" fill="#fafdff"/>
        <rect id="Rectangle_697" data-name="Rectangle 697" width="22.558" height="1.927" transform="translate(75.796 122.755)" fill="#fafdff"/>
        <rect id="Rectangle_698" data-name="Rectangle 698" width="6.072" height="1.927" transform="translate(68.336 122.755)" fill="#fafdff"/>
        <rect id="Rectangle_699" data-name="Rectangle 699" width="22.731" height="1.926" transform="translate(68.336 128.168)" fill="#fafdff"/>
        <rect id="Rectangle_700" data-name="Rectangle 700" width="13.377" height="1.926" transform="translate(95.156 128.168)" fill="#fafdff"/>
        <rect id="Rectangle_701" data-name="Rectangle 701" width="2.553" height="1.926" transform="translate(68.336 133.58)" fill="#fafdff"/>
        <rect id="Rectangle_702" data-name="Rectangle 702" width="28.179" height="1.926" transform="translate(76.4 133.58)" fill="#fafdff"/>
        <rect id="Rectangle_703" data-name="Rectangle 703" width="5.475" height="1.926" transform="translate(107.245 133.58)" fill="#fafdff"/>
        <rect id="Rectangle_704" data-name="Rectangle 704" width="11.886" height="1.927" transform="translate(68.336 138.993)" fill="#fafdff"/>
        <rect id="Rectangle_705" data-name="Rectangle 705" width="15.556" height="1.927" transform="translate(83.688 138.993)" fill="#fafdff"/>
        <rect id="Rectangle_706" data-name="Rectangle 706" width="7.786" height="1.927" transform="translate(104.934 138.993)" fill="#fafdff"/>
        <rect id="Rectangle_707" data-name="Rectangle 707" width="5.735" height="1.926" transform="translate(68.336 144.406)" fill="#fafdff"/>
        <rect id="Rectangle_708" data-name="Rectangle 708" width="16.174" height="1.926" transform="translate(75.656 144.406)" fill="#fafdff"/>
        <rect id="Rectangle_709" data-name="Rectangle 709" width="15.962" height="1.926" transform="translate(94.473 144.406)" fill="#fafdff"/>
        <rect id="Rectangle_710" data-name="Rectangle 710" width="16.623" height="1.926" transform="translate(68.336 149.818)" fill="#fafdff"/>
        <rect id="Rectangle_711" data-name="Rectangle 711" width="16.385" height="1.926" transform="translate(88.553 149.818)" fill="#fafdff"/>
        <rect id="Rectangle_712" data-name="Rectangle 712" width="273.278" height="143.26" transform="translate(98.344 106.884)" fill="#c9c9f2"/>
        <rect id="Rectangle_713" data-name="Rectangle 713" width="261.051" height="143.047" transform="translate(104.458 101.099)" fill="#fff"/>
        <rect id="Rectangle_714" data-name="Rectangle 714" width="248.642" height="1.434" transform="translate(109.894 159.66)" fill="#eed6f4"/>
        <rect id="Rectangle_715" data-name="Rectangle 715" width="248.642" height="1.434" transform="translate(110.925 137.559)" fill="#eed6f4"/>
        <rect id="Rectangle_716" data-name="Rectangle 716" width="248.642" height="1.434" transform="translate(109.894 180.499)" fill="#eed6f4"/>
        <rect id="Rectangle_717" data-name="Rectangle 717" width="248.642" height="1.434" transform="translate(109.894 201.339)" fill="#eed6f4"/>
        <rect id="Rectangle_718" data-name="Rectangle 718" width="248.642" height="1.434" transform="translate(109.894 222.179)" fill="#eed6f4"/>
        <rect id="Rectangle_719" data-name="Rectangle 719" width="1.723" height="84.759" transform="translate(141.954 138.257)" fill="#eed6f4"/>
        <rect id="Rectangle_720" data-name="Rectangle 720" width="1.723" height="84.759" transform="translate(178.736 138.257)" fill="#eed6f4"/>
        <rect id="Rectangle_721" data-name="Rectangle 721" width="1.723" height="84.759" transform="translate(215.518 138.257)" fill="#eed6f4"/>
        <rect id="Rectangle_722" data-name="Rectangle 722" width="1.723" height="84.759" transform="translate(252.299 138.257)" fill="#eed6f4"/>
        <rect id="Rectangle_723" data-name="Rectangle 723" width="1.723" height="84.759" transform="translate(285.891 138.257)" fill="#eed6f4"/>
        <rect id="Rectangle_724" data-name="Rectangle 724" width="1.722" height="84.759" transform="translate(322.673 138.257)" fill="#eed6f4"/>
        <path id="Tracé_2916" data-name="Tracé 2916" d="M605.011,637.277a2.8,2.8,0,1,1-2.8-2.793,2.795,2.795,0,0,1,2.8,2.793" transform="translate(-476.605 -504.484)" fill="#eed6f4"/>
        <path id="Tracé_2917" data-name="Tracé 2917" d="M784.2,637.277a2.8,2.8,0,1,1-2.8-2.793,2.795,2.795,0,0,1,2.8,2.793" transform="translate(-619.08 -504.484)" fill="#eed6f4"/>
        <path id="Tracé_2918" data-name="Tracé 2918" d="M963.39,637.277a2.8,2.8,0,1,1-2.8-2.793,2.794,2.794,0,0,1,2.8,2.793" transform="translate(-761.556 -504.484)" fill="#eed6f4"/>
        <path id="Tracé_2919" data-name="Tracé 2919" d="M1135.755,637.277a2.8,2.8,0,1,1-2.8-2.793,2.795,2.795,0,0,1,2.8,2.793" transform="translate(-898.605 -504.484)" fill="#eed6f4"/>
        <path id="Tracé_2920" data-name="Tracé 2920" d="M1308.121,637.277a2.8,2.8,0,1,1-2.8-2.793,2.795,2.795,0,0,1,2.8,2.793" transform="translate(-1035.655 -504.484)" fill="#eed6f4"/>
        <path id="Tracé_2921" data-name="Tracé 2921" d="M1482.847,637.277a2.8,2.8,0,1,1-2.8-2.793,2.795,2.795,0,0,1,2.8,2.793" transform="translate(-1174.582 -504.484)" fill="#eed6f4"/>
        <path id="Tracé_2922" data-name="Tracé 2922" d="M1625.345,607.686H1599.8a2.9,2.9,0,1,1,0-5.8h25.544a2.9,2.9,0,1,1,0,5.8" transform="translate(-1269.711 -478.566)" fill="#fe529c"/>
        <path id="Tracé_2923" data-name="Tracé 2923" d="M1616.107,639.864h-16.256a1.063,1.063,0,1,1,0-2.126h16.256a1.063,1.063,0,1,1,0,2.126" transform="translate(-1271.213 -507.072)" fill="#6f5192"/>
        <path id="Tracé_2924" data-name="Tracé 2924" d="M1715.606,639.864h-6.193a1.063,1.063,0,1,1,0-2.126h6.193a1.063,1.063,0,1,1,0,2.126" transform="translate(-1358.327 -507.072)" fill="#6f5192"/>
        <path id="Tracé_2925" data-name="Tracé 2925" d="M554.244,538.489h-6.5a7.107,7.107,0,0,1-7.086-7.086v-2.586a7.107,7.107,0,0,1,7.086-7.086h6.5a7.106,7.106,0,0,1,7.086,7.086V531.4a7.107,7.107,0,0,1-7.086,7.086" transform="translate(-429.887 -414.833)" fill="#eed6f4"/>
        <path id="Tracé_2926" data-name="Tracé 2926" d="M1695.815,730.5l-2.8.019a.843.843,0,1,1-.012-1.686l2.8-.019a.843.843,0,1,1,.012,1.686" transform="translate(-1345.458 -579.486)" fill="#fe529c"/>
        <path id="Tracé_2927" data-name="Tracé 2927" d="M1666.545,730.5l-2.8.019a.843.843,0,1,1-.012-1.686l2.8-.019a.843.843,0,1,1,.012,1.686" transform="translate(-1322.185 -579.486)" fill="#fe529c"/>
        <path id="Tracé_2928" data-name="Tracé 2928" d="M1636.383,730.5l-2.8.019a.843.843,0,1,1-.012-1.686l2.8-.019a.843.843,0,1,1,.012,1.686" transform="translate(-1298.203 -579.486)" fill="#fe529c"/>
        <path id="Tracé_2929" data-name="Tracé 2929" d="M1592.469,1122.257l-20.1.139a.843.843,0,1,1-.012-1.686l20.1-.139a.843.843,0,1,1,.012,1.686" transform="translate(-1249.53 -890.977)" fill="#fcdb97"/>
        <path id="Tracé_2930" data-name="Tracé 2930" d="M1691.074,1122.039l-2.8.02a.843.843,0,1,1-.012-1.686l2.8-.02a.843.843,0,1,1,.012,1.686" transform="translate(-1341.689 -890.804)" fill="#fcdb97"/>
        <path id="Tracé_2931" data-name="Tracé 2931" d="M1580.729,1140.142l-8.364.058a.843.843,0,1,1-.011-1.686l8.364-.058a.843.843,0,1,1,.012,1.686" transform="translate(-1249.529 -905.198)" fill="#fcdb97"/>
        <path id="Tracé_2932" data-name="Tracé 2932" d="M590.148,921.289a.973.973,0,0,1,0-1.374l7.565-7.556a.972.972,0,0,1,1.375,1.374l-7.565,7.556a.976.976,0,0,1-1.375,0" transform="translate(-469.008 -725.201)" fill="#fe529c"/>
        <path id="Tracé_2933" data-name="Tracé 2933" d="M590.148,912.359a.976.976,0,0,1,1.375,0l7.565,7.556a.972.972,0,1,1-1.375,1.374l-7.565-7.556a.973.973,0,0,1,0-1.374" transform="translate(-469.008 -725.201)" fill="#fe529c"/>
        <path id="Tracé_2934" data-name="Tracé 2934" d="M1127.389,822.03a.974.974,0,0,1,0-1.374l7.565-7.556a.972.972,0,1,1,1.375,1.374l-7.565,7.556a.976.976,0,0,1-1.375,0" transform="translate(-896.174 -646.279)" fill="#fe529c"/>
        <path id="Tracé_2935" data-name="Tracé 2935" d="M1127.389,813.1a.976.976,0,0,1,1.375,0l7.565,7.556a.972.972,0,0,1-1.375,1.374l-7.565-7.556a.974.974,0,0,1,0-1.374" transform="translate(-896.174 -646.279)" fill="#fe529c"/>
        <path id="Tracé_2936" data-name="Tracé 2936" d="M764.337,716.952a.974.974,0,0,1,0-1.374l7.565-7.556a.972.972,0,0,1,1.375,1.374l-7.565,7.556a.976.976,0,0,1-1.375,0" transform="translate(-607.507 -562.73)" fill="#fe529c"/>
        <path id="Tracé_2937" data-name="Tracé 2937" d="M764.337,708.022a.976.976,0,0,1,1.375,0l7.565,7.556a.972.972,0,0,1-1.375,1.374l-7.565-7.556a.974.974,0,0,1,0-1.374" transform="translate(-607.507 -562.73)" fill="#fe529c"/>
        <path id="Tracé_2938" data-name="Tracé 2938" d="M1467.985,924.85a.973.973,0,0,1,0-1.374l7.565-7.556a.972.972,0,0,1,1.375,1.374l-7.565,7.556a.976.976,0,0,1-1.375,0" transform="translate(-1166.985 -728.032)" fill="#fe529c"/>
        <path id="Tracé_2939" data-name="Tracé 2939" d="M1467.985,915.92a.976.976,0,0,1,1.375,0l7.565,7.556a.972.972,0,1,1-1.375,1.374l-7.565-7.556a.973.973,0,0,1,0-1.374" transform="translate(-1166.985 -728.032)" fill="#fe529c"/>
        <path id="Tracé_2940" data-name="Tracé 2940" d="M956.982,823.425a3.242,3.242,0,1,1-3.242-3.238,3.24,3.24,0,0,1,3.242,3.238" transform="translate(-755.751 -652.139)" fill="#3ca9df"/>
        <path id="Tracé_2941" data-name="Tracé 2941" d="M1136.5,926.245a3.242,3.242,0,1,1-3.242-3.238,3.24,3.24,0,0,1,3.242,3.238" transform="translate(-898.49 -733.892)" fill="#3ca9df"/>
        <path id="Tracé_2942" data-name="Tracé 2942" d="M1479.972,823.425a3.242,3.242,0,1,1-3.242-3.238,3.24,3.24,0,0,1,3.242,3.238" transform="translate(-1171.587 -652.139)" fill="#3ca9df"/>
        <path id="Tracé_2943" data-name="Tracé 2943" d="M1306.837,1030.149a3.242,3.242,0,1,1-3.242-3.238,3.24,3.24,0,0,1,3.242,3.238" transform="translate(-1033.925 -816.507)" fill="#3ca9df"/>
        <path id="Tracé_2944" data-name="Tracé 2944" d="M915.269,614.608a2.854,2.854,0,0,0-2.488,1.58l-1.889,3.438-.713,1.3-7.19,13.086-4.908-9.7-.93-1.837a3.083,3.083,0,0,0-3.475-1.593,3.038,3.038,0,0,0-.652.238,3.076,3.076,0,0,0-1.356,4.123l3.841,7.592,4.474,8.844a3.052,3.052,0,0,0,1.4,1.634,3.083,3.083,0,0,0,4.171-1.214l.557-1.014,6.221-11.323,1.66-3.022,4.174-7.6a3.07,3.07,0,0,0-2.9-4.533" transform="translate(-708.714 -488.671)" fill="#fe529c"/>
        <path id="Tracé_2945" data-name="Tracé 2945" d="M805.173,327.4l26.651-25.766c.162-.156.319-.313.472-.474,11.688-12.19-2.782-31.466-17.937-24.009l-8.413,4.138-8.268-4.418c-14.9-7.96-30.006,10.821-18.733,23.4q.222.247.455.489Z" transform="translate(-616.227 -218.631)" fill="#fff"/>
        <path id="Tracé_2946" data-name="Tracé 2946" d="M781.531,347.718l-3.306-14.82-2.455,7.372H766v-1.063h9l3.425-10.287,3.478,15.583,2.872-5.934h9.041v1.063h-8.373Z" transform="translate(-609.056 -261.528)" fill="#e0e0fc"/>
        <path id="Tracé_2947" data-name="Tracé 2947" d="M874.251,344.551l-3.306-14.819L868.49,337.1H858.72v-1.063h9l3.425-10.286,3.478,15.583L877.5,335.4h9.041v1.063h-8.373Z" transform="translate(-682.778 -259.011)" fill="#e0e0fc"/>
        <path id="Tracé_2948" data-name="Tracé 2948" d="M965.869,341.441l-3.307-14.82-2.455,7.372h-9.77v-1.063h9l3.425-10.287,3.479,15.583,2.871-5.933h9.041v1.063h-8.373Z" transform="translate(-755.623 -256.537)" fill="#e0e0fc"/>
        <path id="Tracé_2949" data-name="Tracé 2949" d="M1400.8,1347.6h64.491a2.988,2.988,0,0,0,2.988-2.988V1304.3a2.988,2.988,0,0,0-2.988-2.988H1400.8a2.988,2.988,0,0,0-2.988,2.988v40.31a2.988,2.988,0,0,0,2.988,2.988" transform="translate(-1111.417 -1034.686)" fill="#c9c9f2"/>
        <path id="Tracé_2950" data-name="Tracé 2950" d="M1492.905,1359.509a15.571,15.571,0,1,1,15.571,15.551,15.578,15.578,0,0,1-15.571-15.551m1.408,0a14.164,14.164,0,1,0,14.164-14.145,14.171,14.171,0,0,0-14.164,14.145" transform="translate(-1187.025 -1068.595)" fill="#fff"/>
        <path id="Tracé_2951" data-name="Tracé 2951" d="M1521.888,1379.052h6.158v-6.15H1535v6.15h6.158v6.941H1535v6.15h-6.95v-6.15h-6.158Z" transform="translate(-1210.07 -1091.609)" fill="#fff"/>
      </g>
    </g>
    <g id="Groupe_1094" data-name="Groupe 1094" transform="translate(311.818 281.289)">
      <g id="Groupe_1093" data-name="Groupe 1093" clip-path="url(#clip-path-2)">
        <rect id="Rectangle_726" data-name="Rectangle 726" width="0.208" height="19.241" transform="translate(19.058 0)" fill="#fff"/>
        <rect id="Rectangle_727" data-name="Rectangle 727" width="0.229" height="19.241" transform="translate(18.828 0)" fill="#fff"/>
        <rect id="Rectangle_728" data-name="Rectangle 728" width="0.23" height="19.241" transform="translate(18.599 0)" fill="#fff"/>
        <rect id="Rectangle_729" data-name="Rectangle 729" width="0.23" height="19.241" transform="translate(18.369 0)" fill="#fff"/>
        <rect id="Rectangle_730" data-name="Rectangle 730" width="0.229" height="19.241" transform="translate(18.14 0)" fill="#fff"/>
        <rect id="Rectangle_731" data-name="Rectangle 731" width="0.23" height="19.241" transform="translate(17.91 0)" fill="#fff"/>
        <rect id="Rectangle_732" data-name="Rectangle 732" width="0.229" height="19.241" transform="translate(17.68 0)" fill="#fff"/>
        <rect id="Rectangle_733" data-name="Rectangle 733" width="0.23" height="19.241" transform="translate(17.451 0)" fill="#fff"/>
        <rect id="Rectangle_734" data-name="Rectangle 734" width="0.23" height="19.241" transform="translate(17.221 0)" fill="#fff"/>
        <rect id="Rectangle_735" data-name="Rectangle 735" width="0.229" height="19.241" transform="translate(16.991 0)" fill="#fff"/>
        <rect id="Rectangle_736" data-name="Rectangle 736" width="0.229" height="19.241" transform="translate(16.762 0)" fill="#fff"/>
        <rect id="Rectangle_737" data-name="Rectangle 737" width="0.23" height="19.241" transform="translate(16.532 0)" fill="#fff"/>
        <rect id="Rectangle_738" data-name="Rectangle 738" width="0.229" height="19.241" transform="translate(16.303 0)" fill="#fff"/>
        <rect id="Rectangle_739" data-name="Rectangle 739" width="0.23" height="19.241" transform="translate(16.073 0)" fill="#fff"/>
        <rect id="Rectangle_740" data-name="Rectangle 740" width="0.23" height="19.241" transform="translate(15.843 0)" fill="#fff"/>
        <rect id="Rectangle_741" data-name="Rectangle 741" width="0.229" height="19.241" transform="translate(15.614 0)" fill="#fff"/>
        <rect id="Rectangle_742" data-name="Rectangle 742" width="0.23" height="19.241" transform="translate(15.384 0)" fill="#fff"/>
        <rect id="Rectangle_743" data-name="Rectangle 743" width="0.229" height="19.241" transform="translate(15.155 0)" fill="#fff"/>
        <rect id="Rectangle_744" data-name="Rectangle 744" width="0.229" height="19.241" transform="translate(14.925 0)" fill="#fff"/>
        <rect id="Rectangle_745" data-name="Rectangle 745" width="0.23" height="19.241" transform="translate(14.695 0)" fill="#fff"/>
        <rect id="Rectangle_746" data-name="Rectangle 746" width="0.229" height="19.241" transform="translate(14.466 0)" fill="#fff"/>
        <rect id="Rectangle_747" data-name="Rectangle 747" width="0.23" height="19.241" transform="translate(14.236 0)" fill="#fff"/>
        <rect id="Rectangle_748" data-name="Rectangle 748" width="0.229" height="19.241" transform="translate(14.006 0)" fill="#fff"/>
        <rect id="Rectangle_749" data-name="Rectangle 749" width="0.229" height="19.241" transform="translate(13.777 0)" fill="#fff"/>
        <rect id="Rectangle_750" data-name="Rectangle 750" width="0.23" height="19.241" transform="translate(13.547 0)" fill="#fff"/>
        <rect id="Rectangle_751" data-name="Rectangle 751" width="0.23" height="19.241" transform="translate(13.318 0)" fill="#fff"/>
        <rect id="Rectangle_752" data-name="Rectangle 752" width="0.229" height="19.241" transform="translate(13.088 0)" fill="#fff"/>
        <rect id="Rectangle_753" data-name="Rectangle 753" width="0.23" height="19.241" transform="translate(12.858 0)" fill="#fff"/>
        <rect id="Rectangle_754" data-name="Rectangle 754" width="0.229" height="19.241" transform="translate(12.629 0)" fill="#fff"/>
        <rect id="Rectangle_755" data-name="Rectangle 755" width="0.23" height="19.241" transform="translate(12.399 0)" fill="#fff"/>
        <rect id="Rectangle_756" data-name="Rectangle 756" width="0.229" height="19.241" transform="translate(12.17 0)" fill="#fff"/>
        <rect id="Rectangle_757" data-name="Rectangle 757" width="0.229" height="19.241" transform="translate(11.94 0)" fill="#fff"/>
        <rect id="Rectangle_758" data-name="Rectangle 758" width="0.23" height="19.241" transform="translate(11.71 0)" fill="#fff"/>
        <rect id="Rectangle_759" data-name="Rectangle 759" width="0.229" height="19.241" transform="translate(11.481 0)" fill="#fff"/>
        <rect id="Rectangle_760" data-name="Rectangle 760" width="0.229" height="19.241" transform="translate(11.251 0)" fill="#fff"/>
        <rect id="Rectangle_761" data-name="Rectangle 761" width="0.23" height="19.241" transform="translate(11.021 0)" fill="#fff"/>
        <rect id="Rectangle_762" data-name="Rectangle 762" width="0.229" height="19.241" transform="translate(10.792 0)" fill="#fff"/>
        <rect id="Rectangle_763" data-name="Rectangle 763" width="0.23" height="19.241" transform="translate(10.562 0)" fill="#fff"/>
        <rect id="Rectangle_764" data-name="Rectangle 764" width="0.23" height="19.241" transform="translate(10.333 0)" fill="#fff"/>
        <rect id="Rectangle_765" data-name="Rectangle 765" width="0.229" height="19.241" transform="translate(10.103 0)" fill="#fff"/>
        <rect id="Rectangle_766" data-name="Rectangle 766" width="0.23" height="19.241" transform="translate(9.873 0)" fill="#fff"/>
        <rect id="Rectangle_767" data-name="Rectangle 767" width="0.23" height="19.241" transform="translate(9.644 0)" fill="#fff"/>
        <rect id="Rectangle_768" data-name="Rectangle 768" width="0.229" height="19.241" transform="translate(9.414 0)" fill="#fff"/>
        <rect id="Rectangle_769" data-name="Rectangle 769" width="0.23" height="19.241" transform="translate(9.185 0)" fill="#fff"/>
        <rect id="Rectangle_770" data-name="Rectangle 770" width="0.23" height="19.241" transform="translate(8.955 0)" fill="#fff"/>
        <rect id="Rectangle_771" data-name="Rectangle 771" width="0.229" height="19.241" transform="translate(8.725 0)" fill="#fff"/>
        <rect id="Rectangle_772" data-name="Rectangle 772" width="0.23" height="19.241" transform="translate(8.496 0)" fill="#fff"/>
        <rect id="Rectangle_773" data-name="Rectangle 773" width="0.229" height="19.241" transform="translate(8.266 0)" fill="#fff"/>
        <rect id="Rectangle_774" data-name="Rectangle 774" width="0.23" height="19.241" transform="translate(8.037 0)" fill="#fff"/>
        <rect id="Rectangle_775" data-name="Rectangle 775" width="0.23" height="19.241" transform="translate(7.807 0)" fill="#fff"/>
        <rect id="Rectangle_776" data-name="Rectangle 776" width="0.229" height="19.241" transform="translate(7.577 0)" fill="#fff"/>
        <rect id="Rectangle_777" data-name="Rectangle 777" width="0.23" height="19.241" transform="translate(7.348 0)" fill="#fff"/>
        <rect id="Rectangle_778" data-name="Rectangle 778" width="0.229" height="19.241" transform="translate(7.118 0)" fill="#fff"/>
        <rect id="Rectangle_779" data-name="Rectangle 779" width="0.229" height="19.241" transform="translate(6.889 0)" fill="#fff"/>
        <rect id="Rectangle_780" data-name="Rectangle 780" width="0.23" height="19.241" transform="translate(6.659 0)" fill="#fff"/>
        <rect id="Rectangle_781" data-name="Rectangle 781" width="0.23" height="19.241" transform="translate(6.429 0)" fill="#fff"/>
        <rect id="Rectangle_782" data-name="Rectangle 782" width="0.23" height="19.241" transform="translate(6.2 0)" fill="#fff"/>
        <rect id="Rectangle_783" data-name="Rectangle 783" width="0.229" height="19.241" transform="translate(5.97 0)" fill="#fff"/>
        <rect id="Rectangle_784" data-name="Rectangle 784" width="0.229" height="19.241" transform="translate(5.74 0)" fill="#fff"/>
        <rect id="Rectangle_785" data-name="Rectangle 785" width="0.23" height="19.241" transform="translate(5.511 0)" fill="#fff"/>
        <rect id="Rectangle_786" data-name="Rectangle 786" width="0.229" height="19.241" transform="translate(5.281 0)" fill="#fff"/>
        <rect id="Rectangle_787" data-name="Rectangle 787" width="0.23" height="19.241" transform="translate(5.052 0)" fill="#fff"/>
        <rect id="Rectangle_788" data-name="Rectangle 788" width="0.23" height="19.241" transform="translate(4.822 0)" fill="#fff"/>
        <rect id="Rectangle_789" data-name="Rectangle 789" width="0.229" height="19.241" transform="translate(4.592 0)" fill="#fff"/>
        <rect id="Rectangle_790" data-name="Rectangle 790" width="0.23" height="19.241" transform="translate(4.363 0)" fill="#fff"/>
        <rect id="Rectangle_791" data-name="Rectangle 791" width="0.229" height="19.241" transform="translate(4.133 0)" fill="#fff"/>
        <rect id="Rectangle_792" data-name="Rectangle 792" width="0.23" height="19.241" transform="translate(3.904 0)" fill="#fff"/>
        <rect id="Rectangle_793" data-name="Rectangle 793" width="0.23" height="19.241" transform="translate(3.674 0)" fill="#fff"/>
        <rect id="Rectangle_794" data-name="Rectangle 794" width="0.229" height="19.241" transform="translate(3.444 0)" fill="#fff"/>
        <rect id="Rectangle_795" data-name="Rectangle 795" width="0.229" height="19.241" transform="translate(3.215 0)" fill="#fff"/>
        <rect id="Rectangle_796" data-name="Rectangle 796" width="0.23" height="19.241" transform="translate(2.985 0)" fill="#fff"/>
        <rect id="Rectangle_797" data-name="Rectangle 797" width="0.229" height="19.241" transform="translate(2.755 0)" fill="#fff"/>
        <rect id="Rectangle_798" data-name="Rectangle 798" width="0.23" height="19.241" transform="translate(2.526 0)" fill="#fff"/>
        <rect id="Rectangle_799" data-name="Rectangle 799" width="0.23" height="19.241" transform="translate(2.296 0)" fill="#fff"/>
        <rect id="Rectangle_800" data-name="Rectangle 800" width="0.229" height="19.241" transform="translate(2.067 0)" fill="#fff"/>
        <rect id="Rectangle_801" data-name="Rectangle 801" width="0.229" height="19.241" transform="translate(1.837 0)" fill="#fff"/>
        <rect id="Rectangle_802" data-name="Rectangle 802" width="0.23" height="19.241" transform="translate(1.607 0)" fill="#fff"/>
        <rect id="Rectangle_803" data-name="Rectangle 803" width="0.229" height="19.241" transform="translate(1.378 0)" fill="#fff"/>
        <rect id="Rectangle_804" data-name="Rectangle 804" width="0.23" height="19.241" transform="translate(1.148 0)" fill="#fff"/>
        <rect id="Rectangle_805" data-name="Rectangle 805" width="0.23" height="19.241" transform="translate(0.919 0)" fill="#fff"/>
        <rect id="Rectangle_806" data-name="Rectangle 806" width="0.23" height="19.241" transform="translate(0.689 0)" fill="#fff"/>
        <rect id="Rectangle_807" data-name="Rectangle 807" width="0.229" height="19.241" transform="translate(0.459 0)" fill="#fff"/>
        <rect id="Rectangle_808" data-name="Rectangle 808" width="0.23" height="19.241" transform="translate(0.23 0)" fill="#fff"/>
        <rect id="Rectangle_809" data-name="Rectangle 809" width="0.229" height="19.241" transform="translate(0 0)" fill="#fff"/>
        <path id="Tracé_2952" data-name="Tracé 2952" d="M1521.888,1392.143v0Z" transform="translate(-1521.888 -1372.902)" fill="#fff"/>
      </g>
    </g>
    <g id="Groupe_1096" data-name="Groupe 1096" transform="translate(0 -0.004)">
      <g id="Groupe_1095" data-name="Groupe 1095" transform="translate(0 0)" clip-path="url(#clip-path)">
        <path id="Tracé_2954" data-name="Tracé 2954" d="M1500.82,1257.019a4.125,4.125,0,0,1,4.123-4.118h18.888a4.125,4.125,0,0,1,4.123,4.118v10.937H1500.82Zm25.716,0a2.706,2.706,0,0,0-2.7-2.7h-18.888a2.706,2.706,0,0,0-2.7,2.7v9.52h24.3Z" transform="translate(-1193.318 -996.195)" fill="#c9c9f2"/>
        <path id="Tracé_2955" data-name="Tracé 2955" d="M1435.151,410.924a.532.532,0,0,1-.532-.531v-2.834a.532.532,0,0,1,1.064,0v2.834a.532.532,0,0,1-.532.531m0-5.668a.532.532,0,0,1-.532-.531v-2.834a.532.532,0,0,1,1.064,0v2.834a.532.532,0,0,1-.532.531m0-5.668a.532.532,0,0,1-.532-.531v-2.834a.532.532,0,0,1,1.064,0v2.834a.532.532,0,0,1-.532.531m0-5.668a.532.532,0,0,1-.532-.531v-2.834a.532.532,0,0,1,1.064,0v2.834a.532.532,0,0,1-.532.531m0-5.668a.532.532,0,0,1-.532-.531v-2.834a.532.532,0,0,1,1.064,0v2.834a.532.532,0,0,1-.532.531" transform="translate(-1140.681 -305.606)" fill="#fff"/>
        <path id="Tracé_2956" data-name="Tracé 2956" d="M1931.693,729.445c5.268,22.631,11.113,43.12,15.141,57.951,4.47,14.831,7.122,24,16.225,24,8.221,0,21.252-9.173,28.134-24,7.324-14.831,8.5-35.32,3.231-57.951s-11.115-43.12-15.142-57.951c-4.469-14.831-7.12-24-16.224-24-8.221,0-21.252,9.173-28.134,24-7.325,14.831-8.5,35.32-3.231,57.951" transform="translate(-1533.325 -514.826)" fill="#c9c9f2"/>
        <path id="Tracé_2957" data-name="Tracé 2957" d="M2010.437,749.918l-.569-.78-34.4,21.838V747.1l.453-.624-.453-.286v-24.2l25.668-16.069-.563-.784-25.1,15.717v-37.6l17.1-10.843-.569-.781-16.535,10.482V647.49h-1.012V700.13l-28.172-17.8-.567.782,28.739,18.155v44.283l-27.684-17.49-.567.782,28.251,17.848v48.612l-12.058-6.646-.514.813,12.572,6.93v42.033h1.012v-66.38l.031.042Z" transform="translate(-1547.058 -514.826)" fill="#fff"/>
        <path id="Tracé_2958" data-name="Tracé 2958" d="M45.388,747.469c-6.144-6.459-17.384-6.459-23.528,0l-.1.1c-4.281,4.548-6.7,10.957-4.439,16.542,1.162,2.868,3.5,5.467,3.52,8.517.039,5.168-6.18,8.283-9.638,12.431A13.423,13.423,0,0,0,9.279,799.3c2.036,4.306,6.475,8.031,6.108,12.693-.242,3.066-2.559,5.641-4.754,8.011-3.491,3.768-6.984,7.65-9.008,12.192s-2.4,9.916.284,14.178c2.214,3.517,6.349,6.111,7.4,10.034,1.031,3.852-1.239,7.748-1.644,11.692-.765,7.442,5.792,14.571,13.891,16.5a24.961,24.961,0,0,0,10.882.046,5.788,5.788,0,0,1,2.378,0,24.961,24.961,0,0,0,10.882-.046c8.1-1.924,14.656-9.053,13.891-16.5-.405-3.944-2.675-7.839-1.644-11.692,1.05-3.923,5.184-6.517,7.4-10.034,2.683-4.262,2.308-9.636.284-14.178S60.107,823.769,56.617,820c-2.2-2.37-4.513-4.945-4.754-8.011-.367-4.662,4.072-8.387,6.108-12.693a13.423,13.423,0,0,0-1.926-14.235c-3.457-4.148-9.677-7.263-9.638-12.431.023-3.05,2.358-5.649,3.52-8.517,2.263-5.584-.158-11.993-4.439-16.542l-.1-.1" transform="translate(0 -590.468)" fill="#c9c9f2"/>
        <path id="Tracé_2959" data-name="Tracé 2959" d="M104.678,878l1.62-6.748-.838-.16-2.063,8.592c.071.014-13.392,18.916-13.392,18.916V866.448l8.635-8.679,11.226-11.283-.641-.508L99.051,856.205,102,843.664l-.839-.157L97.9,857.358l-7.9,7.938v-62c.051.032,7.562-9.343,7.562-9.343l3.191-3.983-.7-.444-2.211,2.759,1.2-8.716-.85-.093-1.388,10.109-6.8,8.492V773.542h-.857V797L80.42,785.8l-.7.436,9.431,12.109v41.511l-8.012-13.78-.179-8.461-.857.014.146,6.916-4.7-8.084-.761.352,14.363,24.7v45.969L76.705,871.65,73.131,857.1l-.837.164,3.135,12.766-3.838-4.885-.7.439,18.178,23.132.082-.052v49.2h.857V899.931c.049.028,19.552-27.356,19.552-27.356l-.723-.409Z" transform="translate(-56.364 -615.051)" fill="#fff"/>
        <path id="Tracé_2960" data-name="Tracé 2960" d="M938.8,731.624a.788.788,0,0,0-.359.882,4.793,4.793,0,0,1,.229,1.332,4.126,4.126,0,0,0-.142,2.3,1.958,1.958,0,0,0,.568.866,7.644,7.644,0,0,0,1.166.438,8.779,8.779,0,0,0,.881.549c.327.118.8-.05.788-.4l.632-1.028a4.321,4.321,0,0,1,.219-2.044,5.117,5.117,0,0,0,.3-.9.969.969,0,0,0-.239-.875,16.4,16.4,0,0,0-3.034-1.057,2.885,2.885,0,0,0-1.009-.076" transform="translate(-746.143 -581.697)" fill="#ff8698"/>
        <path id="Tracé_2961" data-name="Tracé 2961" d="M943,774.442c0-.432.021-.841.026-1.1.124-7.589-.206-15.061-.63-22.718l-1.584-1c-1.645,7.284-1.065,17.3-2.55,24.846L940,776.144l-.705.731c1.726,1.167,3.7-.158,3.707-2.433" transform="translate(-746.023 -596.033)" fill="#ff8698"/>
        <path id="Tracé_2962" data-name="Tracé 2962" d="M871.722,860.652c-1.073.161-1.517,1.086-2.394,1.841-4.015,3.455-11.9,11.881-17.515,17.22l-.319,5.226c.327.007.656,0,.981-.028a18.844,18.844,0,0,0,9.741-3.713l.094-.127c1.008-1.34,1.966-2.736,2.91-4.124,1.1-1.616,7.7-11.221,8.477-13.049a3.473,3.473,0,0,0,.359-1.451,2,2,0,0,0-2.334-1.8" transform="translate(-677.032 -684.296)" fill="#ff8698"/>
        <path id="Tracé_2963" data-name="Tracé 2963" d="M829.585,883.919a10.154,10.154,0,0,1-.444,2.19c-.043.115-1.361,5.777-1.317,5.891s3.066.47,3.18.525c1.45.7.939.131,2.419-.509.378-.164.662-.021.808-.4a53.445,53.445,0,0,0,1.239-7.788,13.96,13.96,0,0,1,.273-3.193c0-.024-4.253.582-4.608.63-.49.067-1.3,0-1.462.537-.148.49,0,1.519-.088,2.118" transform="translate(-658.211 -700.201)" fill="#f76f87"/>
        <path id="Tracé_2964" data-name="Tracé 2964" d="M847.064,822.564a33.914,33.914,0,0,0,.586-5.518c0-.336-.025-.662-.021-.979l-8.618-3.59a5.964,5.964,0,0,0-2.6,4.588l-.328,4.994a6.58,6.58,0,0,0,.752,3.5c.028.121.091.414.147.808l2.2,1.09a.987.987,0,0,1,.389-.675,1.227,1.227,0,0,1,1.178-.008c.374.169.693.435,1.056.625a2.909,2.909,0,0,0,1.888.273,3.77,3.77,0,0,0,2.47-2,10.067,10.067,0,0,0,.906-3.106" transform="translate(-664.765 -646.009)" fill="#ff8698"/>
        <path id="Tracé_2965" data-name="Tracé 2965" d="M851.207,883.732l2.745.779.021-.247a.511.511,0,0,1,.455-.455,6.71,6.71,0,0,0,2.873-1.13,5.146,5.146,0,0,1-.834.179,5.774,5.774,0,0,1-3.144-.521,5.966,5.966,0,0,1-1.286-.788.923.923,0,0,0-.516.148c-.453.314-.452.964-.388,1.5.021.177.049.353.073.53" transform="translate(-676.722 -700.929)" fill="#f76f87"/>
        <path id="Tracé_2966" data-name="Tracé 2966" d="M863.557,837.335l.2-7.109-.542-.226c0,.317.023.643.021.979a33.884,33.884,0,0,1-.586,5.518,10.065,10.065,0,0,1-.906,3.106,3.771,3.771,0,0,1-2.47,2,2.908,2.908,0,0,1-1.888-.273c-.363-.19-.683-.456-1.056-.625a1.558,1.558,0,0,0-.662-.141,5.953,5.953,0,0,0,1.286.788,5.774,5.774,0,0,0,3.144.521,5.124,5.124,0,0,0,.833-.18,5.829,5.829,0,0,0,2.627-4.357" transform="translate(-680.35 -659.941)" fill="#ff8698"/>
        <path id="Tracé_2967" data-name="Tracé 2967" d="M823.908,812.417c1.7.553,1.081,2.765,4.738,2.091,2.871-.529,1.881-1.9,1.718-2.591a2.358,2.358,0,0,1,1.279-2.443,24.2,24.2,0,0,1,2.389-.862c1.961-.84,5.362-4.36.392-5.773-1.045-.3-.977-.611-1.111-1.6a3.005,3.005,0,0,0-.851-1.674,4.505,4.505,0,0,0-.629-.465c.117-.127-1.2-.363-1.109-.5a8.57,8.57,0,0,1,2.951.617c.93.771.228.673,2.068,1.21,1.173.343,2.751.374,3.255,1.467a5.71,5.71,0,0,1,.01,3.949c-.323.833-1.392,1.987-1.533,2.867-.054.333-.086,1.635-.429,1.681-.092.012-.142-.071-.177-.175a15.973,15.973,0,0,1-2.245,2.8,7.364,7.364,0,0,1-6.081,4.412,1.249,1.249,0,0,1-.676-.124c-.828-.428-.244-.72-2.491-1.1-2.779-.469-1.305-2.387-1.468-3.788" transform="translate(-654.902 -634.976)" fill="#000543"/>
        <path id="Tracé_2968" data-name="Tracé 2968" d="M875.674,853.3c.012-1.139.7-2.011,1.547-1.949a1.206,1.206,0,0,1,.444.133,1.348,1.348,0,0,0-.846-.413c-.842-.063-1.535.81-1.547,1.949a2.229,2.229,0,0,0,1.059,2.042,2.471,2.471,0,0,1-.657-1.762" transform="translate(-695.938 -676.69)" fill="#f76f87"/>
        <path id="Tracé_2969" data-name="Tracé 2969" d="M878.335,856.279c.842.063,1.535-.81,1.547-1.948a2.469,2.469,0,0,0-.657-1.762,1.2,1.2,0,0,0-.444-.133c-.842-.063-1.534.81-1.547,1.949a2.469,2.469,0,0,0,.657,1.762,1.215,1.215,0,0,0,.444.132" transform="translate(-697.499 -677.778)" fill="#ff8698"/>
        <path id="Tracé_2970" data-name="Tracé 2970" d="M825.482,808.133a1.041,1.041,0,0,0,.624-.164,1.028,1.028,0,0,0,.39-1.174,1.875,1.875,0,0,0-.213-.389,10.422,10.422,0,0,1,4.477-4.627,3.548,3.548,0,0,0,.977-.738,4.524,4.524,0,0,1,.629.465,3.005,3.005,0,0,1,.851,1.675,2.079,2.079,0,0,0,.352,1.238,1.66,1.66,0,0,0,.759.362c1.048.3,2.225.788,2.517,1.819a2.808,2.808,0,0,1-.965,2.538,5.971,5.971,0,0,1-1.943,1.416,24.159,24.159,0,0,0-2.389.862,2.357,2.357,0,0,0-1.278,2.443c.092.394.657.782.636,1.185-.023.439-.684.8-1.073,1.023a4.113,4.113,0,0,1-1.281.384,3.738,3.738,0,0,1-2.475-.113c-.888-.492-1.35-1.682-2.263-1.978a3.405,3.405,0,0,0-.273-.932c.692-1.771,1.242-3.589,1.943-5.292" transform="translate(-654.805 -636.916)" fill="#000543"/>
        <path id="Tracé_2971" data-name="Tracé 2971" d="M826.018,798.6s-12.442.138-6.816,13.816c0,0,15.236-10.829,6.816-13.816" transform="translate(-650.195 -634.976)" fill="#000543"/>
        <path id="Tracé_2972" data-name="Tracé 2972" d="M741.273,1187.627c0,.091-.511,1.014-.5,1.046a3.432,3.432,0,0,1-.528,1.771c-.218.485-.508.93-.7,1.426a2.279,2.279,0,0,0-.1,1.59,3.064,3.064,0,0,0,.425.73q.773,1.072,1.626,2.078a3.313,3.313,0,0,0,.582.577c.147.1.35.181.484.074.174-.139.078-.436-.039-.642a3.222,3.222,0,0,1-.514-1.192,2.617,2.617,0,0,1,0-.444q.087-1.39.174-2.78c.007-.108.073-.254.168-.2a.164.164,0,0,1,.061.078,1.229,1.229,0,0,1,.085.6l.926-.1.132-.707a5.717,5.717,0,0,0,.142-1.357,4.962,4.962,0,0,0-.378-1.5Z" transform="translate(-587.851 -944.294)" fill="#ff8698"/>
        <path id="Tracé_2973" data-name="Tracé 2973" d="M753.705,1210.544l-.18,1.384a2.637,2.637,0,0,0-.009.94.6.6,0,0,0,.151.3.249.249,0,0,0,.3.049.382.382,0,0,0,.122-.223c.107-.386.181-.782.255-1.178l.315-1.683-.926.1c-.006.1-.016.206-.03.306" transform="translate(-599.098 -962.192)" fill="#ff8698"/>
        <path id="Tracé_2974" data-name="Tracé 2974" d="M702.427,1513.5l-4.133-7.169c-.2-.354-.641-.563-.869-.416l-3.627,2.335c-.211.136-.133.511.162.782l6.165,5.662c1.62,1.488,3.334.6,2.3-1.194" transform="translate(-551.552 -1197.33)" fill="#fff"/>
        <path id="Tracé_2975" data-name="Tracé 2975" d="M706.781,1359.375c4.335-8.267,11.063-20.949,20.341-37.507l9.612,4.053c-4.848,8.652-20.058,23.994-27.06,34.839-1.014,1.571-.633,2.337-2.407,1.588-1.82-.768-1.367-1.293-.486-2.974" transform="translate(-561.357 -1051.031)" fill="#ff8698"/>
        <path id="Tracé_2976" data-name="Tracé 2976" d="M843.941,1555.732l-7.884-2.513c-.389-.124-.853.016-.922.278l-1.106,4.169c-.064.243.246.467.647.469l8.37.03c2.2.008,2.866-1.8.9-2.433" transform="translate(-663.138 -1234.945)" fill="#fff"/>
        <path id="Tracé_2977" data-name="Tracé 2977" d="M838.206,1389.159c.782-9.3,2.053-23.6,4.168-42.464H851.1c-1.1,9.856-6.264,29.87-8.5,42.584-.324,1.842-.033,2.563-1.96,2.563-1.976,0-2.6-.792-2.436-2.684" transform="translate(-666.448 -1070.771)" fill="#ff8698"/>
        <path id="Tracé_2978" data-name="Tracé 2978" d="M752.121,968.882a107.826,107.826,0,0,1,9.731-23.865,5.483,5.483,0,0,0-1.352-6.471c-1.874-1.289-3.888-.111-5.078,2.04-7.72,13.952-9.205,33.179-9.035,49.758l2.579.721a86.029,86.029,0,0,1,2.419-19.3c.229-.964.478-1.923.736-2.879" transform="translate(-593.451 -745.821)" fill="#ff8698"/>
        <path id="Tracé_2979" data-name="Tracé 2979" d="M795.479,1202.408a13.114,13.114,0,0,0-.829-5.3c-2.033-4.528-7.939-5.452-11.386-8.948a13.976,13.976,0,0,1-3.556-8.764,39.944,39.944,0,0,1,.6-8.953h-.666A6.275,6.275,0,0,0,777.9,1175c-.047,2.806-.094,5.583-.141,8.389-.523,4.7,2.279,11.044,2.18,15.951-.108,5.36-2.734,9.47-2.841,14.83a16.511,16.511,0,0,0,7.6,2.17c6.756,0,8.235-.836,9.9-1.592a80.106,80.106,0,0,0,.885-12.344" transform="translate(-617.878 -930.63)" fill="#000543"/>
        <path id="Tracé_2980" data-name="Tracé 2980" d="M817.113,1173.041a6.332,6.332,0,0,0-.689-2.855l-7.222.052H790.167a39.952,39.952,0,0,0-.6,8.953,13.977,13.977,0,0,0,3.556,8.764c3.447,3.5,9.353,4.42,11.386,8.948a13.121,13.121,0,0,1,.829,5.3,80.1,80.1,0,0,1-.885,12.344,11.229,11.229,0,0,1,1.5-.578,17.975,17.975,0,0,1,6.347-.14,1.02,1.02,0,0,0,1.106-.925c1.709-13.25,3.846-26.617,3.7-39.865" transform="translate(-627.739 -930.427)" fill="#000543"/>
        <path id="Tracé_2981" data-name="Tracé 2981" d="M800.729,976.1c-1.986.091-3.957.451-5.949.355a7.691,7.691,0,0,1-5.448-2.251c-1.993-2.238-1.847-5.717-.81-8.477s2.806-5.17,3.789-7.952c2.181-6.174.218-13.094-1.549-19.523-1.312-4.771-2.475-9.945-1.788-14.673-1.41.821-2.7,1.63-3.723,2.139a53.071,53.071,0,0,0,1.735,13.771c1.143,4.944,3.25,9.607,2.331,14.762-.46,2.582-1.679,4.916-2.633,7.3a68.741,68.741,0,0,0-2.622,7.619,35.736,35.736,0,0,0-1.232,8.23s2.976,3.338,11.1,3.338c6.752,0,7.438-2.395,12.479-3.312.806-.146,1.516-.236,2.143-.287a22.574,22.574,0,0,0-7.823-1.04" transform="translate(-622.438 -734.349)" fill="#e6f3ff"/>
        <path id="Tracé_2982" data-name="Tracé 2982" d="M831.37,966.085a30.316,30.316,0,0,0-1.38-7.51c-1.877-5.758-2.1-26.372-2.237-37.831a11.487,11.487,0,0,0-7.768-10.719,9.9,9.9,0,0,0-3.761-.6c-2.479-.169-5.469,1.381-8.055,2.888-.688,4.728.476,9.9,1.788,14.673,1.768,6.428,3.73,13.349,1.549,19.523-.983,2.782-2.752,5.192-3.789,7.952s-1.183,6.24.81,8.477a7.691,7.691,0,0,0,5.448,2.251c1.992.1,3.962-.263,5.949-.355a22.578,22.578,0,0,1,7.823,1.04,9.373,9.373,0,0,1,3.624.209" transform="translate(-641.632 -723.081)" fill="#e6f3ff"/>
        <path id="Tracé_2983" data-name="Tracé 2983" d="M803.749,880.305c-.032-2.664-.122-5.442-1.3-7.778-1.451-2.878-4.3-4.583-7.094-5.867a14.642,14.642,0,0,1-3.274-1.805,4.653,4.653,0,0,1-1.816-3.309c-.1-2.6,2.489-5.43.762-7.995-2.157-3.2-5.254.772-5.86,3.124a8.661,8.661,0,0,1-.751,2.239,8.221,8.221,0,0,1-1.452,1.632A11.638,11.638,0,0,0,780,865.073a7.623,7.623,0,0,0,.121,5.431c.528,1.186,1.437,2.21,1.617,3.513.253,1.829-.986,3.459-1.714,5.139a9.872,9.872,0,0,0-.464,6.406,10.588,10.588,0,0,0,8.048,7.33,16.376,16.376,0,0,0,10.78-1.958,12.025,12.025,0,0,0,5.362-10.629" transform="translate(-619.574 -677.715)" fill="#000543"/>
        <path id="Tracé_2984" data-name="Tracé 2984" d="M1302.666,80.346a4.6,4.6,0,0,0-4.459,4.924c.742,41.189,25.685,54.239,29.012,55.8,3.328-1.559,28.271-14.61,29.013-55.8a4.6,4.6,0,0,0-4.459-4.924Z" transform="translate(-1032.219 -63.883)" fill="#fff"/>
        <path id="Tracé_2985" data-name="Tracé 2985" d="M1334.941,145.458l-.152-.072c-2.653-1.242-25.935-13.235-26.617-51.112a4.977,4.977,0,0,1,1.37-3.575,4.239,4.239,0,0,1,3.048-1.273h44.7a4.24,4.24,0,0,1,3.047,1.273,4.976,4.976,0,0,1,1.37,3.575c-.682,37.873-23.963,49.868-26.616,51.112ZM1312.59,90.144a3.48,3.48,0,0,0-2.536,1.058,4.254,4.254,0,0,0-1.164,3.059c.663,36.8,22.81,48.838,26.051,50.4,3.241-1.565,25.389-13.608,26.05-50.4a4.256,4.256,0,0,0-1.164-3.06,3.479,3.479,0,0,0-2.535-1.058Z" transform="translate(-1040.141 -71.104)" fill="#e0e0fc"/>
        <path id="Tracé_2986" data-name="Tracé 2986" d="M1386.964,173.87a13.284,13.284,0,1,1,13.3-13.284,13.308,13.308,0,0,1-13.3,13.284m0-25.368a12.084,12.084,0,1,0,12.1,12.084,12.105,12.105,0,0,0-12.1-12.084" transform="translate(-1092.214 -117.12)" fill="#e0e0fc"/>
        <path id="Tracé_2987" data-name="Tracé 2987" d="M1414.88,177.281h-5.261v-5.254h-5.937v5.254h-5.261v5.929h5.261v5.254h5.937V183.21h5.261Z" transform="translate(-1111.9 -136.78)" fill="#e0e0fc"/>
      </g>
    </g>
    <g id="Groupe_1098" data-name="Groupe 1098" transform="translate(286.521 35.243)">
      <g id="Groupe_1097" data-name="Groupe 1097" clip-path="url(#clip-path-4)">
        <rect id="Rectangle_811" data-name="Rectangle 811" width="0.178" height="16.437" transform="translate(0 0)" fill="#e0e0fc"/>
        <rect id="Rectangle_812" data-name="Rectangle 812" width="0.196" height="16.437" transform="translate(0.178 0)" fill="#e0e0fc"/>
        <rect id="Rectangle_813" data-name="Rectangle 813" width="0.196" height="16.437" transform="translate(0.374 0)" fill="#e0e0fc"/>
        <rect id="Rectangle_814" data-name="Rectangle 814" width="0.196" height="16.437" transform="translate(0.57 0)" fill="#e0e0fc"/>
        <rect id="Rectangle_815" data-name="Rectangle 815" width="0.196" height="16.437" transform="translate(0.766 0)" fill="#e0e0fc"/>
        <rect id="Rectangle_816" data-name="Rectangle 816" width="0.196" height="16.437" transform="translate(0.963 0)" fill="#e0e0fc"/>
        <rect id="Rectangle_817" data-name="Rectangle 817" width="0.196" height="16.437" transform="translate(1.159 0)" fill="#e0e0fc"/>
        <rect id="Rectangle_818" data-name="Rectangle 818" width="0.196" height="16.437" transform="translate(1.355 0)" fill="#e0e0fc"/>
        <rect id="Rectangle_819" data-name="Rectangle 819" width="0.196" height="16.437" transform="translate(1.551 0)" fill="#e0e0fc"/>
        <rect id="Rectangle_820" data-name="Rectangle 820" width="0.196" height="16.437" transform="translate(1.747 0)" fill="#e0e0fc"/>
        <rect id="Rectangle_821" data-name="Rectangle 821" width="0.196" height="16.437" transform="translate(1.943 0)" fill="#e0e0fc"/>
        <rect id="Rectangle_822" data-name="Rectangle 822" width="0.196" height="16.437" transform="translate(2.139 0)" fill="#e0e0fc"/>
        <rect id="Rectangle_823" data-name="Rectangle 823" width="0.196" height="16.437" transform="translate(2.336 0)" fill="#e0e0fc"/>
        <rect id="Rectangle_824" data-name="Rectangle 824" width="0.196" height="16.437" transform="translate(2.532 0)" fill="#e0e0fc"/>
        <rect id="Rectangle_825" data-name="Rectangle 825" width="0.196" height="16.437" transform="translate(2.728 0)" fill="#e0e0fc"/>
        <rect id="Rectangle_826" data-name="Rectangle 826" width="0.196" height="16.437" transform="translate(2.924 0)" fill="#e0e0fc"/>
        <rect id="Rectangle_827" data-name="Rectangle 827" width="0.196" height="16.437" transform="translate(3.12 0)" fill="#e0e0fc"/>
        <rect id="Rectangle_828" data-name="Rectangle 828" width="0.196" height="16.437" transform="translate(3.316 0)" fill="#e0e0fc"/>
        <rect id="Rectangle_829" data-name="Rectangle 829" width="0.196" height="16.437" transform="translate(3.513 0)" fill="#e0e0fc"/>
        <rect id="Rectangle_830" data-name="Rectangle 830" width="0.196" height="16.437" transform="translate(3.708 0)" fill="#e0e0fc"/>
        <rect id="Rectangle_831" data-name="Rectangle 831" width="0.196" height="16.437" transform="translate(3.905 0)" fill="#e0e0fc"/>
        <rect id="Rectangle_832" data-name="Rectangle 832" width="0.196" height="16.437" transform="translate(4.101 0)" fill="#e0e0fc"/>
        <rect id="Rectangle_833" data-name="Rectangle 833" width="0.196" height="16.437" transform="translate(4.297 0)" fill="#e0e0fc"/>
        <rect id="Rectangle_834" data-name="Rectangle 834" width="0.196" height="16.437" transform="translate(4.493 0)" fill="#e0e0fc"/>
        <rect id="Rectangle_835" data-name="Rectangle 835" width="0.196" height="16.437" transform="translate(4.689 0)" fill="#e0e0fc"/>
        <rect id="Rectangle_836" data-name="Rectangle 836" width="0.196" height="16.437" transform="translate(4.886 0)" fill="#e0e0fc"/>
        <rect id="Rectangle_837" data-name="Rectangle 837" width="0.196" height="16.437" transform="translate(5.082 0)" fill="#e0e0fc"/>
        <rect id="Rectangle_838" data-name="Rectangle 838" width="0.196" height="16.437" transform="translate(5.278 0)" fill="#e0e0fc"/>
        <rect id="Rectangle_839" data-name="Rectangle 839" width="0.196" height="16.437" transform="translate(5.474 0)" fill="#e0e0fc"/>
        <rect id="Rectangle_840" data-name="Rectangle 840" width="0.196" height="16.437" transform="translate(5.67 0)" fill="#e0e0fc"/>
        <rect id="Rectangle_841" data-name="Rectangle 841" width="0.196" height="16.437" transform="translate(5.866 0)" fill="#e0e0fc"/>
        <rect id="Rectangle_842" data-name="Rectangle 842" width="0.196" height="16.437" transform="translate(6.063 0)" fill="#e0e0fc"/>
        <rect id="Rectangle_843" data-name="Rectangle 843" width="0.196" height="16.437" transform="translate(6.259 0)" fill="#e0e0fc"/>
        <rect id="Rectangle_844" data-name="Rectangle 844" width="0.196" height="16.437" transform="translate(6.455 0)" fill="#e0e0fc"/>
        <rect id="Rectangle_845" data-name="Rectangle 845" width="0.196" height="16.437" transform="translate(6.651 0)" fill="#e0e0fc"/>
        <rect id="Rectangle_846" data-name="Rectangle 846" width="0.196" height="16.437" transform="translate(6.847 0)" fill="#e0e0fc"/>
        <rect id="Rectangle_847" data-name="Rectangle 847" width="0.196" height="16.437" transform="translate(7.043 0)" fill="#e0e0fc"/>
        <rect id="Rectangle_848" data-name="Rectangle 848" width="0.196" height="16.437" transform="translate(7.239 0)" fill="#e0e0fc"/>
        <rect id="Rectangle_849" data-name="Rectangle 849" width="0.196" height="16.437" transform="translate(7.436 0)" fill="#e0e0fc"/>
        <rect id="Rectangle_850" data-name="Rectangle 850" width="0.196" height="16.437" transform="translate(7.631 0)" fill="#e0e0fc"/>
        <rect id="Rectangle_851" data-name="Rectangle 851" width="0.196" height="16.437" transform="translate(7.828 0)" fill="#e0e0fc"/>
        <rect id="Rectangle_852" data-name="Rectangle 852" width="0.196" height="16.437" transform="translate(8.024 0)" fill="#e0e0fc"/>
        <rect id="Rectangle_853" data-name="Rectangle 853" width="0.196" height="16.437" transform="translate(8.22 0)" fill="#e0e0fc"/>
        <rect id="Rectangle_854" data-name="Rectangle 854" width="0.196" height="16.437" transform="translate(8.416 0)" fill="#e0e0fc"/>
        <rect id="Rectangle_855" data-name="Rectangle 855" width="0.196" height="16.437" transform="translate(8.612 0)" fill="#e0e0fc"/>
        <rect id="Rectangle_856" data-name="Rectangle 856" width="0.196" height="16.437" transform="translate(8.808 0)" fill="#e0e0fc"/>
        <rect id="Rectangle_857" data-name="Rectangle 857" width="0.196" height="16.437" transform="translate(9.005 0)" fill="#e0e0fc"/>
        <rect id="Rectangle_858" data-name="Rectangle 858" width="0.196" height="16.437" transform="translate(9.201 0)" fill="#e0e0fc"/>
        <rect id="Rectangle_859" data-name="Rectangle 859" width="0.196" height="16.437" transform="translate(9.397 0)" fill="#e0e0fc"/>
        <rect id="Rectangle_860" data-name="Rectangle 860" width="0.196" height="16.437" transform="translate(9.593 0)" fill="#e0e0fc"/>
        <rect id="Rectangle_861" data-name="Rectangle 861" width="0.196" height="16.437" transform="translate(9.789 0)" fill="#e0e0fc"/>
        <rect id="Rectangle_862" data-name="Rectangle 862" width="0.196" height="16.437" transform="translate(9.985 0)" fill="#e0e0fc"/>
        <rect id="Rectangle_863" data-name="Rectangle 863" width="0.196" height="16.437" transform="translate(10.182 0)" fill="#e0e0fc"/>
        <rect id="Rectangle_864" data-name="Rectangle 864" width="0.196" height="16.437" transform="translate(10.378 0)" fill="#e0e0fc"/>
        <rect id="Rectangle_865" data-name="Rectangle 865" width="0.196" height="16.437" transform="translate(10.574 0)" fill="#e0e0fc"/>
        <rect id="Rectangle_866" data-name="Rectangle 866" width="0.196" height="16.437" transform="translate(10.77 0)" fill="#e0e0fc"/>
        <rect id="Rectangle_867" data-name="Rectangle 867" width="0.196" height="16.437" transform="translate(10.966 0)" fill="#e0e0fc"/>
        <rect id="Rectangle_868" data-name="Rectangle 868" width="0.196" height="16.437" transform="translate(11.162 0)" fill="#e0e0fc"/>
        <rect id="Rectangle_869" data-name="Rectangle 869" width="0.196" height="16.437" transform="translate(11.359 0)" fill="#e0e0fc"/>
        <rect id="Rectangle_870" data-name="Rectangle 870" width="0.196" height="16.437" transform="translate(11.554 0)" fill="#e0e0fc"/>
        <rect id="Rectangle_871" data-name="Rectangle 871" width="0.196" height="16.437" transform="translate(11.751 0)" fill="#e0e0fc"/>
        <rect id="Rectangle_872" data-name="Rectangle 872" width="0.196" height="16.437" transform="translate(11.947 0)" fill="#e0e0fc"/>
        <rect id="Rectangle_873" data-name="Rectangle 873" width="0.196" height="16.437" transform="translate(12.143 0)" fill="#e0e0fc"/>
        <rect id="Rectangle_874" data-name="Rectangle 874" width="0.196" height="16.437" transform="translate(12.339 0)" fill="#e0e0fc"/>
        <rect id="Rectangle_875" data-name="Rectangle 875" width="0.196" height="16.437" transform="translate(12.535 0)" fill="#e0e0fc"/>
        <rect id="Rectangle_876" data-name="Rectangle 876" width="0.196" height="16.437" transform="translate(12.732 0)" fill="#e0e0fc"/>
        <rect id="Rectangle_877" data-name="Rectangle 877" width="0.196" height="16.437" transform="translate(12.928 0)" fill="#e0e0fc"/>
        <rect id="Rectangle_878" data-name="Rectangle 878" width="0.196" height="16.437" transform="translate(13.124 0)" fill="#e0e0fc"/>
        <rect id="Rectangle_879" data-name="Rectangle 879" width="0.196" height="16.437" transform="translate(13.32 0)" fill="#e0e0fc"/>
        <rect id="Rectangle_880" data-name="Rectangle 880" width="0.196" height="16.437" transform="translate(13.516 0)" fill="#e0e0fc"/>
        <rect id="Rectangle_881" data-name="Rectangle 881" width="0.196" height="16.437" transform="translate(13.712 0)" fill="#e0e0fc"/>
        <rect id="Rectangle_882" data-name="Rectangle 882" width="0.196" height="16.437" transform="translate(13.908 0)" fill="#e0e0fc"/>
        <rect id="Rectangle_883" data-name="Rectangle 883" width="0.196" height="16.437" transform="translate(14.105 0)" fill="#e0e0fc"/>
        <rect id="Rectangle_884" data-name="Rectangle 884" width="0.196" height="16.437" transform="translate(14.301 0)" fill="#e0e0fc"/>
        <rect id="Rectangle_885" data-name="Rectangle 885" width="0.196" height="16.437" transform="translate(14.497 0)" fill="#e0e0fc"/>
        <rect id="Rectangle_886" data-name="Rectangle 886" width="0.196" height="16.437" transform="translate(14.693 0)" fill="#e0e0fc"/>
        <rect id="Rectangle_887" data-name="Rectangle 887" width="0.196" height="16.437" transform="translate(14.889 0)" fill="#e0e0fc"/>
        <rect id="Rectangle_888" data-name="Rectangle 888" width="0.196" height="16.437" transform="translate(15.085 0)" fill="#e0e0fc"/>
        <rect id="Rectangle_889" data-name="Rectangle 889" width="0.196" height="16.437" transform="translate(15.282 0)" fill="#e0e0fc"/>
        <rect id="Rectangle_890" data-name="Rectangle 890" width="0.196" height="16.437" transform="translate(15.478 0)" fill="#e0e0fc"/>
        <rect id="Rectangle_891" data-name="Rectangle 891" width="0.196" height="16.437" transform="translate(15.674 0)" fill="#e0e0fc"/>
        <rect id="Rectangle_892" data-name="Rectangle 892" width="0.196" height="16.437" transform="translate(15.87 0)" fill="#e0e0fc"/>
        <rect id="Rectangle_893" data-name="Rectangle 893" width="0.196" height="16.437" transform="translate(16.066 0)" fill="#e0e0fc"/>
        <rect id="Rectangle_894" data-name="Rectangle 894" width="0.196" height="16.437" transform="translate(16.262 0)" fill="#e0e0fc"/>
        <path id="Tracé_2988" data-name="Tracé 2988" d="M1478.749,188.463v0Z" transform="translate(-1462.291 -172.026)" fill="#e0e0fc"/>
      </g>
    </g>
  </g>
</svg>
