<svg xmlns="http://www.w3.org/2000/svg" xmlns:xlink="http://www.w3.org/1999/xlink" width="379.459" height="301.251" viewBox="0 0 379.459 301.251">
  <defs>
    <clipPath id="clip-path">
      <path id="Tracé_214" data-name="Tracé 214" d="M1060.368,308.363c4.8,35.069-7.664,90.2-9.035,98.773-1.56,9.754-6.979,45.972-6.278,49.106s-4.911.54-6.2-2.743c0,0,.872-8.28,1.192-13.067.189-2.823-.733-25.2-1.559-43.876,2.738-8.5,5.79-21.709,7.794-30.934,1.341-6.168-7.441-59.71-7.441-59.71l21.531,2.451Z" fill="none" clip-rule="evenodd"/>
    </clipPath>
    <clipPath id="clip-path-2">
      <path id="Tracé_225" data-name="Tracé 225" d="M1036.014,222.811l2.869,10.139c6.033,7.522,3.648,6.318,3.39,9.581-2.127-.944-6.2-1.817-10.54-9.525l-1.753-15.317,6.034,5.122Z" fill="none" clip-rule="evenodd"/>
    </clipPath>
  </defs>
  <g id="Groupe_1" data-name="Groupe 1" transform="translate(-970.404 -165.268)">
    <path id="Tracé_174" data-name="Tracé 174" d="M1018.621,230.578c-53.312,42.715-97.66,206.69,69.342,179.558,49.81-8.092,96.3,36.357,147.593,35.93,92-.764,134.506-103.422,105.073-180.968-51.314-135.192-229.413-108.713-322.008-34.52Z" fill="#eaedf9" fill-rule="evenodd"/>
    <path id="Tracé_175" data-name="Tracé 175" d="M1305.314,172.6a6.732,6.732,0,0,0-6.731-6.732H1056.7a6.732,6.732,0,0,0-6.731,6.732V334.264a6.731,6.731,0,0,0,6.731,6.731h241.887a6.731,6.731,0,0,0,6.731-6.731V172.6Z" fill="#bdd3d8" stroke="#faf9ff" stroke-linecap="round" stroke-linejoin="round" stroke-width="1.209" fill-rule="evenodd"/>
    <path id="Tracé_176" data-name="Tracé 176" d="M1087.337,196.074a2.863,2.863,0,0,0-2.865-2.865H1061.6a2.863,2.863,0,0,0-2.864,2.865v22.869a2.865,2.865,0,0,0,2.864,2.865h22.869a2.865,2.865,0,0,0,2.865-2.865V196.074Z" fill="#deeaeb" fill-rule="evenodd"/>
    <path id="Tracé_177" data-name="Tracé 177" d="M1087.337,232.07a2.865,2.865,0,0,0-2.865-2.865H1061.6a2.865,2.865,0,0,0-2.864,2.865v22.869a2.863,2.863,0,0,0,2.864,2.865h22.869a2.863,2.863,0,0,0,2.865-2.865V232.07Z" fill="#deeaeb" fill-rule="evenodd"/>
    <path id="Tracé_178" data-name="Tracé 178" d="M1087.337,268.068a2.865,2.865,0,0,0-2.865-2.865H1061.6a2.865,2.865,0,0,0-2.864,2.865v22.869a2.861,2.861,0,0,0,2.864,2.864h22.869a2.861,2.861,0,0,0,2.865-2.864V268.068Z" fill="#deeaeb" fill-rule="evenodd"/>
    <path id="Tracé_179" data-name="Tracé 179" d="M1087.337,304.065a2.863,2.863,0,0,0-2.865-2.865H1061.6a2.863,2.863,0,0,0-2.864,2.865v22.869a2.863,2.863,0,0,0,2.864,2.865h22.869a2.863,2.863,0,0,0,2.865-2.865V304.065Z" fill="#deeaeb" fill-rule="evenodd"/>
    <path id="Tracé_180" data-name="Tracé 180" d="M1122.2,196.074a2.863,2.863,0,0,0-2.865-2.865H1096.47a2.863,2.863,0,0,0-2.864,2.865v22.869a2.865,2.865,0,0,0,2.864,2.865h22.869a2.865,2.865,0,0,0,2.865-2.865V196.074Z" fill="#deeaeb" fill-rule="evenodd"/>
    <path id="Tracé_181" data-name="Tracé 181" d="M1122.2,232.07a2.865,2.865,0,0,0-2.865-2.865H1096.47a2.865,2.865,0,0,0-2.864,2.865v22.869a2.863,2.863,0,0,0,2.864,2.865h22.869a2.863,2.863,0,0,0,2.865-2.865V232.07Z" fill="#deeaeb" fill-rule="evenodd"/>
    <path id="Tracé_182" data-name="Tracé 182" d="M1122.2,268.068a2.865,2.865,0,0,0-2.865-2.865H1096.47a2.865,2.865,0,0,0-2.864,2.865v22.869a2.861,2.861,0,0,0,2.864,2.864h22.869a2.861,2.861,0,0,0,2.865-2.864V268.068Z" fill="#deeaeb" fill-rule="evenodd"/>
    <path id="Tracé_183" data-name="Tracé 183" d="M1122.2,304.065a2.863,2.863,0,0,0-2.865-2.865H1096.47a2.863,2.863,0,0,0-2.864,2.865v22.869a2.863,2.863,0,0,0,2.864,2.865h22.869a2.863,2.863,0,0,0,2.865-2.865V304.065Z" fill="#deeaeb" fill-rule="evenodd"/>
    <path id="Tracé_184" data-name="Tracé 184" d="M1226.805,196.074a2.863,2.863,0,0,0-2.864-2.865h-22.87a2.863,2.863,0,0,0-2.863,2.865v22.869a2.865,2.865,0,0,0,2.863,2.865h22.87a2.865,2.865,0,0,0,2.864-2.865V196.074Z" fill="#deeaeb" fill-rule="evenodd"/>
    <path id="Tracé_185" data-name="Tracé 185" d="M1226.805,232.07a2.865,2.865,0,0,0-2.864-2.865h-22.87a2.865,2.865,0,0,0-2.863,2.865v22.869a2.863,2.863,0,0,0,2.863,2.865h22.87a2.863,2.863,0,0,0,2.864-2.865V232.07Z" fill="#deeaeb" fill-rule="evenodd"/>
    <path id="Tracé_186" data-name="Tracé 186" d="M1226.805,268.068a2.865,2.865,0,0,0-2.864-2.865h-22.87a2.865,2.865,0,0,0-2.863,2.865v22.869a2.861,2.861,0,0,0,2.863,2.864h22.87a2.861,2.861,0,0,0,2.864-2.864V268.068Z" fill="#deeaeb" fill-rule="evenodd"/>
    <path id="Tracé_187" data-name="Tracé 187" d="M1226.805,304.065a2.863,2.863,0,0,0-2.864-2.865h-22.87a2.863,2.863,0,0,0-2.863,2.865v22.869a2.863,2.863,0,0,0,2.863,2.865h22.87a2.863,2.863,0,0,0,2.864-2.865V304.065Z" fill="#deeaeb" fill-rule="evenodd"/>
    <path id="Tracé_188" data-name="Tracé 188" d="M1157.071,196.074a2.863,2.863,0,0,0-2.865-2.865h-22.869a2.863,2.863,0,0,0-2.864,2.865v22.869a2.865,2.865,0,0,0,2.864,2.865h22.869a2.865,2.865,0,0,0,2.865-2.865V196.074Z" fill="#deeaeb" fill-rule="evenodd"/>
    <path id="Tracé_189" data-name="Tracé 189" d="M1157.071,232.07a2.865,2.865,0,0,0-2.865-2.865h-22.869a2.865,2.865,0,0,0-2.864,2.865v22.869a2.863,2.863,0,0,0,2.864,2.865h22.869a2.863,2.863,0,0,0,2.865-2.865V232.07Z" fill="#deeaeb" fill-rule="evenodd"/>
    <path id="Tracé_190" data-name="Tracé 190" d="M1157.071,268.068a2.865,2.865,0,0,0-2.865-2.865h-22.869a2.865,2.865,0,0,0-2.864,2.865v22.869a2.861,2.861,0,0,0,2.864,2.864h22.869a2.861,2.861,0,0,0,2.865-2.864V268.068Z" fill="#deeaeb" fill-rule="evenodd"/>
    <path id="Tracé_191" data-name="Tracé 191" d="M1157.071,304.065a2.863,2.863,0,0,0-2.865-2.865h-22.869a2.863,2.863,0,0,0-2.864,2.865v22.869a2.863,2.863,0,0,0,2.864,2.865h22.869a2.863,2.863,0,0,0,2.865-2.865V304.065Z" fill="#deeaeb" fill-rule="evenodd"/>
    <path id="Tracé_192" data-name="Tracé 192" d="M1261.673,196.074a2.863,2.863,0,0,0-2.865-2.865h-22.869a2.863,2.863,0,0,0-2.864,2.865v22.869a2.865,2.865,0,0,0,2.864,2.865h22.869a2.865,2.865,0,0,0,2.865-2.865V196.074Z" fill="#deeaeb" fill-rule="evenodd"/>
    <path id="Tracé_193" data-name="Tracé 193" d="M1261.673,232.07a2.865,2.865,0,0,0-2.865-2.865h-22.869a2.865,2.865,0,0,0-2.864,2.865v22.869a2.863,2.863,0,0,0,2.864,2.865h22.869a2.863,2.863,0,0,0,2.865-2.865V232.07Z" fill="#deeaeb" fill-rule="evenodd"/>
    <path id="Tracé_194" data-name="Tracé 194" d="M1261.673,268.068a2.865,2.865,0,0,0-2.865-2.865h-22.869a2.865,2.865,0,0,0-2.864,2.865v22.869a2.861,2.861,0,0,0,2.864,2.864h22.869a2.861,2.861,0,0,0,2.865-2.864V268.068Z" fill="#deeaeb" fill-rule="evenodd"/>
    <path id="Tracé_195" data-name="Tracé 195" d="M1261.673,304.065a2.863,2.863,0,0,0-2.865-2.865h-22.869a2.863,2.863,0,0,0-2.864,2.865v22.869a2.863,2.863,0,0,0,2.864,2.865h22.869a2.863,2.863,0,0,0,2.865-2.865V304.065Z" fill="#deeaeb" fill-rule="evenodd"/>
    <path id="Tracé_196" data-name="Tracé 196" d="M1191.938,196.074a2.863,2.863,0,0,0-2.865-2.865H1166.2a2.865,2.865,0,0,0-2.864,2.865v22.869a2.866,2.866,0,0,0,2.864,2.865h22.869a2.865,2.865,0,0,0,2.865-2.865V196.074Z" fill="#deeaeb" fill-rule="evenodd"/>
    <path id="Tracé_197" data-name="Tracé 197" d="M1191.938,232.07a2.865,2.865,0,0,0-2.865-2.865H1166.2a2.866,2.866,0,0,0-2.864,2.865v22.869a2.864,2.864,0,0,0,2.864,2.865h22.869a2.863,2.863,0,0,0,2.865-2.865V232.07Z" fill="#deeaeb" fill-rule="evenodd"/>
    <path id="Tracé_198" data-name="Tracé 198" d="M1191.938,268.068a2.865,2.865,0,0,0-2.865-2.865H1166.2a2.866,2.866,0,0,0-2.864,2.865v22.869a2.863,2.863,0,0,0,2.864,2.864h22.869a2.861,2.861,0,0,0,2.865-2.864V268.068Z" fill="#deeaeb" fill-rule="evenodd"/>
    <path id="Tracé_199" data-name="Tracé 199" d="M1191.938,304.065a2.863,2.863,0,0,0-2.865-2.865H1166.2a2.864,2.864,0,0,0-2.864,2.865v22.869a2.865,2.865,0,0,0,2.864,2.865h22.869a2.863,2.863,0,0,0,2.865-2.865V304.065Z" fill="#deeaeb" fill-rule="evenodd"/>
    <path id="Tracé_200" data-name="Tracé 200" d="M1296.54,196.074a2.863,2.863,0,0,0-2.865-2.865h-22.869a2.863,2.863,0,0,0-2.864,2.865v22.869a2.865,2.865,0,0,0,2.864,2.865h22.869a2.865,2.865,0,0,0,2.865-2.865V196.074Z" fill="#deeaeb" fill-rule="evenodd"/>
    <path id="Tracé_201" data-name="Tracé 201" d="M1296.54,232.07a2.865,2.865,0,0,0-2.865-2.865h-22.869a2.865,2.865,0,0,0-2.864,2.865v22.869a2.863,2.863,0,0,0,2.864,2.865h22.869a2.863,2.863,0,0,0,2.865-2.865V232.07Z" fill="#deeaeb" fill-rule="evenodd"/>
    <path id="Tracé_202" data-name="Tracé 202" d="M1296.54,268.068a2.865,2.865,0,0,0-2.865-2.865h-22.869a2.865,2.865,0,0,0-2.864,2.865v22.869a2.861,2.861,0,0,0,2.864,2.864h22.869a2.861,2.861,0,0,0,2.865-2.864V268.068Z" fill="#deeaeb" fill-rule="evenodd"/>
    <path id="Tracé_203" data-name="Tracé 203" d="M1296.54,304.065a2.863,2.863,0,0,0-2.865-2.865h-22.869a2.863,2.863,0,0,0-2.864,2.865v22.869a2.863,2.863,0,0,0,2.864,2.865h22.869a2.863,2.863,0,0,0,2.865-2.865V304.065Z" fill="#deeaeb" fill-rule="evenodd"/>
    <path id="Tracé_204" data-name="Tracé 204" d="M1305.314,183.078H1049.965V172.6a6.732,6.732,0,0,1,6.731-6.732h241.887a6.732,6.732,0,0,1,6.731,6.732v10.473Z" fill="#58595b" fill-rule="evenodd"/>
    <path id="Tracé_205" data-name="Tracé 205" d="M1061.818,171.475a3.079,3.079,0,1,1-3.079,3.079,3.081,3.081,0,0,1,3.079-3.079Z" fill="#fff" stroke="#faf9ff" stroke-linecap="round" stroke-linejoin="round" stroke-width="1.209" fill-rule="evenodd"/>
    <path id="Tracé_206" data-name="Tracé 206" d="M1081.639,171.475a3.079,3.079,0,1,1-3.079,3.079,3.08,3.08,0,0,1,3.079-3.079Z" fill="#fff" stroke="#faf9ff" stroke-linecap="round" stroke-linejoin="round" stroke-width="1.209" fill-rule="evenodd"/>
    <path id="Tracé_207" data-name="Tracé 207" d="M1071.729,171.475a3.079,3.079,0,1,1-3.079,3.079,3.081,3.081,0,0,1,3.079-3.079Z" fill="#fff" stroke="#faf9ff" stroke-linecap="round" stroke-linejoin="round" stroke-width="1.209" fill-rule="evenodd"/>
    <path id="Tracé_208" data-name="Tracé 208" d="M1075,302.536s7.9,2.757,10.172,4.671c1.846,1.555-.267,1.9-.267,1.9a1.319,1.319,0,0,1-.837,1.431,1.859,1.859,0,0,1-1.989,1.681s-.559,1.923-2.059.844a80.021,80.021,0,0,1-5.955-5.861l.935-4.663Z" fill="#f4a37c" fill-rule="evenodd"/>
    <path id="Tracé_209" data-name="Tracé 209" d="M1073.518,308.277s3.228-.846,3.95-5.524l-22.574-27.8s-5.051-7.621-11.544-1.82a4.223,4.223,0,0,0-.557,6.171c7.6,7.8,20.307,23.7,30.725,28.97Z" fill="#1394a1" fill-rule="evenodd"/>
    <path id="Tracé_210" data-name="Tracé 210" d="M1050.143,246.721c2.143,7.608,4.589,16.445,5.1,25.93.151,2.825,1.541,5.969.307,6.685-3.391,1.969-4.526,2.236-6.845,1-6.377-3.4-9.689-17.59-11.445-29.444-1.118-7.544,10.711-11.9,12.887-4.172Z" fill="#1394a1" fill-rule="evenodd"/>
    <path id="Tracé_211" data-name="Tracé 211" d="M1043.587,214.995c-.109.54.794-.822,1.03-1.324a4.782,4.782,0,0,0,.223-3.425,12.621,12.621,0,0,0-6.35-7.518c-7.12-3.936-15.608.054-18.99,7.094a16.259,16.259,0,0,0-.882,11.34c.168.649,13.356,24.939,19.129,5.535l-4.248-5.332,10.088-6.37Z" fill="#303d5c" fill-rule="evenodd"/>
    <path id="Tracé_212" data-name="Tracé 212" d="M1060.368,308.363c4.8,35.069-7.664,90.2-9.035,98.773-1.56,9.754-6.979,45.972-6.278,49.106s-4.911.54-6.2-2.743c0,0,.872-8.28,1.192-13.067.189-2.823-.733-25.2-1.559-43.876,2.738-8.5,5.79-21.709,7.794-30.934,1.341-6.168-7.441-59.71-7.441-59.71l21.531,2.451Z" fill="#fe9e70" fill-rule="evenodd"/>
    <g id="Groupe_22" data-name="Groupe 22">
      <g id="Groupe_21" data-name="Groupe 21" clip-path="url(#clip-path)">
        <path id="Tracé_213" data-name="Tracé 213" d="M1063.291,394.319c-.032-.466-8.013,7.36-8.367,7.666-.672.585-1.336,1.179-1.979,1.8a55.069,55.069,0,0,0-5.438,5.895c-3.688,4.762-5.188,10.295-6.475,16.062-.49,2.2-1.017,4.412-1.708,6.561-.052.163-.624,2.055-1,1.917-.361-.133.005-2.993.016-3.245.173-3.54.3-7.083.486-10.623.415-7.7.31-22.238,9-25.6,2.681-1.038,5.708-.884,8.527-.723,1.368.076,2.964.649,4.314.52.909-.086,1.745-.9,2.623-.225Z" fill="#fe9460" fill-rule="evenodd"/>
      </g>
    </g>
    <path id="Tracé_215" data-name="Tracé 215" d="M1060.368,308.363c4.8,35.069-7.664,90.2-9.035,98.773-1.132,7.08-3.564,31.291-4.945,43.484-4.17.618-8.185-.207-7.86-3.662.21-2.255.782-31.722-.044-50.4,2.738-8.5,5.79-21.709,7.794-30.934,1.341-6.168-7.441-59.71-7.441-59.71l21.531,2.451Z" fill="#118793" fill-rule="evenodd"/>
    <path id="Tracé_216" data-name="Tracé 216" d="M1046.434,306.79s9.118,74.389,5.725,79.975-20.351,48.04-24.854,62.373c-.324,1.03-.667,1.791-.906,2.559-2.23,7.218-5.55,8.306-7.15,6.429-.974-1.143-.861-2.7.362-5.385.426-.934.456-2.548.815-3.434a120.042,120.042,0,0,0,4.262-13.393c.8-2.465,13.863-50.569,18.147-56.17,0,0-30.039-43.218-15.507-72.809l19.106-.145Z" fill="#feab83" fill-rule="evenodd"/>
    <path id="Tracé_217" data-name="Tracé 217" d="M1052.826,306.79a41.164,41.164,0,0,1,3.14,14.107c.7,23.583.527,62.2-2.033,66.413-3.394,5.588-20.783,47.664-25.287,62-.324,1.031-9.33-1.438-8.731-3.073,1.861-5.086,12.708-56.015,16.994-61.616,0,0-3.468-15.749-7.631-30.45-4.549-16.058-9.536-31.788-1.95-47.235l25.5-.145Z" fill="#1394a1" fill-rule="evenodd"/>
    <path id="Tracé_218" data-name="Tracé 218" d="M1020.413,449.154s-3.292,7.851-3.223,13.09l14.353,4.275,5.924-.149a9.745,9.745,0,0,0-6.6-5.4,8.274,8.274,0,0,1-4.268-9.505c-2.067,1.138-5.042-.115-6.188-2.312Z" fill="#118793" fill-rule="evenodd"/>
    <path id="Tracé_219" data-name="Tracé 219" d="M1038.933,453.012s-1.189,8.43.211,13.479l22.349-.18s-2.786-3.237-9.585-4.985-6.7-7.739-6.7-7.739c-1.709,1.626-4.606,1.258-6.273-.575Z" fill="#118793" fill-rule="evenodd"/>
    <path id="Tracé_220" data-name="Tracé 220" d="M1025.868,310.438c1.663-6.67,5.049-16.193,3.226-22.64-2.793-9.872-5.681-19.587-5.681-19.587s-10.86-26.8,7.073-35.23c0,0,9.428-2.593,12.705.9,4.133,4.408,24.067,23.45,14.427,33.326,0,0,2.25,25.137,2.813,41.109-4.7,5.375-13.041,8.262-34.563,2.117Z" fill="#118793" fill-rule="evenodd"/>
    <path id="Tracé_221" data-name="Tracé 221" d="M1054.963,311.976s3.234-22.685,1.369-39.952a35.958,35.958,0,0,0-3.341-11.7l.234-.144a29.769,29.769,0,0,1,3.748,11.715c.809,7.359,1.095,21.152-.577,39.784l-1.433.3Z" fill="#16acbb" fill-rule="evenodd"/>
    <path id="Tracé_222" data-name="Tracé 222" d="M1031.32,294.476c1.461.722,5.138.842,11.487.885,0,0,.3,8.151-3.747,9.333-3.651,1.068-4.2.531-5.969,0a2.849,2.849,0,0,0,1.626.781c10.471,1.374,9.136-11.174,9.136-11.174a38.7,38.7,0,0,1-12.522.063s0,.038-.011.108Z" fill="#013d61" fill-rule="evenodd"/>
    <path id="Tracé_223" data-name="Tracé 223" d="M1036.014,222.811l2.869,10.139c6.033,7.522,3.648,6.318,3.39,9.581-2.127-.944-6.2-1.817-10.54-9.525l-1.753-15.317,6.034,5.122Z" fill="#f4a37c" fill-rule="evenodd"/>
    <g id="Groupe_24" data-name="Groupe 24">
      <g id="Groupe_23" data-name="Groupe 23" clip-path="url(#clip-path-2)">
        <path id="Tracé_224" data-name="Tracé 224" d="M1029.98,226.6c1.079,4.953,13.788,7.4,10.9,3.327,0,0-3.655-3.977-5.092-5.085a5,5,0,0,0-2.316-1.153c-1.2-.164-2.385,2.713-3.492,2.911Z" fill="#3f3d55" fill-rule="evenodd"/>
      </g>
    </g>
    <path id="Tracé_226" data-name="Tracé 226" d="M1042.352,211.123c2.671,5.6,6.679,29.565-12.879,14.529l-3.446-16.01s6.348-8.161,16.325,1.481Z" fill="#f4a37c" fill-rule="evenodd"/>
    <path id="Tracé_227" data-name="Tracé 227" d="M1028.787,209.869c-.055.059.159.035.222.081a14.9,14.9,0,0,1,1.364,1.479,11.638,11.638,0,0,1,2.091,4.574,8.252,8.252,0,0,1-.909,5.335c-.605,1.209-.873,2.657-1.725,3.73-1.764,2.221-.373,3.533-1.778,5.061-3.075,3.345-8.561-7.89-5.287-12.758,1.442-2.143-.562-5.131.2-7.615.341-1.116,5.133-4.368,5.794-4.5,4.728-.921,11.238-1.334,14.058,3.168.4.638,1.433,2.049,1.35,2.859a13.879,13.879,0,0,1-2.493,1.1c-3.283,1.307-6.321.616-9.319-.9-.916-.466-3.565-1.611-3.565-1.611Z" fill="#303d5c" fill-rule="evenodd"/>
    <path id="Tracé_228" data-name="Tracé 228" d="M1022.264,206.659c.173-.1-.362-1.5-.411-1.609a4.759,4.759,0,0,0-3.768-3.042c-1.992-.092-3.532,1.7-4.293,3.345-1.444,3.118-1.908,7.658-.1,10.732,1.3,2.209,3.608,2.451,5.529.865a11.717,11.717,0,0,0,3.678-6.9" fill="#303d5c" fill-rule="evenodd"/>
    <path id="Tracé_229" data-name="Tracé 229" d="M1026.5,217.839s-2.656-1-1.632,1.441,2.5,2.506,2.5,2.506c.449-.752.3-1.962-.866-3.947Z" fill="#f4a37c" fill-rule="evenodd"/>
    <path id="Tracé_230" data-name="Tracé 230" d="M1035.567,237.791c.316.4,11.458,12.648,11.458,12.648s-3.991-13.334-3.888-13.194a61.286,61.286,0,0,1,4.026,6.531c.879,1.6,3.537,7.22,4.165,8.935a27.026,27.026,0,0,1,1.543,5.858c.036.274.469,1.453.229,1.719-.063.069-.381-.254-.419-.286-.407-.359-2.976-3.065-3.4-3.406-1.082-.872-10.865-10.507-12.642-14.852a16.94,16.94,0,0,1-.843-2.888,3.849,3.849,0,0,1-.23-1.065Z" fill="#16acbb" fill-rule="evenodd"/>
    <path id="Tracé_231" data-name="Tracé 231" d="M1053.316,260.419a46.309,46.309,0,0,0-3.953-2.75c-2.932-1.844-10.818-7.8-10.818-7.8l.349-2.128s-4.168-1.964-4.3-2.02l-2.955-12.936c4.081,4.065,11.544,19.2,21.678,27.631Z" fill="#16acbb" fill-rule="evenodd"/>
    <path id="Tracé_232" data-name="Tracé 232" d="M1047.025,250.439s-7.088-3.331-10.322-7.963l-5.047-9.681c5.7,5.818,11.621,13.657,15.369,17.644Z" fill="#16acbb" fill-rule="evenodd"/>
    <path id="Tracé_233" data-name="Tracé 233" d="M1031.624,232.017s-1.5.693-1.663,3.258c-.149,2.282.636,6.325,4.466,13.327l.769-.419c-3.7-6.762-4.5-10.646-4.361-12.851.126-1.92.881-2.48.881-2.48l-.092-.835Z" fill-rule="evenodd"/>
    <path id="Tracé_234" data-name="Tracé 234" d="M1038.677,232.235s2.064-.155,5.234,2.566c3.319,2.851,7.584,8.814,11.436,21.228l.837-.26c-7.918-25.517-17.729-24.349-17.729-24.349l.222.815Z" fill-rule="evenodd"/>
    <path id="Tracé_235" data-name="Tracé 235" d="M1055.362,254.5a2.217,2.217,0,1,1-1.753,2.6,2.219,2.219,0,0,1,1.753-2.6Z" fill="#0b1e64" fill-rule="evenodd"/>
    <path id="Tracé_236" data-name="Tracé 236" d="M1055.465,255.03a1.262,1.262,0,1,1-1,1.479,1.263,1.263,0,0,1,1-1.479Z" fill="#535170" fill-rule="evenodd"/>
    <path id="Tracé_237" data-name="Tracé 237" d="M1055.5,255.2a1.091,1.091,0,1,1-.864,1.279,1.09,1.09,0,0,1,.864-1.279Z" fill="#0b1e64" fill-rule="evenodd"/>
    <path id="Tracé_238" data-name="Tracé 238" d="M1034.774,257.757s2.784,5.831,6.851,9.248c2.776,2.333,6.137,3.545,9.627,1.183a.264.264,0,0,0-.295-.437c-3.262,2.21-6.4,1.033-8.993-1.148-3.989-3.353-6.716-9.071-6.716-9.071a.262.262,0,1,0-.474.225Z" fill="#afafaf" fill-rule="evenodd"/>
    <path id="Tracé_239" data-name="Tracé 239" d="M1042.722,254.334s3.23,5.561,3.837,10.608c.392,3.264-.317,6.322-3.866,7.394a.263.263,0,0,0,.152.5c3.835-1.16,4.66-4.432,4.236-7.96-.618-5.142-3.9-10.809-3.9-10.809a.263.263,0,1,0-.455.264Z" fill="#afafaf" fill-rule="evenodd"/>
    <path id="Tracé_240" data-name="Tracé 240" d="M1042.676,272.175a.423.423,0,1,1-.32.506.422.422,0,0,1,.32-.506Z" fill="#3c3a51" fill-rule="evenodd"/>
    <path id="Tracé_241" data-name="Tracé 241" d="M1051.009,267.547a.423.423,0,1,1-.321.506.423.423,0,0,1,.321-.506Z" fill="#3c3a51" fill-rule="evenodd"/>
    <path id="Tracé_242" data-name="Tracé 242" d="M1043.41,254.283a16.811,16.811,0,0,0-3.422-5.1c-1.5-1.378-3.374-2.136-5.45-.951a4.224,4.224,0,0,0-2.056,4.732,13.582,13.582,0,0,0,2.175,4.934l.707-.515a12.5,12.5,0,0,1-2.017-4.56,3.4,3.4,0,0,1,1.627-3.83c1.688-.965,3.2-.286,4.421.834a15.7,15.7,0,0,1,3.206,4.789l.809-.337Z" fill-rule="evenodd"/>
    <path id="Tracé_243" data-name="Tracé 243" d="M1053.316,260.419s-10.53-23.764-14.447-27.5c0,0,9.384,6.758,11.167,9.785l-1.458,2.736,2.2,1.045s2.283,11.879,2.537,13.937Z" fill="#16acbb" fill-rule="evenodd"/>
    <path id="Tracé_244" data-name="Tracé 244" d="M1047.025,250.439c-1.328-4.542-7.451-15.8-8.134-17.518,0,0,5.27,4.662,7.054,7.69,0,0,2.577,6.387,1.08,9.828Z" fill="#16acbb" fill-rule="evenodd"/>
    <path id="Tracé_245" data-name="Tracé 245" d="M1075.655,241.322s3.492-7.573,5.533-9.731c12.826-13.555,1.868.431,1.868.431a1.32,1.32,0,0,1,1.352.958,1.86,1.86,0,0,1,1.5,2.127s1.867.723.663,2.125a80.259,80.259,0,0,1-6.354,5.425l-4.565-1.335Z" fill="#f4a37c" fill-rule="evenodd"/>
    <path id="Tracé_246" data-name="Tracé 246" d="M1081.246,243.295s-.563-3.288-5.162-4.411l-29.646,20.084s-8.028,4.374-2.811,11.344a4.224,4.224,0,0,0,6.1,1.088c8.427-6.894,25.368-18.181,31.519-28.1Z" fill="#1394a1" fill-rule="evenodd"/>
    <path id="Tracé_247" data-name="Tracé 247" d="M1031.072,242.546c5.689,5.488,12.258,11.884,17.482,19.818,1.555,2.363,4.34,4.378,3.637,5.618-1.935,3.41-2.781,4.214-5.405,4.317-7.222.283-17.24-10.3-24.736-19.649-4.771-5.95,3.247-15.674,9.022-10.1Z" fill="#1394a1" fill-rule="evenodd"/>
    <path id="Tracé_248" data-name="Tracé 248" d="M1177.639,267.689a11.85,11.85,0,1,1-11.85,11.849,11.856,11.856,0,0,1,11.85-11.849Z" fill="#118793" fill-rule="evenodd"/>
    <path id="Tracé_249" data-name="Tracé 249" d="M1176.177,274.922q.038-.036.072-.075a2.924,2.924,0,0,0,.54-1,10.055,10.055,0,0,0,.447-2.816v-.049a.524.524,0,0,1,1.049.008v.028a6.269,6.269,0,0,0,.839,3.608,2.109,2.109,0,0,1,.491-1.17s3.305,1.528,4.206,4.2a7.647,7.647,0,0,1-5.461,1.413,9.933,9.933,0,0,1,.827-2.864,4.147,4.147,0,0,1-1.437-1.938,2.839,2.839,0,0,1-1.678,1.9,9.889,9.889,0,0,1,.845,2.9,7.647,7.647,0,0,1-5.461-1.413c.9-2.675,4.206-4.2,4.206-4.2a2.271,2.271,0,0,1,.514,1.465Zm7.8,3.27a24.063,24.063,0,0,1,.844,5.113,7.582,7.582,0,0,1-4.768,1.026c-.087-.029-.177-.058-.27-.086-1.25-.38-1.688-2.473-1.484-4.649a8.149,8.149,0,0,0,5.678-1.4Zm.846,5.717c-.038,1.149-.316,1.936-.993,1.871a5.846,5.846,0,0,1-2.458-.883,8.144,8.144,0,0,0,3.451-.988Zm-13.524-5.717a8.152,8.152,0,0,0,5.678,1.4c.2,2.176-.233,4.269-1.483,4.649-.094.028-.183.057-.27.086a7.59,7.59,0,0,1-4.77-1.026,24.251,24.251,0,0,1,.845-5.113Zm-.845,5.717a8.136,8.136,0,0,0,3.451.988,5.852,5.852,0,0,1-2.458.883c-.677.065-.955-.722-.993-1.871Z" fill="#fdecd1" fill-rule="evenodd"/>
    <path id="Tracé_250" data-name="Tracé 250" d="M1212.228,238.406a5.516,5.516,0,1,1-5.516,5.516,5.519,5.519,0,0,1,5.516-5.516Z" fill="#f99325" fill-rule="evenodd"/>
    <path id="Tracé_251" data-name="Tracé 251" d="M1107.716,275.57a5.516,5.516,0,1,1-5.516,5.516,5.518,5.518,0,0,1,5.516-5.516Z" fill="#f99325" fill-rule="evenodd"/>
    <path id="Tracé_252" data-name="Tracé 252" d="M1141.556,275.57a5.516,5.516,0,1,1-5.516,5.516,5.519,5.519,0,0,1,5.516-5.516Z" fill="#f99325" fill-rule="evenodd"/>
    <path id="Tracé_253" data-name="Tracé 253" d="M1107.716,194.844a11.85,11.85,0,1,1-11.85,11.849,11.855,11.855,0,0,1,11.85-11.849Z" fill="#118793" fill-rule="evenodd"/>
    <path id="Tracé_254" data-name="Tracé 254" d="M1102.161,203.73a2.435,2.435,0,0,1,1-2.9l-1.758-2.469.611-.7,1.941,2.607.68-.4-.6-1.195.742-.25.683,1.519a7.109,7.109,0,0,0-1.132,1.77,3.4,3.4,0,0,0-.3,1.773l-1.866.241Zm3.949-3.724.063-1.392.505.022.194,1.655.643-.285.44-1.528.5.14-.061,1.731a10.476,10.476,0,0,1,2.166,2.2,2.86,2.86,0,0,1-2.8-.577.3.3,0,0,0-.2-.1.461.461,0,0,0-.245.065,1.55,1.55,0,0,0-.37.323,21.181,21.181,0,0,0-1.623,2.324,2.111,2.111,0,0,1-.442-2.633,6.547,6.547,0,0,1,1.15-1.744.281.281,0,0,0,.073-.128l.007,0,0-.069Zm4.727,3.081a1,1,0,0,1-.085,1c-2.039.133-3.112.919-3.52,1.811a2.69,2.69,0,0,0,2.044,3.584.3.3,0,0,0,.128-.584,2.088,2.088,0,0,1-1.629-2.751c.347-.756,1.289-1.351,3.016-1.462a5.187,5.187,0,0,1,2.984,4.277c.136,3.29-2.026,6.857-6.054,5.572a6.951,6.951,0,0,1-4.467-4.258,3.314,3.314,0,0,1,1.7-2.713.3.3,0,0,0-.223-.556,3.573,3.573,0,0,0-1.864,2.266,5.044,5.044,0,0,1-.4-4.966l-.006-.008,1.731-.223a2.742,2.742,0,0,0,1.045,1.2.3.3,0,0,0,.231.044.306.306,0,0,0,.192-.137s.839-1.388,1.48-2.214a5.327,5.327,0,0,1,.375-.415,3.507,3.507,0,0,0,3.326.541Z" fill="#fdecd1" fill-rule="evenodd"/>
    <path id="Tracé_255" data-name="Tracé 255" d="M1247.811,232.073a11.85,11.85,0,1,1-11.849,11.849,11.857,11.857,0,0,1,11.849-11.849Z" fill="#118793" fill-rule="evenodd"/>
    <path id="Tracé_256" data-name="Tracé 256" d="M1242.258,240.959a2.432,2.432,0,0,1,.995-2.9l-1.757-2.469.61-.7,1.942,2.609.68-.4-.6-1.2.74-.25.683,1.519a7.128,7.128,0,0,0-1.132,1.771,3.4,3.4,0,0,0-.3,1.773l-1.864.24Zm3.947-3.723.063-1.392.505.021.194,1.655.645-.284.438-1.529.5.14-.059,1.731a10.507,10.507,0,0,1,2.165,2.195,2.861,2.861,0,0,1-2.8-.576.3.3,0,0,0-.2-.1.452.452,0,0,0-.245.064,1.589,1.589,0,0,0-.369.323,21.329,21.329,0,0,0-1.624,2.324,2.112,2.112,0,0,1-.442-2.633,6.558,6.558,0,0,1,1.151-1.744.294.294,0,0,0,.073-.128l.008,0,0-.068Zm4.727,3.08a1,1,0,0,1-.084,1c-2.039.133-3.112.919-3.521,1.811a2.691,2.691,0,0,0,2.044,3.584.3.3,0,1,0,.128-.584,2.087,2.087,0,0,1-1.628-2.751c.346-.756,1.29-1.35,3.015-1.462a5.187,5.187,0,0,1,2.984,4.277c.137,3.29-2.026,6.857-6.054,5.572a6.941,6.941,0,0,1-4.465-4.258,3.31,3.31,0,0,1,1.7-2.713.3.3,0,0,0-.222-.556,3.57,3.57,0,0,0-1.864,2.266,5.038,5.038,0,0,1-.405-4.964l-.006-.01,1.73-.223a2.764,2.764,0,0,0,1.045,1.2.3.3,0,0,0,.231.043.294.294,0,0,0,.192-.137s.84-1.388,1.481-2.214a4.918,4.918,0,0,1,.375-.415,3.5,3.5,0,0,0,3.325.541Z" fill="#fdecd1" fill-rule="evenodd"/>
  </g>
</svg>
