<svg xmlns="http://www.w3.org/2000/svg" xmlns:xlink="http://www.w3.org/1999/xlink" width="621.082" height="378.804" viewBox="0 0 621.082 378.804">
  <defs>
    <clipPath id="clip-path">
      <path id="Tracé_297" data-name="Tracé 297" d="M622.133,893.939c4.959,36.263-7.924,93.272-9.343,102.136-1.613,10.087-7.216,47.539-6.49,50.779s-5.08.558-6.416-2.836c0,0,.9-8.564,1.232-13.513.2-2.918-.758-26.054-1.612-45.37,2.833-8.787,5.987-22.448,8.059-31.987,1.386-6.378-7.694-61.743-7.694-61.743l22.264,2.534Z" fill="none" clip-rule="evenodd"/>
    </clipPath>
    <clipPath id="clip-path-2">
      <path id="Tracé_308" data-name="Tracé 308" d="M596.95,805.475l2.967,10.483c6.239,7.779,3.772,6.535,3.506,9.908-2.2-.977-6.41-1.879-10.9-9.849l-1.812-15.84,6.239,5.3Z" fill="none" clip-rule="evenodd"/>
    </clipPath>
    <clipPath id="clip-path-3">
      <path id="Tracé_355" data-name="Tracé 355" d="M909.62,966s8.666-38.823,2.405-46.912-18.787.815-17.7,17.2,1.988,17.116,3.286,24.382c1.057,5.909,4.641,7.779,12.006,5.335Z" fill="none" clip-rule="evenodd"/>
    </clipPath>
    <clipPath id="clip-path-4">
      <path id="Tracé_359" data-name="Tracé 359" d="M914.591,913.076a3.759,3.759,0,0,1,.463,1.92c.068,1.672-1.214,4.741-3.465,8.8-4.5,8.109-8.439,11.645-8.978,19.386s-6,61.269-5.316,79.442c0,0,25.065,5.182,35.265-2.992,0,0-2.592-20.541-5.613-39.391-3.353-20.91-.464-27.333,1.619-38.233s1.593-19.954-2.573-24.473c-4.326-4.691-11.4-4.454-11.4-4.454Z" fill="none" clip-rule="evenodd"/>
    </clipPath>
    <clipPath id="clip-path-5">
      <path id="Tracé_362" data-name="Tracé 362" d="M907.382,913.128s-6.139,3.125-8.385,17.012c-1.606,9.924-6.712,69.943-6.149,90.808,0,0-4.321,2.063-8.679-3.008,0,0-.021-34.558,2.125-59.21,1.212-13.914,2.168-22.312,5.833-30.515,7.621-17.056,15.255-15.087,15.255-15.087Z" fill="none" clip-rule="evenodd"/>
    </clipPath>
    <clipPath id="clip-path-6">
      <path id="Tracé_366" data-name="Tracé 366" d="M914.16,905.815s-.009,6.52.605,8.4c.592,1.814-8.771,6.561-9.9,5.93-.943-.529-1.439-4.446,1.767-6.4a29.83,29.83,0,0,0,.357-7.746l7.172-.193Z" fill="none" clip-rule="evenodd"/>
    </clipPath>
  </defs>
  <g id="Groupe_1" data-name="Groupe 1" transform="translate(-486.634 -712.638)">
    <path id="Tracé_257" data-name="Tracé 257" d="M603.424,1055.465c79.334,28.495,162.121,37.107,244.233,35.861,55.8-.847,113.659-7.668,165.616-35.907,22.717-12.346,42.815-27.913,60.55-50.11a159.2,159.2,0,0,0,18.712-31.6c5.067-12.208,11.262-29.23,13.615-43.778,5.86-36.245-5.473-75.414-21.607-104.607-28.884-52.266-77.2-86.255-124.564-102.094-58.525-19.574-119.619-9.731-177.021,10.831-24.843,8.9-32.8,14.922-56.665,27.293-17.284,8.961-35.456,19.6-54.412,21.5-31.148,3.116-62.127-4.235-93.284-1.714-18.713,1.514-37.327,10.263-53.03,23.264-23.9,19.786-40.708,55.572-38.783,92.826,1.232,23.858,9.272,45.9,18.634,66.082,21.149,45.595,58.724,78.043,98.006,92.151Z" fill="#eaedf9" fill-rule="evenodd"/>
    <path id="Tracé_258" data-name="Tracé 258" d="M875.42,753.56a6.962,6.962,0,0,0-6.961-6.962H618.336a6.961,6.961,0,0,0-6.959,6.962V920.723a6.96,6.96,0,0,0,6.959,6.961H868.459a6.962,6.962,0,0,0,6.961-6.961V753.56Z" fill="#bdd3d8" stroke="#faf9ff" stroke-linecap="round" stroke-linejoin="round" stroke-width="1.209" fill-rule="evenodd"/>
    <path id="Tracé_259" data-name="Tracé 259" d="M650.021,777.827a2.963,2.963,0,0,0-2.962-2.963H623.411a2.963,2.963,0,0,0-2.963,2.963v23.648a2.962,2.962,0,0,0,2.963,2.961h23.648a2.962,2.962,0,0,0,2.962-2.961V777.827Z" fill="#deeaeb" fill-rule="evenodd"/>
    <path id="Tracé_260" data-name="Tracé 260" d="M650.021,815.05a2.964,2.964,0,0,0-2.962-2.963H623.411a2.964,2.964,0,0,0-2.963,2.963V838.7a2.962,2.962,0,0,0,2.963,2.961h23.648a2.962,2.962,0,0,0,2.962-2.961V815.05Z" fill="#deeaeb" fill-rule="evenodd"/>
    <path id="Tracé_261" data-name="Tracé 261" d="M650.021,852.273a2.963,2.963,0,0,0-2.962-2.963H623.411a2.963,2.963,0,0,0-2.963,2.963v23.646a2.962,2.962,0,0,0,2.963,2.963h23.648a2.962,2.962,0,0,0,2.962-2.963V852.273Z" fill="#deeaeb" fill-rule="evenodd"/>
    <path id="Tracé_262" data-name="Tracé 262" d="M650.021,889.495a2.962,2.962,0,0,0-2.962-2.962H623.411a2.962,2.962,0,0,0-2.963,2.962v23.647a2.963,2.963,0,0,0,2.963,2.963h23.648a2.963,2.963,0,0,0,2.962-2.963V889.495Z" fill="#deeaeb" fill-rule="evenodd"/>
    <path id="Tracé_263" data-name="Tracé 263" d="M686.075,777.827a2.964,2.964,0,0,0-2.962-2.963H659.465a2.962,2.962,0,0,0-2.962,2.963v23.648a2.96,2.96,0,0,0,2.962,2.961h23.648a2.962,2.962,0,0,0,2.962-2.961V777.827Z" fill="#deeaeb" fill-rule="evenodd"/>
    <path id="Tracé_264" data-name="Tracé 264" d="M686.075,815.05a2.964,2.964,0,0,0-2.962-2.963H659.465a2.962,2.962,0,0,0-2.962,2.963V838.7a2.96,2.96,0,0,0,2.962,2.961h23.648a2.962,2.962,0,0,0,2.962-2.961V815.05Z" fill="#deeaeb" fill-rule="evenodd"/>
    <path id="Tracé_265" data-name="Tracé 265" d="M686.075,852.273a2.964,2.964,0,0,0-2.962-2.963H659.465a2.962,2.962,0,0,0-2.962,2.963v23.646a2.96,2.96,0,0,0,2.962,2.963h23.648a2.962,2.962,0,0,0,2.962-2.963V852.273Z" fill="#deeaeb" fill-rule="evenodd"/>
    <path id="Tracé_266" data-name="Tracé 266" d="M686.075,889.495a2.962,2.962,0,0,0-2.962-2.962H659.465a2.96,2.96,0,0,0-2.962,2.962v23.647a2.962,2.962,0,0,0,2.962,2.963h23.648a2.964,2.964,0,0,0,2.962-2.963V889.495Z" fill="#deeaeb" fill-rule="evenodd"/>
    <path id="Tracé_267" data-name="Tracé 267" d="M794.239,777.827a2.965,2.965,0,0,0-2.963-2.963H767.628a2.962,2.962,0,0,0-2.962,2.963v23.648a2.96,2.96,0,0,0,2.962,2.961h23.648a2.964,2.964,0,0,0,2.963-2.961V777.827Z" fill="#deeaeb" fill-rule="evenodd"/>
    <path id="Tracé_268" data-name="Tracé 268" d="M794.239,815.05a2.965,2.965,0,0,0-2.963-2.963H767.628a2.962,2.962,0,0,0-2.962,2.963V838.7a2.96,2.96,0,0,0,2.962,2.961h23.648a2.964,2.964,0,0,0,2.963-2.961V815.05Z" fill="#deeaeb" fill-rule="evenodd"/>
    <path id="Tracé_269" data-name="Tracé 269" d="M794.239,852.273a2.965,2.965,0,0,0-2.963-2.963H767.628a2.962,2.962,0,0,0-2.962,2.963v23.646a2.96,2.96,0,0,0,2.962,2.963h23.648a2.964,2.964,0,0,0,2.963-2.963V852.273Z" fill="#deeaeb" fill-rule="evenodd"/>
    <path id="Tracé_270" data-name="Tracé 270" d="M794.239,889.495a2.964,2.964,0,0,0-2.963-2.962H767.628a2.96,2.96,0,0,0-2.962,2.962v23.647a2.962,2.962,0,0,0,2.962,2.963h23.648a2.965,2.965,0,0,0,2.963-2.963V889.495Z" fill="#deeaeb" fill-rule="evenodd"/>
    <path id="Tracé_271" data-name="Tracé 271" d="M722.129,777.827a2.962,2.962,0,0,0-2.962-2.963H695.519a2.962,2.962,0,0,0-2.961,2.963v23.648a2.96,2.96,0,0,0,2.961,2.961h23.648a2.96,2.96,0,0,0,2.962-2.961V777.827Z" fill="#deeaeb" fill-rule="evenodd"/>
    <path id="Tracé_272" data-name="Tracé 272" d="M722.129,815.05a2.962,2.962,0,0,0-2.962-2.963H695.519a2.962,2.962,0,0,0-2.961,2.963V838.7a2.96,2.96,0,0,0,2.961,2.961h23.648a2.96,2.96,0,0,0,2.962-2.961V815.05Z" fill="#deeaeb" fill-rule="evenodd"/>
    <path id="Tracé_273" data-name="Tracé 273" d="M722.129,852.273a2.962,2.962,0,0,0-2.962-2.963H695.519a2.962,2.962,0,0,0-2.961,2.963v23.646a2.96,2.96,0,0,0,2.961,2.963h23.648a2.96,2.96,0,0,0,2.962-2.963V852.273Z" fill="#deeaeb" fill-rule="evenodd"/>
    <path id="Tracé_274" data-name="Tracé 274" d="M722.129,889.495a2.96,2.96,0,0,0-2.962-2.962H695.519a2.96,2.96,0,0,0-2.961,2.962v23.647a2.962,2.962,0,0,0,2.961,2.963h23.648a2.962,2.962,0,0,0,2.962-2.963V889.495Z" fill="#deeaeb" fill-rule="evenodd"/>
    <path id="Tracé_275" data-name="Tracé 275" d="M830.292,777.827a2.962,2.962,0,0,0-2.962-2.963H803.683a2.964,2.964,0,0,0-2.963,2.963v23.648a2.962,2.962,0,0,0,2.963,2.961H827.33a2.96,2.96,0,0,0,2.962-2.961V777.827Z" fill="#deeaeb" fill-rule="evenodd"/>
    <path id="Tracé_276" data-name="Tracé 276" d="M830.292,815.05a2.962,2.962,0,0,0-2.962-2.963H803.683a2.964,2.964,0,0,0-2.963,2.963V838.7a2.962,2.962,0,0,0,2.963,2.961H827.33a2.96,2.96,0,0,0,2.962-2.961V815.05Z" fill="#deeaeb" fill-rule="evenodd"/>
    <path id="Tracé_277" data-name="Tracé 277" d="M830.292,852.273a2.962,2.962,0,0,0-2.962-2.963H803.683a2.964,2.964,0,0,0-2.963,2.963v23.646a2.962,2.962,0,0,0,2.963,2.963H827.33a2.96,2.96,0,0,0,2.962-2.963V852.273Z" fill="#deeaeb" fill-rule="evenodd"/>
    <path id="Tracé_278" data-name="Tracé 278" d="M830.292,889.495a2.96,2.96,0,0,0-2.962-2.962H803.683a2.962,2.962,0,0,0-2.963,2.962v23.647a2.964,2.964,0,0,0,2.963,2.963H827.33a2.962,2.962,0,0,0,2.962-2.963V889.495Z" fill="#deeaeb" fill-rule="evenodd"/>
    <path id="Tracé_279" data-name="Tracé 279" d="M758.184,777.827a2.962,2.962,0,0,0-2.962-2.963H731.574a2.965,2.965,0,0,0-2.963,2.963v23.648a2.963,2.963,0,0,0,2.963,2.961h23.648a2.96,2.96,0,0,0,2.962-2.961V777.827Z" fill="#deeaeb" fill-rule="evenodd"/>
    <path id="Tracé_280" data-name="Tracé 280" d="M758.184,815.05a2.962,2.962,0,0,0-2.962-2.963H731.574a2.965,2.965,0,0,0-2.963,2.963V838.7a2.963,2.963,0,0,0,2.963,2.961h23.648a2.96,2.96,0,0,0,2.962-2.961V815.05Z" fill="#deeaeb" fill-rule="evenodd"/>
    <path id="Tracé_281" data-name="Tracé 281" d="M758.184,852.273a2.962,2.962,0,0,0-2.962-2.963H731.574a2.965,2.965,0,0,0-2.963,2.963v23.646a2.963,2.963,0,0,0,2.963,2.963h23.648a2.96,2.96,0,0,0,2.962-2.963V852.273Z" fill="#deeaeb" fill-rule="evenodd"/>
    <path id="Tracé_282" data-name="Tracé 282" d="M758.184,889.495a2.96,2.96,0,0,0-2.962-2.962H731.574a2.963,2.963,0,0,0-2.963,2.962v23.647a2.965,2.965,0,0,0,2.963,2.963h23.648a2.962,2.962,0,0,0,2.962-2.963V889.495Z" fill="#deeaeb" fill-rule="evenodd"/>
    <path id="Tracé_283" data-name="Tracé 283" d="M866.347,777.827a2.962,2.962,0,0,0-2.963-2.963H839.737a2.965,2.965,0,0,0-2.963,2.963v23.648a2.964,2.964,0,0,0,2.963,2.961h23.647a2.96,2.96,0,0,0,2.963-2.961V777.827Z" fill="#deeaeb" fill-rule="evenodd"/>
    <path id="Tracé_284" data-name="Tracé 284" d="M866.347,815.05a2.962,2.962,0,0,0-2.963-2.963H839.737a2.965,2.965,0,0,0-2.963,2.963V838.7a2.964,2.964,0,0,0,2.963,2.961h23.647a2.96,2.96,0,0,0,2.963-2.961V815.05Z" fill="#deeaeb" fill-rule="evenodd"/>
    <path id="Tracé_285" data-name="Tracé 285" d="M866.347,852.273a2.962,2.962,0,0,0-2.963-2.963H839.737a2.965,2.965,0,0,0-2.963,2.963v23.646a2.964,2.964,0,0,0,2.963,2.963h23.647a2.96,2.96,0,0,0,2.963-2.963V852.273Z" fill="#deeaeb" fill-rule="evenodd"/>
    <path id="Tracé_286" data-name="Tracé 286" d="M866.347,889.495a2.96,2.96,0,0,0-2.963-2.962H839.737a2.964,2.964,0,0,0-2.963,2.962v23.647a2.965,2.965,0,0,0,2.963,2.963h23.647a2.962,2.962,0,0,0,2.963-2.963V889.495Z" fill="#deeaeb" fill-rule="evenodd"/>
    <path id="Tracé_287" data-name="Tracé 287" d="M875.42,764.388H611.377V753.56a6.961,6.961,0,0,1,6.959-6.962H868.459a6.962,6.962,0,0,1,6.961,6.962v10.828Z" fill="#58595b" fill-rule="evenodd"/>
    <path id="Tracé_288" data-name="Tracé 288" d="M623.632,752.39a3.184,3.184,0,1,1-3.184,3.184,3.187,3.187,0,0,1,3.184-3.184Z" fill="#fff" stroke="#faf9ff" stroke-linecap="round" stroke-linejoin="round" stroke-width="1.209" fill-rule="evenodd"/>
    <path id="Tracé_289" data-name="Tracé 289" d="M644.129,752.39a3.184,3.184,0,1,1-3.185,3.184,3.185,3.185,0,0,1,3.185-3.184Z" fill="#fff" stroke="#faf9ff" stroke-linecap="round" stroke-linejoin="round" stroke-width="1.209" fill-rule="evenodd"/>
    <path id="Tracé_290" data-name="Tracé 290" d="M633.88,752.39a3.184,3.184,0,1,1-3.184,3.184,3.185,3.185,0,0,1,3.184-3.184Z" fill="#fff" stroke="#faf9ff" stroke-linecap="round" stroke-linejoin="round" stroke-width="1.209" fill-rule="evenodd"/>
    <path id="Tracé_291" data-name="Tracé 291" d="M637.264,887.915s8.172,2.849,10.519,4.829c1.909,1.609-.277,1.963-.277,1.963a1.363,1.363,0,0,1-.864,1.478,1.923,1.923,0,0,1-2.057,1.739s-.579,1.988-2.129.873a82.615,82.615,0,0,1-6.158-6.061l.966-4.821Z" fill="#f4a37c" fill-rule="evenodd"/>
    <path id="Tracé_292" data-name="Tracé 292" d="M635.732,893.851s3.338-.876,4.084-5.713L616.473,859.4s-5.223-7.881-11.937-1.883a4.368,4.368,0,0,0-.575,6.382c7.855,8.064,21,24.507,31.771,29.957Z" fill="#1394a1" fill-rule="evenodd"/>
    <path id="Tracé_293" data-name="Tracé 293" d="M611.56,830.2c2.216,7.867,4.746,17.005,5.27,26.813.157,2.922,1.592,6.173.318,6.913-3.506,2.035-4.682,2.312-7.079,1.035-6.594-3.513-10.019-18.188-11.835-30.446-1.156-7.8,11.077-12.3,13.326-4.315Z" fill="#1394a1" fill-rule="evenodd"/>
    <path id="Tracé_294" data-name="Tracé 294" d="M604.781,797.393c-.113.557.821-.85,1.065-1.37a4.949,4.949,0,0,0,.231-3.541,13.046,13.046,0,0,0-6.566-7.774c-7.363-4.07-16.14.056-19.638,7.335a16.829,16.829,0,0,0-.911,11.726c.173.672,13.811,25.789,19.78,5.724l-4.391-5.514,10.43-6.586Z" fill="#303d5c" fill-rule="evenodd"/>
    <path id="Tracé_295" data-name="Tracé 295" d="M622.133,893.939c4.959,36.263-7.924,93.272-9.343,102.136-1.613,10.087-7.216,47.539-6.49,50.779s-5.08.558-6.416-2.836c0,0,.9-8.564,1.232-13.513.2-2.918-.758-26.054-1.612-45.37,2.833-8.787,5.987-22.448,8.059-31.987,1.386-6.378-7.694-61.743-7.694-61.743l22.264,2.534Z" fill="#fe9e70" fill-rule="evenodd"/>
    <g id="Groupe_27" data-name="Groupe 27">
      <g id="Groupe_26" data-name="Groupe 26" clip-path="url(#clip-path)">
        <path id="Tracé_296" data-name="Tracé 296" d="M625.156,982.821c-.033-.481-8.286,7.611-8.651,7.928-.7.606-1.382,1.219-2.047,1.857a57.287,57.287,0,0,0-5.624,6.095c-3.814,4.925-5.364,10.648-6.7,16.611-.507,2.276-1.052,4.562-1.766,6.783-.054.17-.646,2.127-1.037,1.984-.375-.138.005-3.1.017-3.356.178-3.66.3-7.324.5-10.985.429-7.957.32-22.995,9.311-26.474,2.772-1.073,5.9-.913,8.817-.748,1.414.079,3.065.672,4.46.539.94-.09,1.8-.927,2.713-.234Z" fill="#fe9460" fill-rule="evenodd"/>
      </g>
    </g>
    <path id="Tracé_298" data-name="Tracé 298" d="M622.133,893.939c4.959,36.263-7.924,93.272-9.343,102.136-1.17,7.322-3.685,32.356-5.113,44.964-4.313.64-8.463-.213-8.128-3.787.218-2.33.809-32.8-.045-52.117,2.833-8.787,5.987-22.448,8.059-31.987,1.386-6.378-7.694-61.743-7.694-61.743l22.264,2.534Z" fill="#118793" fill-rule="evenodd"/>
    <path id="Tracé_299" data-name="Tracé 299" d="M607.724,892.312s9.43,76.922,5.921,82.7-21.044,49.675-25.7,64.5c-.334,1.065-.689,1.851-.935,2.646-2.307,7.463-5.74,8.589-7.394,6.647-1.007-1.182-.89-2.794.374-5.568.44-.965.471-2.634.844-3.55a124.626,124.626,0,0,0,4.406-13.849c.83-2.55,14.334-52.292,18.764-58.084,0,0-31.061-44.688-16.035-75.286l19.756-.152Z" fill="#feab83" fill-rule="evenodd"/>
    <path id="Tracé_300" data-name="Tracé 300" d="M614.335,892.312a42.577,42.577,0,0,1,3.247,14.589c.723,24.386.544,64.316-2.1,68.674-3.51,5.777-21.492,49.286-26.148,64.109-.335,1.066-9.648-1.487-9.03-3.178,1.925-5.258,13.142-57.921,17.573-63.713,0,0-3.584-16.285-7.891-31.487-4.7-16.6-9.86-32.869-2.016-48.842l26.367-.152Z" fill="#1394a1" fill-rule="evenodd"/>
    <path id="Tracé_301" data-name="Tracé 301" d="M580.818,1039.524s-3.4,8.118-3.333,13.536l14.842,4.42,6.126-.153a10.082,10.082,0,0,0-6.823-5.584,8.554,8.554,0,0,1-4.413-9.829c-2.137,1.177-5.214-.118-6.4-2.39Z" fill="#118793" fill-rule="evenodd"/>
    <path id="Tracé_302" data-name="Tracé 302" d="M599.969,1043.513s-1.23,8.719.217,13.939l23.11-.186s-2.879-3.349-9.909-5.155-6.931-8-6.931-8c-1.768,1.681-4.764,1.3-6.487-.6Z" fill="#118793" fill-rule="evenodd"/>
    <path id="Tracé_303" data-name="Tracé 303" d="M586.459,896.086c1.721-6.9,5.221-16.745,3.335-23.413-2.887-10.208-5.874-20.253-5.874-20.253s-11.229-27.709,7.313-36.429c0,0,9.75-2.682,13.139.934,4.273,4.56,24.885,24.251,14.917,34.461,0,0,2.328,25.994,2.91,42.511-4.859,5.557-13.485,8.543-35.74,2.189Z" fill="#118793" fill-rule="evenodd"/>
    <path id="Tracé_304" data-name="Tracé 304" d="M616.545,897.675s3.343-23.456,1.415-41.311a37.2,37.2,0,0,0-3.455-12.1l.243-.149a30.831,30.831,0,0,1,3.875,12.114c.837,7.61,1.131,21.872-.6,41.138l-1.482.31Z" fill="#16acbb" fill-rule="evenodd"/>
    <path id="Tracé_305" data-name="Tracé 305" d="M592.1,879.58c1.511.746,5.314.871,11.879.914,0,0,.311,8.43-3.875,9.652-3.776,1.1-4.342.548-6.173,0a2.944,2.944,0,0,0,1.682.808c10.829,1.421,9.447-11.553,9.447-11.553a40.039,40.039,0,0,1-12.948.064l-.012.112Z" fill="#013d61" fill-rule="evenodd"/>
    <path id="Tracé_306" data-name="Tracé 306" d="M596.95,805.475l2.967,10.483c6.239,7.779,3.772,6.535,3.506,9.908-2.2-.977-6.41-1.879-10.9-9.849l-1.812-15.84,6.239,5.3Z" fill="#f4a37c" fill-rule="evenodd"/>
    <g id="Groupe_29" data-name="Groupe 29">
      <g id="Groupe_28" data-name="Groupe 28" clip-path="url(#clip-path-2)">
        <path id="Tracé_307" data-name="Tracé 307" d="M590.711,809.392c1.115,5.122,14.258,7.658,11.271,3.442a74.155,74.155,0,0,0-5.267-5.259,5.16,5.16,0,0,0-2.394-1.193c-1.241-.169-2.466,2.806-3.61,3.01Z" fill="#3f3d55" fill-rule="evenodd"/>
      </g>
    </g>
    <path id="Tracé_309" data-name="Tracé 309" d="M603.5,793.388c2.763,5.789,6.906,30.572-13.317,15.025l-3.565-16.556s6.565-8.44,16.882,1.531Z" fill="#f4a37c" fill-rule="evenodd"/>
    <path id="Tracé_310" data-name="Tracé 310" d="M589.477,792.091c-.056.062.164.038.23.085a15.168,15.168,0,0,1,1.41,1.53,12.034,12.034,0,0,1,2.163,4.728,8.535,8.535,0,0,1-.941,5.517c-.626,1.251-.9,2.748-1.784,3.857-1.824,2.3-.386,3.654-1.838,5.234-3.18,3.459-8.852-8.158-5.467-13.193,1.492-2.215-.581-5.3.205-7.873.352-1.155,5.306-4.518,5.991-4.651,4.888-.952,11.619-1.38,14.537,3.276.411.658,1.481,2.118,1.394,2.957a14.363,14.363,0,0,1-2.577,1.132c-3.395,1.351-6.537.637-9.636-.934-.947-.48-3.687-1.665-3.687-1.665Z" fill="#303d5c" fill-rule="evenodd"/>
    <path id="Tracé_311" data-name="Tracé 311" d="M582.732,788.773c.179-.107-.374-1.552-.425-1.665a4.92,4.92,0,0,0-3.9-3.145c-2.059-.094-3.652,1.758-4.439,3.459-1.493,3.224-1.973,7.919-.1,11.1,1.345,2.286,3.732,2.535,5.718.894a12.1,12.1,0,0,0,3.8-7.139" fill="#303d5c" fill-rule="evenodd"/>
    <path id="Tracé_312" data-name="Tracé 312" d="M587.109,800.332s-2.746-1.033-1.688,1.491,2.585,2.592,2.585,2.592c.463-.778.308-2.029-.9-4.083Z" fill="#f4a37c" fill-rule="evenodd"/>
    <path id="Tracé_313" data-name="Tracé 313" d="M596.488,820.963c.327.42,11.848,13.081,11.848,13.081s-4.126-13.789-4.021-13.644a63.3,63.3,0,0,1,4.164,6.753c.908,1.658,3.657,7.467,4.306,9.24a28.019,28.019,0,0,1,1.6,6.056c.037.284.484,1.505.236,1.779-.066.071-.395-.262-.433-.3-.421-.371-3.078-3.168-3.516-3.521-1.117-.9-11.235-10.865-13.071-15.358a17.531,17.531,0,0,1-.872-2.987,3.972,3.972,0,0,1-.238-1.1Z" fill="#16acbb" fill-rule="evenodd"/>
    <path id="Tracé_314" data-name="Tracé 314" d="M614.841,844.364a47.492,47.492,0,0,0-4.087-2.844c-3.032-1.907-11.187-8.063-11.187-8.063l.362-2.2s-4.311-2.031-4.448-2.088l-3.056-13.378c4.219,4.205,11.937,19.858,22.416,28.574Z" fill="#16acbb" fill-rule="evenodd"/>
    <path id="Tracé_315" data-name="Tracé 315" d="M608.336,834.044s-7.33-3.446-10.674-8.235L592.444,815.8c5.9,6.016,12.016,14.123,15.892,18.246Z" fill="#16acbb" fill-rule="evenodd"/>
    <path id="Tracé_316" data-name="Tracé 316" d="M592.411,814.994s-1.546.716-1.721,3.369c-.153,2.36.658,6.541,4.619,13.781l.8-.434c-3.824-6.991-4.658-11.009-4.51-13.287.129-1.987.911-2.567.911-2.567l-.095-.862Z" fill-rule="evenodd"/>
    <path id="Tracé_317" data-name="Tracé 317" d="M599.7,815.219s2.134-.16,5.412,2.653c3.432,2.949,7.842,9.114,11.825,21.952l.865-.269c-8.187-26.387-18.331-25.178-18.331-25.178l.229.842Z" fill-rule="evenodd"/>
    <path id="Tracé_318" data-name="Tracé 318" d="M616.958,838.242a2.292,2.292,0,1,1-1.813,2.687,2.294,2.294,0,0,1,1.813-2.687Z" fill="#0b1e64" fill-rule="evenodd"/>
    <path id="Tracé_319" data-name="Tracé 319" d="M617.064,838.791a1.3,1.3,0,1,1-1.033,1.53,1.3,1.3,0,0,1,1.033-1.53Z" fill="#535170" fill-rule="evenodd"/>
    <path id="Tracé_320" data-name="Tracé 320" d="M617.1,838.965a1.128,1.128,0,1,1-.892,1.322,1.127,1.127,0,0,1,.892-1.322Z" fill="#0b1e64" fill-rule="evenodd"/>
    <path id="Tracé_321" data-name="Tracé 321" d="M595.668,841.611s2.88,6.029,7.083,9.562c2.871,2.413,6.347,3.666,9.956,1.223a.272.272,0,0,0-.3-.45c-3.373,2.283-6.618,1.067-9.3-1.189-4.124-3.466-6.944-9.379-6.944-9.379a.271.271,0,1,0-.49.233Z" fill="#afafaf" fill-rule="evenodd"/>
    <path id="Tracé_322" data-name="Tracé 322" d="M603.886,838.07s3.341,5.752,3.969,10.97c.405,3.375-.328,6.537-4,7.646a.272.272,0,0,0,.157.521c3.967-1.2,4.818-4.585,4.379-8.232-.639-5.317-4.037-11.177-4.037-11.177a.272.272,0,1,0-.47.272Z" fill="#afafaf" fill-rule="evenodd"/>
    <path id="Tracé_323" data-name="Tracé 323" d="M603.839,856.519a.438.438,0,1,1-.331.523.437.437,0,0,1,.331-.523Z" fill="#3c3a51" fill-rule="evenodd"/>
    <path id="Tracé_324" data-name="Tracé 324" d="M612.455,851.733a.438.438,0,1,1-.331.524.439.439,0,0,1,.331-.524Z" fill="#3c3a51" fill-rule="evenodd"/>
    <path id="Tracé_325" data-name="Tracé 325" d="M604.6,838.018a17.39,17.39,0,0,0-3.538-5.269c-1.55-1.426-3.49-2.21-5.635-.985a4.368,4.368,0,0,0-2.126,4.9,14.046,14.046,0,0,0,2.247,5.1l.733-.533a12.933,12.933,0,0,1-2.086-4.716,3.515,3.515,0,0,1,1.682-3.96c1.745-1,3.311-.3,4.571.863a16.266,16.266,0,0,1,3.315,4.951l.837-.348Z" fill-rule="evenodd"/>
    <path id="Tracé_326" data-name="Tracé 326" d="M614.841,844.364s-10.887-24.574-14.939-28.44c0,0,9.7,6.987,11.548,10.118l-1.509,2.83,2.277,1.081s2.36,12.282,2.623,14.411Z" fill="#16acbb" fill-rule="evenodd"/>
    <path id="Tracé_327" data-name="Tracé 327" d="M608.336,834.044c-1.372-4.7-7.705-16.337-8.411-18.116,0,0,5.451,4.821,7.294,7.952,0,0,2.665,6.6,1.117,10.164Z" fill="#16acbb" fill-rule="evenodd"/>
    <path id="Tracé_328" data-name="Tracé 328" d="M637.941,824.616s3.61-7.831,5.721-10.062c13.262-14.017,1.932.446,1.932.446a1.362,1.362,0,0,1,1.4.989,1.923,1.923,0,0,1,1.554,2.2s1.931.749.686,2.2A82.8,82.8,0,0,1,642.66,826l-4.719-1.381Z" fill="#f4a37c" fill-rule="evenodd"/>
    <path id="Tracé_329" data-name="Tracé 329" d="M643.722,826.656s-.583-3.4-5.337-4.562L607.73,842.863s-8.3,4.523-2.908,11.729a4.368,4.368,0,0,0,6.308,1.126c8.713-7.129,26.232-18.8,32.592-29.062Z" fill="#1394a1" fill-rule="evenodd"/>
    <path id="Tracé_330" data-name="Tracé 330" d="M591.84,825.882c5.883,5.674,12.676,12.288,18.076,20.493,1.609,2.443,4.489,4.526,3.762,5.808-2,3.527-2.875,4.358-5.59,4.464-7.466.294-17.826-10.65-25.577-20.317-4.934-6.152,3.359-16.208,9.329-10.448Z" fill="#1394a1" fill-rule="evenodd"/>
    <path id="Tracé_331" data-name="Tracé 331" d="M1073.636,954.112a8.751,8.751,0,0,0-8.512-10.783h-179a8.747,8.747,0,0,0-8.533,6.814c-5.377,23.7-24.082,103.395-30.334,130.948a7.9,7.9,0,0,0,7.663,9.641c34.131.156,147.8-.138,178.373,0a9.706,9.706,0,0,0,9.485-7.45c5.794-24.253,24.065-100.736,30.857-129.17" fill="#58595b" fill-rule="evenodd"/>
    <path id="Tracé_332" data-name="Tracé 332" d="M1069.061,953.481a8.749,8.749,0,0,0-8.508-10.8H879.309a8.752,8.752,0,0,0-8.531,6.8c-5.427,23.761-23.559,103.119-29.878,130.782a7.9,7.9,0,0,0,7.661,9.654c34.44.154,148.989.672,179.79.812a9.706,9.706,0,0,0,9.48-7.436c5.849-24.315,24.362-101.268,31.23-129.816" fill="#303d5d" fill-rule="evenodd"/>
    <path id="Tracé_333" data-name="Tracé 333" d="M1063.464,956.351c-6.531,26.088-24.139,96.4-29.7,118.621a9.172,9.172,0,0,1-9.016,6.79c-26.332-.113-117.018-.509-158.871-.7-4.7-.015-8.787-.031-12.1-.047a7.618,7.618,0,0,1-5.843-2.727,7,7,0,0,1-1.439-6.094c1.537-6.457,3.8-16,6.416-26.995,1.335-5.616,2.768-11.6,4.233-17.761v-.009c2.209-9.314,4.507-18.984,6.724-28.273v-.009c4.645-19.575,8.885-37.41,11.037-46.448a8.257,8.257,0,0,1,8.118-6.215h172.344a8.469,8.469,0,0,1,6.538,3.043,7.779,7.779,0,0,1,1.554,6.821" fill="#f8f9fd" fill-rule="evenodd"/>
    <path id="Tracé_334" data-name="Tracé 334" d="M950.358,945.1l-1.652,6.675a1.065,1.065,0,0,0,.235.953,1.257,1.257,0,0,0,.951.427l27.846.116a1.482,1.482,0,0,0,1.468-1.063l1.852-7.108Z" fill="#303d5d" fill-rule="evenodd"/>
    <path id="Tracé_335" data-name="Tracé 335" d="M1041.042,1080.2H760.694a1.814,1.814,0,0,0-1.578,1.981v4.736h281.926V1080.2Z" fill="#3f507b" fill-rule="evenodd"/>
    <path id="Tracé_336" data-name="Tracé 336" d="M1041.042,1080.2H927.757c-.353,0-.638.887-.638,1.981v4.736h113.923V1080.2Z" fill="#303d5d" fill-rule="evenodd"/>
    <path id="Tracé_337" data-name="Tracé 337" d="M1041.041,1086.3H757.428V1089a1.776,1.776,0,0,0,1.775,1.775h279.505a2.38,2.38,0,0,0,2.38-2.435l-.047-2.048" fill="#818286" fill-rule="evenodd"/>
    <path id="Tracé_338" data-name="Tracé 338" d="M1041.042,1086.3h-114.6V1089c0,.98.321,1.775.718,1.775H1038.68a2.38,2.38,0,0,0,2.38-2.4c-.009-1.064-.018-2.08-.018-2.08" fill="#58595b" fill-rule="evenodd"/>
    <path id="Tracé_339" data-name="Tracé 339" d="M848.048,1065.679,869.7,974.665H982.537a2.672,2.672,0,0,1,2.651,3.5l-19.807,84.016a4.684,4.684,0,0,1-4.3,3.5Z" fill="#bdd3d8" fill-rule="evenodd"/>
    <path id="Tracé_340" data-name="Tracé 340" d="M979.138,969.363a2.78,2.78,0,0,0-2.758-3.639H840.152a4.872,4.872,0,0,0-4.474,3.639c-3.549,15.052-17.057,72.351-20.606,87.4a2.779,2.779,0,0,0,2.759,3.638H954.057a4.871,4.871,0,0,0,4.475-3.638c3.548-15.052,17.057-72.351,20.606-87.4Z" fill="#deeaeb" fill-rule="evenodd"/>
    <path id="Tracé_341" data-name="Tracé 341" d="M978.7,971.654H835.138l.852-3.61c.3-1.281,2.165-2.32,4.162-2.32H976.479c2,0,3.372,1.039,3.069,2.32l-.851,3.61Z" fill="#373f41" fill-rule="evenodd"/>
    <path id="Tracé_342" data-name="Tracé 342" d="M978.562,971.654H835.138l-1.224,5.3,143.329.431,1.318-5.735Z" fill="#bfd6d8" fill-rule="evenodd"/>
    <path id="Tracé_343" data-name="Tracé 343" d="M931.418,974.52a1.4,1.4,0,0,0-1.336-1.828H855.7a2.45,2.45,0,0,0-2.333,1.7v0a1.293,1.293,0,0,0,1.227,1.684l74.325.263a2.618,2.618,0,0,0,2.5-1.822Z" fill="#deeaeb" fill-rule="evenodd"/>
    <path id="Tracé_344" data-name="Tracé 344" d="M965.459,973.773a1.473,1.473,0,0,0-1.42-1.081H941.416a1.867,1.867,0,0,0-1.8,2.364c.025.085.046.166.068.243a1.069,1.069,0,0,0,1.02.784l22.969.24a1.881,1.881,0,0,0,1.833-2.383c-.015-.057-.031-.113-.047-.167Z" fill="#deeaeb" fill-rule="evenodd"/>
    <path id="Tracé_345" data-name="Tracé 345" d="M841.6,967.713a.745.745,0,0,1,.74.976,1.308,1.308,0,0,1-1.2.977.747.747,0,0,1-.741-.977,1.308,1.308,0,0,1,1.2-.976Z" fill="#fff" fill-rule="evenodd"/>
    <path id="Tracé_346" data-name="Tracé 346" d="M847.844,967.713a.745.745,0,0,1,.74.976,1.308,1.308,0,0,1-1.2.977.747.747,0,0,1-.741-.977,1.308,1.308,0,0,1,1.2-.976Z" fill="#fff" fill-rule="evenodd"/>
    <path id="Tracé_347" data-name="Tracé 347" d="M844.721,967.713a.746.746,0,0,1,.74.976,1.308,1.308,0,0,1-1.2.977.746.746,0,0,1-.74-.977,1.307,1.307,0,0,1,1.2-.976Z" fill="#fff" fill-rule="evenodd"/>
    <path id="Tracé_348" data-name="Tracé 348" d="M844.915,923.716s-4.75-9.269-8.06-10.53c0,0-2.545-.856-2.33.717,0,0-1.854.38-1.6,1.57,0,0-1.554.959-1.046,2.313s-1.611,1.2-.413,2.624c0,0,10.451,6.548,12.54,6.185l.9-2.879Z" fill="#fec6ad" fill-rule="evenodd"/>
    <path id="Tracé_349" data-name="Tracé 349" d="M881.459,937.186s-30.7-8.87-36.047-16.148c-3.431,1.377-3.649,3.044-4.4,5.961,0,0,27,20.366,35.727,22.561,0,0,3.361-7.927,4.72-12.374Z" fill="#fff" fill-rule="evenodd"/>
    <path id="Tracé_350" data-name="Tracé 350" d="M876.074,949.328c5.275,2.569,25.213-9.358,35.316-21.472a33.585,33.585,0,0,0,4.329-6.422c1.54-3.05-.193-15.172-18.039-2.774-12.13,12.405-15.851,13.217-22.119,17.857-1.969,2.988-2.333,9.884.513,12.811Z" fill="#fff" fill-rule="evenodd"/>
    <path id="Tracé_351" data-name="Tracé 351" d="M887.412,994.265,922.9,989.3s-.106.421-.3,1.183c-1.132,4.355-5.264,19.877-9.7,32.033-2.374,6.508-4.2,18.1-5.769,30.5-.309,2.443-.608,4.918-.9,7.392h-17.81l-1.014-66.139Z" fill="#2e3537" fill-rule="evenodd"/>
    <path id="Tracé_352" data-name="Tracé 352" d="M926.229,1060.4H908.521c-.452-2.418-.917-4.89-1.386-7.392-4.575-24.353-9.774-51.586-11.367-59.916-.314-1.648-.488-2.557-.488-2.557l27.5-.059c3.587,13.078,3.538,49.422,3.449,69.924Z" fill="#373f41" fill-rule="evenodd"/>
    <path id="Tracé_353" data-name="Tracé 353" d="M909.62,966s8.666-38.823,2.405-46.912-18.787.815-17.7,17.2,1.988,17.116,3.286,24.382c1.057,5.909,4.641,7.779,12.006,5.335Z" fill="#74abe1" fill-rule="evenodd"/>
    <g id="Groupe_31" data-name="Groupe 31">
      <g id="Groupe_30" data-name="Groupe 30" clip-path="url(#clip-path-3)">
        <path id="Tracé_354" data-name="Tracé 354" d="M898.39,940.2a19.725,19.725,0,0,0,1.017,2.694,67.558,67.558,0,0,1,2.454,8.577c.621,2.961,1.51,6.509.2,9.42-.7,1.568-1.865,1.72-3.3,2.235-.383.136-.583.411-.354.794a8.021,8.021,0,0,0,3.011,2.385c3.7,2.007,8.937,2.586,11.187-1.705,2.259-4.309.765-9.739-.819-14a48.461,48.461,0,0,0-4.853-9.525c-1.6-2.458-3.4-4.552-4.151-7.281" fill="#386c81" fill-rule="evenodd"/>
      </g>
    </g>
    <path id="Tracé_356" data-name="Tracé 356" d="M925.325,920.191a36.019,36.019,0,0,0-11.172-6.343c-2.873-.891-5.351-1.822-8.631-.152-10.124,5.155-14.079,14.8-14.549,26.807-1.227,31.44-6.043,36.581-3.37,57.96-1.786,4.954,36.733,10.194,37.575-1.559,0,0-3.083-25.6-1.106-37.755,4.613-14.961,6.432-30.061,1.253-38.958Z" fill="#118793" fill-rule="evenodd"/>
    <path id="Tracé_357" data-name="Tracé 357" d="M914.591,913.076a3.759,3.759,0,0,1,.463,1.92c.068,1.672-1.214,4.741-3.465,8.8-4.5,8.109-8.439,11.645-8.978,19.386s-6,61.269-5.316,79.442c0,0,25.065,5.182,35.265-2.992,0,0-2.592-20.541-5.613-39.391-3.353-20.91-.464-27.333,1.619-38.233s1.593-19.954-2.573-24.473c-4.326-4.691-11.4-4.454-11.4-4.454Z" fill="#fff" fill-rule="evenodd"/>
    <g id="Groupe_33" data-name="Groupe 33">
      <g id="Groupe_32" data-name="Groupe 32" clip-path="url(#clip-path-4)">
        <path id="Tracé_358" data-name="Tracé 358" d="M913.68,912.847s5.942-.107,6.119,5.273a12.062,12.062,0,0,1-2.8,8.431l-5.194,1.051,2.613,1.186s-8.532,12.333-12.937,18.564c-3.567-9.659,4.572-24.655,12.2-34.505Z" fill="#e2edf6" fill-rule="evenodd"/>
      </g>
    </g>
    <path id="Tracé_360" data-name="Tracé 360" d="M907.382,913.128s-6.139,3.125-8.385,17.012c-1.606,9.924-6.712,69.943-6.149,90.808,0,0-4.321,2.063-8.679-3.008,0,0-.021-34.558,2.125-59.21,1.212-13.914,2.168-22.312,5.833-30.515,7.621-17.056,15.255-15.087,15.255-15.087Z" fill="#fff" fill-rule="evenodd"/>
    <g id="Groupe_35" data-name="Groupe 35">
      <g id="Groupe_34" data-name="Groupe 34" clip-path="url(#clip-path-5)">
        <path id="Tracé_361" data-name="Tracé 361" d="M906.665,912.746s-5.647.522-7.734,5.477a67.7,67.7,0,0,0-3.281,10.509l2.093,1.831-1.9.774s-1.526,10.215,2.345,18.455l8.48-37.046Z" fill="#e2edf6" fill-rule="evenodd"/>
      </g>
    </g>
    <path id="Tracé_363" data-name="Tracé 363" d="M920.932,987.578c-1.314,1.013-4.766,1.571-10.743,2.342,0,0,.446,9.6,4.367,10.522,3.536.837,4,.145,5.624-.675a2.685,2.685,0,0,1-1.463,1.1c-9.74,2.8-9.608-12.067-9.608-12.067a29.662,29.662,0,0,0,11.8-1.349s.008.044.022.125Z" fill="#b3cedb" fill-rule="evenodd"/>
    <path id="Tracé_364" data-name="Tracé 364" d="M914.16,905.815s-.009,6.52.605,8.4c.592,1.814-8.771,6.561-9.9,5.93-.943-.529-1.439-4.446,1.767-6.4a29.83,29.83,0,0,0,.357-7.746l7.172-.193Z" fill="#fec6ad" fill-rule="evenodd"/>
    <g id="Groupe_37" data-name="Groupe 37">
      <g id="Groupe_36" data-name="Groupe 36" clip-path="url(#clip-path-6)">
        <path id="Tracé_365" data-name="Tracé 365" d="M914.58,906.795c-.051.026-.094.165-.122.212-.114.2-.24.386-.366.574a16.622,16.622,0,0,1-1.432,1.84,10.557,10.557,0,0,1-5.58,3.2c-.435.11-.874.2-1.311.293a2.018,2.018,0,0,1-.7.088c-.2-.035-.191-.284-.19-.446,0-.459.061-.918.095-1.374.1-1.358.138-2.724.151-4.087,0-.4-.01-.794.028-1.187a.794.794,0,0,1,.112-.449c.178-.19.617-.193.848-.224.711-.093,1.42-.164,2.128-.283,1.453-.243,2.9-.511,4.35-.795a17.127,17.127,0,0,1,3.659-.5" fill="#fd905f" fill-rule="evenodd"/>
      </g>
    </g>
    <path id="Tracé_367" data-name="Tracé 367" d="M899.228,894.122s-2.476-1.233-1.164-5.287.527-3.521,2.15-4.35,4.46-1.009,7.859-1.548c2.62-.414,4.485,1.8,5.755,2.205s2.818-.042,4.036,3,2.648,7.983-.862,14.678a16.468,16.468,0,0,1-3.736,4.743c-2.732,2.265-5.274,1.8-7.572.967-3.289-1.185-6.64-13.975-6.466-14.41Z" fill="#16110d" fill-rule="evenodd"/>
    <path id="Tracé_368" data-name="Tracé 368" d="M899.279,891.357s-1.318,9.685-.571,14.458,3.082,6.047,7.769,4.864,7.237-3.184,7.63-5.071c.073-.349.184-2.029.328-4.13.274-3.994,1.59-9.3.432-11.024-1.705-2.536-13.312-7.484-15.588.9Z" fill="#fec6ad" fill-rule="evenodd"/>
    <path id="Tracé_369" data-name="Tracé 369" d="M913.932,891.246s-2.294,4.506.177,8.075c0,0,3.149-1.9,2.991-5.082s1.408-5.817-5.2-7.336-13.735-3.638-13.156,5.634c0,0,1.587.4,4.009-1.521s8.684-1.816,11.181.23Z" fill="#16110d" fill-rule="evenodd"/>
    <path id="Tracé_370" data-name="Tracé 370" d="M914.109,899.321s1.485-2.948,2.637-2.043-1.507,4.623-2.558,5.156-.079-3.113-.079-3.113Z" fill="#fec6ad" fill-rule="evenodd"/>
    <path id="Tracé_371" data-name="Tracé 371" d="M895.28,987.835l14.787-23.961,33.34,23.1-12.657,24.063-35.469-23.2Z" fill="#373f41" fill-rule="evenodd"/>
    <path id="Tracé_372" data-name="Tracé 372" d="M920.485,989.959s-8.5,4.978-9.518,8.172c0,0-.675,2.45.8,2.164,0,0,.457,1.731,1.569,1.424,0,0,.988,1.417,2.241.866s1.216,1.458,2.5.249c0,0,5.631-10.221,5.178-12.175l-2.769-.7Z" fill="#fec6ad" fill-rule="evenodd"/>
    <path id="Tracé_373" data-name="Tracé 373" d="M931.268,954.722s-6.747,29.474-13.338,34.91c1.483,3.168,3.068,3.284,5.864,3.839,0,0,17.909-26.762,19.518-35.125,0,0-7.771-2.578-12.044-3.624Z" fill="#fff" fill-rule="evenodd"/>
    <path id="Tracé_374" data-name="Tracé 374" d="M942.495,960.533c4.206-5.011-5.386-33.333-16.495-42.8-2.446-2.114-13.133-1.035-5.856,18.191,8.6,13.984,7.655,15.313,10.475,22.132,2.289,2.493,8.535,4.412,11.876,2.473Z" fill="#fff" fill-rule="evenodd"/>
    <path id="Tracé_375" data-name="Tracé 375" d="M906.734,913.274a11.056,11.056,0,0,0-5.936,4.119c-2.918,3.688-6.195,10.854-7.717,24.744l-.936-.1c3.035-29.471,14.729-29.653,14.729-29.653l-.14.893Z" fill-rule="evenodd"/>
    <path id="Tracé_376" data-name="Tracé 376" d="M892.751,940.525a2.383,2.383,0,1,0,2.384,2.384,2.384,2.384,0,0,0-2.384-2.384Z" fill="#0b1e64" fill-rule="evenodd"/>
    <path id="Tracé_377" data-name="Tracé 377" d="M892.751,941.108a1.356,1.356,0,1,0,1.357,1.356,1.356,1.356,0,0,0-1.357-1.356Z" fill="#535170" fill-rule="evenodd"/>
    <path id="Tracé_378" data-name="Tracé 378" d="M892.751,941.292a1.173,1.173,0,1,0,1.173,1.172,1.173,1.173,0,0,0-1.173-1.172Z" fill="#0b1e64" fill-rule="evenodd"/>
    <path id="Tracé_379" data-name="Tracé 379" d="M914.539,913.083s1.757.388,2.536,3.042c.694,2.358.824,6.781-1.546,15.029l-.9-.26c2.286-7.962,2.216-12.227,1.546-14.5-.583-1.986-1.508-2.4-1.508-2.4l-.125-.911Z" fill-rule="evenodd"/>
    <path id="Tracé_380" data-name="Tracé 380" d="M917.324,940.837s-1.548,6.771-5.008,11.314c-2.362,3.1-5.6,5.162-9.819,3.507a.283.283,0,0,1,.207-.526c3.941,1.548,6.955-.426,9.162-3.324,3.394-4.455,4.907-11.1,4.907-11.1a.282.282,0,0,1,.551.125Z" fill="#afafaf" fill-rule="evenodd"/>
    <path id="Tracé_381" data-name="Tracé 381" d="M908.18,939.118s-2.077,6.594-1.525,12.03c.356,3.517,1.822,6.555,5.8,6.845a.283.283,0,0,1-.042.564c-4.3-.314-5.931-3.552-6.317-7.352-.562-5.538,1.549-12.256,1.549-12.256a.282.282,0,1,1,.538.169Z" fill="#afafaf" fill-rule="evenodd"/>
    <path id="Tracé_382" data-name="Tracé 382" d="M912.431,957.819a.456.456,0,1,0,.455.456.456.456,0,0,0-.455-.456Z" fill="#3c3a51" fill-rule="evenodd"/>
    <path id="Tracé_383" data-name="Tracé 383" d="M902.6,954.928a.455.455,0,1,0,.456.455.457.457,0,0,0-.456-.455Z" fill="#3c3a51" fill-rule="evenodd"/>
    <path id="Tracé_384" data-name="Tracé 384" d="M907.447,939.227a18.083,18.083,0,0,1,2.389-6.151c1.247-1.8,3.035-3.035,5.491-2.28a4.536,4.536,0,0,1,3.271,4.478,14.609,14.609,0,0,1-1.118,5.689l-.863-.375a13.433,13.433,0,0,0,1.041-5.259,3.657,3.657,0,0,0-2.607-3.634c-2-.613-3.427.455-4.441,1.917a16.91,16.91,0,0,0-2.235,5.777l-.928-.162Z" fill-rule="evenodd"/>
    <path id="Tracé_385" data-name="Tracé 385" d="M808.672,878.567a.546.546,0,0,0-.736-.116l-.053.036a.542.542,0,0,0-.132.776c3.681,4.958,36.09,48.593,36.09,48.593l2.034-1.531-37.2-47.758Z" fill="#2e3537" fill-rule="evenodd"/>
    <path id="Tracé_386" data-name="Tracé 386" d="M839.025,914.936s-2.621-2.034-3.318-.631,5.1,3.8,5.1,3.8l-1.785-3.171Z" fill="#fec6ad" fill-rule="evenodd"/>
    <path id="Tracé_387" data-name="Tracé 387" d="M679.391,1019.663s7.657-.505,11.981,8.355c3.723,7.625,5.144,22.8,5.272,31.791a95.785,95.785,0,0,0,.934,13.577H661.113s-10.087-39.335-6.014-48.126,8.835-6.778,8.835-6.778l15.457,1.181Z" fill="#f99325" fill-rule="evenodd"/>
    <path id="Tracé_388" data-name="Tracé 388" d="M694.187,1049.046a29.243,29.243,0,0,0-9.257-16.355,25.131,25.131,0,0,0-16.5-6.776H642.839a17.283,17.283,0,0,0-14.075,6.776c-3.279,4.336-4.5,10.22-3.407,16.355,3.334,18.646,7.471,41.78,7.471,41.78h68.83s-4.136-23.134-7.471-41.78Z" fill="#292f30" fill-rule="evenodd"/>
    <path id="Tracé_389" data-name="Tracé 389" d="M687.57,1049.046a29.243,29.243,0,0,0-9.257-16.355,25.131,25.131,0,0,0-16.5-6.776H636.222a17.283,17.283,0,0,0-14.075,6.776c-3.278,4.336-4.5,10.22-3.407,16.355,3.335,18.646,7.471,41.78,7.471,41.78h68.831s-4.138-23.134-7.472-41.78Z" fill="#333a3c" fill-rule="evenodd"/>
    <path id="Tracé_390" data-name="Tracé 390" d="M682.434,985.55s3.186,2.028,3.207,7.9.586,6.992-1.308,12.775c-1.129,3.445-6.4,3.311-6.4,3.311l-.244,8.949-10.522-.666,2.777-9.547,4.222-16.9,8.272-5.818Z" fill="#fec6ad" fill-rule="evenodd"/>
    <path id="Tracé_391" data-name="Tracé 391" d="M681.147,1019.914l-1.49-3.561s-7.92,1.321-13.961-.643l-1.762,3.868s13.719,3.111,17.213.336Z" fill="#faab55" fill-rule="evenodd"/>
    <path id="Tracé_392" data-name="Tracé 392" d="M675.626,1009.558c-.008-3.852-1.967-5.368.228-9.342-3.906-1.946-1.736-10.222,1.678-4.574,7.442-5.939,12.2-14.2,3.775-15.553-3.911-7.222-26.852-4.7-26.759,12.572s-.685,11.3-4.069,17.718-6.567,10-4.183,20.413c1.274,5.567,5.553,5.6,17.638,7.764s18.494-8.088,14.457-13.563-2.752-10.422-2.765-15.435Z" fill="#373f41" fill-rule="evenodd"/>
    <path id="Tracé_393" data-name="Tracé 393" d="M792.5,1019.818s7.656-.505,11.982,8.354c3.723,7.624,5.143,22.8,5.271,31.792a95.482,95.482,0,0,0,.935,13.577H774.225s-10.089-39.336-6.014-48.127,8.834-6.777,8.834-6.777l15.457,1.181Z" fill="#118793" fill-rule="evenodd"/>
    <path id="Tracé_394" data-name="Tracé 394" d="M819.437,1049.2a29.59,29.59,0,0,0-9.4-16.357,25.361,25.361,0,0,0-16.56-6.775H767.881a17.115,17.115,0,0,0-14.015,6.775c-3.24,4.338-4.411,10.222-3.259,16.357,3.5,18.646,7.848,41.78,7.848,41.78h68.83s-4.346-23.134-7.848-41.78Z" fill="#292f30" fill-rule="evenodd"/>
    <path id="Tracé_395" data-name="Tracé 395" d="M812.819,1049.2a29.577,29.577,0,0,0-9.4-16.357,25.359,25.359,0,0,0-16.56-6.775H761.264a17.115,17.115,0,0,0-14.015,6.775c-3.239,4.338-4.412,10.222-3.259,16.357l7.847,41.78h68.83s-4.345-23.134-7.848-41.78Z" fill="#333a3c" fill-rule="evenodd"/>
    <path id="Tracé_396" data-name="Tracé 396" d="M795.545,985.7s3.185,2.029,3.207,7.9,2.027,9.928.133,15.71c-1.127,3.446-7.845.375-7.845.375l-.244,8.95-10.522-.668,2.777-9.547,4.222-16.9,8.272-5.817Z" fill="#f4a37c" fill-rule="evenodd"/>
    <path id="Tracé_397" data-name="Tracé 397" d="M794.418,1020.836l-1.65-4.329s-7.92,1.322-13.961-.642l-1.762,3.866s1.312,4.2,17.373,1.1Z" fill="#16b0c0" fill-rule="evenodd"/>
    <path id="Tracé_398" data-name="Tracé 398" d="M788.738,1009.712c-.009-3.851-1.968-5.368.228-9.343-3.908-1.946-1.737-10.22,1.677-4.574,7.443-5.938,12.194-14.2,3.775-15.551-3.911-7.222-28.671-4.26-27.177,12.95.143,1.637-1.28,9.6,3.236,15.274,5.354,6.729,18.272,6.256,18.261,1.244Z" fill="#373f41" fill-rule="evenodd"/>
    <path id="Tracé_399" data-name="Tracé 399" d="M768.451,976.566a6.975,6.975,0,1,1-7.112,6.975,7.049,7.049,0,0,1,7.112-6.975Z" fill="#373f41" fill-rule="evenodd"/>
    <path id="Tracé_400" data-name="Tracé 400" d="M765.776,983.541a4.351,4.351,0,1,1-4.437,4.35,4.4,4.4,0,0,1,4.437-4.35Z" fill="#373f41" fill-rule="evenodd"/>
    <path id="Tracé_401" data-name="Tracé 401" d="M740.874,1016.133s10.667-.7,16.693,11.639c5.186,10.623,7.164,31.769,7.343,44.294a133.205,133.205,0,0,0,1.3,18.915h-50.8s-14.054-54.8-8.379-67.05,12.309-9.444,12.309-9.444l21.535,1.646Z" fill="#f99325" fill-rule="evenodd"/>
    <path id="Tracé_402" data-name="Tracé 402" d="M765.6,1047.2a30.016,30.016,0,0,0-10.288-17.142,29.105,29.105,0,0,0-18.462-7.1h-28.7a20.015,20.015,0,0,0-15.821,7.1c-3.7,4.546-5.107,10.712-3.912,17.142,3.635,19.541,8.144,43.785,8.144,43.785h77.18s-4.508-24.244-8.144-43.785Z" fill="#2d3435" fill-rule="evenodd"/>
    <path id="Tracé_403" data-name="Tracé 403" d="M758.178,1047.2a30.021,30.021,0,0,0-10.288-17.142,29.109,29.109,0,0,0-18.462-7.1h-28.7a20.014,20.014,0,0,0-15.821,7.1c-3.7,4.546-5.109,10.712-3.913,17.142,3.634,19.541,8.144,43.785,8.144,43.785h77.181s-4.51-24.244-8.144-43.785Z" fill="#373f41" fill-rule="evenodd"/>
    <path id="Tracé_404" data-name="Tracé 404" d="M745.113,968.606s4.437,2.826,4.469,11,2.309,15.926-.317,20.147-10.429,2.265-10.429,2.265l-.339,12.467-14.659-.928,3.869-13.3,5.881-23.546,11.525-8.106Z" fill="#fec6ad" fill-rule="evenodd"/>
    <path id="Tracé_405" data-name="Tracé 405" d="M742.908,984.884s2.494-4.635-.73-10.919c0,0,2.178-2.38,7.769-2.579,0,0,1.509-5.866-1.952-6.9,0,0,.536-1.233,3.282-.483,0,0-11.184-7.579-21.518-3.091s-7.486,9.966-7.486,9.966-7.149,1.9-6.855,8.2,6.868,21.576,12.6,23.074,13.042-1.8,12.616-10.608c0,0-3.122-2.553-2.71-5.907s2.3-4.369,4.985-.756Z" fill="#373f41" fill-rule="evenodd"/>
    <path id="Tracé_406" data-name="Tracé 406" d="M743.542,1017.552l-2.3-6.03s-11.034,1.839-19.45-.9l-2.455,5.387s1.829,5.85,24.2,1.539Z" fill="#faab55" fill-rule="evenodd"/>
    <path id="Tracé_407" data-name="Tracé 407" d="M616.859,1013.649s11-.724,17.212,12c5.348,10.953,7.389,32.757,7.574,45.673s1.341,19.5,1.341,19.5H590.6s-14.492-56.508-8.641-69.137,12.694-9.737,12.694-9.737l22.2,1.7Z" fill="#118793" fill-rule="evenodd"/>
    <path id="Tracé_408" data-name="Tracé 408" d="M642.352,1045.678A30.944,30.944,0,0,0,631.743,1028a30.01,30.01,0,0,0-19.036-7.321h-29.59A20.638,20.638,0,0,0,566.8,1028c-3.817,4.688-5.267,11.045-4.034,17.675l8.4,45.148H650.75l-8.4-45.148Z" fill="#2d3435" fill-rule="evenodd"/>
    <path id="Tracé_409" data-name="Tracé 409" d="M634.7,1045.678A30.955,30.955,0,0,0,624.093,1028a30.012,30.012,0,0,0-19.037-7.321H575.467A20.635,20.635,0,0,0,559.154,1028c-3.817,4.688-5.268,11.045-4.035,17.675,3.748,20.149,8.4,45.148,8.4,45.148H643.1l-8.4-45.148Z" fill="#373f41" fill-rule="evenodd"/>
    <path id="Tracé_410" data-name="Tracé 410" d="M621.23,964.643s4.575,2.914,4.608,11.345,2.381,16.42-.326,20.774-10.754,2.335-10.754,2.335l-.35,12.855-15.115-.957,3.989-13.716L609.347,973l11.883-8.357Z" fill="#feab83" fill-rule="evenodd"/>
    <path id="Tracé_411" data-name="Tracé 411" d="M618.135,969.989s8.285-5.127,4.518-11.83-15.87-2.933-21.744.292c0,0,9.056-.294,4.7,1.466s-18.281,10.16-14.3,19.759,6.449,11.248,7.983,16.173,10.655,4.527,13.761.169A17.9,17.9,0,0,0,616.5,988.3s-4.421-2-3.444-5.667,2.771-5.219,5.962-1.162c0,0,2.456-3.847-.881-11.479Z" fill="#373f41" fill-rule="evenodd"/>
    <path id="Tracé_412" data-name="Tracé 412" d="M619.611,1015.113l-2.369-6.219s-11.379,1.9-20.056-.924l-2.531,5.556s1.884,6.031,24.956,1.587Z" fill="#16b0c0" fill-rule="evenodd"/>
    <path id="Tracé_413" data-name="Tracé 413" d="M743.4,851.88a12.253,12.253,0,1,1-12.253,12.253A12.258,12.258,0,0,1,743.4,851.88Z" fill="#118793" fill-rule="evenodd"/>
    <path id="Tracé_414" data-name="Tracé 414" d="M741.885,859.36c.027-.025.051-.051.075-.078a3.022,3.022,0,0,0,.559-1.034,10.447,10.447,0,0,0,.462-2.911v-.051a.542.542,0,0,1,1.084.009v.029a6.477,6.477,0,0,0,.868,3.731,2.167,2.167,0,0,1,.508-1.21s3.418,1.579,4.349,4.346a7.916,7.916,0,0,1-5.647,1.462,10.21,10.21,0,0,1,.855-2.962,4.3,4.3,0,0,1-1.485-2,2.939,2.939,0,0,1-1.736,1.964,10.2,10.2,0,0,1,.873,3A7.918,7.918,0,0,1,737,862.191c.933-2.767,4.349-4.346,4.349-4.346a2.347,2.347,0,0,1,.532,1.515Zm8.068,3.381a25.028,25.028,0,0,1,.873,5.287,7.851,7.851,0,0,1-4.932,1.061c-.089-.03-.182-.061-.278-.09-1.293-.391-1.746-2.556-1.535-4.806a8.43,8.43,0,0,0,5.872-1.452Zm.873,5.911c-.039,1.188-.325,2-1.026,1.935a6.022,6.022,0,0,1-2.54-.914,8.371,8.371,0,0,0,3.566-1.021Zm-13.984-5.911a8.433,8.433,0,0,0,5.873,1.452c.21,2.25-.243,4.415-1.535,4.806-.1.029-.19.06-.279.09a7.851,7.851,0,0,1-4.932-1.061,25.1,25.1,0,0,1,.873-5.287Zm-.873,5.911a8.376,8.376,0,0,0,3.568,1.021,6.042,6.042,0,0,1-2.541.914c-.7.068-.988-.747-1.027-1.935Z" fill="#fdecd1" fill-rule="evenodd"/>
    <path id="Tracé_415" data-name="Tracé 415" d="M779.164,821.6a5.7,5.7,0,1,1-5.7,5.7,5.706,5.706,0,0,1,5.7-5.7Z" fill="#f99325" fill-rule="evenodd"/>
    <path id="Tracé_416" data-name="Tracé 416" d="M671.094,860.03a5.7,5.7,0,1,1-5.705,5.7,5.705,5.705,0,0,1,5.705-5.7Z" fill="#f99325" fill-rule="evenodd"/>
    <path id="Tracé_417" data-name="Tracé 417" d="M706.087,860.03a5.7,5.7,0,1,1-5.7,5.7,5.705,5.705,0,0,1,5.7-5.7Z" fill="#f99325" fill-rule="evenodd"/>
    <path id="Tracé_418" data-name="Tracé 418" d="M671.094,776.556a12.252,12.252,0,1,1-12.254,12.252,12.258,12.258,0,0,1,12.254-12.252Z" fill="#118793" fill-rule="evenodd"/>
    <path id="Tracé_419" data-name="Tracé 419" d="M665.349,785.744a2.519,2.519,0,0,1,1.031-3l-1.817-2.553.632-.719,2.006,2.7.7-.413-.619-1.237.765-.258.708,1.57a7.379,7.379,0,0,0-1.171,1.831,3.491,3.491,0,0,0-.309,1.833l-1.93.249Zm4.083-3.85.065-1.439.523.021.2,1.71.665-.292.454-1.581.518.144-.062,1.79a10.842,10.842,0,0,1,2.24,2.271,2.961,2.961,0,0,1-2.9-.6.309.309,0,0,0-.211-.1.474.474,0,0,0-.254.065,1.7,1.7,0,0,0-.382.335,22.215,22.215,0,0,0-1.679,2.4,2.18,2.18,0,0,1-.456-2.722,6.753,6.753,0,0,1,1.189-1.8.289.289,0,0,0,.075-.135l.009,0,0-.071Zm4.888,3.185a1.038,1.038,0,0,1-.087,1.031c-2.108.136-3.218.949-3.64,1.872a2.781,2.781,0,0,0,2.113,3.705.309.309,0,1,0,.133-.6,2.159,2.159,0,0,1-1.684-2.845c.358-.782,1.333-1.4,3.118-1.513a5.368,5.368,0,0,1,3.085,4.424c.142,3.4-2.094,7.091-6.259,5.762a7.185,7.185,0,0,1-4.619-4.4,3.424,3.424,0,0,1,1.757-2.8.309.309,0,0,0-.229-.575,3.693,3.693,0,0,0-1.928,2.343,5.21,5.21,0,0,1-.417-5.134l-.008-.009,1.79-.231a2.858,2.858,0,0,0,1.08,1.238.313.313,0,0,0,.438-.1s.868-1.436,1.531-2.289a5.347,5.347,0,0,1,.387-.43,3.623,3.623,0,0,0,3.439.56Z" fill="#fdecd1" fill-rule="evenodd"/>
    <path id="Tracé_420" data-name="Tracé 420" d="M815.959,815.052A12.254,12.254,0,1,1,803.706,827.3a12.259,12.259,0,0,1,12.253-12.253Z" fill="#118793" fill-rule="evenodd"/>
    <path id="Tracé_421" data-name="Tracé 421" d="M810.216,824.241a2.516,2.516,0,0,1,1.029-3l-1.817-2.553.632-.72,2.007,2.7.7-.414-.619-1.236.765-.258.707,1.569a7.415,7.415,0,0,0-1.171,1.831,3.538,3.538,0,0,0-.309,1.834l-1.928.249Zm4.082-3.851.066-1.439.522.022.2,1.711.666-.294.455-1.58.517.145-.061,1.788a10.841,10.841,0,0,1,2.238,2.272,2.959,2.959,0,0,1-2.9-.6.31.31,0,0,0-.211-.1.478.478,0,0,0-.255.066,1.653,1.653,0,0,0-.381.335,21.771,21.771,0,0,0-1.678,2.4,2.182,2.182,0,0,1-.458-2.722,6.821,6.821,0,0,1,1.189-1.8.305.305,0,0,0,.077-.133l.007,0,0-.072Zm4.889,3.186a1.039,1.039,0,0,1-.087,1.03c-2.11.138-3.22.949-3.642,1.872a2.784,2.784,0,0,0,2.114,3.707.31.31,0,0,0,.132-.6,2.158,2.158,0,0,1-1.684-2.844c.358-.782,1.334-1.4,3.118-1.512a5.358,5.358,0,0,1,3.085,4.423c.143,3.4-2.094,7.091-6.259,5.761a7.181,7.181,0,0,1-4.618-4.4A3.428,3.428,0,0,1,813.1,828.2a.309.309,0,1,0-.229-.574,3.694,3.694,0,0,0-1.927,2.343,5.214,5.214,0,0,1-.418-5.135l-.007-.008,1.789-.231a2.854,2.854,0,0,0,1.081,1.237.31.31,0,0,0,.438-.1s.868-1.434,1.531-2.288a5,5,0,0,1,.387-.429,3.627,3.627,0,0,0,3.44.559Z" fill="#fdecd1" fill-rule="evenodd"/>
  </g>
</svg>
