<svg xmlns="http://www.w3.org/2000/svg" xmlns:xlink="http://www.w3.org/1999/xlink" width="406.041" height="443.163" viewBox="0 0 406.041 443.163">
  <defs>
    <clipPath id="clip-path">
      <path id="Tracé_96" data-name="Tracé 96" d="M1868.428,811.1a4.716,4.716,0,0,0-4.715-4.716h-92.947a4.715,4.715,0,0,0-4.715,4.716v43.256a4.715,4.715,0,0,0,4.715,4.716h92.947a4.715,4.715,0,0,0,4.715-4.716V811.1Z" fill="none" clip-rule="evenodd"/>
    </clipPath>
    <clipPath id="clip-path-2">
      <path id="Tracé_104" data-name="Tracé 104" d="M1630,931.047s-11.915-53.382-3.306-64.505,25.832,1.121,24.334,23.643-2.734,23.536-4.52,33.525c-1.451,8.126-6.381,10.7-16.508,7.337Z" fill="none" clip-rule="evenodd"/>
    </clipPath>
    <clipPath id="clip-path-3">
      <path id="Tracé_111" data-name="Tracé 111" d="M1633.078,858.343s8.441,4.3,11.529,23.391c2.207,13.647,8.772,89.419,8,118.109,0,0,6.206,4.235,12.2-2.738,0,0,.221-42.162-2.731-76.059-1.665-19.132-2.98-30.679-8.02-41.959-10.478-23.452-20.976-20.744-20.976-20.744Z" fill="none" clip-rule="evenodd"/>
    </clipPath>
    <clipPath id="clip-path-4">
      <path id="Tracé_117" data-name="Tracé 117" d="M1623.165,858.272a5.188,5.188,0,0,0-.637,2.639c-.092,2.3,1.67,6.519,4.765,12.094,6.189,11.15,11.6,16.012,12.345,26.656s11.129,74.192,4.266,91.712c-5.762,14.706-36.429,10.482-42.716,3.689s.834-18.525,4.988-44.445c4.61-28.751.639-37.583-2.228-52.571s-2.188-27.436,3.54-33.649c5.948-6.452,15.677-6.125,15.677-6.125Z" fill="none" clip-rule="evenodd"/>
    </clipPath>
    <clipPath id="clip-path-5">
      <path id="Tracé_121" data-name="Tracé 121" d="M1623.757,848.287s.015,8.966-.831,11.558c-.814,2.493,12.061,9.021,13.614,8.152,1.3-.727,1.979-6.112-2.43-8.793a41.065,41.065,0,0,1-.49-10.651l-9.863-.266Z" fill="none" clip-rule="evenodd"/>
    </clipPath>
  </defs>
  <g id="Groupe_1" data-name="Groupe 1" transform="translate(-1516.605 -689.593)">
    <path id="Tracé_84" data-name="Tracé 84" d="M1516.954,1007.1c-1.986-28.989,4.8-58.206,12.7-85.786,20.93-73.148,55.428-143.123,128.551-175.849,64.611-28.915,144.022-20.412,202.517,18.96,27.116,18.251,54.554,47.165,58.617,81.269,4.134,34.705-25.106,60.858-41.562,87.525-7.134,11.563-13.018,27.421-10.975,41.489,1.681,11.576,5.488,20.528,11.867,30.344,6.733,10.356,14.4,20.073,21.51,30.174,14.348,20.387,34.065,49.365,13.8,73.094a45.76,45.76,0,0,1-11.127,9.023c-26.521,16.162-62.2,15.043-91.938,15.337-25.795.255-51.676-.064-77.407-2.119-15.849-1.266-31.7-2.755-47.417-5.2-16.145-2.512-32.144-5.951-48.058-9.654-54.595-12.706-116.784-46.035-121.071-108.608Z" fill="#eaedf9" fill-rule="evenodd"/>
    <path id="Tracé_85" data-name="Tracé 85" d="M1868.428,811.1a4.716,4.716,0,0,0-4.715-4.716h-92.947a4.715,4.715,0,0,0-4.715,4.716v43.256a4.715,4.715,0,0,0,4.715,4.716h92.947a4.715,4.715,0,0,0,4.715-4.716V811.1Z" fill="#deeaeb" fill-rule="evenodd"/>
    <g id="Groupe_11" data-name="Groupe 11">
      <g id="Groupe_10" data-name="Groupe 10" clip-path="url(#clip-path)">
        <path id="Tracé_86" data-name="Tracé 86" d="M1824.848,806.389h-15.314v52.687h15.314V806.389Z" fill="#c6dbdc" fill-rule="evenodd"/>
        <path id="Tracé_87" data-name="Tracé 87" d="M1841.954,806.389h6.123v52.687h-6.123V806.389Z" fill="#c6dbdc" fill-rule="evenodd"/>
        <path id="Tracé_88" data-name="Tracé 88" d="M1875.06,814H1749.673v.468H1875.06V814Z" fill="#71a4a9" fill-rule="evenodd"/>
        <path id="Tracé_89" data-name="Tracé 89" d="M1875.06,838.952H1749.673v.469H1875.06v-.469Z" fill="#71a4a9" fill-rule="evenodd"/>
        <path id="Tracé_90" data-name="Tracé 90" d="M1875.06,826.325H1749.673v.468H1875.06v-.468Z" fill="#71a4a9" fill-rule="evenodd"/>
        <path id="Tracé_91" data-name="Tracé 91" d="M1875.06,852.345H1749.673v.468H1875.06v-.468Z" fill="#71a4a9" fill-rule="evenodd"/>
        <path id="Tracé_92" data-name="Tracé 92" d="M1875.06,820.164H1749.673v.468H1875.06v-.468Z" fill="#71a4a9" fill-rule="evenodd"/>
        <path id="Tracé_93" data-name="Tracé 93" d="M1875.06,846.185H1749.673v.468H1875.06v-.468Z" fill="#71a4a9" fill-rule="evenodd"/>
        <path id="Tracé_94" data-name="Tracé 94" d="M1875.06,832.485H1749.673v.468H1875.06v-.468Z" fill="#71a4a9" fill-rule="evenodd"/>
        <path id="Tracé_95" data-name="Tracé 95" d="M1859.3,814.568a1.41,1.41,0,0,1,2.388,1.5l-14.66,23.328a1.412,1.412,0,0,1-1.194.66h-11.959l-8.176,6.181a1.411,1.411,0,0,1-1.58.083l-10.083-6.075-16.178-5.2-13.007,4.868-10.29,6.394a1.412,1.412,0,0,1-1.49-2.4l10.41-6.467a1.418,1.418,0,0,1,.25-.123l13.6-5.089a1.414,1.414,0,0,1,.926-.022l16.8,5.395a1.515,1.515,0,0,1,.3.135l9.406,5.669,7.791-5.892a1.414,1.414,0,0,1,.851-.286h11.652l14.247-22.666Z" fill="#f99325" fill-rule="evenodd"/>
      </g>
    </g>
    <path id="Tracé_97" data-name="Tracé 97" d="M1666.617,1119.964a18.182,18.182,0,0,0-18.182-18.181h-39.97a18.181,18.181,0,0,0-18.181,18.181h76.333Z" fill="#313839" fill-rule="evenodd"/>
    <path id="Tracé_98" data-name="Tracé 98" d="M1631.819,1019.43h-6.706v84.852h6.706V1019.43Z" fill="#313839" fill-rule="evenodd"/>
    <path id="Tracé_99" data-name="Tracé 99" d="M1570.9,938.462c-1.276,4.256-4.51,14.124,4.853,39.425s41.327,53.967,75,49.337,40.1-24.678,40.1-24.678,6.475-14.31-46.938-43.149c-51.366-27.733-68.923-34.573-73.011-20.935Z" fill="#bdd3d8" fill-rule="evenodd"/>
    <path id="Tracé_100" data-name="Tracé 100" d="M1570.9,938.462c-1.276,4.256-4.51,14.124,4.853,39.425s41.327,53.967,75,49.337,40.1-24.678,40.1-24.678-36.369,17.115-73.34,3.991c-42.9-15.226-46.028-60.184-46.609-68.075Z" fill="#373f41" fill-rule="evenodd"/>
    <path id="Tracé_101" data-name="Tracé 101" d="M1641.022,862.262c6.819-.854,31.055,51.71,30.373,60.471.533,6.645-3.49,7.048-6.241,5.42,0,0-24.469-37.5-26.363-49.153,0,0-3.643-15.815,2.231-16.738Z" fill="#cddde8" fill-rule="evenodd"/>
    <path id="Tracé_102" data-name="Tracé 102" d="M1630,931.047s-11.915-53.382-3.306-64.505,25.832,1.121,24.334,23.643-2.734,23.536-4.52,33.525c-1.451,8.126-6.381,10.7-16.508,7.337Z" fill="#74abe1" fill-rule="evenodd"/>
    <g id="Groupe_13" data-name="Groupe 13">
      <g id="Groupe_12" data-name="Groupe 12" clip-path="url(#clip-path-2)">
        <path id="Tracé_103" data-name="Tracé 103" d="M1645.442,895.568a26.772,26.772,0,0,1-1.4,3.7,93.338,93.338,0,0,0-3.374,11.794c-.854,4.072-2.077,8.951-.278,12.954.968,2.156,2.563,2.363,4.543,3.071.526.188.8.566.486,1.094-.844,1.41-2.75,2.526-4.139,3.279-5.081,2.758-12.289,3.555-15.382-2.345-3.106-5.924-1.053-13.391,1.124-19.256a66.789,66.789,0,0,1,6.675-13.1c2.193-3.379,4.669-6.259,5.707-10.01" fill="#386c81" fill-rule="evenodd"/>
      </g>
    </g>
    <path id="Tracé_105" data-name="Tracé 105" d="M1608.406,868.054s7.122-6.167,15.362-8.721c3.951-1.225,7.357-2.506,11.867-.209,13.921,7.088,19.359,20.343,20.005,36.86,1.689,43.231,8.31,50.3,4.636,79.7,2.455,6.811-50.51,14.016-51.667-2.145,0,0,4.239-35.2,1.519-51.915-6.342-20.571-8.844-41.333-1.722-53.567Z" fill="#118793" fill-rule="evenodd"/>
    <path id="Tracé_106" data-name="Tracé 106" d="M1672.936,1098.539s-1.847,5.446,3.6,9.794,19.3,5.05,24.3,11.631h-38.022s-2-3.975-1.554-12.2c.359-6.657,1.479-9.948,1.717-10.044l9.956.822Z" fill="#373f41" fill-rule="evenodd"/>
    <path id="Tracé_107" data-name="Tracé 107" d="M1721.574,1097.019s.59,7.038,7.509,9.04,19.115,1.243,22.516,5.5l-36.433,6.946s-4.97-11.809-3.619-19.928l10.027-1.557Z" fill="#373f41" fill-rule="evenodd"/>
    <path id="Tracé_108" data-name="Tracé 108" d="M1631.918,968.953s79.991,12.122,85.3,19.725-24.676,20.076-24.676,20.076-24.626,3.28-43.51,3.254-41.23.866-43.8-21.24,26.687-21.815,26.687-21.815Z" fill="#2e3537" fill-rule="evenodd"/>
    <path id="Tracé_109" data-name="Tracé 109" d="M1633.078,858.343s8.441,4.3,11.529,23.391c2.207,13.647,8.772,89.419,8,118.109,0,0,6.206,4.235,12.2-2.738,0,0,.221-42.162-2.731-76.059-1.665-19.132-2.98-30.679-8.02-41.959-10.478-23.452-20.976-20.744-20.976-20.744Z" fill="#dbe8ee" fill-rule="evenodd"/>
    <g id="Groupe_15" data-name="Groupe 15">
      <g id="Groupe_14" data-name="Groupe 14" clip-path="url(#clip-path-3)">
        <path id="Tracé_110" data-name="Tracé 110" d="M1634.064,857.818s7.764.717,10.635,7.53a93.313,93.313,0,0,1,4.511,14.45l-2.879,2.518,2.618,1.065s2.1,14.045-3.224,25.376l-11.661-50.939Z" fill="#f5f9fc" fill-rule="evenodd"/>
      </g>
    </g>
    <path id="Tracé_112" data-name="Tracé 112" d="M1662.051,1099.691s18.563-85.336,26.6-101.537,27.291-3.713,27.291-3.713a299.385,299.385,0,0,1-14.073,41.869c-9.7,23.277-29.135,64.388-29.135,64.388s-7.4,3.733-10.684-1.007Z" fill="#2e3537" fill-rule="evenodd"/>
    <path id="Tracé_113" data-name="Tracé 113" d="M1630.275,966.6s80.41,7.358,86.083,14.691-23.66,21.266-23.66,21.266-24.354,5.3-43.217,6.2-41.1,4.176-44.757-17.778,25.551-24.383,25.551-24.383Z" fill="#373f41" fill-rule="evenodd"/>
    <path id="Tracé_114" data-name="Tracé 114" d="M1711.153,1099.142s-19.2-83.617-18.55-101.692,24.483-15.189,24.483-15.189a299.409,299.409,0,0,1,4.427,43.95c.752,25.2.413,72.1.413,72.1s-5.447,4.764-10.773.83Z" fill="#373f41" fill-rule="evenodd"/>
    <path id="Tracé_115" data-name="Tracé 115" d="M1623.165,858.272a5.188,5.188,0,0,0-.637,2.639c-.092,2.3,1.67,6.519,4.765,12.094,6.189,11.15,11.6,16.012,12.345,26.656s11.129,74.192,4.266,91.712c-5.762,14.706-36.429,10.482-42.716,3.689s.834-18.525,4.988-44.445c4.61-28.751.639-37.583-2.228-52.571s-2.188-27.436,3.54-33.649c5.948-6.452,15.677-6.125,15.677-6.125Z" fill="#dbe8ee" fill-rule="evenodd"/>
    <g id="Groupe_17" data-name="Groupe 17">
      <g id="Groupe_16" data-name="Groupe 16" clip-path="url(#clip-path-4)">
        <path id="Tracé_116" data-name="Tracé 116" d="M1624.418,857.957s-8.17-.149-8.413,7.25a16.58,16.58,0,0,0,3.847,11.592l7.141,1.446-3.593,1.631s11.732,16.958,17.791,25.524c4.9-13.28-6.289-33.9-16.773-47.443Z" fill="#f5f9fc" fill-rule="evenodd"/>
      </g>
    </g>
    <path id="Tracé_118" data-name="Tracé 118" d="M1614.448,960.712c1.805,1.394,6.552,2.161,14.771,3.221,0,0-.614,13.2-6,14.468-4.863,1.15-5.506.2-7.733-.928a3.684,3.684,0,0,0,2.009,1.515c13.394,3.85,13.212-16.594,13.212-16.594a40.772,40.772,0,0,1-16.226-1.853s-.011.059-.029.171Z" fill="#b3cedb" fill-rule="evenodd"/>
    <path id="Tracé_119" data-name="Tracé 119" d="M1623.757,848.287s.015,8.966-.831,11.558c-.814,2.493,12.061,9.021,13.614,8.152,1.3-.727,1.979-6.112-2.43-8.793a41.065,41.065,0,0,1-.49-10.651l-9.863-.266Z" fill="#fec6ad" fill-rule="evenodd"/>
    <g id="Groupe_19" data-name="Groupe 19">
      <g id="Groupe_18" data-name="Groupe 18" clip-path="url(#clip-path-5)">
        <path id="Tracé_120" data-name="Tracé 120" d="M1623.18,849.634c.07.037.131.228.169.294.156.269.329.529.5.788a22.84,22.84,0,0,0,1.969,2.529,14.518,14.518,0,0,0,7.673,4.4c.6.15,1.2.278,1.8.4a2.71,2.71,0,0,0,.965.121c.274-.047.263-.39.261-.613,0-.63-.083-1.261-.13-1.889-.139-1.866-.189-3.744-.207-5.619-.006-.544.012-1.092-.038-1.632a1.092,1.092,0,0,0-.155-.617c-.244-.261-.849-.267-1.166-.309-.977-.126-1.953-.225-2.927-.388-2-.335-3.993-.7-5.981-1.094a23.667,23.667,0,0,0-5.031-.685" fill="#fd905f" fill-rule="evenodd"/>
      </g>
    </g>
    <path id="Tracé_122" data-name="Tracé 122" d="M1644.289,832.209s3.406-1.7,1.6-7.269-.726-4.842-2.958-5.982-6.133-1.388-10.8-2.127c-3.6-.571-6.169,2.479-7.914,3.031s-3.875-.058-5.549,4.126-3.642,10.979,1.183,20.183a22.664,22.664,0,0,0,5.139,6.522c3.756,3.116,7.252,2.47,10.411,1.331,4.523-1.629,9.13-19.217,8.89-19.815Z" fill="#16110d" fill-rule="evenodd"/>
    <path id="Tracé_123" data-name="Tracé 123" d="M1644.219,828.407s1.814,13.316.785,19.88-4.236,8.315-10.681,6.689-9.951-4.379-10.491-6.972c-.1-.482-.253-2.792-.452-5.68-.377-5.492-2.186-12.792-.593-15.16,2.345-3.487,18.3-10.288,21.432,1.243Z" fill="#fec6ad" fill-rule="evenodd"/>
    <path id="Tracé_124" data-name="Tracé 124" d="M1624.072,828.254s3.154,6.195-.243,11.1c0,0-4.331-2.617-4.113-6.988s-1.936-8,7.154-10.087,18.884-5,18.089,7.747c0,0-2.184.555-5.514-2.092s-11.939-2.5-15.373.316Z" fill="#16110d" fill-rule="evenodd"/>
    <path id="Tracé_125" data-name="Tracé 125" d="M1623.829,839.358s-2.042-4.053-3.627-2.809,2.072,6.356,3.517,7.089.11-4.28.11-4.28Z" fill="#fec6ad" fill-rule="evenodd"/>
    <path id="Tracé_126" data-name="Tracé 126" d="M1656.944,905.146l35.644-2.439-21.524,51.111-35.644,2.438,21.524-51.11Z" fill="#373f41" fill-rule="evenodd"/>
    <path id="Tracé_127" data-name="Tracé 127" d="M1639.174,930.521s12.881-4.2,17.093-2.324c0,0,3.134,1.544,1.492,2.8,0,0,1.363,2.05.033,2.913,0,0,.555,2.308-1.156,3.093s.388,2.583-2.026,2.8c0,0-15.649-3.543-17.244-5.793l1.808-3.487Z" fill="#fec6ad" fill-rule="evenodd"/>
    <path id="Tracé_128" data-name="Tracé 128" d="M1595.407,909.646s34.157,19.762,45.763,17.95c1.9,4.416.575,6.154-1.408,9.534,0,0-44.9-7.608-54.963-13.588,0,0,7.783-8.547,10.608-13.9Z" fill="#dbe8ee" fill-rule="evenodd"/>
    <path id="Tracé_129" data-name="Tracé 129" d="M1584.8,923.525c-5.783-6.889,7.4-45.834,22.679-58.845,3.365-2.908,18.06-1.424,8.052,25.014-11.825,19.227-10.525,21.054-14.4,30.43-3.148,3.429-11.737,6.068-16.329,3.4Z" fill="#dbe8ee" fill-rule="evenodd"/>
    <path id="Tracé_130" data-name="Tracé 130" d="M1633.969,858.543s4.329.823,8.162,5.664c4.013,5.072,8.52,14.926,10.611,34.023l1.287-.14c-4.173-40.524-20.252-40.775-20.252-40.775l.192,1.228Z" fill-rule="evenodd"/>
    <path id="Tracé_131" data-name="Tracé 131" d="M1653.195,896.014a3.277,3.277,0,1,1-3.276,3.276,3.278,3.278,0,0,1,3.276-3.276Z" fill="#0b1e64" fill-rule="evenodd"/>
    <path id="Tracé_132" data-name="Tracé 132" d="M1653.195,896.816a1.865,1.865,0,1,1-1.864,1.864,1.866,1.866,0,0,1,1.864-1.864Z" fill="#535170" fill-rule="evenodd"/>
    <path id="Tracé_133" data-name="Tracé 133" d="M1653.195,897.068a1.612,1.612,0,1,1-1.612,1.612,1.613,1.613,0,0,1,1.612-1.612Z" fill="#0b1e64" fill-rule="evenodd"/>
    <path id="Tracé_134" data-name="Tracé 134" d="M1623.237,858.281s-2.415.534-3.488,4.182c-.953,3.243-1.131,9.324,2.126,20.665l1.243-.357c-3.143-10.948-3.046-16.813-2.126-19.944.8-2.73,2.074-3.293,2.074-3.293l.171-1.253Z" fill-rule="evenodd"/>
    <path id="Tracé_135" data-name="Tracé 135" d="M1619.408,896.444s2.128,9.309,6.886,15.556c3.247,4.261,7.7,7.1,13.5,4.821a.388.388,0,1,0-.284-.723c-5.418,2.13-9.563-.585-12.6-4.569-4.667-6.126-6.747-15.257-6.747-15.257a.389.389,0,1,0-.758.172Z" fill="#afafaf" fill-rule="evenodd"/>
    <path id="Tracé_136" data-name="Tracé 136" d="M1631.98,894.079s2.858,9.067,2.1,16.541c-.491,4.836-2.505,9.014-7.971,9.413a.388.388,0,1,0,.056.774c5.907-.43,8.156-4.883,8.687-10.107.773-7.616-2.129-16.853-2.129-16.853a.389.389,0,0,0-.742.232Z" fill="#afafaf" fill-rule="evenodd"/>
    <path id="Tracé_137" data-name="Tracé 137" d="M1626.136,919.794a.626.626,0,1,1-.626.626.626.626,0,0,1,.626-.626Z" fill="#3c3a51" fill-rule="evenodd"/>
    <path id="Tracé_138" data-name="Tracé 138" d="M1639.653,915.819a.626.626,0,1,1-.627.626.625.625,0,0,1,.627-.626Z" fill="#3c3a51" fill-rule="evenodd"/>
    <path id="Tracé_139" data-name="Tracé 139" d="M1632.988,894.229a24.825,24.825,0,0,0-3.285-8.458c-1.712-2.472-4.173-4.174-7.549-3.136-3.22.991-4.341,3.493-4.5,6.159a20.1,20.1,0,0,0,1.539,7.821l1.187-.515a18.485,18.485,0,0,1-1.433-7.229c.127-2.151.99-4.2,3.586-5,2.746-.844,4.712.626,6.106,2.636a23.227,23.227,0,0,1,3.073,7.944l1.275-.224Z" fill-rule="evenodd"/>
    <path id="Tracé_140" data-name="Tracé 140" d="M1681.621,929.508c-.07-.119-.256.1-.39.14a6.69,6.69,0,0,1-.831.186c-1.383.214-2.711-.109-3.623,1.224-.443.645-.741,1.375-1.171,2.026-.69,1.041-1.472,1.988-2.1,3.074a5.081,5.081,0,0,0-.894,2.4,3.221,3.221,0,0,0,1.316,1.638,3.5,3.5,0,0,0,2.9-.046,12.349,12.349,0,0,0,2.388-2.184c.944-.958,2.769-6.432,2.406-8.462Z" fill="#fec6ad" fill-rule="evenodd"/>
    <path id="Tracé_141" data-name="Tracé 141" d="M1825.99,869.267a3.8,3.8,0,0,0-3.773-4.261h-88.494a5.444,5.444,0,0,0-5.4,4.784c-1.649,13.527-6.868,51.906-8.45,64.885a3.881,3.881,0,0,0,3.853,4.35h90a4.257,4.257,0,0,0,4.227-3.743c1.523-12.5,6.431-52.779,8.044-66.015Z" fill="#373f41" fill-rule="evenodd"/>
    <path id="Tracé_142" data-name="Tracé 142" d="M1828.872,869.267a3.8,3.8,0,0,0-3.773-4.261H1736.6a5.445,5.445,0,0,0-5.4,4.784c-1.648,13.527-6.324,51.906-7.905,64.885a3.881,3.881,0,0,0,3.853,4.35H1816.6a4.258,4.258,0,0,0,4.228-3.743c1.523-12.5,6.431-52.779,8.044-66.015Z" fill="#818286" fill-rule="evenodd"/>
    <path id="Tracé_143" data-name="Tracé 143" d="M1787.813,911.1h-21.775L1775,950.5h21.776l-8.966-39.4Z" fill="#797a7e" fill-rule="evenodd"/>
    <path id="Tracé_144" data-name="Tracé 144" d="M1781.73,919.061h-3.775l3.454,15.179h3.776l-3.454-15.179Z" fill="#373f41" fill-rule="evenodd"/>
    <path id="Tracé_145" data-name="Tracé 145" d="M1803.5,949.391h-35.743v3.265H1803.5v-3.265Z" fill="#373f41" fill-rule="evenodd"/>
    <path id="Tracé_146" data-name="Tracé 146" d="M1737.061,952.655a3.266,3.266,0,0,0-3.264-3.264h-45.413a3.264,3.264,0,0,0-3.265,3.264h51.942Z" fill="#373f41" fill-rule="evenodd"/>
    <path id="Tracé_147" data-name="Tracé 147" d="M1881.711,747.773a26.344,26.344,0,1,1-26.344,26.343,26.355,26.355,0,0,1,26.344-26.343Z" fill="#118793" fill-rule="evenodd"/>
    <path id="Tracé_148" data-name="Tracé 148" d="M1878.46,763.854c.056-.054.109-.109.162-.167a6.553,6.553,0,0,0,1.2-2.222,22.452,22.452,0,0,0,.995-6.26c0-.032,0-.105,0-.108a1.167,1.167,0,0,1,2.333.018s0,.042,0,.063c-.046,4.093.9,6.564,1.866,8.019a4.665,4.665,0,0,1,1.092-2.6s7.347,3.394,9.351,9.342a17.027,17.027,0,0,1-12.141,3.145,21.976,21.976,0,0,1,1.839-6.37,9.222,9.222,0,0,1-3.194-4.308c-.743,2.036-1.967,3.694-3.734,4.222a21.879,21.879,0,0,1,1.88,6.456,17.027,17.027,0,0,1-12.141-3.145c2-5.948,9.351-9.342,9.351-9.342a5.044,5.044,0,0,1,1.144,3.256Zm17.343,7.268a53.868,53.868,0,0,1,1.879,11.369,16.894,16.894,0,0,1-10.6,2.279c-.192-.065-.391-.129-.6-.191-2.779-.843-3.753-5.5-3.3-10.335a18.112,18.112,0,0,0,12.623-3.122Zm1.879,12.71c-.084,2.555-.7,4.306-2.206,4.159a12.942,12.942,0,0,1-5.463-1.964,18.04,18.04,0,0,0,7.669-2.2Zm-30.064-12.71a18.114,18.114,0,0,0,12.623,3.122c.454,4.838-.52,9.492-3.3,10.335-.207.062-.406.126-.6.191a16.886,16.886,0,0,1-10.6-2.279,53.8,53.8,0,0,1,1.877-11.369Zm-1.878,12.71a18.035,18.035,0,0,0,7.668,2.2,12.941,12.941,0,0,1-5.462,1.964c-1.506.147-2.123-1.6-2.206-4.159Z" fill="#fdecd1" fill-rule="evenodd"/>
    <path id="Tracé_149" data-name="Tracé 149" d="M1868.428,954.35a1.693,1.693,0,0,0-1.695-1.694H1642.019v9.7h224.714a1.7,1.7,0,0,0,1.695-1.7V954.35Z" fill="#8b8d8c" fill-rule="evenodd"/>
    <path id="Tracé_150" data-name="Tracé 150" d="M1642.019,952.656h-93.457a1.774,1.774,0,0,0-1.775,1.774v6.155a1.775,1.775,0,0,0,1.775,1.775h93.457v-9.7Z" fill="#6a6b6d" fill-rule="evenodd"/>
    <path id="Tracé_151" data-name="Tracé 151" d="M1561.84,962.36h-6.1v157.6h6.1V962.36Z" fill="#6a6b6d" fill-rule="evenodd"/>
    <path id="Tracé_152" data-name="Tracé 152" d="M1636.819,962.36h-6.106v157.6h6.106V962.36Z" fill="#6a6b6d" fill-rule="evenodd"/>
    <path id="Tracé_153" data-name="Tracé 153" d="M1784.112,962.36h-6.1v157.6h6.1V962.36Z" fill="#6a6b6d" fill-rule="evenodd"/>
    <path id="Tracé_154" data-name="Tracé 154" d="M1859.092,962.36h-6.106v157.6h6.106V962.36Z" fill="#6a6b6d" fill-rule="evenodd"/>
    <path id="Tracé_155" data-name="Tracé 155" d="M1561.84,962.36h-6.1v7.359h6.1V962.36Z" fill="#58595b" fill-rule="evenodd"/>
    <path id="Tracé_156" data-name="Tracé 156" d="M1636.819,962.36h-6.106v7.359h6.106V962.36Z" fill="#58595b" fill-rule="evenodd"/>
    <path id="Tracé_157" data-name="Tracé 157" d="M1784.112,962.36h-6.1v7.359h6.1V962.36Z" fill="#58595b" fill-rule="evenodd"/>
    <path id="Tracé_158" data-name="Tracé 158" d="M1859.092,962.36h-6.106v7.359h6.106V962.36Z" fill="#58595b" fill-rule="evenodd"/>
    <path id="Tracé_159" data-name="Tracé 159" d="M1830.454,730.424a5.262,5.262,0,0,0-5.263-5.262H1699.829a5.262,5.262,0,0,0-5.262,5.262V795.2a5.262,5.262,0,0,0,5.262,5.262h125.362a5.262,5.262,0,0,0,5.263-5.262V730.424Z" fill="#deeaeb" fill-rule="evenodd"/>
    <path id="Tracé_160" data-name="Tracé 160" d="M1717.216,747.773h-6.949v44.916h6.949V747.773Z" fill="#118793" fill-rule="evenodd"/>
    <path id="Tracé_161" data-name="Tracé 161" d="M1736.827,734.12h-6.95v58.568h6.95V734.12Z" fill="#118793" fill-rule="evenodd"/>
    <path id="Tracé_162" data-name="Tracé 162" d="M1755.313,756.59h-6.949v36.1h6.949v-36.1Z" fill="#118793" fill-rule="evenodd"/>
    <path id="Tracé_163" data-name="Tracé 163" d="M1774.869,738.942h-6.949v53.747h6.949V738.942Z" fill="#118793" fill-rule="evenodd"/>
    <path id="Tracé_164" data-name="Tracé 164" d="M1793.356,762.811h-6.95v29.877h6.95V762.811Z" fill="#118793" fill-rule="evenodd"/>
    <path id="Tracé_165" data-name="Tracé 165" d="M1812.912,747.773h-6.95v44.916h6.95V747.773Z" fill="#118793" fill-rule="evenodd"/>
    <path id="Tracé_166" data-name="Tracé 166" d="M1717.216,747.773h-6.949v11.135h6.949V747.773Z" fill="#f99325" fill-rule="evenodd"/>
    <path id="Tracé_167" data-name="Tracé 167" d="M1736.827,734.12h-6.95v14.52h6.95V734.12Z" fill="#f99325" fill-rule="evenodd"/>
    <path id="Tracé_168" data-name="Tracé 168" d="M1755.313,756.59h-6.949v8.949h6.949V756.59Z" fill="#f99325" fill-rule="evenodd"/>
    <path id="Tracé_169" data-name="Tracé 169" d="M1774.869,738.942h-6.949v13.325h6.949V738.942Z" fill="#f99325" fill-rule="evenodd"/>
    <path id="Tracé_170" data-name="Tracé 170" d="M1793.356,762.811h-6.95v7.407h6.95v-7.407Z" fill="#f99325" fill-rule="evenodd"/>
    <path id="Tracé_171" data-name="Tracé 171" d="M1812.912,747.773h-6.95v11.135h6.95V747.773Z" fill="#f99325" fill-rule="evenodd"/>
    <path id="Tracé_172" data-name="Tracé 172" d="M1691.093,689.593a31.015,31.015,0,1,1-31.016,31.015,31.029,31.029,0,0,1,31.016-31.015Z" fill="#118793" fill-rule="evenodd"/>
    <path id="Tracé_173" data-name="Tracé 173" d="M1676.555,712.851c-.647-1.739-.955-4.732,2.606-7.591l-4.6-6.463,1.6-1.821,5.079,6.827,1.782-1.048-1.567-3.128,1.938-.656,1.79,3.974a18.686,18.686,0,0,0-2.964,4.637,8.883,8.883,0,0,0-.78,4.639l-4.885.63Zm10.334-9.746.165-3.643,1.323.056.508,4.329,1.684-.743,1.15-4,1.311.367-.157,4.529a27.5,27.5,0,0,1,5.668,5.747,7.484,7.484,0,0,1-7.332-1.51.786.786,0,0,0-.533-.248,1.227,1.227,0,0,0-.645.166,4.256,4.256,0,0,0-.966.848,55.575,55.575,0,0,0-4.249,6.082c-2.4-2.037-2.09-4.691-1.155-6.891a17.176,17.176,0,0,1,3.01-4.563.777.777,0,0,0,.192-.338l.018-.008s.008-.167.008-.18Zm12.373,8.063a2.621,2.621,0,0,1-.22,2.608c-5.337.347-8.147,2.4-9.217,4.739-1.7,3.72.892,8.4,5.351,9.381a.783.783,0,1,0,.336-1.53c-3.454-.759-5.581-4.318-4.262-7.2.906-1.978,3.374-3.535,7.891-3.827,2.479,1.291,7.538,4.709,7.809,11.2.36,8.611-5.3,17.949-15.844,14.584a18.175,18.175,0,0,1-11.688-11.148c.76-5.557,4.447-7.1,4.447-7.1a.784.784,0,0,0-.583-1.455,9.347,9.347,0,0,0-4.878,5.931,13.2,13.2,0,0,1-1.058-12.995l-.017-.023,4.531-.584a7.2,7.2,0,0,0,2.734,3.13.782.782,0,0,0,1.107-.243s2.2-3.633,3.877-5.794a12.5,12.5,0,0,1,.979-1.086,9.176,9.176,0,0,0,8.7,1.415Z" fill="#fdecd1" fill-rule="evenodd"/>
  </g>
</svg>
