<svg xmlns="http://www.w3.org/2000/svg" xmlns:xlink="http://www.w3.org/1999/xlink" width="456.007" height="308.297" viewBox="0 0 456.007 308.297">
  <defs>
    <clipPath id="clip-path">
      <rect id="Rectangle_602" data-name="Rectangle 602" width="456.007" height="308.297" fill="#f5f7ff"/>
    </clipPath>
    <clipPath id="clip-path-2">
      <rect id="Rectangle_652" data-name="Rectangle 652" width="441.561" height="259.749" fill="none"/>
    </clipPath>
    <clipPath id="clip-path-3">
      <path id="Tracé_2809" data-name="Tracé 2809" d="M2786.28,450.288c-8.18,11.2-14.938,24.378-15.952,39.1a66.9,66.9,0,0,0-.065,7.522.8.8,0,0,1-1.532.351A103.859,103.859,0,0,0,2760.246,481a.8.8,0,0,0-1.458.61,153.834,153.834,0,0,1,3.415,37.225c-.368,12.033-.864,22.831,2.673,34.436.98,3.216,1.485,8.416,6.138,8.2a3.955,3.955,0,0,0,3.955-3.3.8.8,0,0,1,1.427-.29,12.652,12.652,0,0,0,2.81,2.975.757.757,0,0,1,.205.228c3.007,5.181,8.955,10.2,8.582.945-.338-8.4,1.81-15.607,4.052-23.634a99.765,99.765,0,0,0,2.464-41.9.8.8,0,0,0-1.59.11c-.057,5.971-.838,11.866-3.447,17.165-.219.446-.451.884-.692,1.316a.8.8,0,0,1-1.5-.445V514.6c.65-13.438-2.587-26.743-2.682-40.2a85.514,85.514,0,0,1,3.09-23.409.806.806,0,0,0-.782-1.032.768.768,0,0,0-.63.333" transform="translate(-2758.767 -449.955)" fill="none"/>
    </clipPath>
  </defs>
  <g id="Groupe_1621" data-name="Groupe 1621" transform="translate(-761.993 -2645.832)">
    <g id="Groupe_1086" data-name="Groupe 1086" transform="translate(761.993 2645.832)">
      <g id="Groupe_1024" data-name="Groupe 1024" clip-path="url(#clip-path)">
        <path id="Tracé_2251" data-name="Tracé 2251" d="M455.637,221.928c-.943,15.217-2.065,31.059-9.4,44.214-13.707,24.589-46.517,31.981-71.841,21.836a98.134,98.134,0,0,1-21.077-12.044c-18.393-13.3-34.45-31.154-54.932-40.7-30.929-14.415-67.841-7.379-100.4-4.229a687.079,687.079,0,0,0-112.11,20.349c-20.929,5.624-44.541,11.881-62.951.006-11.352-7.322-18.4-20.587-21.056-34.3C-2.656,193.7,1.667,162.3,8.026,139.593c10.293-36.759,32.28-69.787,61.612-92.551a164.616,164.616,0,0,1,102.3-34.66c25.012.325,33.653,21.082,48.207,38.953C237.136,72.2,255.311,81.356,279.339,88.89c29.452,9.234,54.036,18.047,84.806,6.672,17.1-6.323,33.894-17.553,51.833-14.793,18.484,2.845,32.351,20.533,37.375,39.441,4.808,18.1.994,34.733,1.477,52.876.435,16.306,1.837,32.217.807,48.842" transform="translate(0 -7.25)" fill="#f5f7ff"/>
        <path id="Tracé_2252" data-name="Tracé 2252" d="M695.329,43.807a58.865,58.865,0,0,1-1.567,5.922c-5.918,18.573-28.133,32.476-49.826,31.18a34.771,34.771,0,0,1-14.928-3.931c-6.948-3.916-11.051-10.726-17.45-15.29-12.02-8.574-30-7.947-43.006-15.36-5.371-3.061-9.872-7.759-10.658-13.4-.844-6.049,2.774-12.223,7.988-16.46s11.851-6.825,18.487-8.946c37.249-11.9,121.771-15.876,110.959,36.284" transform="translate(-326.945 0)" fill="#f5f7ff"/>
        <path id="Tracé_2253" data-name="Tracé 2253" d="M328.668,599.988c-1.406-5.812-3.115-11.872-15.619-17.343-25.884-11.323-125.121-20.241-157.037-9.715-9.907,3.268-12.943,7.574-21.863,11.011-26.294,10.132-96.22,10.485-119.36,21.1-12.908,5.92-7.086,14.079,11.4,20.408C63.024,638.063,124.007,639,178.62,640.757c40.664,1.307,83.77.884,112.675-4.6,41.09-7.794,40.608-22.81,37.372-36.17" transform="translate(-4.598 -333.08)" fill="#f5f7ff"/>
      </g>
    </g>
    <g id="Groupe_1085" data-name="Groupe 1085" transform="translate(776.439 2655.256)">
      <rect id="Rectangle_650" data-name="Rectangle 650" width="0.621" height="12.565" transform="translate(207.651 9.495)" fill="#364275"/>
      <rect id="Rectangle_651" data-name="Rectangle 651" width="0.622" height="11.792" transform="translate(332.166 9.689)" fill="#364275"/>
      <g id="Groupe_1080" data-name="Groupe 1080" transform="translate(0 -0.005)">
        <g id="Groupe_1079" data-name="Groupe 1079" transform="translate(0 0)" clip-path="url(#clip-path-2)">
          <path id="Tracé_2692" data-name="Tracé 2692" d="M1545.241,254.744H1409.227a2.5,2.5,0,0,1-2.495-2.495V131.892a2.5,2.5,0,0,1,2.495-2.5h136.014a2.5,2.5,0,0,1,2.495,2.5V252.249a2.5,2.5,0,0,1-2.495,2.495" transform="translate(-1206.97 -111.021)" fill="#fff"/>
          <path id="Tracé_2693" data-name="Tracé 2693" d="M1508.179,811.937H1454.6a2.307,2.307,0,0,1-2.308-2.3V788.953a2.307,2.307,0,0,1,2.308-2.3h53.58a2.307,2.307,0,0,1,2.308,2.3v20.684a2.307,2.307,0,0,1-2.308,2.3m-53.58-24.821a1.841,1.841,0,0,0-1.842,1.836v20.684a1.841,1.841,0,0,0,1.842,1.836h53.58a1.841,1.841,0,0,0,1.842-1.836V788.953a1.841,1.841,0,0,0-1.842-1.836Z" transform="translate(-1246.06 -674.944)" fill="#8cb7e9"/>
          <path id="Tracé_2694" data-name="Tracé 2694" d="M2148.382,685.721v.485l6.414.023.01-.485Z" transform="translate(-1843.303 -588.346)" fill="#8cb7e9"/>
          <path id="Tracé_2695" data-name="Tracé 2695" d="M2165.111,665.767l-16.513-.058-.011.485,16.524.058Z" transform="translate(-1843.479 -571.175)" fill="#8cb7e9"/>
          <path id="Tracé_2696" data-name="Tracé 2696" d="M2164.984,672.438l-16.534-.058-.01.485,16.544.058Z" transform="translate(-1843.353 -576.898)" fill="#8cb7e9"/>
          <path id="Tracé_2697" data-name="Tracé 2697" d="M2164.935,679.109l-16.552-.058v.485l16.552.058Z" transform="translate(-1843.303 -582.622)" fill="#8cb7e9"/>
          <path id="Tracé_2698" data-name="Tracé 2698" d="M2148.382,741.233v.485l2.914.01.011-.485Z" transform="translate(-1843.303 -635.974)" fill="#8cb7e9"/>
          <path id="Tracé_2699" data-name="Tracé 2699" d="M2164.935,747.962l-16.552-.058v.485l16.552.058Z" transform="translate(-1843.303 -641.698)" fill="#8cb7e9"/>
          <path id="Tracé_2700" data-name="Tracé 2700" d="M2148.382,754.576v.485l11.18.039.011-.485Z" transform="translate(-1843.303 -647.422)" fill="#8cb7e9"/>
          <path id="Tracé_2701" data-name="Tracé 2701" d="M2148.382,761.246v.485l14.679.052.011-.485Z" transform="translate(-1843.303 -653.146)" fill="#8cb7e9"/>
          <path id="Tracé_2702" data-name="Tracé 2702" d="M2148.382,838.59v.485l6.414.023.01-.485Z" transform="translate(-1843.303 -719.506)" fill="#8cb7e9"/>
          <path id="Tracé_2703" data-name="Tracé 2703" d="M2165.111,818.636l-16.513-.058-.011.485,16.524.058Z" transform="translate(-1843.479 -702.336)" fill="#8cb7e9"/>
          <path id="Tracé_2704" data-name="Tracé 2704" d="M2164.984,825.305l-16.534-.058-.01.485,16.544.058Z" transform="translate(-1843.353 -708.058)" fill="#8cb7e9"/>
          <path id="Tracé_2705" data-name="Tracé 2705" d="M2164.935,831.977l-16.552-.058v.485l16.552.058Z" transform="translate(-1843.303 -713.782)" fill="#8cb7e9"/>
          <path id="Tracé_2706" data-name="Tracé 2706" d="M2148.382,900.064v.485l11.18.039.011-.485Z" transform="translate(-1843.303 -772.251)" fill="#8cb7e9"/>
          <path id="Tracé_2707" data-name="Tracé 2707" d="M2148.382,906.735v.485l14.679.052.011-.485Z" transform="translate(-1843.303 -777.975)" fill="#8cb7e9"/>
          <path id="Tracé_2708" data-name="Tracé 2708" d="M2164.935,913.906l-16.552-.058v.485l16.552.058Z" transform="translate(-1843.303 -784.077)" fill="#8cb7e9"/>
          <path id="Tracé_2709" data-name="Tracé 2709" d="M2097.9,659.322a.89.89,0,0,0-.891.883l-.014,2.722a.877.877,0,0,0,.257.626.89.89,0,0,0,.548.257c.026,0,.052,0,.079,0l2.738.008a.889.889,0,0,0,.891-.883l.014-2.721a.884.884,0,0,0-.884-.888Zm2.716,4.7-2.738-.008c-.032,0-.064,0-.1,0a1.093,1.093,0,0,1-.673-.316,1.075,1.075,0,0,1-.316-.77l.014-2.722a1.092,1.092,0,0,1,1.094-1.083l2.738.008a1.086,1.086,0,0,1,1.086,1.09l-.014,2.722a1.092,1.092,0,0,1-1.094,1.083" transform="translate(-1799.04 -565.522)" fill="#8cb7e9"/>
          <path id="Tracé_2710" data-name="Tracé 2710" d="M2106.519,669.9a.229.229,0,0,1-.169-.1l-.9-1.316a.229.229,0,0,1,.38-.257l.7,1.021,1.1-1.818a.23.23,0,0,1,.315-.078.227.227,0,0,1,.078.313l-1.287,2.123a.231.231,0,0,1-.191.111h-.027" transform="translate(-1806.437 -572.562)" fill="#8cb7e9"/>
          <path id="Tracé_2711" data-name="Tracé 2711" d="M2097.9,736.3a.89.89,0,0,0-.891.883L2097,739.9a.877.877,0,0,0,.257.627.89.89,0,0,0,.548.257c.026,0,.052,0,.079,0l2.738.008a.889.889,0,0,0,.891-.883l.014-2.721a.883.883,0,0,0-.884-.887Zm2.716,4.7-2.738-.008c-.032,0-.064,0-.1,0a1.094,1.094,0,0,1-.674-.316,1.076,1.076,0,0,1-.316-.77l.014-2.722a1.092,1.092,0,0,1,1.094-1.083l2.738.008a1.086,1.086,0,0,1,1.086,1.09l-.014,2.722a1.092,1.092,0,0,1-1.094,1.083" transform="translate(-1799.04 -631.569)" fill="#8cb7e9"/>
          <path id="Tracé_2712" data-name="Tracé 2712" d="M2106.519,746.882a.229.229,0,0,1-.169-.1l-.9-1.316a.229.229,0,0,1,.38-.257l.7,1.021,1.1-1.818a.23.23,0,0,1,.315-.078.227.227,0,0,1,.078.313l-1.287,2.123a.231.231,0,0,1-.191.111h-.027" transform="translate(-1806.437 -638.608)" fill="#8cb7e9"/>
          <path id="Tracé_2713" data-name="Tracé 2713" d="M2097.9,813.277a.89.89,0,0,0-.891.883l-.014,2.722a.877.877,0,0,0,.257.627.89.89,0,0,0,.548.257c.026,0,.052,0,.079,0l2.738.008a.889.889,0,0,0,.891-.883l.014-2.721a.884.884,0,0,0-.884-.887Zm2.716,4.7-2.738-.008c-.032,0-.064,0-.1,0a1.092,1.092,0,0,1-.674-.316,1.075,1.075,0,0,1-.316-.77l.014-2.722a1.092,1.092,0,0,1,1.094-1.083l2.738.008a1.086,1.086,0,0,1,1.086,1.09l-.014,2.722a1.092,1.092,0,0,1-1.094,1.083" transform="translate(-1799.04 -697.614)" fill="#8cb7e9"/>
          <path id="Tracé_2714" data-name="Tracé 2714" d="M2097.9,890.255a.89.89,0,0,0-.891.883l-.014,2.722a.877.877,0,0,0,.257.627.891.891,0,0,0,.548.257c.026,0,.052,0,.079,0l2.738.008a.889.889,0,0,0,.891-.883l.014-2.722a.884.884,0,0,0-.884-.887Zm2.716,4.7-2.738-.008c-.032,0-.064,0-.1,0a1.092,1.092,0,0,1-.674-.316,1.076,1.076,0,0,1-.316-.77l.014-2.722a1.092,1.092,0,0,1,1.094-1.083l2.738.008a1.086,1.086,0,0,1,1.086,1.09l-.014,2.722a1.092,1.092,0,0,1-1.094,1.083" transform="translate(-1799.04 -763.661)" fill="#8cb7e9"/>
          <path id="Tracé_2715" data-name="Tracé 2715" d="M2106.519,900.837a.229.229,0,0,1-.169-.1l-.9-1.316a.229.229,0,0,1,.38-.257l.7,1.021,1.1-1.818a.23.23,0,0,1,.315-.078.227.227,0,0,1,.078.313l-1.287,2.123a.231.231,0,0,1-.191.111h-.027" transform="translate(-1806.437 -770.701)" fill="#8cb7e9"/>
          <path id="Tracé_2716" data-name="Tracé 2716" d="M2050.807,304.3a.2.2,0,0,0,.2.2l6.805.017a.2.2,0,1,0,0-.4l-6.805-.018a.2.2,0,0,0-.2.2" transform="translate(-1759.584 -260.917)" fill="#8cb7e9"/>
          <path id="Tracé_2717" data-name="Tracé 2717" d="M2058.6,287.927a.2.2,0,0,0-.2-.2l-7.124-.018a.2.2,0,1,0,0,.4l7.124.018a.2.2,0,0,0,.2-.2" transform="translate(-1759.818 -246.853)" fill="#8cb7e9"/>
          <path id="Tracé_2718" data-name="Tracé 2718" d="M2112.28,287.868l-3.442-.009a.2.2,0,1,0,0,.4l3.442.009a.2.2,0,1,0,0-.4" transform="translate(-1809.204 -246.981)" fill="#8cb7e9"/>
          <path id="Tracé_2719" data-name="Tracé 2719" d="M2053.971,293.378a.2.2,0,0,0-.2-.2l-2.658-.007a.2.2,0,1,0,0,.4l2.658.007a.2.2,0,0,0,.2-.2" transform="translate(-1759.677 -251.541)" fill="#8cb7e9"/>
          <path id="Tracé_2720" data-name="Tracé 2720" d="M2092.428,293.279l-6.727-.017a.2.2,0,1,0,0,.4l6.727.017a.2.2,0,1,0,0-.4" transform="translate(-1789.352 -251.617)" fill="#8cb7e9"/>
          <path id="Tracé_2721" data-name="Tracé 2721" d="M2062.661,298.667l-11.654-.03a.2.2,0,1,0,0,.4l11.654.03a.2.2,0,1,0,0-.4" transform="translate(-1759.584 -256.229)" fill="#8cb7e9"/>
          <path id="Tracé_2722" data-name="Tracé 2722" d="M1473.321,324.851a1.059,1.059,0,0,1,.01-.663.888.888,0,0,1,.419-.333,7.173,7.173,0,0,1,4.051-1.071,1.3,1.3,0,0,1,1.063.8q1.68,4.292,2.922,8.633c.06.211.113.454-.024.589a.651.651,0,0,1-.447.1c-1.648.006-4.4,3.336-5.6,1.732-.683-.916-1.4-4.58-1.584-5.563q-.4-2.114-.81-4.227" transform="translate(-1264.062 -276.921)" fill="#5369a0"/>
          <path id="Tracé_2723" data-name="Tracé 2723" d="M1654.161,218.574c-2.6,4.169,3.164,6.551,8.472,7.2l-.134-13.75a15.218,15.218,0,0,0-8.337,6.551" transform="translate(-1418.711 -181.914)" fill="#f75b37"/>
          <path id="Tracé_2724" data-name="Tracé 2724" d="M1524.017,169.408a1.48,1.48,0,0,1,.069-2.064,13.983,13.983,0,0,1,4.539-3,3.042,3.042,0,0,1,2.042-.265,3.266,3.266,0,0,1,1.25.919q6.261,6.4,12.1,13.18a12.609,12.609,0,0,1-5.339,5.326c-1.247.7-4.394,2.692-5.895,2.085-1.584-.641-1.732-3.541-2.178-4.891a31.664,31.664,0,0,0-6.586-11.294" transform="translate(-1307.269 -140.707)" fill="#8cb7e9"/>
          <path id="Tracé_2725" data-name="Tracé 2725" d="M1483.857,322.553a16.8,16.8,0,0,1-1.131-3.218,8.525,8.525,0,0,1-.063-3.524c.841-6.078,3.63-12.379,9.17-15.326a2.821,2.821,0,0,1,1.378-.423c1.165.037,1.859,1.273,2.152,2.367,1.175,4.386-.181,9.013-1.8,13.265-.666,1.753-1.388,3.49-1.985,5.267-.525,1.563-.558,4.638-1.419,5.917-2.256,3.355-5.056-2.311-6.3-4.326" transform="translate(-1271.988 -257.451)" fill="#5369a0"/>
          <path id="Tracé_2726" data-name="Tracé 2726" d="M1551.1,247.747c-.156-.158-.316-.313-.483-.459a14.988,14.988,0,0,0-6.81-3.144,19.016,19.016,0,0,0-10.487.538,12.893,12.893,0,0,0-7.527,6.9c-1.313,3.194-1.862,7.944.42,10.811,2.621,3.292,6.873,3.166,10.748,2.562,4.882-.761,9.962-2,13.536-5.314.208-.194.408-.4.6-.607Z" transform="translate(-1308.145 -209.058)" fill="#ad3e3e"/>
          <path id="Tracé_2727" data-name="Tracé 2727" d="M1539.894,293.937c-3.184,1.342-4.09,1.186-7.409.7a18.554,18.554,0,0,0-16.216,6.228c-4.823,5.572-6.42,13.455-5.01,20.6,6.372,32.3,23.774,39.31,29.536,40.343l-.664-67.973-.237.1" transform="translate(-1296.231 -252.112)" fill="#f75b37"/>
          <path id="Tracé_2728" data-name="Tracé 2728" d="M1487.983,235.6a.959.959,0,0,1-.093-1.3,11.058,11.058,0,0,1,2.248-3.111,1.927,1.927,0,0,1,2.583.073q3.214,3.144,6.115,6.571a.754.754,0,0,1,.255.621.779.779,0,0,1-.341.39c-1.437,1.048-2.577,6.109-4.376,5.212-1.026-.512-3.074-3.723-3.7-4.617l-2.691-3.843" transform="translate(-1276.424 -197.963)" fill="#ad3e3e"/>
          <path id="Tracé_2729" data-name="Tracé 2729" d="M1702.81,261.481c-2.806,2.882-1.615,5.9.736,8.354l-.088-8.988c-.223.21-.441.421-.649.634" transform="translate(-1459.605 -223.805)" fill="#5369a0"/>
          <path id="Tracé_2730" data-name="Tracé 2730" d="M1703.368,272.981c-1.257.782-.952,2.25-.633,3.607a11,11,0,0,0,1.914,4.011l-.081-8.279c-.418.205-.822.426-1.2.661" transform="translate(-1460.699 -233.649)" fill="#5369a0"/>
          <path id="Tracé_2731" data-name="Tracé 2731" d="M1652.231,297.134a18.775,18.775,0,0,1,3.223-13.339l-4.183-2.628a22.661,22.661,0,0,0,6.313,30.3q.3.225.607.442l-.031-3.2a19.172,19.172,0,0,1-5.928-11.574" transform="translate(-1414.008 -241.239)" fill="#ad3e3e"/>
          <path id="Tracé_2732" data-name="Tracé 2732" d="M1630.585,407.373a.563.563,0,0,0,.539-.781,24.269,24.269,0,0,1-2.1-7.289c-.633-6.414-1.039-14.717,3.8-19.1l-1.414-1.773c-2.726,2.684-3.885,6.977-4.246,10.469-.453,4.38-.005,12.332,2.9,18.157a.591.591,0,0,0,.531.322" transform="translate(-1395.966 -324.686)" fill="#ad3e3e"/>
          <path id="Tracé_2733" data-name="Tracé 2733" d="M1742.953,303.742a.924.924,0,0,1-.386.444,26.672,26.672,0,0,1,2.982,9.054,34.047,34.047,0,0,1-.664,12.869,89.353,89.353,0,0,1-7.74,19.973,48.436,48.436,0,0,1-7.312,10.368,21.254,21.254,0,0,1-9.464,6.112,6.731,6.731,0,0,1-1.425.177l-.652-66.785c-.158-.118-.311-.245-.505-.413-.022-.019-.038-.04-.057-.06l.662,67.829a8.6,8.6,0,0,0,2.128-.213c14.5-4.032,22.843-28.353,24.909-36.859,1.822-7.5,1.292-15.784-2.474-22.5" transform="translate(-1473.805 -253.522)" fill="#8cb7e9"/>
          <path id="Tracé_2734" data-name="Tracé 2734" d="M1720.059,476.987l.08.066c1.234,1.087,2.608,2.125,3.937,3.129l.86.651.254.193.3-.12a12.81,12.81,0,0,1,4.653-.924,12.605,12.605,0,0,0-3.727.945l-.861.368.734.58a26.926,26.926,0,0,1,5.653,5.69,18.22,18.22,0,0,1,.974,1.565,14.817,14.817,0,0,0-1.086-1.516c-2.239-2.774-5.172-4.662-8.278-6.66-1.146-.737-2.328-1.5-3.471-2.306Zm-.57-1.251.031,3.2c4.206,3.015,8.791,5.212,11.869,9.027a12.548,12.548,0,0,1,2.886,6.849,7.714,7.714,0,0,1-.535,3.334.29.29,0,0,0,.17.373.32.32,0,0,0,.12.023.311.311,0,0,0,.282-.174,8.63,8.63,0,0,0,.757-3.62,13.487,13.487,0,0,0-2.673-7.5,27.335,27.335,0,0,0-5.766-5.81,12.047,12.047,0,0,1,4.711-.958,11.6,11.6,0,0,1,4.174.771.338.338,0,0,0,.12.022.327.327,0,0,0,.306-.2.31.31,0,0,0-.161-.392,12.46,12.46,0,0,0-2-.764,12.874,12.874,0,0,0-3.534-.489,13.288,13.288,0,0,0-4.977.965c-1.647-1.253-3.295-2.459-4.773-3.761-.352-.287-.686-.587-1.012-.893" transform="translate(-1475.315 -408.179)" fill="#8cb7e9"/>
          <path id="Tracé_2735" data-name="Tracé 2735" d="M1724.26,210.841a11.524,11.524,0,0,0-4.556-.965,11.112,11.112,0,0,0-3.051.432l.127,13.01h.558l-.123-12.583a10.517,10.517,0,0,1,2.489-.3,11.007,11.007,0,0,1,4.336.92,9.382,9.382,0,0,1,1.29.676l.574-.286a9.857,9.857,0,0,0-1.644-.9" transform="translate(-1472.881 -180.072)" fill="#8cb7e9"/>
          <path id="Tracé_2736" data-name="Tracé 2736" d="M1814.1,268.148c2.208,0,4.454.2,6.565.412l1.416.14a1.929,1.929,0,0,1,1.393.789,6,6,0,0,1,1.1,3.727,1.783,1.783,0,0,1-1.323,1.587,11.706,11.706,0,0,0-6.182,4.341c-1.949,2.712-2.472,6.018-2.71,8.6-.019.21-.012.5,0,.864a13.675,13.675,0,0,1-.022,1.536c-.064.666-.207.8-.205.8a.255.255,0,0,1-.125.026c-.194,0-.96-.139-2.657-1.93a24.454,24.454,0,0,1-6.576-18.864,18.546,18.546,0,0,1,9.334-2.024m0-.556a19.094,19.094,0,0,0-9.861,2.241,24.993,24.993,0,0,0,6.7,19.585c.495.522,2.025,2.1,3.063,2.1a.8.8,0,0,0,.395-.1c.763-.42.451-2.915.517-3.636a16.572,16.572,0,0,1,2.608-8.323,11.2,11.2,0,0,1,5.887-4.132,2.336,2.336,0,0,0,1.722-2.1,6.588,6.588,0,0,0-1.2-4.073,2.5,2.5,0,0,0-1.795-1.022l-1.416-.14c-2.171-.215-4.411-.415-6.621-.415" transform="translate(-1547.917 -229.592)" fill="#8cb7e9"/>
          <path id="Tracé_2737" data-name="Tracé 2737" d="M1735.7,204.389a2.833,2.833,0,0,0-1.041-.623,2.116,2.116,0,0,0-.582-.075,4.989,4.989,0,0,0-.9.1,35.456,35.456,0,0,0-16.1,8.1l.016,1.629.017,1.783.054,5.576.009.921a13.728,13.728,0,0,0,2.637,2.674,7.518,7.518,0,0,0,3.6,1.674,4.242,4.242,0,0,0,.5.03,3.523,3.523,0,0,0,3.016-1.476c.842-1.352.338-3.122.83-4.628a7.259,7.259,0,0,1,.9-1.681q.437-.491.908-.953a1.14,1.14,0,0,1-.03-.167c-.006-.188,0-.377,0-.566-.448.421-.885.855-1.3,1.317l-.027.031-.023.034a7.679,7.679,0,0,0-.96,1.813,7.932,7.932,0,0,0-.294,2.158,4.783,4.783,0,0,1-.479,2.349,2.955,2.955,0,0,1-2.542,1.213,3.7,3.7,0,0,1-.435-.026,6.826,6.826,0,0,1-3.321-1.562,13.131,13.131,0,0,1-2.422-2.422l-.007-.738-.054-5.576-.017-1.783-.014-1.384a34.87,34.87,0,0,1,15.643-7.8,4.4,4.4,0,0,1,.793-.093,1.557,1.557,0,0,1,.429.054,2.335,2.335,0,0,1,.829.509,7.326,7.326,0,0,1,2.406,6.5,1.19,1.19,0,0,1-.824.926,20.01,20.01,0,0,0-3.1,1.364.835.835,0,0,1,.212.045,4.373,4.373,0,0,1,.83-.123.852.852,0,0,1,.292.041,19.272,19.272,0,0,1,1.948-.8,1.75,1.75,0,0,0,1.2-1.37,7.855,7.855,0,0,0-2.593-7.007" transform="translate(-1473.244 -174.765)" fill="#8cb7e9"/>
          <path id="Tracé_2738" data-name="Tracé 2738" d="M1905.374,289.724a1.148,1.148,0,1,1-1.148-1.144,1.145,1.145,0,0,1,1.148,1.144" transform="translate(-1632.834 -247.6)" fill="#8cb7e9"/>
          <path id="Tracé_2739" data-name="Tracé 2739" d="M1764.775,613.987a1.721,1.721,0,1,1-1.721-1.716,1.718,1.718,0,0,1,1.721,1.716" transform="translate(-1511.217 -525.325)" fill="#8cb7e9"/>
          <path id="Tracé_2740" data-name="Tracé 2740" d="M1929.245,296.351H1912a.186.186,0,1,1,0-.371h17.244a.186.186,0,1,1,0,.371" transform="translate(-1640.33 -253.949)" fill="#8cb7e9"/>
          <path id="Tracé_2741" data-name="Tracé 2741" d="M2048.561,279.487h-14.414a1.061,1.061,0,0,1-1.062-1.059v-5.116a1.062,1.062,0,0,1,1.062-1.059h14.414a1.062,1.062,0,0,1,1.062,1.059v5.116a1.062,1.062,0,0,1-1.062,1.059m-14.414-6.862a.69.69,0,0,0-.69.688v5.116a.69.69,0,0,0,.69.688h14.414a.689.689,0,0,0,.69-.688v-5.116a.689.689,0,0,0-.69-.688Z" transform="translate(-1744.379 -233.592)" fill="#8cb7e9"/>
          <path id="Tracé_2742" data-name="Tracé 2742" d="M2113.406,538.662l-1,0a.309.309,0,1,0,0,.617l1.021,0a.3.3,0,0,0,.3-.3.32.32,0,0,0-.318-.318" transform="translate(-1812.167 -462.167)" fill="#8cb7e9"/>
          <path id="Tracé_2743" data-name="Tracé 2743" d="M2053.323,538.508l-8.271-.021a.308.308,0,1,0,0,.617l8.27.021a.308.308,0,1,0,0-.617" transform="translate(-1754.38 -462.019)" fill="#8cb7e9"/>
          <path id="Tracé_2744" data-name="Tracé 2744" d="M2057.733,513.35a.321.321,0,0,0-.332-.309l-11.9-.029a.309.309,0,1,0,0,.617l11.9.028a.321.321,0,0,0,.334-.308" transform="translate(-1754.745 -440.162)" fill="#8cb7e9"/>
          <path id="Tracé_2745" data-name="Tracé 2745" d="M2049.66,521.822a.309.309,0,0,0-.309-.308l-4.131-.011a.309.309,0,1,0,0,.617l4.131.01a.309.309,0,0,0,.31-.308" transform="translate(-1754.525 -447.447)" fill="#8cb7e9"/>
          <path id="Tracé_2746" data-name="Tracé 2746" d="M2103.654,521.961a.309.309,0,0,0-.309-.309l-4.374-.011a.31.31,0,0,0-.306.36.321.321,0,0,0,.321.258l4.358.011a.309.309,0,0,0,.311-.309" transform="translate(-1800.642 -447.565)" fill="#8cb7e9"/>
          <path id="Tracé_2747" data-name="Tracé 2747" d="M2057.392,530.335a.309.309,0,0,0-.309-.308L2045.052,530a.308.308,0,1,0,0,.617l12.031.031a.309.309,0,0,0,.31-.308" transform="translate(-1754.38 -454.734)" fill="#8cb7e9"/>
          <path id="Tracé_2748" data-name="Tracé 2748" d="M2037.928,500.753h-18.939a1.062,1.062,0,0,1-1.062-1.059v-8.918a1.062,1.062,0,0,1,1.062-1.059h18.939a1.062,1.062,0,0,1,1.062,1.059v8.918a1.062,1.062,0,0,1-1.062,1.059m-18.939-10.665a.69.69,0,0,0-.69.688v8.918a.69.69,0,0,0,.69.688h18.939a.69.69,0,0,0,.69-.688v-8.918a.69.69,0,0,0-.69-.688Z" transform="translate(-1731.373 -420.175)" fill="#8cb7e9"/>
          <path id="Tracé_2749" data-name="Tracé 2749" d="M1734.67,559.7a.278.278,0,0,1-.043-.553.213.213,0,0,0,.115-.059c.134-.128.281-.271.439-.429a.279.279,0,1,1,.394.394c-.161.16-.311.305-.446.435a.772.772,0,0,1-.415.208.265.265,0,0,1-.044,0m-.578-.547a.279.279,0,0,1-.279-.278v-.917a.279.279,0,0,1,.558,0v.917a.279.279,0,0,1-.279.278m1.933-.673a.278.278,0,0,1-.2-.471c.2-.206.409-.428.628-.664a.279.279,0,0,1,.41.377c-.221.24-.434.464-.636.673a.279.279,0,0,1-.2.086m-1.933-1.161a.279.279,0,0,1-.279-.278v-.917a.279.279,0,0,1,.558,0v.917a.279.279,0,0,1-.279.278m3.182-.189a.278.278,0,0,1-.209-.463q.293-.33.6-.689a.279.279,0,0,1,.426.36q-.309.364-.607.7a.279.279,0,0,1-.209.094m1.192-1.4a.278.278,0,0,1-.216-.454q.283-.346.569-.714a.279.279,0,0,1,.441.342q-.29.372-.577.723a.279.279,0,0,1-.217.1m-4.373-.244a.279.279,0,0,1-.279-.278v-.917a.279.279,0,0,1,.558,0v.917a.279.279,0,0,1-.279.278m5.5-1.205a.278.278,0,0,1-.224-.444q.269-.361.536-.738a.279.279,0,0,1,.456.321q-.271.383-.544.749a.279.279,0,0,1-.224.112m-5.5-.629a.279.279,0,0,1-.279-.278v-.917a.279.279,0,0,1,.558,0v.917a.279.279,0,0,1-.279.278m6.566-.87a.278.278,0,0,1-.231-.433q.252-.374.5-.763a.279.279,0,0,1,.471.3q-.251.395-.507.775a.279.279,0,0,1-.232.123m-6.566-.964a.279.279,0,0,1-.279-.278v-.917a.279.279,0,0,1,.558,0v.917a.279.279,0,0,1-.279.278m7.552-.586a.278.278,0,0,1-.24-.421c.156-.261.31-.526.457-.788a.279.279,0,0,1,.487.272c-.149.266-.306.536-.465.8a.279.279,0,0,1-.24.136m-7.552-1.248a.279.279,0,0,1-.279-.278v-.917a.279.279,0,0,1,.558,0v.917a.279.279,0,0,1-.279.278m8.45-.354a.279.279,0,0,1-.247-.407c.141-.269.278-.543.408-.812a.279.279,0,0,1,.5.241c-.133.275-.273.554-.416.828a.28.28,0,0,1-.248.15m-8.45-1.48a.279.279,0,0,1-.279-.278v-.917a.279.279,0,0,1,.558,0v.917a.279.279,0,0,1-.279.278m9.245-.173a.278.278,0,0,1-.255-.39c.123-.28.241-.561.35-.836a.279.279,0,0,1,.519.2c-.112.281-.232.569-.358.855a.279.279,0,0,1-.256.166m-9.245-1.662a.279.279,0,0,1-.279-.278v-.917a.279.279,0,0,1,.558,0v.917a.279.279,0,0,1-.279.278m9.922-.042a.283.283,0,0,1-.093-.016.278.278,0,0,1-.171-.355c.1-.285.2-.575.284-.86a.279.279,0,0,1,.534.163c-.09.292-.188.589-.291.881a.279.279,0,0,1-.263.186m.537-1.752a.282.282,0,0,1-.07-.009.278.278,0,0,1-.2-.339c.076-.293.146-.589.206-.879a.279.279,0,0,1,.547.114c-.063.3-.134.6-.213.9a.279.279,0,0,1-.27.208m-10.459-.04a.279.279,0,0,1-.279-.278v-.917a.279.279,0,0,1,.558,0v.917a.279.279,0,0,1-.279.278m10.834-1.753a.266.266,0,0,1-.044,0,.278.278,0,0,1-.232-.318c.047-.3.086-.6.117-.893a.281.281,0,0,1,.306-.248.279.279,0,0,1,.249.305c-.032.306-.073.616-.121.922a.279.279,0,0,1-.275.235m-10.834-.081a.279.279,0,0,1-.279-.278v-.917a.279.279,0,0,1,.558,0v.917a.279.279,0,0,1-.279.278m11.023-1.739a.281.281,0,0,1-.279-.292c.011-.23.017-.463.018-.695l.279-.025h-.279c0-.059,0-.117,0-.176a.278.278,0,0,1,.272-.285.273.273,0,0,1,.286.27c0,.064,0,.127,0,.191,0,.267-.007.509-.019.747a.279.279,0,0,1-.279.265m-11.023-.1a.279.279,0,0,1-.279-.278v-.917a.279.279,0,0,1,.558,0v.917a.279.279,0,0,1-.279.278m10.955-1.734a.279.279,0,0,1-.275-.235,6.831,6.831,0,0,0-.192-.859.279.279,0,0,1,.536-.156,7.441,7.441,0,0,1,.208.93.278.278,0,0,1-.233.318.282.282,0,0,1-.043,0m-10.955-.1a.279.279,0,0,1-.279-.278v-.917a.279.279,0,0,1,.558,0v.917a.279.279,0,0,1-.279.278m10.443-1.656a.28.28,0,0,1-.256-.167,6.888,6.888,0,0,0-.4-.783.279.279,0,0,1,.479-.286,7.439,7.439,0,0,1,.438.846.279.279,0,0,1-.256.39m-10.443-.178a.279.279,0,0,1-.279-.278v-.917a.279.279,0,0,1,.558,0v.917a.279.279,0,0,1-.279.278m9.5-1.394a.279.279,0,0,1-.225-.113c-.178-.24-.364-.482-.554-.721a.279.279,0,0,1,.438-.346c.194.244.384.491.565.735a.278.278,0,0,1-.224.444m-9.5-.44a.279.279,0,0,1-.279-.278v-.917a.279.279,0,0,1,.558,0v.917a.279.279,0,0,1-.279.278m8.361-1a.279.279,0,0,1-.214-.1c-.2-.231-.4-.461-.6-.684a.279.279,0,0,1,.415-.373c.206.228.411.462.611.7a.278.278,0,0,1-.213.458m-8.361-.836a.279.279,0,0,1-.279-.278v-.917a.279.279,0,0,1,.558,0v.917a.279.279,0,0,1-.279.278m7.129-.527a.279.279,0,0,1-.2-.086c-.209-.217-.425-.434-.642-.645a.279.279,0,0,1,.39-.4c.221.215.441.436.654.658a.278.278,0,0,1-.2.471m-1.317-1.281a.279.279,0,0,1-.188-.073c-.223-.2-.453-.405-.683-.6a.278.278,0,1,1,.362-.423c.235.2.469.406.7.613a.278.278,0,0,1-.188.484m-5.812-.027a.279.279,0,0,1-.279-.278v-.917a.279.279,0,0,1,.558,0v.917a.279.279,0,0,1-.279.278m4.411-1.163a.277.277,0,0,1-.173-.06c-.236-.187-.479-.372-.723-.551a.279.279,0,1,1,.331-.448c.249.183.5.372.739.563a.278.278,0,0,1-.174.5m-4.411-.671a.279.279,0,0,1-.279-.278v-.91a.279.279,0,0,1,.558-.024c0,.018,0,.935,0,.935a.279.279,0,0,1-.279.278m2.929-.416a.278.278,0,0,1-.157-.048c-.252-.17-.508-.337-.762-.5a.278.278,0,1,1,.3-.472c.26.162.522.333.78.507a.278.278,0,0,1-.157.508m-1.56-.972a.277.277,0,0,1-.138-.037q-.143-.081-.287-.161a.44.44,0,0,0-.349-.036.278.278,0,1,1-.167-.531,1.01,1.01,0,0,1,.785.08q.149.081.295.165a.278.278,0,0,1-.139.52" transform="translate(-1487.604 -452.683)" fill="#8cb7e9"/>
          <path id="Tracé_2750" data-name="Tracé 2750" d="M1777.9,540.387a.185.185,0,0,1-.1-.34l19.911-13.076a.186.186,0,0,1,.1-.031h14.2a.186.186,0,1,1,0,.371h-14.149L1778,540.356a.186.186,0,0,1-.1.031" transform="translate(-1525.271 -452.112)" fill="#8cb7e9"/>
          <path id="Tracé_2751" data-name="Tracé 2751" d="M2101.71,681.968h-29.176a1.889,1.889,0,0,1-1.89-1.884v-43.07a1.889,1.889,0,0,1,1.89-1.884h29.176a1.889,1.889,0,0,1,1.89,1.884v43.07a1.889,1.889,0,0,1-1.89,1.884m-29.176-46.446a1.5,1.5,0,0,0-1.5,1.492v43.07a1.5,1.5,0,0,0,1.5,1.492h29.176a1.5,1.5,0,0,0,1.5-1.492v-43.07a1.5,1.5,0,0,0-1.5-1.492Z" transform="translate(-1776.604 -544.938)" fill="#8cb7e9"/>
          <path id="Tracé_2752" data-name="Tracé 2752" d="M1883.287,623.774l-31.108-9.143.132-.446,31.109,9.142Z" transform="translate(-1589.162 -526.968)" fill="#8cb7e9"/>
          <path id="Tracé_2753" data-name="Tracé 2753" d="M1848.216,609.351a1.064,1.064,0,1,1-1.063-1.06,1.062,1.062,0,0,1,1.063,1.06" transform="translate(-1583.937 -521.911)" fill="#8cb7e9"/>
          <path id="Tracé_2754" data-name="Tracé 2754" d="M1537.67,9.7H1406.1a4.85,4.85,0,1,1,0-9.7H1537.67a4.85,4.85,0,1,1,0,9.7M1406.1.614a4.231,4.231,0,1,0,0,8.462H1537.67a4.231,4.231,0,1,0,0-8.462Z" transform="translate(-1202.257 0.005)" fill="#364275"/>
          <path id="Tracé_2755" data-name="Tracé 2755" d="M2177.133,1483.1h14.522l-20.98-57.275,3.624,32.669Z" transform="translate(-1862.43 -1223.353)" fill="#fff"/>
          <path id="Tracé_2756" data-name="Tracé 2756" d="M2159.674,1435.3q1.82,10.684,4.583,21.18a99.98,99.98,0,0,0,4.375,13.453c.266.629.551,1.26.863,1.876h7.916a35.453,35.453,0,0,0-4.814-15.911,22.6,22.6,0,0,1-2.877-5.672c-.775-3.035.158-6.3-.551-9.349-.938-4.038-4.559-6.993-5.746-10.966-.729-2.438-.482-5.081-1.181-7.527-.5-1.761-6.74-11.283-8.987-9.5a1.631,1.631,0,0,0-.51,1.143c-.217,2.164,1.3,4.058,2.436,5.914,2.808,4.579,3.593,10.064,4.494,15.355" transform="translate(-1847.028 -1212.061)" fill="#fff"/>
          <path id="Tracé_2757" data-name="Tracé 2757" d="M1479.893,869.16c-.159-1.465-1.119-6.79-1.766-8.043l1.094.651a8.031,8.031,0,0,0-1.06-6.3,5.519,5.519,0,0,1,5.034,1.231,5.653,5.653,0,0,0-.817-2.917,5.885,5.885,0,0,1,5.622-.637,6.656,6.656,0,0,0-.966-3.973c2.019-.158,4.294-.2,5.939,1.729a4.088,4.088,0,0,0-.1-2.1,5.349,5.349,0,0,1,3.546,2,10.609,10.609,0,0,1,.207-1.854,9.779,9.779,0,0,1,5.84,3.306c.041-.526.629-.346.971-.035a15.467,15.467,0,0,1,4.53,6.615c.4,1.25.572,2.809-.05,3.705a2.165,2.165,0,0,1-1.783.794c-3.563.237-7.208-1.111-10.811-1.407a5.752,5.752,0,0,0-2.539.228,9.6,9.6,0,0,0-2.369,1.61,19.149,19.149,0,0,1-7.759,3.776.661.661,0,0,1-.82-.283Z" transform="translate(-1268.227 -728.263)" fill="#000543"/>
          <path id="Tracé_2758" data-name="Tracé 2758" d="M1562.675,993.266c.3.08.928.637,1.457.816a2.059,2.059,0,0,0,1.164.027,2.749,2.749,0,0,0,.38-.123,12.411,12.411,0,0,0,8.579-8.96c.059-.085.111-.17.169-.255a4.362,4.362,0,0,1-1.283-2.548c-.288-1.934.633-3.6,2.056-3.712a2.267,2.267,0,0,1,1.523.476,3.647,3.647,0,0,1,.861.952c.291-.086.352-1,.359-1.233.018-.577-.089-1.153-.089-1.731a8.117,8.117,0,0,1,.877-2.88l1.168,8.912a10.022,10.022,0,0,1-3.209,8.079,11.41,11.41,0,0,1-3.437,2.281c-.592,1.25,2.015,6.131,1.643,7.463-.362,1.3-4.151-.442-5.371,1.116-.43.549-.791-.592-1.485-.511a20.885,20.885,0,0,1-4.9-.346l-1.828-8.218a3.345,3.345,0,0,1,1.369.393" transform="translate(-1339.594 -835.77)" fill="#ff9985"/>
          <path id="Tracé_2759" data-name="Tracé 2759" d="M1497.1,909.963a3.927,3.927,0,0,1,.138.462c.239,1.573-.465,3.423.574,4.632a3.612,3.612,0,0,0,2.762.94,6.886,6.886,0,0,1,3,.389,12.264,12.264,0,0,0,1.457.816,2.1,2.1,0,0,0,1.2.018,2.63,2.63,0,0,0,.345-.114,12.411,12.411,0,0,0,8.579-8.96c.059-.085.111-.17.169-.255a4.363,4.363,0,0,1-1.283-2.548c-.288-1.934.633-3.6,2.056-3.712a2.268,2.268,0,0,1,1.524.476,3.8,3.8,0,0,1,.868.951c.284-.086.344-.995.351-1.232.018-.578-.089-1.153-.089-1.731a8.112,8.112,0,0,1,.877-2.88,13.771,13.771,0,0,0,.907-2.386,9.941,9.941,0,0,0-1.083-6.691c-1.138-1.72-3.779-1.357-5.831-1.627a7.372,7.372,0,0,1-2.177-.394,18.218,18.218,0,0,1-1.6-1.11,4.632,4.632,0,0,0-3.689-.255c-.059.018-.113.051-.172.071a24.158,24.158,0,0,0-3.275,1.528,31.028,31.028,0,0,0-5.106,2.714,7.25,7.25,0,0,0-1.529,1.6,4.966,4.966,0,0,0-.977,2.86,5.851,5.851,0,0,0-.626.576,7.876,7.876,0,0,0-2.015,4.63,8.918,8.918,0,0,0-.024,1.062,12.047,12.047,0,0,0,2.478,6.583A11.894,11.894,0,0,1,1497.1,909.963Z" transform="translate(-1280.493 -758.89)" fill="#000543"/>
          <path id="Tracé_2760" data-name="Tracé 2760" d="M1415.242,1148.838c4.368-1.26,11.58-1.152,18.555-.108,1.982.026,5.071.075,8.778.144l11.958,21.327c.178.96,5.06,10.636,5.5,11.5,9.413,18.927,3.344,23.934,15.691,44.3.866,1.428-3.091,5.505-3.734,6.519-6.564,10.364-23.438,13.121-39.32,9.157-5.808-1.383-7.457-5.9-9.288-10.629a63.47,63.47,0,0,1-3.547-14.519c-4.4-37.146-16.927-34.92-22.41-53.026-1.312-4.334,12.144-13.028,17.817-14.665" transform="translate(-1198.908 -984.91)" fill="#fff"/>
          <path id="Tracé_2761" data-name="Tracé 2761" d="M1933.374,820.156c4.1-2.923,4.962-24.391,1.958-51.138-.371-3.3-1.151-5-1.739-5.839-.484-.692-.974-1.019-1.458-.974-.9.084-2.315,1.322-3.469,3.894-.6,1.335-.3,4.206-.366,6.988-.215,8.818-.307,20.916-1.722,32.86-.073.616-.394.693-.784.494l2.368,14.08a11.522,11.522,0,0,0,5.212-.365" transform="translate(-1652.324 -653.964)" fill="#ff9985"/>
          <path id="Tracé_2762" data-name="Tracé 2762" d="M1777.4,1067.818a3.628,3.628,0,0,1-1.143.97,89.792,89.792,0,0,1-9.056,4.4c-1.421.661-5.087,2.169-13.861,6.57,4.544,1.787,7.717,6.2,9.55,11.018,4.8-2.775,9.35-5.5,12-7.124,7.164-4.393,12.785-8.794,14.478-11.348a18.78,18.78,0,0,0,2.331-5.344Z" transform="translate(-1504.362 -915.448)" fill="#ff9985"/>
          <path id="Tracé_2763" data-name="Tracé 2763" d="M1674.313,1097.426l.442,2.023c.371,1.7-.569,6.436-2.069,7.324-3.639,2.154-15.3,8.187-19.131,10.114-1.137.571-18.263-11.72-18.263-11.72,5.4-3.033,21.488-10.277,30.159-14a4.045,4.045,0,0,1,1.871-.15,8.1,8.1,0,0,1,6.992,6.413" transform="translate(-1403.074 -936.053)" fill="#fff"/>
          <path id="Tracé_2764" data-name="Tracé 2764" d="M1887.59,751.56a1.214,1.214,0,0,1,1.561-.17l4.549,2.991a.921.921,0,0,1,.271,1.375,1.214,1.214,0,0,1-1.561.17l-4.549-2.991a.921.921,0,0,1-.271-1.375" transform="translate(-1619.37 -644.512)" fill="#ff9985"/>
          <path id="Tracé_2765" data-name="Tracé 2765" d="M1920.943,730.192a4.5,4.5,0,0,0-1.717-1.69,3.128,3.128,0,0,0-1.6-.162,14.335,14.335,0,0,0-3.944.952,3.5,3.5,0,0,0-2.525,2.84,5.347,5.347,0,0,0,1.583,4.014c1.9,2,2.593,2.7,4.916,3.307,2.909.76,5-.233,4.514-3.924-.253-1.9-.193-3.792-1.227-5.338" transform="translate(-1639.753 -624.885)" fill="#ff9985"/>
          <path id="Tracé_2766" data-name="Tracé 2766" d="M1907.342,706.094l-.84-7.2a.983.983,0,0,0-1.1-.794.93.93,0,0,0-.9.98l.84,7.2a.983.983,0,0,0,1.1.794.93.93,0,0,0,.9-.981" transform="translate(-1634.051 -598.96)" fill="#ff9985"/>
          <path id="Tracé_2767" data-name="Tracé 2767" d="M1925.82,699.262l-.84-7.2a.984.984,0,0,0-1.1-.794.93.93,0,0,0-.9.981l.84,7.2a.983.983,0,0,0,1.1.794.93.93,0,0,0,.9-.981" transform="translate(-1649.905 -593.098)" fill="#ff9985"/>
          <path id="Tracé_2768" data-name="Tracé 2768" d="M1947.827,704.337l-.84-7.2a.983.983,0,0,0-1.1-.794.93.93,0,0,0-.9.981l.84,7.2a.983.983,0,0,0,1.1.794.93.93,0,0,0,.9-.981" transform="translate(-1668.787 -597.452)" fill="#ff9985"/>
          <path id="Tracé_2769" data-name="Tracé 2769" d="M1965.724,715.5l-.839-7.2a.984.984,0,0,0-1.1-.794.93.93,0,0,0-.9.981l.84,7.2a.983.983,0,0,0,1.1.794.93.93,0,0,0,.9-.981" transform="translate(-1684.143 -607.026)" fill="#ff9985"/>
          <path id="Tracé_2770" data-name="Tracé 2770" d="M1883.731,1798.513h34.4a21.65,21.65,0,0,0-3-3.1c-1.69-1.413-4.171-2.592-6.195-1.608-.755.367-1.332.995-2.1,1.335a3.267,3.267,0,0,1-3.589-.713c.756.836-11.888,2.741-19.515,4.088" transform="translate(-1616.234 -1538.764)" fill="#52587f"/>
          <path id="Tracé_2771" data-name="Tracé 2771" d="M1667.682,1814.2h17.746c-.219-.194-.437-.389-.667-.574-1.69-1.364-4.171-2.5-6.195-1.552-.755.354-1.332.96-2.1,1.289a3.353,3.353,0,0,1-3.588-.689c.332.354-1.92.907-5.194,1.526" transform="translate(-1430.865 -1554.447)" fill="#52587f"/>
          <path id="Tracé_2772" data-name="Tracé 2772" d="M1630.847,1708.775c-.109-.251-.212-.507-.323-.757a29.333,29.333,0,0,0-10.474-12.371,40.235,40.235,0,0,0-16.423-6.253,45.583,45.583,0,0,0-7.285-.543c-9.4.072-14.839.032-19.494,0v19.924Z" transform="translate(-1352.928 -1449.026)" fill="#52587f"/>
          <path id="Tracé_2773" data-name="Tracé 2773" d="M1378.3,1298.522h64.081l-9.138-78.389c-.6-5.189-5-9.435-9.774-9.435h-47.056c-4.771,0-8.179,4.246-7.574,9.435Z" transform="translate(-1174.4 -1038.773)" fill="#b37263"/>
          <path id="Tracé_2774" data-name="Tracé 2774" d="M1356.02,1298.522h59.425l-8.432-78.389c-.558-5.189-4.616-9.435-9.018-9.435h-43.419c-4.4,0-7.547,4.246-6.989,9.435Z" transform="translate(-1156.17 -1038.773)" fill="#b37263"/>
          <path id="Tracé_2775" data-name="Tracé 2775" d="M802.656,979.956a2.906,2.906,0,0,0,.411-.085,13,13,0,0,0,9.963-8.322c.072-.081.135-.164.206-.245a4.523,4.523,0,0,1-1.05-2.782c-.082-2.034,1.066-3.653,2.564-3.615a2.385,2.385,0,0,1,1.535.663,3.785,3.785,0,0,1,.79,1.081c.314-.057.48-.991.514-1.236.084-.6.038-1.2.1-1.8a8.428,8.428,0,0,1,1.24-2.885l.211,9.359a10.425,10.425,0,0,1-4.261,8.009,12.022,12.022,0,0,1-3.844,1.979,25.329,25.329,0,0,0-1.95,3.858,14.379,14.379,0,0,1-2.908,4.61,4.288,4.288,0,0,1-2.56.632c-2.868.022-6.521.342-8.379-1.819-.406-.472,1.2-2.932,1.906-4.081.748-1.21,1.543-2.078,2.293-3.286a8.988,8.988,0,0,0,.578-1.2,12.779,12.779,0,0,0,1.427,1.008,2.171,2.171,0,0,0,1.211.158" transform="translate(-682.258 -824.301)" fill="#ff9985"/>
          <path id="Tracé_2776" data-name="Tracé 2776" d="M816.582,871.545a9.911,9.911,0,0,0-4.7-3.782c-2.581.665-5.369.1-7.972.913a23.325,23.325,0,0,0-9.644,6.025c-4.16,4.434-2.878,9.128-1.358,14.385.658,2.277.814,4.554,2,6.665a20.658,20.658,0,0,0,3.385,4.3,2.211,2.211,0,0,0,1.17.147,13.051,13.051,0,0,0,10.376-8.41c.071-.082.135-.164.206-.245a4.524,4.524,0,0,1-1.051-2.782c-.143-3.571,3.258-5.043,4.89-1.87.612-.093.551-2.437.616-3.038.172-1.583,1.961-3.74,2.457-5.254a10.283,10.283,0,0,0-.373-7.05" transform="translate(-679.064 -744.537)" fill="#ed8d05"/>
          <path id="Tracé_2777" data-name="Tracé 2777" d="M1070.9,1186.906l9.763-3.908c-3.91-7.284-10.341-18.748-14.8-26.265l-6.07.637c2.784,7.182,8.637,18.718,11.545,26.157a3.939,3.939,0,0,1-.438,3.38" transform="translate(-909.301 -992.471)" fill="#ff9985"/>
          <path id="Tracé_2778" data-name="Tracé 2778" d="M679.979,1663.794a10.205,10.205,0,0,0,2.675,6.733h89.92c.036-.326.073-.642.107-.941a18.374,18.374,0,0,0-11.116-18.618l-.371,1.36.264-1.4c-22.271-9.673-55.512-6.467-68.767-4.641l-1.489.206.053.16a113.009,113.009,0,0,1-11.7,1Z" transform="translate(-583.058 -1410.778)" fill="#6d72a0"/>
          <path id="Tracé_2779" data-name="Tracé 2779" d="M660.754,1142.411s12.608-20.236,39.051-3.29a14.667,14.667,0,0,1,3.263,3.18c1.345,1.836-.048,4.147.235,6.743.338,3.1-.628,13.391-1.208,16.5-1.8,9.639-.844,17.227-.834,25.927-.043,4.6,2.1,14.791,2.4,19.6-.214,1.575-1.216,5.522-2.224,6.5-.75.731-8.147,5.626-17.547,6.468-8.941.8-9.95-5.281-26.442-4.588a3.955,3.955,0,0,1-4.083-3.576c-1.977-19.644,2.03-31.431,4.505-60.434-.177-1.4-.146-8.634,2.888-13.042" transform="translate(-560.126 -971.557)" fill="#fff"/>
          <path id="Tracé_2780" data-name="Tracé 2780" d="M912.233,1169.568c4.5,2.6,3.379.57,6.746,4.505,6.419,7.5,16.422,15.989,17.808,20.635.981,3.291-4.619,9.9-8.543,11.756a2.462,2.462,0,0,1-2.839-.553c-.9-.956-2.2-2.335-2.972-3.142-.335-.348-.671-.7-1-1.03-4.833-4.819-9.516-9.822-14.505-14.478-3.944-3.68-3.649-10.286-1.6-15.33a4.846,4.846,0,0,1,6.911-2.363" transform="translate(-775.502 -1002.925)" fill="#fff"/>
          <path id="Tracé_2781" data-name="Tracé 2781" d="M945.217,1315.265a2.8,2.8,0,0,0,1.181-.26c4.054-1.869,9.966-8.689,8.869-12.372a.495.495,0,0,0-.949.281c.875,2.933-4.378,9.37-8.336,11.2a1.935,1.935,0,0,1-2.215-.474c-.9-.958-2.2-2.338-2.973-3.143l-.222-.231c-.263-.276-.527-.549-.785-.805-1.634-1.63-3.252-3.28-4.869-4.931-3.117-3.182-6.339-6.471-9.647-9.558a.494.494,0,1,0-.677.721c3.292,3.072,6.508,6.354,9.616,9.527,1.62,1.653,3.24,3.307,4.877,4.939.254.252.512.52.769.79l.224.231c.773.806,2.068,2.181,2.964,3.135a2.993,2.993,0,0,0,2.171.954" transform="translate(-793.164 -1110.962)" fill="#f9cdaf"/>
          <path id="Tracé_2782" data-name="Tracé 2782" d="M926.8,1778.73h25.616c.12-1.537.2-3,.221-4.4l.027-1.479-23.549-2.465-2.434,1.417a39.621,39.621,0,0,1,.119,6.929" transform="translate(-795.088 -1518.982)" fill="#6d72a0"/>
          <path id="Tracé_2783" data-name="Tracé 2783" d="M451.33,1278.248H516.88l-9.5-81.524c-.619-5.31-5.118-9.656-10-9.656H449.242c-4.881,0-8.368,4.345-7.748,9.656Z" transform="translate(-378.739 -1018.5)" fill="#895147"/>
          <path id="Tracé_2784" data-name="Tracé 2784" d="M428.517,1278.248H489.31l-8.765-81.524c-.571-5.31-4.723-9.656-9.226-9.656H426.9c-4.5,0-7.72,4.345-7.149,9.656Z" transform="translate(-360.089 -1018.5)" fill="#b37263"/>
          <path id="Tracé_2785" data-name="Tracé 2785" d="M610.309,1518.213c-3.526,1.624-7.124,3.248-10.707,4.663-.85.335-2.49-.581-2.925-1.637-2.745-6.653-9.269-20.075-9.334-20.21l-.512-1.052-14.295,7.895.391.918c4.811,11.293,11.02,22.5,14.243,26.817a10.362,10.362,0,0,0,3.282,2.477c.2.1.407.194.62.283a7.257,7.257,0,0,0,7.41-.728c3.85-2.159,7.818-4.578,11.827-7.124Z" transform="translate(-491.234 -1286.974)" fill="#ff9985"/>
          <path id="Tracé_2786" data-name="Tracé 2786" d="M478.562,1348.992c4.7,7.493,9.2,14.59,9.508,18.616.329,4.285-12.263,11.9-17.518,13.158-4.048.965-2.124-2.29-19.5-27.382-2.569-3.709.238-11.146,1.73-15.63Z" transform="translate(-386.105 -1147.787)" fill="#fff"/>
          <path id="Tracé_2787" data-name="Tracé 2787" d="M1891.006,1035.756c.042.253.051.509.1.761.306,1.6.442,16-.039,19.358h-14.193c.121-2.747.87-12.031.918-12.255a21.061,21.061,0,0,0,.242-4.828c-.008-1.307-.688-3.449-.525-4.547.181-1.21,2-1.345,3.071-1.661l1.223-.366-3.046-.894c-.259-.821-.5-1.424-.6-1.671a13.722,13.722,0,0,1-2.866-7.189l-.972-10.764a12.759,12.759,0,0,1,4.236-10.7l20.411,4.609,1.284.29,1.977,15.228a12.5,12.5,0,0,1-4.365,10.218,15.512,15.512,0,0,1-6.012,3.425,1.134,1.134,0,0,0-.842.989" transform="translate(-1608.111 -858.851)" fill="#ff9985"/>
          <path id="Tracé_2788" data-name="Tracé 2788" d="M1810.186,984.842c.839,2.929-1.788,7.541,4.559,7.558,5.133.015,3.933.844,5.921,1.464a2.929,2.929,0,0,0,1.548.024,16.534,16.534,0,0,0,12.036-11.557,34.722,34.722,0,0,0,4.044-6.759c.114.209.253.369.453.31.748-.22.377-3.007.383-3.736.015-1.927,2-4.765,2.436-6.656a11.841,11.841,0,0,0-1.368-8.416c-1.5-2.153-5.33-.676-7.747-1.978-6.652-3.582-17.072-3.315-22.2,2.438-9.664,10.839-5.722,16.97-5.14,22.136,4.429,1.909,4.885,4.5,5.079,5.172h0" transform="translate(-1547.672 -817.447)" fill="#722026"/>
          <path id="Tracé_2789" data-name="Tracé 2789" d="M2012.3,1103.763a3.1,3.1,0,0,0-2.023-.581c-1.9.164-3.141,2.269-2.78,4.7a4.769,4.769,0,0,0,3.054,3.979,2.818,2.818,0,0,0,1.032.126c1.9-.164,3.141-2.269,2.78-4.7a5.213,5.213,0,0,0-2.063-3.524" transform="translate(-1722.369 -946.516)" fill="#ff9985"/>
          <path id="Tracé_2790" data-name="Tracé 2790" d="M752.391,865.9a10.114,10.114,0,0,0-2.681-1.972,6.519,6.519,0,0,1-2.317-.9c-.95-.9-.369-2.383-1.041-3.463a4.142,4.142,0,0,0-1.128-1.056c-1.491-1.09-3.09-2.483-3.106-4.151-.008-.907.473-1.783.187-2.676a6.385,6.385,0,0,0-1.138-1.668,4.445,4.445,0,0,1-.481-4.691,5.252,5.252,0,0,0,1.04-2.193,8.831,8.831,0,0,0-.609-2.158,2.785,2.785,0,0,1,1.022-2.892,11.819,11.819,0,0,0,1.491-.993c.857-.875.654-2.356,1.409-3.31,1.167-1.475,3.905-.982,5.44-2.134.9-.677,1.273-1.847,2.247-2.438a4.95,4.95,0,0,1,3.9-.015,13.559,13.559,0,0,0,3.971.979c.849-.005,1.654-.248,2.5-.26,2.033-.029,3.927,1.233,5.625,2.432a4.3,4.3,0,0,1,1.163,1.055c.542.823.356,1.848.8,2.713a8.2,8.2,0,0,0,1.261,1.507,6.158,6.158,0,0,1,1.46,4.6,8.679,8.679,0,0,1-1.773,4.3c-.6.819-1.683,1.638-2.7,1.111-.944-.487-1-1.716-1.689-2.493a2.907,2.907,0,0,0-2.487-.809,6.517,6.517,0,0,0-2.374.922,10.908,10.908,0,0,0-4.326,3.677,40.582,40.582,0,0,0-1.546,4.113c-.548,1.244-1.408,2.334-1.96,3.575a4.39,4.39,0,0,0-.017,4.022c.413.7,1.078,1.267,1.542,1.946,2.042,2.982-.424,6.035-3.68,3.328" transform="translate(-635.109 -711.102)" fill="#f99301"/>
          <path id="Tracé_2791" data-name="Tracé 2791" d="M2806.473,137.684a13.4,13.4,0,1,1,13.446-13.4,13.438,13.438,0,0,1-13.446,13.4m0-26.182a12.782,12.782,0,1,0,12.824,12.782,12.817,12.817,0,0,0-12.824-12.782" transform="translate(-2396.407 -95.136)" fill="#364275"/>
          <path id="Tracé_2792" data-name="Tracé 2792" d="M1610.155,1380.169H1694.5l-7.215-61.912c-.795-6.819-6.572-12.4-12.839-12.4h-61.815c-6.267,0-10.745,5.58-9.95,12.4Z" transform="translate(-1375.019 -1120.42)" fill="#895147"/>
          <path id="Tracé_2793" data-name="Tracé 2793" d="M1581.423,1380.169h78.064l-6.657-61.912c-.733-6.819-6.064-12.4-11.847-12.4h-57.036c-5.783,0-9.914,5.58-9.181,12.4Z" transform="translate(-1351.071 -1120.42)" fill="#b37263"/>
          <path id="Tracé_2794" data-name="Tracé 2794" d="M1576.216,1380.261h1.25l-6.622-61.384a11.493,11.493,0,0,1,2.58-8.967,7.982,7.982,0,0,1,5.982-2.705h13.905a.619.619,0,1,0,0-1.239h-13.905a9.212,9.212,0,0,0-6.907,3.116,12.723,12.723,0,0,0-2.891,9.926Z" transform="translate(-1346.643 -1120.513)" fill="#895147"/>
          <path id="Tracé_2795" data-name="Tracé 2795" d="M1642.076,1140.809a17.8,17.8,0,0,1-.807,4.631c-.552,1.266-1.568,2.309-2.21,3.541s-.779,2.916.257,3.571c.491.311,1.148.32,1.638.63,1.381.873.6,3.146.5,4.912a4.8,4.8,0,0,0,2.568,4.627c1.189.575,2.79.767,3.263,2.033.37,1-.136,2.369.508,3.186.946,1.2,3.13-.063,4.551.515,1,.408,1.359,1.6,1.954,2.5a4.869,4.869,0,0,0,5.431,1.813c1.115-.328,2.211-1.008,3.325-.963,1.438.059,2.542,1.328,4,1.154,3.029-.366,2.972-3.988,4.54-6.516,1.972-3.182,6.8-4.671,7.213-8.243a5.5,5.5,0,0,1,.4-2.474c.481-.752,1.452-1.037,2-1.743,1.031-1.323.072-3.175.321-4.7.06-.143.353-.96.435-1.061,3.474-9.124,2.394-18.044-3.434-21.793-4.828-3.106-11.761-1.914-18.172,2.4-.073-.031-.12-.079-.194-.109a7.112,7.112,0,0,0-5.562.494c-3.473,1.527-3.888,5.092-6.666,6.77-1.063.641-2.348.363-3.463.87-1.446.656-2.168,2.405-2.4,3.957" transform="translate(-1405.876 -964.977)" fill="#722026"/>
          <path id="Tracé_2796" data-name="Tracé 2796" d="M1030.37,1020.024a1.409,1.409,0,0,1-.892-1.779l5.933-17.734a1.411,1.411,0,0,1,2.677.89l-5.933,17.734a1.416,1.416,0,0,1-1.785.889" transform="translate(-883.226 -857.609)" fill="#fff"/>
          <path id="Tracé_2797" data-name="Tracé 2797" d="M1027.192,1104.142a.988.988,0,0,1,1.328.285l2.876,3.943a.913.913,0,0,1-.17,1.3.988.988,0,0,1-1.328-.284l-2.876-3.943a.913.913,0,0,1,.17-1.3" transform="translate(-881.012 -947.221)" fill="#ff9985"/>
          <path id="Tracé_2798" data-name="Tracé 2798" d="M1053.989,1102.273a4.185,4.185,0,0,0-.925-1.99,2.534,2.534,0,0,0-1.266-.592,11.483,11.483,0,0,0-3.5-.252,3.124,3.124,0,0,0-2.88,1.831,5.34,5.34,0,0,0,.153,4.028c.983,2.317,1.355,3.136,3.086,4.328,2.167,1.492,4.168,1.19,4.818-2.243.335-1.767.923-3.441.517-5.111" transform="translate(-896.682 -943.281)" fill="#ff9985"/>
          <path id="Tracé_2799" data-name="Tracé 2799" d="M1048.181,1068.988l1.366-6.668a.883.883,0,0,0-.678-1.018.83.83,0,0,0-1.014.625l-1.366,6.668a.883.883,0,0,0,.678,1.018.83.83,0,0,0,1.014-.625" transform="translate(-897.869 -910.573)" fill="#ff9985"/>
          <path id="Tracé_2800" data-name="Tracé 2800" d="M1061.11,1064.5l1.366-6.668a.884.884,0,0,0-.678-1.018.83.83,0,0,0-1.014.625l-1.366,6.668a.884.884,0,0,0,.678,1.018.83.83,0,0,0,1.014-.625" transform="translate(-908.962 -906.718)" fill="#ff9985"/>
          <path id="Tracé_2801" data-name="Tracé 2801" d="M1555.168,719.091a2.717,2.717,0,1,1-2.717-2.707,2.712,2.712,0,0,1,2.717,2.707" transform="translate(-1329.666 -614.654)" fill="#fff"/>
          <path id="Tracé_2802" data-name="Tracé 2802" d="M2794.509,496.486a.8.8,0,0,0-1.59.11c-.057,5.971-.839,11.866-3.447,17.166-.219.445-.451.884-.692,1.316a.8.8,0,0,1-1.5-.445V514.6c.65-13.438-2.587-26.742-2.682-40.2a85.513,85.513,0,0,1,3.09-23.409.8.8,0,0,0-1.413-.7c-8.18,11.2-14.937,24.378-15.951,39.1a66.9,66.9,0,0,0-.065,7.522.8.8,0,0,1-1.532.351,103.865,103.865,0,0,0-8.485-16.266.8.8,0,0,0-1.458.61,153.859,153.859,0,0,1,3.415,37.225c-.368,12.033-.864,22.832,2.673,34.436.98,3.216,1.485,8.416,6.138,8.2a3.955,3.955,0,0,0,3.956-3.3.8.8,0,0,1,1.427-.29,12.655,12.655,0,0,0,2.81,2.975.754.754,0,0,1,.205.228c3.007,5.181,8.955,10.2,8.582.946-.338-8.4,1.81-15.607,4.052-23.634a99.774,99.774,0,0,0,2.464-41.9" transform="translate(-2367.011 -386.059)" fill="#018793"/>
        </g>
      </g>
      <g id="Groupe_1082" data-name="Groupe 1082" transform="translate(391.756 63.891)">
        <g id="Groupe_1081" data-name="Groupe 1081" clip-path="url(#clip-path-3)">
          <path id="Tracé_2803" data-name="Tracé 2803" d="M2769.791,708.766c-5.608-4.828-8.863-12.519-9.165-21.655a95.237,95.237,0,0,1,1.29-16.016c.336-2.437.683-4.955.932-7.434a102.223,102.223,0,0,0-8.778-52.488l.566-.256a102.829,102.829,0,0,1,8.83,52.806c-.25,2.49-.6,5.015-.934,7.457a94.692,94.692,0,0,0-1.285,15.912c.3,8.962,3.474,16.493,8.95,21.208Z" transform="translate(-2754.738 -588.059)" fill="#35aa86"/>
          <path id="Tracé_2804" data-name="Tracé 2804" d="M2811.068,708.854c-5.271-6.07-7.6-14.581-6.912-25.3.264-4.133.913-8.3,1.54-12.327a121.165,121.165,0,0,0,1.615-13.892c.549-14.37-4.035-28.359-8.468-41.887l.591-.192c4.449,13.58,9.05,27.623,8.5,42.1a121.654,121.654,0,0,1-1.623,13.964c-.625,4.015-1.271,8.167-1.534,12.273-.674,10.548,1.6,18.91,6.761,24.853Z" transform="translate(-2793.153 -591.783)" fill="#35aa86"/>
          <path id="Tracé_2805" data-name="Tracé 2805" d="M2860.786,637.842l-.616-.081c.453-3.434-.875-6.676-2.282-10.109-1.227-2.994-2.5-6.091-2.444-9.3.05-3.125,1.347-6.1,2.6-8.971,1.284-2.942,2.611-5.983,2.538-9.118-.063-2.709-1.174-5.341-2.248-7.885a24.06,24.06,0,0,1-2.286-7.7c-.207-3.381,1.045-6.636,2.256-9.784.5-1.291,1.01-2.626,1.413-3.945,3.662-12-.871-24.194-6.7-37.745l.57-.245c5.884,13.665,10.452,25.969,6.729,38.17-.409,1.34-.927,2.685-1.427,3.986-1.187,3.086-2.415,6.277-2.216,9.525a23.609,23.609,0,0,0,2.238,7.5c1.1,2.6,2.23,5.284,2.3,8.111.076,3.271-1.279,6.376-2.589,9.379-1.229,2.818-2.5,5.733-2.549,8.733-.05,3.086,1.194,6.123,2.4,9.06,1.375,3.356,2.8,6.826,2.323,10.424" transform="translate(-2839.63 -521.166)" fill="#35aa86"/>
          <path id="Tracé_2806" data-name="Tracé 2806" d="M2911.63,526.556c-5.43-4.715-7.151-11.884-8.118-18.276-.521-3.44-.98-7.419.166-11.1a29.532,29.532,0,0,1,2.262-4.969c1.352-2.543,2.629-4.945,2.659-7.617.028-2.5-1.038-4.786-2.167-7.211a31.235,31.235,0,0,1-1.781-4.389c-1.153-3.976-.578-8.131-.022-12.15.2-1.464.412-2.978.533-4.455a38.5,38.5,0,0,0-1.669-14.775c-.307-.975-.66-1.961-1-2.914a36.534,36.534,0,0,1-1.889-6.532c-1.444-9.162,4.029-17.64,10.259-26.241l.5.362c-6.151,8.492-11.556,16.853-10.149,25.782a36.065,36.065,0,0,0,1.86,6.42c.343.959.7,1.951,1.008,2.937a39.1,39.1,0,0,1,1.7,15.011c-.122,1.494-.333,3.017-.537,4.489-.547,3.954-1.113,8.043,0,11.893a30.662,30.662,0,0,0,1.747,4.3c1.108,2.38,2.255,4.842,2.225,7.479-.032,2.822-1.4,5.4-2.731,7.9a29.114,29.114,0,0,0-2.218,4.862c-1.107,3.562-.656,7.457-.145,10.83.951,6.28,2.634,13.318,7.912,17.9Z" transform="translate(-2880.261 -412.176)" fill="#35aa86"/>
          <path id="Tracé_2807" data-name="Tracé 2807" d="M2827.912,627.518c-.046,0-.093,0-.14-.005a2.547,2.547,0,0,1-1.847-1.521,31.585,31.585,0,0,1-3.808-11.5l.616-.078a30.969,30.969,0,0,0,3.734,11.273c.3.535.723,1.155,1.353,1.2.948.077,1.414-1.14,1.492-1.975.507-5.4-1.9-10.716-4.017-15.41l.567-.254c2.152,4.764,4.591,10.163,4.069,15.722-.117,1.246-.8,2.54-2.019,2.54" transform="translate(-2813.121 -586.635)" fill="#35aa86"/>
          <path id="Tracé_2808" data-name="Tracé 2808" d="M2959,825.6c-3.995-5.4-8.14-11.717-6.752-18.295a25.549,25.549,0,0,1,3.474-7.553c1.728-2.892,3.362-5.623,3.554-8.731.157-2.538-.713-5.064-1.555-7.507-.252-.733-.5-1.464-.73-2.2a34.167,34.167,0,0,1,.622-21.85l.583.215a33.55,33.55,0,0,0-.611,21.453c.225.727.475,1.451.725,2.177.861,2.5,1.752,5.085,1.587,7.747-.2,3.257-1.951,6.182-3.641,9.01a25.1,25.1,0,0,0-3.4,7.363c-1.335,6.328,2.729,12.506,6.644,17.8Z" transform="translate(-2924.538 -715.516)" fill="#35aa86"/>
        </g>
      </g>
      <g id="Groupe_1084" data-name="Groupe 1084" transform="translate(0 -0.005)">
        <g id="Groupe_1083" data-name="Groupe 1083" transform="translate(0 0)" clip-path="url(#clip-path-2)">
          <path id="Tracé_2810" data-name="Tracé 2810" d="M2798.943,1211.538h-29.816a3.47,3.47,0,0,1-3.469-3.47v-26.3a2.8,2.8,0,0,1,2.8-2.8h31.162a2.8,2.8,0,0,1,2.8,2.8v26.3a3.469,3.469,0,0,1-3.469,3.469" transform="translate(-2372.923 -1011.555)" fill="#fff"/>
          <path id="Tracé_2811" data-name="Tracé 2811" d="M2878.891,133.158a1.343,1.343,0,1,1-1.341-1.307,1.334,1.334,0,0,1,1.341,1.307" transform="translate(-2467.772 -113.127)" fill="#364275"/>
          <path id="Tracé_2812" data-name="Tracé 2812" d="M2846.463,142.493a1.312,1.312,0,0,1-.49,1.8,1.378,1.378,0,0,1-1.847-.481,1.3,1.3,0,0,1,.5-1.8,1.37,1.37,0,0,1,1.841.483" transform="translate(-2440.094 -121.695)" fill="#364275"/>
          <path id="Tracé_2813" data-name="Tracé 2813" d="M2823.267,166.407a1.31,1.31,0,0,1,.5,1.8,1.367,1.367,0,0,1-1.841.481,1.291,1.291,0,0,1-.49-1.795,1.357,1.357,0,0,1,1.834-.483" transform="translate(-2420.621 -142.625)" fill="#364275"/>
          <path id="Tracé_2814" data-name="Tracé 2814" d="M2815.325,198.476a1.317,1.317,0,1,1-1.354,1.315,1.334,1.334,0,0,1,1.354-1.315" transform="translate(-2414.376 -170.291)" fill="#364275"/>
          <path id="Tracé_2815" data-name="Tracé 2815" d="M2824.934,230.129a1.369,1.369,0,0,1,1.844.481,1.3,1.3,0,0,1-.49,1.8,1.364,1.364,0,0,1-1.84-.487,1.293,1.293,0,0,1,.486-1.791" transform="translate(-2423.208 -197.298)" fill="#364275"/>
          <path id="Tracé_2816" data-name="Tracé 2816" d="M2849.416,252.831a1.348,1.348,0,0,1,1.827-.479,1.3,1.3,0,0,1,.5,1.8,1.358,1.358,0,0,1-1.838.475,1.291,1.291,0,0,1-.486-1.8" transform="translate(-2444.629 -216.364)" fill="#364275"/>
          <path id="Tracé_2817" data-name="Tracé 2817" d="M2882.247,260.556a1.343,1.343,0,1,1,1.342,1.315,1.324,1.324,0,0,1-1.342-1.315" transform="translate(-2472.957 -222.427)" fill="#364275"/>
          <path id="Tracé_2818" data-name="Tracé 2818" d="M2914.579,251.175a1.285,1.285,0,0,1,.486-1.8,1.355,1.355,0,0,1,1.841.481,1.3,1.3,0,0,1-.5,1.8,1.354,1.354,0,0,1-1.831-.481" transform="translate(-2500.537 -213.811)" fill="#364275"/>
          <path id="Tracé_2819" data-name="Tracé 2819" d="M2937.8,227.255a1.3,1.3,0,0,1-.5-1.795,1.374,1.374,0,0,1,1.847-.481,1.3,1.3,0,0,1,.493,1.8,1.365,1.365,0,0,1-1.841.479" transform="translate(-2520.037 -192.879)" fill="#364275"/>
          <path id="Tracé_2820" data-name="Tracé 2820" d="M2945.675,195.2a1.314,1.314,0,1,1,1.344-1.313,1.337,1.337,0,0,1-1.344,1.313" transform="translate(-2526.216 -165.228)" fill="#364275"/>
          <path id="Tracé_2821" data-name="Tracé 2821" d="M2936.179,163.558a1.362,1.362,0,0,1-1.831-.487,1.317,1.317,0,0,1,.49-1.8,1.37,1.37,0,0,1,1.84.483,1.306,1.306,0,0,1-.5,1.8" transform="translate(-2517.509 -138.222)" fill="#364275"/>
          <path id="Tracé_2822" data-name="Tracé 2822" d="M2911.679,140.826a1.368,1.368,0,0,1-1.84.479,1.292,1.292,0,0,1-.486-1.8,1.353,1.353,0,0,1,1.827-.481,1.3,1.3,0,0,1,.5,1.8" transform="translate(-2496.054 -119.132)" fill="#364275"/>
          <path id="Tracé_2823" data-name="Tracé 2823" d="M2870.339,175.2h-6.208l-3.227-5,.523-.335,3.043,4.719h5.868Z" transform="translate(-2454.644 -145.743)" fill="#364275"/>
          <path id="Tracé_2824" data-name="Tracé 2824" d="M3066.237,1197.776a3.3,3.3,0,0,1-3.306-3.3v-6.742a3.306,3.306,0,0,1,6.613,0v6.742a3.3,3.3,0,0,1-3.306,3.3m0-12.714a2.684,2.684,0,0,0-2.685,2.676v6.742a2.685,2.685,0,0,0,5.37,0v-6.742a2.684,2.684,0,0,0-2.685-2.676" transform="translate(-2627.983 -1016.246)" fill="#364275"/>
          <rect id="Rectangle_653" data-name="Rectangle 653" width="18.353" height="0.465" transform="translate(313.101 29.786)" fill="#8cb7e9"/>
          <rect id="Rectangle_654" data-name="Rectangle 654" width="18.353" height="0.464" transform="translate(313.101 30.927)" fill="#8cb7e9"/>
          <rect id="Rectangle_655" data-name="Rectangle 655" width="18.353" height="0.465" transform="translate(313.101 32.068)" fill="#8cb7e9"/>
          <rect id="Rectangle_656" data-name="Rectangle 656" width="18.353" height="0.465" transform="translate(313.101 33.21)" fill="#8cb7e9"/>
          <rect id="Rectangle_657" data-name="Rectangle 657" width="18.353" height="0.464" transform="translate(313.101 34.351)" fill="#8cb7e9"/>
          <rect id="Rectangle_658" data-name="Rectangle 658" width="18.353" height="0.464" transform="translate(313.101 35.492)" fill="#8cb7e9"/>
          <rect id="Rectangle_659" data-name="Rectangle 659" width="18.353" height="0.465" transform="translate(313.101 36.633)" fill="#8cb7e9"/>
          <rect id="Rectangle_660" data-name="Rectangle 660" width="18.353" height="0.464" transform="translate(242.847 114.812)" fill="#8cb7e9"/>
          <rect id="Rectangle_661" data-name="Rectangle 661" width="18.353" height="0.465" transform="translate(242.847 116.276)" fill="#8cb7e9"/>
          <rect id="Rectangle_662" data-name="Rectangle 662" width="18.353" height="0.465" transform="translate(242.847 117.74)" fill="#8cb7e9"/>
          <rect id="Rectangle_663" data-name="Rectangle 663" width="18.353" height="0.464" transform="translate(242.847 119.204)" fill="#8cb7e9"/>
          <rect id="Rectangle_664" data-name="Rectangle 664" width="18.353" height="0.465" transform="translate(242.847 120.668)" fill="#8cb7e9"/>
          <rect id="Rectangle_665" data-name="Rectangle 665" width="18.353" height="0.465" transform="translate(242.847 122.132)" fill="#8cb7e9"/>
          <rect id="Rectangle_666" data-name="Rectangle 666" width="18.353" height="0.464" transform="translate(242.847 123.596)" fill="#8cb7e9"/>
          <rect id="Rectangle_667" data-name="Rectangle 667" width="18.353" height="0.464" transform="translate(242.82 124.946)" fill="#8cb7e9"/>
          <rect id="Rectangle_668" data-name="Rectangle 668" width="18.353" height="0.465" transform="translate(242.82 126.41)" fill="#8cb7e9"/>
          <rect id="Rectangle_669" data-name="Rectangle 669" width="18.353" height="0.465" transform="translate(242.82 127.874)" fill="#8cb7e9"/>
          <rect id="Rectangle_670" data-name="Rectangle 670" width="18.353" height="0.465" transform="translate(242.82 129.338)" fill="#8cb7e9"/>
          <rect id="Rectangle_671" data-name="Rectangle 671" width="18.353" height="0.464" transform="translate(242.82 130.803)" fill="#8cb7e9"/>
          <rect id="Rectangle_672" data-name="Rectangle 672" width="18.353" height="0.464" transform="translate(242.82 132.267)" fill="#8cb7e9"/>
          <rect id="Rectangle_673" data-name="Rectangle 673" width="18.353" height="0.464" transform="translate(242.82 133.731)" fill="#8cb7e9"/>
          <path id="Tracé_2825" data-name="Tracé 2825" d="M2209.115,245h-18.489a2.307,2.307,0,0,1-2.308-2.3V193.082a2.307,2.307,0,0,1,2.308-2.3h18.489a2.307,2.307,0,0,1,2.309,2.3V242.7a2.307,2.307,0,0,1-2.309,2.3m-18.489-53.753a1.841,1.841,0,0,0-1.842,1.836V242.7a1.841,1.841,0,0,0,1.842,1.836h18.489a1.841,1.841,0,0,0,1.843-1.836V193.082a1.841,1.841,0,0,0-1.843-1.836Z" transform="translate(-1877.568 -163.689)" fill="#8cb7e9"/>
          <path id="Tracé_2826" data-name="Tracé 2826" d="M2241.439,293.383a4.69,4.69,0,1,1,4.706-4.69,4.7,4.7,0,0,1-4.706,4.69m0-8.916a4.226,4.226,0,1,0,4.24,4.226,4.237,4.237,0,0,0-4.24-4.226" transform="translate(-1919.109 -243.673)" fill="#8cb7e9"/>
          <path id="Tracé_2827" data-name="Tracé 2827" d="M2219.245,405.343a8.6,8.6,0,1,1,8.633-8.6,8.629,8.629,0,0,1-8.633,8.6m0-16.744a8.14,8.14,0,1,0,8.167,8.14,8.163,8.163,0,0,0-8.167-8.14" transform="translate(-1896.696 -333.017)" fill="#8cb7e9"/>
          <path id="Tracé_2828" data-name="Tracé 2828" d="M2540.706,1123.247c.167,1.534.389,3.063.5,4.6.278,4.014-.229,8.048-.009,12.065.321,5.862,2.178,11.527,2.979,17.343.333,2.416.375,5.178-1.306,6.938a.846.846,0,0,1-.71.342c-.349-.065-.493-.48-.566-.829-.374-1.782-.605-3.591-.837-5.4q-.937-7.3-1.873-14.607c-.59-4.6-1.179-9.2-1.445-13.822-.372-6.485-.106-12.988.161-19.478a30.506,30.506,0,0,1,.423-4.6c.134-.685.413-1.468,1.08-1.662,3.014-.873,1.431,6.727,1.362,7.781a65.364,65.364,0,0,0,.245,11.326" transform="translate(-2176.952 -947.288)" fill="#000543"/>
          <path id="Tracé_2829" data-name="Tracé 2829" d="M2677.418,1120.525a76.007,76.007,0,0,0-.078,9.649c.2,1.886.637,3.74.878,5.622.783,6.114-.516,12.383.555,18.454.5,2.839,1.511,5.569,2.025,8.407a13.255,13.255,0,0,1-.573,7.327.415.415,0,0,1-.8-.012,108.029,108.029,0,0,1-4.3-18.518c-1.834-11.213-3.231-22.572-2.44-33.919a14.18,14.18,0,0,1,1-4.437,3.009,3.009,0,0,1,.7-1.1c1.712-1.568,2.633.35,2.772,1.772a56.886,56.886,0,0,1,.265,6.755" transform="translate(-2292.955 -953.587)" fill="#000543"/>
          <path id="Tracé_2830" data-name="Tracé 2830" d="M2668.277,1476.518l.386,12.031-4.994.422-1.869-2.559.339-.512-.523-8.822Z" transform="translate(-2283.655 -1266.846)" fill="#ff9985"/>
          <path id="Tracé_2831" data-name="Tracé 2831" d="M2615.59,1542.948l-6.646,2.253c-1.627.551-1.935,1.686-1.288,2.529l15.4-.358-.618-3.381a1.274,1.274,0,0,0-1.254-1.043Z" transform="translate(-2237.087 -1323.842)" fill="#fff"/>
          <path id="Tracé_2832" data-name="Tracé 2832" d="M2624.965,1574.1l.17.573c.106.356-.325.689-.9.7l-11.968.128a3.3,3.3,0,0,1-2.7-1.038Z" transform="translate(-2238.995 -1350.57)" fill="#000543"/>
          <path id="Tracé_2833" data-name="Tracé 2833" d="M2688.755,1565.055h-2.429a.285.285,0,0,1-.284-.284v-.509a.285.285,0,0,1,.284-.284h2.429a.285.285,0,0,1,.284.284v.51a.285.285,0,0,1-.284.284" transform="translate(-2304.614 -1341.886)" fill="#000543"/>
          <path id="Tracé_2834" data-name="Tracé 2834" d="M2519.138,1479.188l.387,12.031-4.994.422-1.869-2.559.339-.513-.523-8.821Z" transform="translate(-2155.695 -1269.137)" fill="#ff9985"/>
          <path id="Tracé_2835" data-name="Tracé 2835" d="M2466.449,1545.618l-6.647,2.252c-1.626.551-1.934,1.686-1.287,2.529l15.4-.358-.618-3.381a1.274,1.274,0,0,0-1.254-1.043Z" transform="translate(-2109.125 -1326.133)" fill="#fff"/>
          <path id="Tracé_2836" data-name="Tracé 2836" d="M2475.826,1576.769l.17.573c.106.356-.325.689-.9.7l-11.968.128a3.3,3.3,0,0,1-2.7-1.039Z" transform="translate(-2111.034 -1352.861)" fill="#000543"/>
          <path id="Tracé_2837" data-name="Tracé 2837" d="M2539.616,1567.725h-2.428a.284.284,0,0,1-.284-.284v-.509a.284.284,0,0,1,.284-.284h2.428a.285.285,0,0,1,.284.284v.509a.285.285,0,0,1-.284.284" transform="translate(-2176.654 -1344.177)" fill="#000543"/>
          <path id="Tracé_2838" data-name="Tracé 2838" d="M2445.16,1029.706l-.1,1.991c-1.814,35.972,1.891,56.073,4.016,65.913a2.9,2.9,0,0,1-2.843,3.51h-7.644a4.031,4.031,0,0,1-3.984-3.4c-2.592-16.446-4.625-31.945-5.474-39.838-1.157-10.752-1.815-19.029-2.42-28.177Z" transform="translate(-2082.108 -883.483)" fill="#000543"/>
          <path id="Tracé_2839" data-name="Tracé 2839" d="M2574.246,1029.706h18.45l-.1,1.991c-1.761,34.912,1.751,54.745,3.861,66a2.893,2.893,0,0,1-2.855,3.419h-8.389a2.9,2.9,0,0,1-2.868-2.437c-2.8-17.5-4.854-33.142-5.678-40.8-1.146-10.665-1.8-18.86-2.42-28.177" transform="translate(-2208.693 -883.483)" fill="#000543"/>
          <path id="Tracé_2840" data-name="Tracé 2840" d="M2705.579,721.354c.347,2.3,1.132,4.524,1.447,6.83.616,4.5-.58,9.051-.5,13.593s1.438,8.957,2.155,13.445.721,9.363-1.65,13.245q-2.131-30.011-4.261-60.021c-.12-1.686-.235-4.411,1.323-5.564,1.884-1.394,1.9.275,1.874,1.842-.1,5.466-1.21,11.2-.39,16.63" transform="translate(-2318.915 -602.622)" fill="#fff"/>
          <path id="Tracé_2841" data-name="Tracé 2841" d="M2217.843,530.3l2.949,3.727-3.166,2.187-2.479-3.686Z" transform="translate(-1900.587 -454.991)" fill="#ff9985"/>
          <path id="Tracé_2842" data-name="Tracé 2842" d="M2183.676,489.487a.739.739,0,0,0,.174,1.029l3.016,2.259a.72.72,0,1,0,.866-1.149l-3.016-2.259a.745.745,0,0,0-1.041.119" transform="translate(-1873.467 -419.74)" fill="#ff9985"/>
          <path id="Tracé_2843" data-name="Tracé 2843" d="M2180.332,510.335a3.214,3.214,0,0,1-1.542-.733,1.857,1.857,0,0,1-.421-.984,8.622,8.622,0,0,1-.064-2.711,2.527,2.527,0,0,1,1.563-2.209,4.316,4.316,0,0,1,3.189.155c1.8.781,2.435,1.076,3.313,2.425,1.1,1.689.783,3.233-1.965,3.7-1.414.242-2.764.682-4.074.352" transform="translate(-1868.911 -431.967)" fill="#ff9985"/>
          <rect id="Rectangle_674" data-name="Rectangle 674" width="29.428" height="32.338" transform="translate(346.352 130.393)" fill="#a5d1f5"/>
          <path id="Tracé_2844" data-name="Tracé 2844" d="M2467.235,949.35h-29.914V916.527h29.914Zm-29.428-.484h28.942V917.011h-28.942Z" transform="translate(-2091.212 -786.376)" fill="#0959a7"/>
          <path id="Tracé_2845" data-name="Tracé 2845" d="M2474.385,428.187l.682-.137q.8-.16,1.626-.3a76.826,76.826,0,0,1,14.957-.749l-1.177,73.406-1.142-.026-21.465-.5,6.344-71.663.176-.036" transform="translate(-2117.419 -366.307)" fill="#4db4e8"/>
          <path id="Tracé_2846" data-name="Tracé 2846" d="M2389.646,440.062c2.814-9.811,17.452-11.41,17.452-11.41l4.572,40.1,12.868-41.316c.5.019,1,.037,1.5.062,1.156.059,2.3.129,3.394.218,6.917.906,13.425,9.041,10.156,20.741l-3.252,27.981a40.446,40.446,0,0,0-.183,7.33l3.059,46.37c.153,1.776-.324,2.339-2.113,2.339l-38.169.066a4.4,4.4,0,0,1-4.41-4.309l-1.273-69.789Z" transform="translate(-2050.307 -366.736)" fill="#fff"/>
          <path id="Tracé_2847" data-name="Tracé 2847" d="M2420.089,708.945a4.66,4.66,0,0,1-4.645-4.547l-1.273-71.473a.242.242,0,0,1,.239-.246.247.247,0,0,1,.247.238l1.273,71.473a4.172,4.172,0,0,0,4.16,4.071.244.244,0,0,1,.25.242.234.234,0,0,1-.251.243" transform="translate(-2071.349 -542.834)" fill="#b2c3eb"/>
          <path id="Tracé_2848" data-name="Tracé 2848" d="M2489.113,469.3a.243.243,0,0,1-.233-.175l-6.583-22.6a1.581,1.581,0,0,1,.575-1.705l1.14-.844a.3.3,0,0,0-.006-.481l-2.408-1.69a1.011,1.011,0,0,1-.276-1.365l3.733-5.67a.243.243,0,0,1,.406.266l-3.73,5.666a.525.525,0,0,0,.146.707l2.408,1.691a.779.779,0,0,1,.016,1.266l-1.139.844a1.1,1.1,0,0,0-.4,1.181l6.583,22.6a.242.242,0,0,1-.233.31" transform="translate(-2128.832 -372.941)" fill="#b2c3eb"/>
          <path id="Tracé_2849" data-name="Tracé 2849" d="M2559.813,462.236a.242.242,0,0,1-.215-.355l11-20.817a1.093,1.093,0,0,0-.153-1.236l-.946-1.055a.78.78,0,0,1,.271-1.236l2.7-1.174a.527.527,0,0,0,.284-.669l-2.638-8.009a.243.243,0,0,1,.461-.151l2.635,8a1.008,1.008,0,0,1-.548,1.273l-2.7,1.174a.3.3,0,0,0-.1.47l.946,1.055a1.579,1.579,0,0,1,.22,1.785l-11,20.817a.243.243,0,0,1-.215.129" transform="translate(-2196.101 -366.678)" fill="#b2c3eb"/>
          <path id="Tracé_2850" data-name="Tracé 2850" d="M2424.491,611.607h-7.074a.242.242,0,1,1,0-.484h7.074a.242.242,0,1,1,0,.484" transform="translate(-2073.927 -524.34)" fill="#b2c3eb"/>
          <path id="Tracé_2851" data-name="Tracé 2851" d="M2538.423,787.606a1.37,1.37,0,1,1,1.375-1.371,1.374,1.374,0,0,1-1.375,1.371m0-2.257a.886.886,0,1,0,.889.886.888.888,0,0,0-.889-.886" transform="translate(-2176.777 -673.41)" fill="#f9d1b7"/>
          <path id="Tracé_2852" data-name="Tracé 2852" d="M2538.867,843.436a1.37,1.37,0,1,1,1.375-1.37,1.374,1.374,0,0,1-1.375,1.37m0-2.256a.886.886,0,1,0,.889.886.888.888,0,0,0-.889-.886" transform="translate(-2177.159 -721.313)" fill="#f9d1b7"/>
          <path id="Tracé_2853" data-name="Tracé 2853" d="M2481.8,200.382c.207-.241.488-.406.675-.664.416-.575.217-1.345.271-2.041s.816-1.516,1.287-1.07c-.25-1.012-.453-2.233.246-3.07,1.316-1.573,4.011.112,5.473-1.312.437-.425.667-1.064,1.156-1.418a1.69,1.69,0,0,1,2.138.324,5.272,5.272,0,0,1,.876,1.318,1.263,1.263,0,0,0,.176.09,2.048,2.048,0,0,0,1.4-.053c1.135-.267,2.188.629,2.821,1.82.266.5,1.12-.216,1.427.258.7,1.076,2.146,1.578,2.433,2.871a17.864,17.864,0,0,0,.163,2.168c.257.708,1.011,1.138,1.11,1.9.156,1.212-.929,2.333-.981,3.523-.024.56-.531,1.087-.544,1.3a2.737,2.737,0,0,1-.454,1.289,29.505,29.505,0,0,1-.968,4.457,8.144,8.144,0,0,1-1.426,2.87c-.006.007-.91,1-.909.988a10.994,10.994,0,0,0-.026-2.174,6.708,6.708,0,0,0,.548-2.377c.013,0,.025,0,.038,0a2.247,2.247,0,0,0,1.878-2.532,2.27,2.27,0,0,0-2.037-2.3l-1.477.4c-4.764-.563-3.591-5.59-7.919-6.176a8.7,8.7,0,0,0-5.328.637,7.8,7.8,0,0,0-.787,3.647l-.044.015c0-.062-.566-.529-.53-1l-.053.048c-.815-.625-1.481-2.749-.631-3.737" transform="translate(-2129.036 -163.491)" fill="#000543"/>
          <path id="Tracé_2854" data-name="Tracé 2854" d="M2499.144,261.776c4.329.585,3.156,5.613,7.92,6.176l1.477-.4a2.269,2.269,0,0,1,2.037,2.3,2.247,2.247,0,0,1-1.877,2.532c-.013,0-.025,0-.038,0a6.713,6.713,0,0,1-.548,2.377,8.645,8.645,0,0,1-7.357,4.99c-4.2.236-7.127-2.836-7.371-7.151l-.357-6.316c0-.074,0-.146,0-.219a7.793,7.793,0,0,1,.787-3.647,8.7,8.7,0,0,1,5.328-.637" transform="translate(-2139.007 -224.496)" fill="#ff9985"/>
          <path id="Tracé_2855" data-name="Tracé 2855" d="M2545.707,331.39l-.587-17.083a1.384,1.384,0,0,1,1.312-1.443l5.445-.19a1.384,1.384,0,0,1,1.41,1.348l.587,17.072c-6.123,4.609-8.14,1.064-8.167.3" transform="translate(-2183.702 -268.271)" fill="#ff9985"/>
          <path id="Tracé_2856" data-name="Tracé 2856" d="M2537.8,286.8l1.732-.089a.459.459,0,1,1,.047.917l-1.732.089a.459.459,0,1,1-.047-.917" transform="translate(-2177.044 -245.996)" fill="#000543"/>
          <path id="Tracé_2857" data-name="Tracé 2857" d="M2489.683,288.571l1.732-.089a.459.459,0,1,1,.047.917l-1.732.089a.459.459,0,1,1-.047-.917" transform="translate(-2135.763 -247.515)" fill="#000543"/>
          <path id="Tracé_2858" data-name="Tracé 2858" d="M2501.2,300.819c.023.45.28.8.573.787s.512-.392.489-.842-.28-.8-.573-.787-.512.392-.489.842" transform="translate(-2146.019 -257.378)" fill="#000543"/>
          <path id="Tracé_2859" data-name="Tracé 2859" d="M2546.994,299.346c.023.45.28.8.573.787s.513-.392.49-.842-.28-.8-.573-.787-.512.392-.489.842" transform="translate(-2185.309 -256.114)" fill="#000543"/>
          <path id="Tracé_2860" data-name="Tracé 2860" d="M2516.949,322.518l.058-.157a.913.913,0,0,0,.692.73l.914.2a.7.7,0,0,0,.744-.322l.023.086a.717.717,0,0,1-.851.883l-.914-.2a.923.923,0,0,1-.667-1.221" transform="translate(-2159.483 -276.584)" fill="#fa694f"/>
          <path id="Tracé_2861" data-name="Tracé 2861" d="M2531.789,344.047l-2.62.834a1.822,1.822,0,0,0,2.62-.834" transform="translate(-2170.017 -295.19)" fill="#fff"/>
          <path id="Tracé_2862" data-name="Tracé 2862" d="M2572.15,421.588s-2.828,4.666-5.729,5.24l1.512,4.776s6.172-2.5,5.753-9.213Z" transform="translate(-2201.979 -361.72)" fill="#90ddfc"/>
          <path id="Tracé_2863" data-name="Tracé 2863" d="M2534.457,426.189s-.381,3.452,2.491,4.587l-2.291,4.207a10.729,10.729,0,0,1-2.547-7.9Z" transform="translate(-2172.507 -365.668)" fill="#90ddfc"/>
          <path id="Tracé_2864" data-name="Tracé 2864" d="M2529.7,468.419a1.02,1.02,0,0,1-.33-.358l-.79-1.377c-.548-.955.02-2.464.9-2.392l1.792.148c.879.073,1.193,1.655.5,2.507l-1,1.229a1.08,1.08,0,0,1-.264.231l1,29.571-4.024,4.262-2.766-4.638Z" transform="translate(-2166.19 -398.358)" fill="#000543"/>
          <path id="Tracé_2865" data-name="Tracé 2865" d="M2245.327,516.471l7.48-21.884-8.249-3.1a1.388,1.388,0,0,0-1.155.088,3.617,3.617,0,0,0-.567.345,3.071,3.071,0,0,0-1.719,1.737,2.975,2.975,0,0,0-.432.812l-.283.828c-.188.486-.354.936-.511,1.275l-3.455,7.468a18.711,18.711,0,0,0-2.023,6.552c-.053.337-.191.757-.533.782-.248.018-.444-.2-.6-.391l-8.53-10.758-1.306-1.769a1.567,1.567,0,0,0-2.25-.283l-4.434,3.611a2.713,2.713,0,0,0-.486,3.7l.287.4c.106.159.225.323.353.488l1.113,1.536a32.773,32.773,0,0,0,2.971,4.912c.525.637,1.119,1.216,1.624,1.87,1.047,1.357,1.669,2.989,2.583,4.439a25.678,25.678,0,0,0,1.574,2.154l2.706,3.444a28.691,28.691,0,0,0,4.945,5.5,3.96,3.96,0,0,0,2.7,1.117,4.2,4.2,0,0,0,.729-.065,4.5,4.5,0,0,0,3.16-2.387,3.622,3.622,0,0,0,.647-.764,18.338,18.338,0,0,0,.771-1.854,15.146,15.146,0,0,1,1.347-2.061c1.253-1.849,2.913-5.546,2.143-7.834a1.083,1.083,0,0,0-.607.106" transform="translate(-1901.113 -421.615)" fill="#fff"/>
          <path id="Tracé_2866" data-name="Tracé 2866" d="M2233.806,516.974a4.272,4.272,0,0,1-2.913-1.2,23.649,23.649,0,0,1-4.294-4.65c-.23-.3-.458-.594-.687-.885l-2.706-3.444a26.036,26.036,0,0,1-1.593-2.18c-.376-.6-.706-1.229-1.025-1.84a17.221,17.221,0,0,0-1.542-2.575c-.276-.358-.589-.7-.891-1.036-.247-.272-.493-.543-.725-.826a22.514,22.514,0,0,1-2.334-3.732c-.22-.41-.44-.819-.668-1.223l-1.094-1.506c-.126-.163-.25-.333-.36-.5l-.28-.385a3.025,3.025,0,0,1,.541-4.119l4.434-3.611a1.879,1.879,0,0,1,2.7.339l1.306,1.769,8.524,10.75c.055.07.237.273.331.274s.2-.222.248-.521a19.019,19.019,0,0,1,2.048-6.633l3.455-7.468c.127-.274.26-.621.405-1l.1-.255.279-.817a3.215,3.215,0,0,1,.471-.889,30.474,30.474,0,0,1,3.4-4.534.313.313,0,0,1,.439-.011.309.309,0,0,1,.011.438,30.3,30.3,0,0,0-3.321,4.427,2.744,2.744,0,0,0-.409.755l-.39,1.108c-.151.4-.29.756-.421,1.04l-3.455,7.468a18.425,18.425,0,0,0-2,6.459c-.139.877-.573,1.036-.819,1.053a1.017,1.017,0,0,1-.864-.507l-8.531-10.758-1.312-1.778a1.257,1.257,0,0,0-1.8-.227l-4.434,3.611a2.407,2.407,0,0,0-.43,3.276l.287.4c.109.163.224.321.347.48l1.119,1.543c.249.438.471.851.693,1.264a22.039,22.039,0,0,0,2.267,3.632c.226.275.466.539.706.8.311.343.632.7.923,1.074a17.718,17.718,0,0,1,1.6,2.667c.313.6.637,1.22,1,1.8a25.6,25.6,0,0,0,1.555,2.128l2.706,3.444c.23.292.459.59.69.889a23.213,23.213,0,0,0,4.2,4.55,3.628,3.628,0,0,0,3.193.994,4.214,4.214,0,0,0,2.938-2.225.338.338,0,0,1,.063-.082,3.27,3.27,0,0,0,.594-.7,5.748,5.748,0,0,0,.45-1.044c.094-.263.188-.527.305-.78a9.231,9.231,0,0,1,.963-1.531c.138-.19.277-.381.408-.575a49.359,49.359,0,0,0,3.812-8.724.306.306,0,0,1,.37-.237.31.31,0,0,1,.237.368,49.136,49.136,0,0,1-3.9,8.939c-.135.2-.277.4-.42.592a8.632,8.632,0,0,0-.9,1.426c-.11.237-.2.483-.284.729a6.241,6.241,0,0,1-.5,1.155,3.737,3.737,0,0,1-.663.795,4.834,4.834,0,0,1-3.356,2.5,4.5,4.5,0,0,1-.784.07" transform="translate(-1897.99 -406.846)" fill="#b2c3eb"/>
          <path id="Tracé_2867" data-name="Tracé 2867" d="M2587.074,808.73l9.607-16.689a1.779,1.779,0,0,0-.66-2.432l-25.673-14.681a1.787,1.787,0,0,0-2.435.658l-9.607,16.689a1.779,1.779,0,0,0,.66,2.432l25.673,14.681a1.787,1.787,0,0,0,2.435-.658" transform="translate(-2194.813 -664.681)" fill="#fbe9dc"/>
          <path id="Tracé_2868" data-name="Tracé 2868" d="M2673.621,884.449l2.5-4.042,3.149,2.211-2.62,3.588Z" transform="translate(-2293.956 -755.385)" fill="#ff9985"/>
          <path id="Tracé_2869" data-name="Tracé 2869" d="M2628.108,913.2a.744.744,0,0,0,.95.439l3.576-1.2a.72.72,0,1,0-.46-1.362l-3.576,1.2a.74.74,0,0,0-.49.923" transform="translate(-2254.875 -781.668)" fill="#ff9985"/>
          <path id="Tracé_2870" data-name="Tracé 2870" d="M2648.2,909.745a3.216,3.216,0,0,1-1.479.852,1.872,1.872,0,0,1-1.052-.211,8.66,8.66,0,0,1-2.279-1.481,2.523,2.523,0,0,1-.942-2.535,4.291,4.291,0,0,1,1.933-2.532c1.665-1.037,2.269-1.392,3.881-1.35,2.02.052,3.118,1.186,1.952,3.711-.6,1.3-1,2.658-2.014,3.546" transform="translate(-2267.146 -774.327)" fill="#ff9985"/>
          <path id="Tracé_2871" data-name="Tracé 2871" d="M2630.063,927.466l-2.2,4.952a.669.669,0,0,1-1.224-.54l2.2-4.952a.669.669,0,0,1,1.224.54" transform="translate(-2253.597 -794.958)" fill="#ff9985"/>
          <path id="Tracé_2872" data-name="Tracé 2872" d="M2640.192,936.092l-2.2,4.952a.669.669,0,0,1-1.224-.54l2.2-4.952a.669.669,0,0,1,1.224.54" transform="translate(-2262.287 -802.359)" fill="#ff9985"/>
          <path id="Tracé_2873" data-name="Tracé 2873" d="M2655.313,936.969l-2.2,4.952a.669.669,0,0,1-1.224-.54l2.2-4.952a.669.669,0,0,1,1.224.54" transform="translate(-2275.262 -803.111)" fill="#ff9985"/>
          <path id="Tracé_2874" data-name="Tracé 2874" d="M2669.241,932.68l-2.2,4.952a.669.669,0,0,1-1.224-.54l2.2-4.952a.669.669,0,0,1,1.224.54" transform="translate(-2287.211 -799.431)" fill="#ff9985"/>
          <path id="Tracé_2875" data-name="Tracé 2875" d="M2726.767,517.292a31.472,31.472,0,0,0,3-4.414,48.637,48.637,0,0,1,2.582-4.719c1.158-1.744,2.8-3.552,3.9-5.334a11.786,11.786,0,0,0,1.384-7.667c-.339-2.626-8.608-20.818-9.667-23.246-.362-.831-5.139-8.129-6.037-8.273-1.276-.2,9.452,23.381,9.33,24.664-.2,2.088.394,4.163.564,6.254.429,5.251-1.808,10.333-4.267,15-1.227,2.326-2.524,4.62-3.622,7.011-.615,1.34-2.963,5.6-1.917,6.874,1.746-1.864,3.2-4.113,4.758-6.146" transform="translate(-2335.246 -397.799)" fill="#fff"/>
          <path id="Tracé_2876" data-name="Tracé 2876" d="M2660.884,531.057l10.778-21.722a6.312,6.312,0,0,0,.284-4.948l-9.617-26.67.71-.255.71-.254,7.3-2.967,12.735,30.437a5.075,5.075,0,0,1-.617,4.455l-13.371,26.3a1.959,1.959,0,0,1-2.627.859l-5.447-2.742a1.864,1.864,0,0,1-.835-2.494" transform="translate(-2282.861 -406.896)" fill="#fff"/>
          <path id="Tracé_2877" data-name="Tracé 2877" d="M2089.725,407.49l-30.937-28.578,29.656,29.557Z" transform="translate(-1766.432 -325.104)" fill="#000543"/>
          <path id="Tracé_2878" data-name="Tracé 2878" d="M1342.993,1216.706a.621.621,0,0,1-.613-.52l-.109-.669a7.85,7.85,0,0,1,7.68-9.1l40.218-.437a.612.612,0,0,1,.628.613.621.621,0,0,1-.615.626l-40.218.437a6.609,6.609,0,0,0-6.466,7.66l.109.669a.62.62,0,0,1-.614.719" transform="translate(-1151.576 -1034.728)" fill="#895147"/>
          <path id="Tracé_2879" data-name="Tracé 2879" d="M577.378,1188.13H535.924a.619.619,0,1,1,0-1.239h41.455a.619.619,0,1,1,0,1.239" transform="translate(-459.287 -1018.347)" fill="#895147"/>
          <path id="Tracé_2880" data-name="Tracé 2880" d="M1467.942,1685.651l-5.254-23.752-15.15,6.857,7.26,16.895Z" transform="translate(-1241.983 -1425.903)" fill="#ff9985"/>
          <path id="Tracé_2881" data-name="Tracé 2881" d="M1213.358,1061.234a3.609,3.609,0,0,0,.5-.168,16.42,16.42,0,0,0,11.232-11.958c.077-.113.145-.226.22-.339a5.724,5.724,0,0,1-1.744-3.332c-.413-2.541.78-4.746,2.666-4.926a3.018,3.018,0,0,1,2.029.6,4.793,4.793,0,0,1,1.157,1.237c.386-.119.451-1.317.456-1.63.015-.761-.137-1.516-.146-2.277a10.642,10.642,0,0,1,1.116-3.808l1.7,11.714a13.169,13.169,0,0,1-4.124,10.7,15.185,15.185,0,0,1-4.521,3.068,32.029,32.029,0,0,0-1.858,5.138,18.166,18.166,0,0,1-2.945,6.227c-.562.731-2.2,1.063-3.116,1.182-3.6.463-8.132,1.419-10.794-1.011-.581-.531,1.052-3.861,1.768-5.412.754-1.632,1.619-2.842,2.376-4.472a11.4,11.4,0,0,0,.541-1.593,16.135,16.135,0,0,0,1.946,1.048,2.744,2.744,0,0,0,1.544.015" transform="translate(-1033.937 -887.71)" fill="#ff9985"/>
          <path id="Tracé_2882" data-name="Tracé 2882" d="M1121.985,928c-.82-3.294,1.665-5.619,1.872-9a12.364,12.364,0,0,1,1.7-4.93c1.236-2.087,2.807-1.92,4.756-3.4a6.583,6.583,0,0,0,1.7-2.82,2.367,2.367,0,0,1,2.486-1.559,4.989,4.989,0,0,0,2.078-.018,1.938,1.938,0,0,0,1.568-1.955c-.07-.977.48-3.821,4.848-3.386,3.637.363,3.418,2.649,8.021,2.739a12.281,12.281,0,0,1,8.031,4.26,13.006,13.006,0,0,1,1.546,8.792c-.391,1.975-2.307,4.955-2.281,6.967.01.765.445,3.7-.309,3.907-2.533-3.734-6.576-1.371-5.851,3.089a5.723,5.723,0,0,0,1.744,3.332c-.076.113-.143.226-.221.339a16.481,16.481,0,0,1-11.736,12.13,2.777,2.777,0,0,1-1.542-.019c-2.419-.776-.773-1.51-5.93-1.5a4.8,4.8,0,0,1-3.678-1.187c-.986-1.109-.829-2.654-.77-4.193-3.539-1.784-2.125-2.726-2.979-5.276-.877-2.616-4.385-3.623-5.051-6.3" transform="translate(-962.517 -772.951)" fill="#000543"/>
          <path id="Tracé_2883" data-name="Tracé 2883" d="M1019.187,1340.221h61.221a50.137,50.137,0,0,1-.486-6.186c-.012-11-1.216-20.591,1.055-32.777.733-3.935,1.955-16.95,1.527-20.863-.359-3.282,1.4-6.2-.3-8.525a18.547,18.547,0,0,0-4.125-4.021c-33.431-21.423-49.37,4.16-49.37,4.16-3.836,5.572-3.874,14.714-3.651,16.488-1.991,23.333-4.764,37.85-5.875,51.724" transform="translate(-874.458 -1080.472)" fill="#fff"/>
          <path id="Tracé_2884" data-name="Tracé 2884" d="M1365.283,1334.7c3.014,3.6,4.508,5.549,6.11,11.89,3.055,12.086,9.967,26.038,8.923,32.077-.739,4.277-10.8,8.642-16.292,8.548a3.1,3.1,0,0,1-2.906-2.213c-.48-1.585-1.176-3.873-1.6-5.221-.183-.581-.365-1.17-.554-1.726-2.766-8.161-5.258-16.446-8.294-24.51-2.4-6.373,1.651-13.694,6.8-18.268a6.131,6.131,0,0,1,9.16,1.184Z" transform="translate(-1158.261 -1144.336)" fill="#fff"/>
          <path id="Tracé_2885" data-name="Tracé 2885" d="M1365.564,1504.96a3.54,3.54,0,0,0,1.484.365c5.645.147,16.18-4.278,17.009-9.063a.615.615,0,0,0-.511-.719.624.624,0,0,0-.722.508c-.659,3.812-10.23,8.171-15.743,8.03a2.439,2.439,0,0,1-2.243-1.775c-.48-1.587-1.173-3.876-1.6-5.223l-.122-.386c-.143-.459-.288-.917-.436-1.351-.935-2.76-1.84-5.533-2.744-8.309-1.742-5.347-3.543-10.874-5.556-16.221a.626.626,0,0,0-1.172.439c2,5.32,3.8,10.836,5.538,16.169.905,2.779,1.812,5.558,2.749,8.322.146.428.288.876.427,1.325l.124.387c.423,1.345,1.116,3.627,1.6,5.209a3.77,3.77,0,0,0,1.924,2.294" transform="translate(-1161.013 -1261.606)" fill="#f9cdaf"/>
          <path id="Tracé_2886" data-name="Tracé 2886" d="M797.224,1399.567h83.052l-6.863-58.893c-.782-6.713-6.471-12.207-12.641-12.207H799.915c-6.171,0-10.578,5.494-9.8,12.207Z" transform="translate(-677.842 -1139.819)" fill="#895147"/>
          <path id="Tracé_2887" data-name="Tracé 2887" d="M768.962,1399.567h76.856l-6.332-58.894c-.722-6.713-5.971-12.207-11.663-12.207H771.669c-5.694,0-9.761,5.493-9.039,12.207Z" transform="translate(-654.262 -1139.819)" fill="#b37263"/>
          <path id="Tracé_2888" data-name="Tracé 2888" d="M764.985,1399.463h1.25l-6.279-58.206a11.494,11.494,0,0,1,2.58-8.968,7.982,7.982,0,0,1,5.983-2.705h63.842a.619.619,0,1,0,0-1.239H768.519a9.212,9.212,0,0,0-6.907,3.116,12.725,12.725,0,0,0-2.891,9.927Z" transform="translate(-650.904 -1139.715)" fill="#895147"/>
          <path id="Tracé_2889" data-name="Tracé 2889" d="M389.925,1196.4c-1.062.153-2.84.014-3.115,1.188-.249,1.064.233,3.292.133,4.59a21.132,21.132,0,0,1-.634,4.754c-.075.25-2.088,12.542-1.972,12.789s6.781.966,7.038,1.083c3.282,1.5,2.076.269,5.214-1.145.8-.362,1.445-.057,1.707-.882.744-2.34,1.683-15.2,1.511-16.9a29.7,29.7,0,0,1,.106-6.923c-.013-.052-9.217,1.333-9.988,1.445" transform="translate(-329.756 -1025.263)" fill="#ff9985"/>
          <path id="Tracé_2890" data-name="Tracé 2890" d="M421.1,1003.823a76.115,76.115,0,0,0,.344-11.959c-.048-.728-.156-1.434-.2-2.12l-18.31-7.728a12.09,12.09,0,0,0-4.646,9.956l.107,10.822a15.585,15.585,0,0,0,2.1,7.571c.077.261.252.9.428,1.75l4.7,2.347a2,2,0,0,1,.695-1.465,2.411,2.411,0,0,1,2.425-.026c.8.364,1.5.94,2.273,1.349a5.9,5.9,0,0,0,3.931.579,7.14,7.14,0,0,0,4.775-4.342,21.639,21.639,0,0,0,1.38-6.735" transform="translate(-341.73 -842.564)" fill="#ff9985"/>
          <path id="Tracé_2891" data-name="Tracé 2891" d="M450.158,1202.636l5.775,1.671,0-.536a.991.991,0,0,1,.866-.989,12.49,12.49,0,0,0,5.74-2.466,9.672,9.672,0,0,1-1.689.394,11.77,11.77,0,0,1-6.555-1.11,13.36,13.36,0,0,1-2.771-1.7,1.733,1.733,0,0,0-1.04.325c-.885.683-.781,2.091-.564,3.262.071.383.155.765.233,1.148" transform="translate(-385.905 -1027.794)" fill="#ff9985"/>
          <path id="Tracé_2892" data-name="Tracé 2892" d="M477.871,1052.327l-.7-15.4-1.152-.486c.04.687.148,1.392.2,2.12a76.12,76.12,0,0,1-.344,11.959,21.639,21.639,0,0,1-1.38,6.735,7.14,7.14,0,0,1-4.775,4.342,5.9,5.9,0,0,1-3.931-.579c-.778-.41-1.477-.985-2.273-1.349a3.21,3.21,0,0,0-1.386-.3,13.364,13.364,0,0,0,2.771,1.7,11.769,11.769,0,0,0,6.555,1.11,9.729,9.729,0,0,0,1.689-.394,11.758,11.758,0,0,0,4.728-9.455" transform="translate(-396.502 -889.258)" fill="#ff9985"/>
          <path id="Tracé_2893" data-name="Tracé 2893" d="M392.265,945.661c-1.211-2.366-4.464-2.425-6.934-3.16-3.872-1.154-2.411-.944-4.448-2.61-.925-.756-5.02-1.291-6.174-1.32-.16.3,1.157,1.023.937,1.3-.482.6.323.925-.472,1.383a20.027,20.027,0,0,0-8.495,10.052,4.539,4.539,0,0,1,.5.842,2.186,2.186,0,0,1-.619,2.546,1.967,1.967,0,0,1-1.26.359c-1.175,3.7-2.024,7.637-3.172,11.478a8.148,8.148,0,0,1,.707,2.017c.553,3.035-2.181,7.2,3.615,8.2,4.688.808,3.531,1.445,5.3,2.367a2.519,2.519,0,0,0,1.414.26A13.919,13.919,0,0,0,385,969.782a31.144,31.144,0,0,0,4.184-6.076c.089.225.2.405.392.378.7-.1.562-2.923.62-3.645.154-1.909,2.174-4.415,2.709-6.222a13.076,13.076,0,0,0-.638-8.556M365.634,970.87a9.52,9.52,0,0,0,2,1.837,6.692,6.692,0,0,1-2-1.837" transform="translate(-310.703 -805.29)" fill="#ffd878"/>
          <path id="Tracé_2894" data-name="Tracé 2894" d="M516.445,1107.218c-.153-2.468,1.136-4.362,2.881-4.231a2.542,2.542,0,0,1,.934.284,2.948,2.948,0,0,0-1.806-.89c-1.745-.13-3.034,1.763-2.88,4.231a5.3,5.3,0,0,0,2.5,4.418,5.9,5.9,0,0,1-1.629-3.813" transform="translate(-442.349 -945.833)" fill="#ff9985"/>
          <path id="Tracé_2895" data-name="Tracé 2895" d="M524.278,1114.973c1.744.13,3.034-1.764,2.88-4.231a5.9,5.9,0,0,0-1.629-3.813,2.543,2.543,0,0,0-.934-.284c-1.745-.131-3.034,1.763-2.881,4.231a5.9,5.9,0,0,0,1.63,3.813,2.555,2.555,0,0,0,.934.285" transform="translate(-447.618 -949.491)" fill="#ff9985"/>
          <path id="Tracé_2896" data-name="Tracé 2896" d="M332.582,938.1s-31.137,5.046-14.825,34.671c0,0,34.561-28.253,14.825-34.671" transform="translate(-268.578 -804.883)" fill="#ffd878"/>
          <path id="Tracé_2897" data-name="Tracé 2897" d="M39.9,1377.368h86.584l-7.23-62.048c-.816-7-6.746-12.727-13.179-12.727H42.624c-6.433,0-11.029,5.727-10.213,12.727Z" transform="translate(-27.728 -1117.619)" fill="#895147"/>
          <path id="Tracé_2898" data-name="Tracé 2898" d="M10.426,1377.368H90.552l-6.671-62.048c-.753-7-6.225-12.727-12.16-12.727H13.177c-5.936,0-10.176,5.727-9.423,12.727Z" transform="translate(-3.147 -1117.619)" fill="#b37263"/>
          <path id="Tracé_2899" data-name="Tracé 2899" d="M6.914,1376.964H8.165l-6.841-61.986a11.3,11.3,0,0,1,2.55-8.835,8.229,8.229,0,0,1,6.183-2.781H72.532a.619.619,0,1,0,0-1.239H10.057a9.46,9.46,0,0,0-7.109,3.193,12.536,12.536,0,0,0-2.86,9.8Z" transform="translate(0 -1117.216)" fill="#895147"/>
          <path id="Tracé_2900" data-name="Tracé 2900" d="M291.329,1167.241a14.2,14.2,0,1,1-14.2-14.157,14.181,14.181,0,0,1,14.2,14.157" transform="translate(-225.585 -989.341)" fill="#ffd878"/>
        </g>
      </g>
    </g>
  </g>
</svg>
