<svg xmlns="http://www.w3.org/2000/svg" xmlns:xlink="http://www.w3.org/1999/xlink" width="456.007" height="355.541" viewBox="0 0 456.007 355.541">
  <defs>
    <clipPath id="clip-path">
      <rect id="Rectangle_602" data-name="Rectangle 602" width="456.007" height="308.297" fill="#f5f7ff"/>
    </clipPath>
    <clipPath id="clip-path-2">
      <rect id="Rectangle_649" data-name="Rectangle 649" width="342" height="320.163" fill="none"/>
    </clipPath>
  </defs>
  <g id="Groupe_1622" data-name="Groupe 1622" transform="translate(-189.997 -3045.104)">
    <g id="Groupe_1025" data-name="Groupe 1025" transform="translate(189.997 3092.347)">
      <g id="Groupe_1024" data-name="Groupe 1024" clip-path="url(#clip-path)">
        <path id="Tracé_2251" data-name="Tracé 2251" d="M455.637,221.928c-.943,15.217-2.065,31.059-9.4,44.214-13.707,24.589-46.517,31.981-71.841,21.836a98.134,98.134,0,0,1-21.077-12.044c-18.393-13.3-34.45-31.154-54.932-40.7-30.929-14.415-67.841-7.379-100.4-4.229a687.079,687.079,0,0,0-112.11,20.349c-20.929,5.624-44.541,11.881-62.951.006-11.352-7.322-18.4-20.587-21.056-34.3C-2.656,193.7,1.667,162.3,8.026,139.593c10.293-36.759,32.28-69.787,61.612-92.551a164.616,164.616,0,0,1,102.3-34.66c25.012.325,33.653,21.082,48.207,38.953C237.136,72.2,255.311,81.356,279.339,88.89c29.452,9.234,54.036,18.047,84.806,6.672,17.1-6.323,33.894-17.553,51.833-14.793,18.484,2.845,32.351,20.533,37.375,39.441,4.808,18.1.994,34.733,1.477,52.876.435,16.306,1.837,32.217.807,48.842" transform="translate(0 -7.25)" fill="#f5f7ff"/>
        <path id="Tracé_2252" data-name="Tracé 2252" d="M695.329,43.807a58.865,58.865,0,0,1-1.567,5.922c-5.918,18.573-28.133,32.476-49.826,31.18a34.771,34.771,0,0,1-14.928-3.931c-6.948-3.916-11.051-10.726-17.45-15.29-12.02-8.574-30-7.947-43.006-15.36-5.371-3.061-9.872-7.759-10.658-13.4-.844-6.049,2.774-12.223,7.988-16.46s11.851-6.825,18.487-8.946c37.249-11.9,121.771-15.876,110.959,36.284" transform="translate(-326.945 0)" fill="#f5f7ff"/>
        <path id="Tracé_2253" data-name="Tracé 2253" d="M328.668,599.988c-1.406-5.812-3.115-11.872-15.619-17.343-25.884-11.323-125.121-20.241-157.037-9.715-9.907,3.268-12.943,7.574-21.863,11.011-26.294,10.132-96.22,10.485-119.36,21.1-12.908,5.92-7.086,14.079,11.4,20.408C63.024,638.063,124.007,639,178.62,640.757c40.664,1.307,83.77.884,112.675-4.6,41.09-7.794,40.608-22.81,37.372-36.17" transform="translate(-4.598 -333.08)" fill="#f5f7ff"/>
      </g>
    </g>
    <g id="Groupe_1078" data-name="Groupe 1078" transform="translate(255.817 3045.104)">
      <rect id="Rectangle_636" data-name="Rectangle 636" width="119.118" height="255.047" transform="translate(222.882 64.169)" fill="#fff"/>
      <rect id="Rectangle_637" data-name="Rectangle 637" width="108.81" height="123.747" transform="translate(227.959 70.85)" fill="#fff"/>
      <path id="Tracé_2557" data-name="Tracé 2557" d="M684.844,615.11h-110.2V503.322h110.2Zm-108.81-1.4H683.457V504.724H576.034Z" transform="translate(-347.305 -304.197)" fill="#d7e1fc"/>
      <rect id="Rectangle_638" data-name="Rectangle 638" width="119.118" height="12.781" transform="translate(222.882 51.097)" fill="#fff"/>
      <rect id="Rectangle_639" data-name="Rectangle 639" width="119.404" height="4.432" transform="translate(222.595 63.879)" fill="#d7e1fc"/>
      <path id="Tracé_2558" data-name="Tracé 2558" d="M722.672,189.164H738.28L770.206,209.8v71.933L722.672,239.8Z" transform="translate(-436.768 -114.327)" fill="#bbe4fc"/>
      <path id="Tracé_2559" data-name="Tracé 2559" d="M635.679,189.164v47.282l-50.664-44.7v-2.587Z" transform="translate(-353.571 -114.327)" fill="#bbe4fc"/>
      <path id="Tracé_2560" data-name="Tracé 2560" d="M722.672,317.143l47.533,41.934v22.57H722.672Z" transform="translate(-436.768 -191.675)" fill="#9ad0f4"/>
      <path id="Tracé_2561" data-name="Tracé 2561" d="M635.679,240.4v67.853H585.015V195.7Z" transform="translate(-353.571 -118.279)" fill="#9ad0f4"/>
      <path id="Tracé_2562" data-name="Tracé 2562" d="M794.049,189.164V209.8l-31.925-20.632Z" transform="translate(-460.612 -114.327)" fill="#9ad0f4"/>
      <g id="Groupe_1077" data-name="Groupe 1077">
        <g id="Groupe_1076" data-name="Groupe 1076" clip-path="url(#clip-path-2)">
          <path id="Tracé_2563" data-name="Tracé 2563" d="M114.84,753.569H69.767c-4.7,0-8.527,3.329-8.527,7.419V765a1.615,1.615,0,1,0,3.229,0v-4.012c0-2.291,2.377-4.155,5.3-4.155H114.84c2.921,0,5.3,1.864,5.3,4.155V765a1.615,1.615,0,1,0,3.229,0v-4.012c0-4.091-3.825-7.419-8.527-7.419" transform="translate(-37.012 -455.441)" fill="#fff"/>
          <path id="Tracé_2564" data-name="Tracé 2564" d="M205.392,792.925a3.341,3.341,0,1,0,3.325-3.669,3.51,3.51,0,0,0-3.325,3.669" transform="translate(-124.135 -477.01)" fill="#6d72a0"/>
          <path id="Tracé_2565" data-name="Tracé 2565" d="M202.548,790.536h7.914c.524,0,.953-.571.953-1.27V786.1c0-.7-.429-1.27-.953-1.27h-7.914c-.524,0-.952.572-.952,1.27v3.162c0,.7.428,1.27.952,1.27" transform="translate(-121.84 -474.337)" fill="#6d72a0"/>
          <path id="Tracé_2566" data-name="Tracé 2566" d="M24.692,296.237H72.6c4.857,0,9.335,4.385,9.951,9.744L94.945,413.831H29.813L16.981,305.981c-.616-5.359,2.854-9.744,7.711-9.744" transform="translate(-10.22 -179.039)" fill="#52587f"/>
          <path id="Tracé_2567" data-name="Tracé 2567" d="M47.727,413.831,36.291,305.982c-.568-5.359,2.634-9.744,7.115-9.744h44.2c4.482,0,8.613,4.385,9.182,9.744l11.435,107.849Z" transform="translate(-21.894 -179.04)" fill="#6d72a0"/>
          <path id="Tracé_2568" data-name="Tracé 2568" d="M68.724,442.068c.08,5.637,1.021,11.25.839,16.885s-1.471,11.344-.118,16.8c.735,2.962,2.244,5.853,1.9,8.888a1.931,1.931,0,0,0,.2,1.522,1.139,1.139,0,0,0,1.667-.243,3.375,3.375,0,0,0,.492-1.849q1.49-22.4,1.47-44.863c-.005-5.415-.077-10.838-.621-16.225a28.789,28.789,0,0,0-1.2-6.316,3.206,3.206,0,0,0-1.848-2.294c-2.34-.631-1.618,2.935-1.575,3.993a70.132,70.132,0,0,1-.233,7.959c-.381,5.242-1.057,10.474-.982,15.741" transform="translate(-41.532 -250.394)" fill="#fff"/>
          <path id="Tracé_2569" data-name="Tracé 2569" d="M251.322,334.973c-.7,2.278-1.657,4.471-2.313,6.762-1.16,4.056-1.354,8.364-2.73,12.351-.7,2.027-1.7,3.946-2.264,6.014-.694,2.531-.732,5.242-1.723,7.669s-3.438,4.6-5.966,3.99a7.505,7.505,0,0,1-1.674-.7c-1.15-.595-2.888-2.278-4.038-2.873-2.115-1.094-5.679-5.544-7.191-7.4-1.1-1.353-3.233-2.505-3.174-4.058.133-3.5-1.413-11.674-.836-15.132.081-.483,7,7.041,7.376,6.735.718-.577,1.759.02,2.434.648a21.3,21.3,0,0,1,4.442,5.874c.926,1.807,2.11,4.088,4.117,3.942,1.879-.136,2.8-2.334,3.272-4.178,2.841-11.187,4.19-23.041,9.983-32.994a1.548,1.548,0,0,1,.773-.786c2.888-.9-.047,12.7-.488,14.136" transform="translate(-132.531 -193.882)" fill="#fff"/>
          <path id="Tracé_2570" data-name="Tracé 2570" d="M230.906,371.594c-.523.739-1.606,1.874-4.165,1.72-1.957-.117-3.683-.894-4.408-2.734l-19.8-42.017,9.552-4.993c.893-.555,2.071,3.135,2.474,4.113l13.762,24.271Z" transform="translate(-122.404 -195.525)" fill="#fff"/>
          <path id="Tracé_2571" data-name="Tracé 2571" d="M262.425,371.505l12.543-45.8c.171-.964-.431-2.329-1.4-2.261l-9.522-.079-9.369,33.674Z" transform="translate(-153.923 -195.436)" fill="#fff"/>
          <path id="Tracé_2572" data-name="Tracé 2572" d="M284.688,274.111h-7.8a.741.741,0,0,1-.694-1.082,1.673,1.673,0,0,1,1.446-1.081h7.8a.741.741,0,0,1,.694,1.081,1.672,1.672,0,0,1-1.445,1.082" transform="translate(-166.89 -164.36)" fill="#000543"/>
          <path id="Tracé_2573" data-name="Tracé 2573" d="M252.875,307.169H234.521a.956.956,0,0,1-.895-1.4L244.1,275.636a2.158,2.158,0,0,1,1.865-1.395h18.354a.956.956,0,0,1,.9,1.395L254.74,305.774a2.158,2.158,0,0,1-1.865,1.4" transform="translate(-141.149 -165.746)" fill="#88dce5"/>
          <path id="Tracé_2574" data-name="Tracé 2574" d="M301.339,308.994a.844.844,0,0,1-.429-1.1l1.058-2.456a.827.827,0,0,1,1.09-.434.844.844,0,0,1,.429,1.1l-1.058,2.456a.827.827,0,0,1-1.09.434" transform="translate(-181.822 -184.295)" fill="#ff9985"/>
          <path id="Tracé_2575" data-name="Tracé 2575" d="M294.267,326.523a1.042,1.042,0,0,1-1.419.419L288.5,324.53a1.066,1.066,0,0,1-.414-1.435,1.043,1.043,0,0,1,1.419-.419l4.351,2.412a1.066,1.066,0,0,1,.414,1.435" transform="translate(-174.034 -194.941)" fill="#ff9985"/>
          <path id="Tracé_2576" data-name="Tracé 2576" d="M294.637,321.816a1.043,1.043,0,0,1-1.419.419l-5.938-3.292a1.067,1.067,0,0,1-.414-1.435,1.043,1.043,0,0,1,1.419-.419l5.938,3.292a1.066,1.066,0,0,1,.414,1.435" transform="translate(-173.299 -191.564)" fill="#ff9985"/>
          <path id="Tracé_2577" data-name="Tracé 2577" d="M299.309,312.506a1.043,1.043,0,0,1-1.419.419l-5.938-3.292a1.066,1.066,0,0,1-.414-1.435,1.043,1.043,0,0,1,1.419-.419l5.937,3.292a1.065,1.065,0,0,1,.414,1.435" transform="translate(-176.122 -185.937)" fill="#ff9985"/>
          <path id="Tracé_2578" data-name="Tracé 2578" d="M295.989,316.65a1.042,1.042,0,0,1-1.419.418l-6.495-3.6a1.066,1.066,0,0,1-.414-1.435,1.042,1.042,0,0,1,1.419-.418l6.495,3.6a1.066,1.066,0,0,1,.414,1.435" transform="translate(-173.779 -188.255)" fill="#ff9985"/>
          <path id="Tracé_2579" data-name="Tracé 2579" d="M305.81,319.234s-1.22,3.8-3.131,5.45l-.61-1.075s-.46-4.671,3.742-4.375" transform="translate(-182.555 -192.93)" fill="#ff9985"/>
          <path id="Tracé_2580" data-name="Tracé 2580" d="M214.361,756.807l-4.48,15.685,6.405,1.3,3.295-3.068-.275-.721,3.6-11.465Z" transform="translate(-126.848 -457.398)" fill="#ff9985"/>
          <path id="Tracé_2581" data-name="Tracé 2581" d="M217.966,788.786l8.764,3.013c2.145.737,2.551,2.255,1.7,3.383l-20.31-.478.815-4.522a1.686,1.686,0,0,1,1.654-1.4Z" transform="translate(-125.782 -476.726)" fill="#6ac3d1"/>
          <path id="Tracé_2582" data-name="Tracé 2582" d="M207.743,803.743l-.224.767c-.14.476.429.922,1.185.93l15.783.171a4.315,4.315,0,0,0,3.567-1.389Z" transform="translate(-125.407 -485.765)" fill="#000543"/>
          <path id="Tracé_2583" data-name="Tracé 2583" d="M213.9,800.324h2.685a.635.635,0,0,0,.633-.633v-.175a.635.635,0,0,0-.633-.633H213.9a.635.635,0,0,0-.633.633v.175a.635.635,0,0,0,.633.633" transform="translate(-128.894 -482.828)" fill="#000543"/>
          <path id="Tracé_2584" data-name="Tracé 2584" d="M274.437,757.608l-4.48,15.685,6.405,1.3,3.295-3.068-.275-.721,3.6-11.465Z" transform="translate(-163.157 -457.883)" fill="#ff9985"/>
          <path id="Tracé_2585" data-name="Tracé 2585" d="M278.042,789.587l8.765,3.013c2.145.737,2.551,2.255,1.7,3.383L268.2,795.5l.815-4.522a1.686,1.686,0,0,1,1.654-1.4Z" transform="translate(-162.091 -477.21)" fill="#6ac3d1"/>
          <path id="Tracé_2586" data-name="Tracé 2586" d="M267.82,804.544l-.224.767c-.14.476.428.922,1.185.93l15.783.171a4.316,4.316,0,0,0,3.567-1.389Z" transform="translate(-161.717 -486.25)" fill="#000543"/>
          <path id="Tracé_2587" data-name="Tracé 2587" d="M273.978,801.125h2.685a.635.635,0,0,0,.633-.633v-.175a.635.635,0,0,0-.633-.633h-2.685a.635.635,0,0,0-.633.633v.175a.635.635,0,0,0,.633.633" transform="translate(-165.204 -483.312)" fill="#000543"/>
          <path id="Tracé_2588" data-name="Tracé 2588" d="M138.632,759.817c-1,0-1.816-1.182-1.816-2.626V743.62c0-1.445.817-2.627,1.816-2.627s1.816,1.182,1.816,2.627v13.571c0,1.444-.817,2.626-1.816,2.626" transform="translate(-82.689 -447.841)" fill="#fff"/>
          <path id="Tracé_2589" data-name="Tracé 2589" d="M63.391,792a3.439,3.439,0,1,1-3.421-3.783A3.616,3.616,0,0,1,63.391,792" transform="translate(-34.176 -476.382)" fill="#6d72a0"/>
          <path id="Tracé_2590" data-name="Tracé 2590" d="M61.335,789.537H53.192c-.539,0-.98-.589-.98-1.309v-3.26c0-.72.441-1.309.98-1.309h8.143c.539,0,.98.589.98,1.309v3.26c0,.72-.441,1.309-.98,1.309" transform="translate(-31.556 -473.627)" fill="#6d72a0"/>
          <path id="Tracé_2591" data-name="Tracé 2591" d="M132.93,788.458h5.556a1.079,1.079,0,0,0,1.07-1.082v-3.7a1.079,1.079,0,0,0-1.07-1.082H132.93a1.08,1.08,0,0,0-1.07,1.082v3.7a1.079,1.079,0,0,0,1.07,1.082" transform="translate(-79.693 -472.982)" fill="#6d72a0"/>
          <path id="Tracé_2592" data-name="Tracé 2592" d="M139.31,798.074a1.743,1.743,0,0,1-1.728-1.748V793.7a1.729,1.729,0,1,1,3.457,0v2.621a1.743,1.743,0,0,1-1.728,1.748" transform="translate(-83.152 -478.642)" fill="#6d72a0"/>
          <path id="Tracé_2593" data-name="Tracé 2593" d="M137.239,727.11h-.454a2.918,2.918,0,0,1-2.893-2.925V706.636a2.918,2.918,0,0,1,2.893-2.925h.454a2.917,2.917,0,0,1,2.893,2.925v17.549a2.917,2.917,0,0,1-2.893,2.925" transform="translate(-80.922 -425.308)" fill="#fff"/>
          <path id="Tracé_2594" data-name="Tracé 2594" d="M133.348,649.194A5.209,5.209,0,0,1,127.9,644.3V603.77a5.481,5.481,0,0,1,10.9,0V644.3a5.209,5.209,0,0,1-5.449,4.893" transform="translate(-77.299 -361.949)" fill="#6d72a0"/>
          <path id="Tracé_2595" data-name="Tracé 2595" d="M128.329,617.586H103.842a4.217,4.217,0,0,1,0-8.434h24.488a4.217,4.217,0,0,1,0,8.434" transform="translate(-60.239 -368.159)" fill="#b2c3eb"/>
          <path id="Tracé_2596" data-name="Tracé 2596" d="M49.675,593.335v4.239a5.661,5.661,0,0,0,5.63,5.692h84.867a6.234,6.234,0,0,0,6.2-6.307l-.023-3.623Z" transform="translate(-30.023 -358.599)" fill="#52587f"/>
          <path id="Tracé_2597" data-name="Tracé 2597" d="M198.615,413.317c-1.118-28.908-5.729-73.565-6.187-84.142l5.085-17.014c-4.31-13.076-23.431-14.295-23.431-14.295l14.752,115.451Z" transform="translate(-105.211 -180.024)" fill="#fff"/>
          <path id="Tracé_2598" data-name="Tracé 2598" d="M206.354,542.739c-4.082-5.38-11.059-8.276-21.953-9.115-7.413-.571-17.664-.86-28.517-1.166-12.491-.352-25.406-.716-34.014-1.543-.956-.092-3.5-.336-4.546,1.75-1.093,2.174.544,4.039,2.615,6.4,1.38,1.573,3.69,4.205,3.712,5.7l.026,1.76,1.639.591c1.856.669,3.657,1.469,5.327,2.233,8.088,3.7,9.845,4.59,11.152,7.731l.614,1.477,1.584.073c11.507.529,27.212.683,38.332.765a5.359,5.359,0,0,1,5.286,5.48c-.451,21.674-4.572,40.671-11.023,60.039a3.046,3.046,0,0,0,2.868,4.016h10.239a3.738,3.738,0,0,0,3.49-2.424c.68-1.789,1.379-3.583,3.145-8.024,3.911-9.838,7.956-20.01,9.672-29.66.428-2.4.863-4.743,1.285-7.014,3.158-16.98,5.652-30.391-.931-39.066" transform="translate(-70.696 -320.838)" fill="#000543"/>
          <path id="Tracé_2599" data-name="Tracé 2599" d="M179.208,543.626c-4.083-5.38-11.059-8.276-21.953-9.115-7.412-.57-17.659-.86-28.508-1.166-5-.141-10.051-.283-14.872-.457l-2.6-.093V554.01l.985.761a7.1,7.1,0,0,1,2.384,3.191l.615,1.478,1.584.073c12.12.558,29.055.7,39.262.771a4.437,4.437,0,0,1,4.373,4.534c-.343,22.095-4.537,41.438-11.007,60.861a3.344,3.344,0,0,0,3.141,4.418h10.673a2.51,2.51,0,0,0,2.346-1.637c1.106-2.951,2.29-5.93,3.544-9.083,3.913-9.841,7.96-20.018,9.676-29.672.428-2.4.863-4.744,1.285-7.015,3.158-16.979,5.652-30.39-.93-39.065" transform="translate(-67.253 -322.01)" fill="#000543"/>
          <path id="Tracé_2600" data-name="Tracé 2600" d="M138.728,295.194l-.9-.182q-1.066-.214-2.156-.394a100.18,100.18,0,0,0-19.7-1l1.577,97.843s21.909-.417,30.588-.622a3.273,3.273,0,0,0,3.143-3.725l-12.32-91.874-.233-.048" transform="translate(-70.091 -177.4)" fill="#88dce5"/>
          <path id="Tracé_2601" data-name="Tracé 2601" d="M82.682,293.763c-.659.025-1.318.05-1.966.083-1.515.079-3.009.172-4.445.291-9.8.383-18.986,14.6-13.96,30.191l4.1,67.581.959,22.772,17.4.444Z" transform="translate(-36.801 -177.544)" fill="#fff"/>
          <path id="Tracé_2602" data-name="Tracé 2602" d="M70.072,591.9l.637,16.432c.107,2.766,1.975,4.942,4.241,4.942H86.162c1.809,0,3.2-1.806,3.1-4.012l-.823-17.193Z" transform="translate(-42.35 -357.732)" fill="#fff"/>
          <path id="Tracé_2603" data-name="Tracé 2603" d="M180.815,342.668a.529.529,0,0,1-.52-.551l1.442-29.185a1.4,1.4,0,0,0-.711-1.3l-1.621-.866a1.3,1.3,0,0,1-.66-.927,1.229,1.229,0,0,1,.294-1.044l2.48-2.742a.549.549,0,0,0-.032-.708l-7.136-8.1a.529.529,0,0,1,.044-.742.514.514,0,0,1,.734.044l7.136,8.1a1.609,1.609,0,0,1,.022,2.115l-2.48,2.742a.2.2,0,0,0-.036.157.248.248,0,0,0,.122.175l1.62.864a2.432,2.432,0,0,1,1.265,2.291l-1.441,29.179a.524.524,0,0,1-.52.5" transform="translate(-105.294 -179.116)" fill="#d7e1fc"/>
          <path id="Tracé_2604" data-name="Tracé 2604" d="M226.227,502.152H223.5a.526.526,0,0,1,0-1.052h2.728a.526.526,0,0,1,0,1.052" transform="translate(-134.764 -302.854)" fill="#d7e1fc"/>
          <path id="Tracé_2605" data-name="Tracé 2605" d="M200.748,362.741H191.66a1.583,1.583,0,0,1-1.558-1.5l-.191-4.093a1.414,1.414,0,0,1,1.416-1.5h9.088a1.583,1.583,0,0,1,1.557,1.5l.192,4.093a1.414,1.414,0,0,1-1.417,1.5" transform="translate(-114.777 -214.942)" fill="#dceaf9"/>
          <path id="Tracé_2606" data-name="Tracé 2606" d="M203.778,352.741a.7.7,0,0,1-.692-.667l-.077-1.628a.7.7,0,0,1,.658-.734.648.648,0,0,1,.726.665l.078,1.628a.7.7,0,0,1-.659.734h-.034" transform="translate(-122.694 -211.355)" fill="#6d72a0"/>
          <path id="Tracé_2607" data-name="Tracé 2607" d="M106.466,341.711a.523.523,0,0,1-.512-.432l-5.445-30.123a2.458,2.458,0,0,1,.758-2.372l1.237-1a.218.218,0,0,0,.053-.149.308.308,0,0,0-.072-.229l-2.473-2.506a1.76,1.76,0,0,1-.265-2.031l4.713-9.252a.519.519,0,0,1,.7-.226.529.529,0,0,1,.224.708l-4.721,9.268a.713.713,0,0,0,.087.789l2.473,2.506a1.356,1.356,0,0,1,.374,1.03,1.26,1.26,0,0,1-.442.914l-1.237,1a1.416,1.416,0,0,0-.386,1.354l5.446,30.13a.525.525,0,0,1-.419.612.544.544,0,0,1-.093.008" transform="translate(-60.159 -177.285)" fill="#d7e1fc"/>
          <path id="Tracé_2608" data-name="Tracé 2608" d="M123.416,328.493a.693.693,0,0,1-.588-.329c-10.33-16.628-4.171-35.492-4.108-35.68a.694.694,0,0,1,.88-.438.7.7,0,0,1,.434.89c-.061.182-6,18.432,3.97,34.483a.706.706,0,0,1-.22.967.682.682,0,0,1-.368.107" transform="translate(-70.616 -176.484)" fill="#6d72a0"/>
          <path id="Tracé_2609" data-name="Tracé 2609" d="M131.5,378.349a2.592,2.592,0,0,1-2.6,2.756,2.9,2.9,0,0,1-2.855-2.756,2.592,2.592,0,0,1,2.6-2.756,2.9,2.9,0,0,1,2.855,2.756" transform="translate(-76.179 -227.001)" fill="#6d72a0"/>
          <path id="Tracé_2610" data-name="Tracé 2610" d="M169.544,372.494a.7.7,0,0,1,0-1.4.921.921,0,0,0,.749-.249,2.769,2.769,0,0,0,.355-1.9l-.824-17.583a2.335,2.335,0,0,0-2.293-2.214,2,2,0,0,0-1.471.628,2.054,2.054,0,0,0-.553,1.52l.824,17.583c.032.665.261,2.213,1.715,2.213a.7.7,0,0,1,0,1.4c-1.781,0-3-1.393-3.1-3.549l-.824-17.583a3.448,3.448,0,0,1,.933-2.554,3.368,3.368,0,0,1,2.475-1.063,3.743,3.743,0,0,1,3.677,3.551l.823,17.583a4.027,4.027,0,0,1-.735,2.932,2.305,2.305,0,0,1-1.753.683" transform="translate(-99.19 -210.17)" fill="#6d72a0"/>
          <path id="Tracé_2611" data-name="Tracé 2611" d="M168.581,316.942a.71.71,0,0,1-.692-.764,46.8,46.8,0,0,0-2.714-20.4.7.7,0,0,1,.362-.921.692.692,0,0,1,.911.366A47.3,47.3,0,0,1,169.27,316.3a.7.7,0,0,1-.69.638" transform="translate(-99.794 -178.172)" fill="#6d72a0"/>
          <path id="Tracé_2612" data-name="Tracé 2612" d="M96.522,382.178H90.485a.526.526,0,0,1,0-1.052h6.036a.526.526,0,0,1,0,1.052" transform="translate(-54.373 -230.345)" fill="#d7e1fc"/>
          <path id="Tracé_2613" data-name="Tracé 2613" d="M173.515,407.3a.67.67,0,0,1-.671.712.75.75,0,0,1-.738-.712.67.67,0,0,1,.671-.712.75.75,0,0,1,.738.712" transform="translate(-104.017 -245.735)" fill="#452a51"/>
          <path id="Tracé_2614" data-name="Tracé 2614" d="M177.594,407.461a.67.67,0,0,1-.671.713.75.75,0,0,1-.738-.713.67.67,0,0,1,.671-.713.75.75,0,0,1,.738.713" transform="translate(-106.482 -245.83)" fill="#452a51"/>
          <path id="Tracé_2615" data-name="Tracé 2615" d="M104.006,530.6H95.95a.526.526,0,0,1,0-1.052h8.056a.526.526,0,0,1,0,1.052" transform="translate(-57.676 -320.05)" fill="#d7e1fc"/>
          <path id="Tracé_2616" data-name="Tracé 2616" d="M87.519,530.6H84.546a.526.526,0,0,1,0-1.052h2.973a.526.526,0,0,1,0,1.052" transform="translate(-50.784 -320.05)" fill="#d7e1fc"/>
          <rect id="Rectangle_640" data-name="Rectangle 640" width="2.515" height="134.211" transform="translate(157.197 185.187)" fill="#b2c3eb"/>
          <rect id="Rectangle_641" data-name="Rectangle 641" width="2.723" height="134.211" transform="translate(216.152 185.187)" fill="#fff"/>
          <path id="Tracé_2617" data-name="Tracé 2617" d="M358.523,285.79h5.583a4.952,4.952,0,0,0-4.925,4.979v48.109a4.952,4.952,0,0,0,4.925,4.979h-5.583a4.952,4.952,0,0,1-4.925-4.979V290.769a4.952,4.952,0,0,1,4.925-4.979" transform="translate(-213.707 -172.726)" fill="#6d72a0"/>
          <path id="Tracé_2618" data-name="Tracé 2618" d="M367.711,338.878V290.769a4.952,4.952,0,0,1,4.925-4.979h58.749a4.952,4.952,0,0,1,4.924,4.979v48.109a4.952,4.952,0,0,1-4.924,4.979H372.636a4.952,4.952,0,0,1-4.925-4.979" transform="translate(-222.237 -172.726)" fill="#91b4de"/>
          <rect id="Rectangle_642" data-name="Rectangle 642" width="4.174" height="11.86" transform="translate(169.494 171.132)" fill="#6d72a0"/>
          <rect id="Rectangle_643" data-name="Rectangle 643" width="15.411" height="11.86" transform="translate(173.668 171.132)" fill="#91b4de"/>
          <path id="Tracé_2619" data-name="Tracé 2619" d="M155.77,445.5l13.935,3.517c.624.133-1.326,3.515-1.973,3.517l-11.659-.066Z" transform="translate(-94.144 -269.253)" fill="#ff9985"/>
          <path id="Tracé_2620" data-name="Tracé 2620" d="M76.566,370.8l-33.619-1.069a2.241,2.241,0,0,1-2.033-2.961l7.807-23.379L38.6,327.215l-15.2,49.666a3.333,3.333,0,0,0,3.2,4.1l50.235-.086Z" transform="translate(-14.095 -197.762)" fill="#fff"/>
          <rect id="Rectangle_644" data-name="Rectangle 644" width="221.568" height="7.161" transform="translate(0.985 183.246)" fill="#fff"/>
          <rect id="Rectangle_645" data-name="Rectangle 645" width="44.301" height="1.637" transform="translate(158.012 181.605)" fill="#6d72a0"/>
          <rect id="Rectangle_646" data-name="Rectangle 646" width="3.072" height="136.028" transform="translate(62.467 183.369)" fill="#fff"/>
          <rect id="Rectangle_647" data-name="Rectangle 647" width="3.072" height="136.028" transform="translate(4.911 183.603)" fill="#b2c3eb"/>
          <rect id="Rectangle_648" data-name="Rectangle 648" width="67.698" height="7.173" transform="translate(0 183.234)" fill="#b2c3eb"/>
          <path id="Tracé_2621" data-name="Tracé 2621" d="M221.091,454.048a.108.108,0,0,1,0,.046c-.085,3.023-4.09,2.225-40.284,2.225-2.269,0-4.111-.993-4.144-2.225,0-.04,0-.008,0-.046.16-3.026,4.356-2.2,40.285-2.2,2.252,0,4.08.978,4.141,2.2" transform="translate(-106.773 -273.027)" fill="#6d72a0"/>
          <path id="Tracé_2622" data-name="Tracé 2622" d="M268.58,454.081c-.155-2.934-6.291-2.2-18.877-2.2-10.674,0-16.957-.722-17.105,2.2.03,1.277,1.872,2.27,4.141,2.27H250.9c11.337,0,17.6.715,17.681-2.225,0-.035,0-.01,0-.045" transform="translate(-140.577 -273.06)" fill="#b2c3eb"/>
          <path id="Tracé_2623" data-name="Tracé 2623" d="M143.945,185.827c-.315-.372-.742-.627-1.025-1.026-.632-.889-.328-2.077-.409-3.152s-1.24-2.342-1.957-1.654c.382-1.562.694-3.447-.37-4.738-2-2.431-6.1.166-8.326-2.034-.664-.658-1.013-1.644-1.757-2.191a2.544,2.544,0,0,0-3.253.5,8.147,8.147,0,0,0-1.335,2.033,1.814,1.814,0,0,1-.267.138,3.075,3.075,0,0,1-2.132-.084c-1.728-.413-3.331.967-4.3,2.8-.406.774-1.7-.334-2.171.4-1.063,1.66-3.267,2.433-3.707,4.427-.239,1.082.119,2.317-.251,3.346-.392,1.092-1.541,1.755-1.692,2.932-.239,1.871,1.41,3.6,1.486,5.44.036.864.806,1.679.826,2a4.258,4.258,0,0,0,.688,1.99,46.1,46.1,0,0,0,1.466,6.883,12.64,12.64,0,0,0,2.164,4.432c.009.011,1.383,1.541,1.382,1.527a17.253,17.253,0,0,1,.044-3.356,10.5,10.5,0,0,1-.83-3.67c-1.751-.095-3.028-1.845-2.911-3.907a3.484,3.484,0,0,1,3.1-3.544l2.248.618c7.25-.861,5.473-8.624,12.061-9.521,4.281-.582,6.836.3,8.107.992a12.182,12.182,0,0,1,1.191,5.632l.066.024c0-.1.862-.815.809-1.544l.08.074c1.241-.964,2.259-4.242.967-5.768" transform="translate(-67.07 -103.128)" fill="#000543"/>
          <path id="Tracé_2624" data-name="Tracé 2624" d="M139.344,210.238c-6.588.9-4.811,8.659-12.061,9.52l-2.248-.618a3.484,3.484,0,0,0-3.1,3.544c-.118,2.062,1.16,3.812,2.852,3.911a12.047,12.047,0,0,0,.888,3.666,13.159,13.159,0,0,0,11.187,7.715c6.393.371,10.85-4.366,11.229-11.027l.553-9.749c.006-.114,0-.225,0-.339a12.182,12.182,0,0,0-1.191-5.632c-1.271-.691-3.826-1.575-8.107-.992" transform="translate(-73.689 -126.949)" fill="#ff9985"/>
          <path id="Tracé_2625" data-name="Tracé 2625" d="M139.935,267.179l.921-26.369a2.124,2.124,0,0,0-1.995-2.23l-8.285-.3a2.12,2.12,0,0,0-2.148,2.079l-.75,21.475a8.114,8.114,0,0,0,5.61,8.1c4.857,1.474,6.615-1.856,6.647-2.75" transform="translate(-77.162 -144.009)" fill="#ff9985"/>
          <path id="Tracé_2626" data-name="Tracé 2626" d="M158.424,224.057l-2.636-.14a.709.709,0,0,0-.074,1.416l2.636.14a.709.709,0,0,0,.074-1.416" transform="translate(-93.709 -135.33)" fill="#000543"/>
          <path id="Tracé_2627" data-name="Tracé 2627" d="M184.7,225.067l-2.636-.14a.709.709,0,0,0-.074,1.416l2.636.14a.709.709,0,0,0,.074-1.416" transform="translate(-109.591 -135.94)" fill="#000543"/>
          <path id="Tracé_2628" data-name="Tracé 2628" d="M182.517,232.6c-.036.694-.427,1.238-.874,1.215s-.779-.606-.743-1.3.427-1.238.874-1.215.779.606.743,1.3" transform="translate(-109.331 -139.789)" fill="#000543"/>
          <path id="Tracé_2629" data-name="Tracé 2629" d="M157.507,231.752c-.036.695-.427,1.238-.874,1.215s-.779-.606-.743-1.3.427-1.238.874-1.215.779.606.743,1.3" transform="translate(-94.216 -139.28)" fill="#000543"/>
          <path id="Tracé_2630" data-name="Tracé 2630" d="M170.483,243.931l-.088-.242a1.4,1.4,0,0,1-1.055,1.126l-1.391.314a1.054,1.054,0,0,1-1.131-.5l-.036.133a1.1,1.1,0,0,0,1.293,1.365l1.391-.314a1.427,1.427,0,0,0,1.016-1.883" transform="translate(-100.777 -147.281)" fill="#fa694f"/>
          <path id="Tracé_2631" data-name="Tracé 2631" d="M159.621,255.687l3.986,1.291a2.751,2.751,0,0,1-3.986-1.291" transform="translate(-96.472 -154.532)" fill="#fff"/>
          <path id="Tracé_2632" data-name="Tracé 2632" d="M127.058,291.091s4.328,5.78,8.175,6.545l-1.01,6.659s-8.266-3.331-8.134-12.278Z" transform="translate(-76.204 -175.929)" fill="#6ac3d1"/>
          <path id="Tracé_2633" data-name="Tracé 2633" d="M152.73,292.918s-.418,4.4-3.763,5.854l3.355,5.964a12.737,12.737,0,0,0,3.047-10.289Z" transform="translate(-90.033 -177.034)" fill="#6ac3d1"/>
          <path id="Tracé_2634" data-name="Tracé 2634" d="M147.265,314.655a1.267,1.267,0,0,0,.412-.477l.951-1.835c.66-1.273-.179-3.285-1.33-3.188l-2.345.2c-1.151.1-1.464,2.205-.5,3.341l1.394,1.638a1.548,1.548,0,0,0,.361.308l.528,39.412,5.553,5.68,3.345-6.181Z" transform="translate(-86.959 -186.844)" fill="#000543"/>
          <path id="Tracé_2635" data-name="Tracé 2635" d="M103.306,399.385a.524.524,0,0,1-.52-.511l-.044-1.636a1.447,1.447,0,0,0-1.393-1.416l-31.514-1a2.9,2.9,0,0,1-2.316-1.274,2.966,2.966,0,0,1-.37-2.639l7.724-23.13a.518.518,0,0,1,.66-.33.527.527,0,0,1,.326.667l-7.724,23.13a1.911,1.911,0,0,0,.239,1.7,1.869,1.869,0,0,0,1.494.822l31.514,1a2.5,2.5,0,0,1,2.4,2.438l.045,1.636a.524.524,0,0,1-.505.541Z" transform="translate(-40.489 -222.061)" fill="#d7e1fc"/>
          <path id="Tracé_2636" data-name="Tracé 2636" d="M31.954,322.04c-.726,2.368-1.155,4.821-1.9,7.181-.961,3.024-2.433,5.852-3.594,8.8-2.552,6.493-3.559,13.482-4.546,20.4a8.077,8.077,0,0,0-.032,3.161,5.644,5.644,0,0,0,3.313,3.481c4.982-18.041,12.649-35.184,19.288-52.671.715-1.884,5.742-10.517,4.029-11.554-5.378-3.255-15.517,17.815-16.556,21.2" transform="translate(-13.134 -181.615)" fill="#fff"/>
          <path id="Tracé_2637" data-name="Tracé 2637" d="M69.646,582.471a14.863,14.863,0,0,0-1.522,1.847c-.9,1.592-.332,3.567-.121,5.386a13.159,13.159,0,0,1-.347,4.852,17.039,17.039,0,0,0-.928,3.963c-.057,3.172,2.776,5.674,5.7,6.813q-.247-12.029-.5-24.057a2.063,2.063,0,0,0-.42-1.474c-1.2-1.169-1.456,2.151-1.871,2.671" transform="translate(-40.328 -350.269)" fill="#fff"/>
          <path id="Tracé_2638" data-name="Tracé 2638" d="M116.779,600.572a30.008,30.008,0,0,0-.289,3.793q-.058,1.709-.116,3.416c-.253.132-.413-.437-.443-.868-.115-1.656-.121-3.326-.127-4.993s-.012-3.338-.019-5.007a1.964,1.964,0,0,1,.246-1.208c.263-.286.611-.011.879.263.613.626,1.344.786.928,1.929a13.743,13.743,0,0,0-1.059,2.675" transform="translate(-69.978 -359.959)" fill="#fff"/>
          <path id="Tracé_2639" data-name="Tracé 2639" d="M217.995,612.8c-.7,2.239-1.783,4.36-2.236,6.663-.633,3.224.011,6.562-.237,9.838-.478,6.321-4.222,12.006-4.863,18.312-.178,1.753-.114,3.533-.449,5.262-.756,3.906-3.524,7.689-2.378,11.5.27.9,1.148,1.87,1.977,1.442a1.912,1.912,0,0,0,.769-1.375c2.055-9.053,4.11-18.109,5.828-27.234,1.663-8.827,3.009-17.711,4.356-26.593.608-4.011,1.21-8.155.2-12.082-.322-1.25-1.417-3.195-2.991-2.3-1.461.828-.481,2.65-.111,3.859a21.378,21.378,0,0,1,.136,12.711" transform="translate(-125.443 -360.21)" fill="#000543"/>
          <path id="Tracé_2640" data-name="Tracé 2640" d="M277.158,612.469l-.621,7.628a59.032,59.032,0,0,1-.679,5.893c-.741,4.031-2.313,7.868-3.07,11.9-.627,3.332-.688,6.753-1.321,10.084-1.23,6.468-4.6,12.567-4.49,19.152a2.724,2.724,0,0,0,.322,1.457,1.009,1.009,0,0,0,1.292.409,1.524,1.524,0,0,0,.539-.9c3.192-10.085,6.393-20.2,8.316-30.612a256.812,256.812,0,0,0,3.042-27.079l.593-7.747a5.479,5.479,0,0,0-.127-2.187,1.835,1.835,0,0,0-1.571-1.327c-2.333-.032-2,3.4-1.918,4.794a61.9,61.9,0,0,1-.306,8.532" transform="translate(-161.353 -362.109)" fill="#000543"/>
          <path id="Tracé_2641" data-name="Tracé 2641" d="M219.458,631.558a.7.7,0,0,1,0-1.4,1.826,1.826,0,0,0,1.7-1.186c1.121-2.988,2.355-6.094,3.55-9.1,3.9-9.82,7.934-19.956,9.637-29.535.428-2.406.864-4.746,1.287-7.02,3.126-16.806,5.6-30.081-.8-38.509-3.955-5.211-10.773-8.02-21.456-8.842-2.493-.193-5.407-.362-8.908-.516a.7.7,0,0,1,.06-1.4c3.517.156,6.445.326,8.954.519,11.1.855,18.238,3.837,22.45,9.387,6.772,8.926,4.253,22.471,1.062,39.623-.423,2.268-.856,4.605-1.284,7.009-1.728,9.719-5.785,19.923-9.708,29.791-1.2,3.014-2.43,6.112-3.546,9.087a3.219,3.219,0,0,1-2.994,2.091" transform="translate(-123.173 -322.77)" fill="#2186c4"/>
          <path id="Tracé_2642" data-name="Tracé 2642" d="M713.069,557.2a.855.855,0,0,1-.126-.009.818.818,0,0,1-.675-.935l4.59-29.671a.81.81,0,1,1,1.6.252l-4.59,29.671a.812.812,0,0,1-.8.692" transform="translate(-430.475 -317.84)" fill="#6d72a0"/>
          <path id="Tracé_2643" data-name="Tracé 2643" d="M603.563,557.263a.716.716,0,0,1-.108-.008.7.7,0,0,1-.578-.8l4.59-29.67a.694.694,0,1,1,1.371.216l-4.59,29.67a.7.7,0,0,1-.684.593" transform="translate(-364.361 -318.018)" fill="#6d72a0"/>
          <path id="Tracé_2644" data-name="Tracé 2644" d="M722.695,689.453a1.137,1.137,0,0,1-1.119-.976l-11.031-74.642a1.133,1.133,0,1,1,2.241-.339l11.031,74.642a1.144,1.144,0,0,1-.953,1.3,1.067,1.067,0,0,1-.169.013" transform="translate(-429.431 -370.194)" fill="#6d72a0"/>
          <path id="Tracé_2645" data-name="Tracé 2645" d="M486.571,689.452a1.067,1.067,0,0,1-.169-.013,1.144,1.144,0,0,1-.953-1.3l11.031-74.642a1.133,1.133,0,1,1,2.241.339L487.69,688.476a1.137,1.137,0,0,1-1.119.976" transform="translate(-293.388 -370.193)" fill="#6d72a0"/>
          <path id="Tracé_2646" data-name="Tracé 2646" d="M592.881,689.452a1.068,1.068,0,0,1-.169-.013,1.144,1.144,0,0,1-.953-1.3l11.031-74.642a1.133,1.133,0,1,1,2.241.339L594,688.476a1.137,1.137,0,0,1-1.119.976" transform="translate(-357.639 -370.193)" fill="#6d72a0"/>
          <path id="Tracé_2647" data-name="Tracé 2647" d="M596.586,606.542a2.483,2.483,0,0,1-2.469,2.5h-84.16a2.5,2.5,0,0,1,0-4.993h84.16a2.483,2.483,0,0,1,2.469,2.5" transform="translate(-306.715 -365.072)" fill="#b2c3eb"/>
          <path id="Tracé_2648" data-name="Tracé 2648" d="M661.445,436.831H619.281a6.779,6.779,0,0,1-6.686-7.816l6.119-43.634c.652-4.648,4.631-8.45,8.843-8.45H669.1c4.212,0,7.125,3.8,6.473,8.45l-6.241,44.5a8.046,8.046,0,0,1-7.889,6.945" transform="translate(-370.197 -227.809)" fill="#95a9d1"/>
          <path id="Tracé_2649" data-name="Tracé 2649" d="M648.879,436.831H606.416a6.251,6.251,0,0,1-6.165-7.206l6.2-44.244c.652-4.648,4.631-8.45,8.843-8.45h41.545c4.212,0,7.125,3.8,6.473,8.45l-6.2,44.2a8.4,8.4,0,0,1-8.24,7.254" transform="translate(-362.74 -227.809)" fill="#b2c3eb"/>
          <path id="Tracé_2650" data-name="Tracé 2650" d="M530.453,527.525l6.807-1.15-1.774-4.7-6.434,1.126Z" transform="translate(-319.748 -315.291)" fill="#ff9985"/>
          <path id="Tracé_2651" data-name="Tracé 2651" d="M512.8,524.377s-6.438.19-10.834,9.413l12.455-4.667s-1.5-4.8-1.621-4.745" transform="translate(-303.376 -316.922)" fill="#ff9985"/>
          <path id="Tracé_2652" data-name="Tracé 2652" d="M556.529,423.1c1.967-.888,3.476-4.567,2.862-6.713-3.36-19.434-8.376-36.79-5.254-37.516,12.6-2.928,14.945,10.139,15.4,12.11,7.517,32.714,6.089,32.149,3.61,36.917-3.786,7.308-31.619,11.989-38.223,12.793-.762.092-1.326-.759-1.268-1.756.671-11.708-2.962-4.17,22.876-15.834" transform="translate(-322.526 -228.722)" fill="#4db4e8"/>
          <path id="Tracé_2653" data-name="Tracé 2653" d="M645.607,415.336c1.9-.687,3.025-4.2,2.164-6.394-5.568-19.674-12.588-37.448-9.5-37.858,12.476-1.652,16.31,11.587,16.988,13.593,11.264,33.305,9.75,32.6,7.76,37.1-3.037,6.893-30.8,8.763-37.421,8.9-.764.016-1.431-.888-1.483-1.874-.615-11.583-3.472-4.446,21.489-13.464" transform="translate(-376.953 -224.19)" fill="#4db4e8"/>
          <path id="Tracé_2654" data-name="Tracé 2654" d="M611.223,220.969c1.725,1.224,3.231,2.8,5.248,3.529,1.728.617,3.649.533,5.422,1.022s3.544,1.938,3.269,3.647c-.13.811-.7,1.511-.832,2.319-.367,2.279,2.546,3.611,4.365,5.174a7.058,7.058,0,0,1,2.259,7.078c-.49,1.8-1.718,3.662-.9,5.357.65,1.334,2.44,2.1,2.67,3.547.336,2.128-2.831,3.234-3.523,5.278-.485,1.44.366,2.945.72,4.422a7.115,7.115,0,0,1-3.031,7.431c-1.307.864-2.943,1.374-3.885,2.588-1.214,1.569-.949,3.932-2.409,5.3-3.038,2.843-6.535-.642-10.4-1.382-4.861-.934-10.588,2.738-14.453-.2-.906-.688-1.632-1.718-2.776-1.92-1.161-.2-2.3.548-3.477.46-2.208-.165-3.172-2.927-4.884-4.1-.193-.072-1.252-.536-1.423-.546-12.008-4.971-19.786-14.542-18.3-24.221,1.23-8.019,8.532-14.189,18.424-16.861.034-.106.028-.2.066-.308.87-2.523,2.915-4.183,5.4-5.388,4.569-2.211,8.427.723,12.527-.614,1.568-.514,2.433-2.128,3.916-2.822,1.922-.9,4.273-.008,6,1.216" transform="translate(-341.296 -132.592)" fill="#000543"/>
          <path id="Tracé_2655" data-name="Tracé 2655" d="M493.685,557c13.475.154,48.534.494,61.493-.677,15.156-1.369,11.128-29.929-4.149-30.34-30.371-.819-62.626,3.114-75.56,10.693-6.8,3.984-5.733,18.759,1.665,20.7,4.295,1.126,12.323.69,16.55-.373" transform="translate(-284.62 -317.827)" fill="#000543"/>
          <path id="Tracé_2656" data-name="Tracé 2656" d="M629.895,429.743c5.974-5.33-1.429-21.253,1.7-49.281,1.05-9.4-7.159-25.354-15.216-27.191-10.44-2.38-16.9-5.183-22.9-1.393a26.034,26.034,0,0,0-5.844,3.91c-7.054,6.27-1.827,16.8,1.465,25.468,8.537,22.476-.814,19.912.691,35.785.288,3.038-3.952,4.664-.691,4.97,11.264,1.058,20.132,11.336,35.494,9.167,1.368-.193,3.942-.539,5.07-1.546Z" transform="translate(-353.035 -211.545)" fill="#4db4e8"/>
          <path id="Tracé_2657" data-name="Tracé 2657" d="M588.4,421.241a.523.523,0,0,1-.518-.475,28.666,28.666,0,0,1,1.532-13.018c1.571-4.913,2.927-9.155-2.19-22.629-.334-.879-.688-1.776-1.047-2.687-3.229-8.2-6.889-17.488-.276-23.365a26.284,26.284,0,0,1,3.947-2.894.515.515,0,0,1,.712.184.529.529,0,0,1-.182.72,25.242,25.242,0,0,0-3.789,2.779c-6.062,5.388-2.546,14.314.555,22.188.36.915.715,1.815,1.05,2.7,5.25,13.821,3.773,18.44,2.21,23.33a27.393,27.393,0,0,0-1.487,12.593.524.524,0,0,1-.467.574l-.05,0" transform="translate(-351.877 -215.219)" fill="#2186c4"/>
          <path id="Tracé_2658" data-name="Tracé 2658" d="M606.566,312.353h2.166a.159.159,0,0,0,.158-.158v-.324a.159.159,0,0,0-.158-.158h-2.166a.159.159,0,0,0-.158.158v.324a.159.159,0,0,0,.158.158" transform="translate(-366.5 -188.392)" fill="#fff"/>
          <path id="Tracé_2659" data-name="Tracé 2659" d="M613.811,363.36q4.362-2.9,8.8-5.694c1.9-1.2,2.655-3.307,1.649-4.609a7.741,7.741,0,0,0-6.161-3.169c-3.04-.05-8.861,1.4-8.77,4.544a59.641,59.641,0,0,0,.623,8.063c.161,1.54,2.176,1.987,3.864.865" transform="translate(-368.262 -211.464)" fill="#ff9985"/>
          <path id="Tracé_2660" data-name="Tracé 2660" d="M586.7,269.426h11.871a.976.976,0,0,0,.968-.978v-6.4a1.928,1.928,0,0,0-1.912-1.933H586.7a4.654,4.654,0,0,0,0,9.307" transform="translate(-351.809 -157.21)" fill="#ffa27f"/>
          <path id="Tracé_2661" data-name="Tracé 2661" d="M628.424,291.745a12.583,12.583,0,0,1-2.384,4.3,8.718,8.718,0,0,1-2.479-6.083,4.325,4.325,0,0,0,1.272-3.4c-.007-2.032-.946-3.673-2.1-3.665a.9.9,0,0,0-.246.09l7.753-7.044c.911,3.588.655,8.645-1.818,15.807" transform="translate(-376.219 -166.771)" fill="#000543"/>
          <path id="Tracé_2662" data-name="Tracé 2662" d="M580.592,262.079a10.888,10.888,0,0,0-4.121,8.54l.042,8.78a10.824,10.824,0,1,0,21.648-.106l-.041-8.49Z" transform="translate(-348.407 -158.395)" fill="#ff9985"/>
          <path id="Tracé_2663" data-name="Tracé 2663" d="M618.04,323.747l-6.449-20.468a2.121,2.121,0,0,0-2.491-1.623l-7.187,2.316a2.153,2.153,0,0,0-1.1,2.78l6.432,20.414Z" transform="translate(-363.039 -182.27)" fill="#ff9985"/>
          <path id="Tracé_2664" data-name="Tracé 2664" d="M577.122,284.433h2.044a.732.732,0,0,1,0,1.414h-2.044a.732.732,0,0,1,0-1.414" transform="translate(-348.472 -171.905)" fill="#000543"/>
          <path id="Tracé_2665" data-name="Tracé 2665" d="M586.849,302.29l.086-.237a1.36,1.36,0,0,0,.852,1.177l1.176.386a.847.847,0,0,0,.99-.437l.024.134c.147.809-.489,1.513-1.167,1.291l-1.175-.386a1.49,1.49,0,0,1-.786-1.929" transform="translate(-354.62 -182.555)" fill="#fa694f"/>
          <path id="Tracé_2666" data-name="Tracé 2666" d="M603.276,290.772c0,.676.352,1.223.786,1.223s.786-.548.786-1.223-.352-1.223-.786-1.223-.786.548-.786,1.223" transform="translate(-364.607 -174.997)" fill="#000543"/>
          <path id="Tracé_2667" data-name="Tracé 2667" d="M603.22,289.55h-1.338l.824.834Z" transform="translate(-363.765 -174.998)" fill="#000543"/>
          <path id="Tracé_2668" data-name="Tracé 2668" d="M579.384,290.772c0,.676.352,1.223.786,1.223s.786-.548.786-1.223-.352-1.223-.786-1.223-.786.548-.786,1.223" transform="translate(-350.168 -174.997)" fill="#000543"/>
          <path id="Tracé_2669" data-name="Tracé 2669" d="M579.328,289.55H577.99l.825.834Z" transform="translate(-349.325 -174.998)" fill="#000543"/>
          <path id="Tracé_2670" data-name="Tracé 2670" d="M626.091,294.01c1.69-.009,3.069,1.654,3.079,3.713s-1.352,3.735-3.043,3.743-3.068-1.654-3.079-3.713,1.353-3.735,3.043-3.744" transform="translate(-376.557 -177.693)" fill="#ff9985"/>
          <path id="Tracé_2671" data-name="Tracé 2671" d="M598.623,266.023c1.283,1.97,1.972,4.3,3.3,6.239a10.878,10.878,0,0,0,3.273,3.114c1.716,1.05,4.1,1.516,5.6.156,1.364-1.242,1.358-3.469.706-5.214-1.356-3.628-4.813-6.032-6.489-9.518-1.222-2.542-1.579-5.75-3.827-7.406a7.52,7.52,0,0,0-4.927-1.1,39.232,39.232,0,0,0-6.106.992l-4.4.955a1.083,1.083,0,0,0-.478.188,1.126,1.126,0,0,0-.288.5c-.26.712-1.271,2.437-1.079,3.177.216.831,1.256.859,1.945.9a16.511,16.511,0,0,1,12.776,7.008" transform="translate(-352.884 -152.47)" fill="#000543"/>
          <path id="Tracé_2672" data-name="Tracé 2672" d="M601.219,280.12h2.632a.707.707,0,0,1,0,1.414h-2.632a.707.707,0,0,1,0-1.414" transform="translate(-362.942 -169.299)" fill="#000543"/>
          <path id="Tracé_2673" data-name="Tracé 2673" d="M545.733,558.672a8.552,8.552,0,0,0-15.245,1.31l-1.227,2.84a17.857,17.857,0,0,0-1.312,9.381c2.912,22.219,4.81,52.231,2.357,78.058l6.8.109,1.786-2.444c.817-2.981.367-.238,2.158-15.144h-.087c1.8-15.62,6.057-53.6,5.9-62.9-.068-3.942.957-7.926-1.126-11.2" transform="translate(-318.991 -335.176)" fill="#ff9985"/>
          <path id="Tracé_2674" data-name="Tracé 2674" d="M476.815,557.445c3.584-6,12.2-5.264,15.3,1.31l1.336,2.84a18.17,18.17,0,0,1,1.672,9.381c-2.059,22.219-2.806,52.232.639,78.058l-6.8.109-1.066-2.763c-5.013-20.929-11.58-68.423-11.777-77.73-.083-3.942-1.26-7.925.7-11.2" transform="translate(-287.499 -334.435)" fill="#ff9985"/>
          <path id="Tracé_2675" data-name="Tracé 2675" d="M624.762,441.4a2.332,2.332,0,0,1-1.986-2.372c-.074-1.386-.18-2.5-.265-3.408-.4-4.259-.229-4.466,4.686-5.527a122.948,122.948,0,0,0,17.414-5.053,3.16,3.16,0,0,0,1.59-1.762,5.4,5.4,0,0,0,.264-3.941c-1.72-6.072-3.573-11.953-5.208-17.142-1.6-5.083-2.982-9.472-3.91-12.959a.526.526,0,0,1,.367-.645.519.519,0,0,1,.638.371c.921,3.463,2.3,7.842,3.9,12.912,1.636,5.2,3.492,11.086,5.2,17.122a6.484,6.484,0,0,1-.3,4.714,4.123,4.123,0,0,1-2.189,2.321,124.141,124.141,0,0,1-17.545,5.09c-4.2.907-4.2.907-3.87,4.4.087.917.193,2.049.268,3.451.039.713.5,1.378.947,1.378,10.5-.219,34.363-2.685,36.964-8.589.13-.293.258-.564.379-.823,1.686-3.582,2.317-4.923-8.156-35.89l-.092-.277a27.421,27.421,0,0,0-2.782-6.142.529.529,0,0,1,.16-.726.515.515,0,0,1,.718.161,28.406,28.406,0,0,1,2.892,6.375l.088.268c10.612,31.373,9.93,32.819,8.113,36.682-.119.252-.244.515-.368.8-3.584,8.133-37.544,9.205-37.885,9.212Z" transform="translate(-376.148 -234.391)" fill="#2186c4"/>
          <path id="Tracé_2676" data-name="Tracé 2676" d="M595.348,509.339a1.274,1.274,0,0,0,.949,1.873c2.126.516,5.651.54,10.6-1.8l-.54-5.769c-1.955.309-8.373,1.612-11.005,5.7" transform="translate(-359.706 -304.388)" fill="#ff9985"/>
          <path id="Tracé_2677" data-name="Tracé 2677" d="M602.62,521.146a.351.351,0,0,1-.1-.685l3.344-1.068a.345.345,0,0,1,.435.229.35.35,0,0,1-.226.44l-3.344,1.068a.347.347,0,0,1-.1.017" transform="translate(-364.001 -313.901)" fill="#fa694f"/>
          <path id="Tracé_2678" data-name="Tracé 2678" d="M599.1,511.567a.346.346,0,0,1-.33-.245.35.35,0,0,1,.226-.44l2.312-.735a.345.345,0,0,1,.435.229.35.35,0,0,1-.226.44l-2.312.735a.351.351,0,0,1-.1.017" transform="translate(-361.874 -308.312)" fill="#fa694f"/>
          <path id="Tracé_2679" data-name="Tracé 2679" d="M596.776,519.32a.348.348,0,0,1-.324-.223.353.353,0,0,1,.2-.455l4.388-1.721a.348.348,0,0,1,.449.2.353.353,0,0,1-.2.455L596.9,519.3a.375.375,0,0,1-.126.023" transform="translate(-360.469 -312.403)" fill="#fa694f"/>
          <path id="Tracé_2680" data-name="Tracé 2680" d="M594.889,515.576a.347.347,0,0,1-.325-.227.354.354,0,0,1,.2-.452l4.109-1.554a.345.345,0,0,1,.447.205.353.353,0,0,1-.2.452l-4.109,1.554a.346.346,0,0,1-.122.022" transform="translate(-359.329 -310.24)" fill="#fa694f"/>
          <path id="Tracé_2681" data-name="Tracé 2681" d="M610.392,503.4l-7.867.319a.7.7,0,0,0,.053,1.394l5.959-.23a.7.7,0,0,0,.663-.724c-.011-.269.827-.542,1.2-.677Z" transform="translate(-363.753 -304.247)" fill="#ff9985"/>
          <path id="Tracé_2682" data-name="Tracé 2682" d="M589.23,313.908c.11.648,1,1.156,2.095,1.156s1.984-.508,2.095-1.156Z" transform="translate(-356.118 -189.719)" fill="#fff"/>
          <path id="Tracé_2683" data-name="Tracé 2683" d="M476.476,789.608l3.957-1.452c4.5,3.315,11.455,2.087,14.177-2.482,0,0,.068,7.683.068,7.683.136.489-.413.948-1.144.957l-15.246.2c-4.006.051-5.355-3.6-1.811-4.9" transform="translate(-286.735 -474.845)" fill="#d7e1fc"/>
          <path id="Tracé_2684" data-name="Tracé 2684" d="M489.6,786.075l10.222-3.753c.548-.2,2.96-.184,3.97,1.248-2.737,4.592-9.691,5.82-14.193,2.5" transform="translate(-295.906 -472.764)" fill="#ff9985"/>
          <path id="Tracé_2685" data-name="Tracé 2685" d="M508.62,789.163l3.957-1.452c4.5,3.315,11.455,2.087,14.177-2.482,0,0,.068,7.683.068,7.683.135.489-.413.948-1.144.957l-15.247.2c-4.006.051-5.355-3.6-1.811-4.9" transform="translate(-306.162 -474.576)" fill="#fff"/>
          <path id="Tracé_2686" data-name="Tracé 2686" d="M521.748,785.63l10.222-3.753c.547-.2,2.96-.183,3.97,1.249-2.737,4.592-9.691,5.82-14.193,2.5" transform="translate(-315.334 -472.494)" fill="#ff9985"/>
          <path id="Tracé_2687" data-name="Tracé 2687" d="M797.767,54.7c.084,2.723.467,5.793-1.064,7.85-1.789,2.4-5.185,2.049-7.5,3.776a5.375,5.375,0,0,0-1.366,1.5h-3.408c.316-2.561,1.359-5.144,2.549-6.236,1.133-1.039,2.616-1.542,3.633-2.727,1.821-2.12,1.548-5.558,2.294-8.416,1.184-4.535,4.962-7.493,8.776-9.312-2.865,3.6-4.07,8.661-3.919,13.568" transform="translate(-474.095 -24.858)" fill="#63a5d3"/>
          <path id="Tracé_2688" data-name="Tracé 2688" d="M782.28,38.583a15.466,15.466,0,0,0-2.234,4.38h-4.368c-.114-1.359-.209-2.532-.27-3.352-.39-5.269-.649-11.039,2.412-15.308,1.714-2.389,4.322-4.052,5.791-6.6a14.038,14.038,0,0,0,1.558-6.6,24.228,24.228,0,0,0-.538-6.068c-.315-1.4-.882-3.338-1.3-5.025a37.664,37.664,0,0,1,6.534,11.837c1.731,5.085,2.09,10.81.095,15.792-1.671,4.173-4.822,7.511-7.68,10.953" transform="translate(-468.502)" fill="#9ad0f4"/>
          <path id="Tracé_2689" data-name="Tracé 2689" d="M768.785,50.277H763.78c-.673-4.67-2.829-9.121-5.064-13.324-1.947-3.658-4.044-7.55-3.727-11.7.416-5.454,4.809-9.6,8.9-13.153-2.153,3.75-1.46,8.542.121,12.576s3.97,7.735,5.187,11.9a22.7,22.7,0,0,1,.007,12.388c-.123.44-.264.877-.413,1.313" transform="translate(-456.28 -7.315)" fill="#63a5d3"/>
          <path id="Tracé_2690" data-name="Tracé 2690" d="M748.168,69.75a5.95,5.95,0,0,0-.6-.4c-2.821-1.607-6.733-.991-9-3.333-1.942-2.005-1.746-5.2-1.869-8.009-.222-5.067-2.03-10.2-5.644-13.689,4.572,1.591,9.195,4.357,10.935,8.942,1.1,2.89,1.059,6.453,3.342,8.5,1.276,1.145,3.037,1.553,4.435,2.539a10.6,10.6,0,0,1,3.264,5.444Z" transform="translate(-441.832 -26.788)" fill="#9ad0f4"/>
          <path id="Tracé_2691" data-name="Tracé 2691" d="M779.674,106.554H767.424a1.249,1.249,0,0,0-1.243,1.256v6.34a1.249,1.249,0,0,0,1.243,1.256h12.251a1.249,1.249,0,0,0,1.242-1.256v-6.34a1.249,1.249,0,0,0-1.242-1.256" transform="translate(-463.064 -64.399)" fill="#fff"/>
        </g>
      </g>
    </g>
  </g>
</svg>
