<?xml version="1.0" encoding="utf-8"?>
<!-- Generator: Adobe Illustrator 27.2.0, SVG Export Plug-In . SVG Version: 6.00 Build 0)  -->
<svg version="1.1" id="Calque_1" xmlns="http://www.w3.org/2000/svg" xmlns:xlink="http://www.w3.org/1999/xlink" x="0px" y="0px"
	 viewBox="0 0 388 359.6" style="enable-background:new 0 0 388 359.6;" xml:space="preserve">
<style type="text/css">
	.st0{fill-rule:evenodd;clip-rule:evenodd;fill:#D7E0F4;}
	.st1{fill-rule:evenodd;clip-rule:evenodd;fill:#373F41;}
	.st2{fill-rule:evenodd;clip-rule:evenodd;fill:#FFFFFF;}
	.st3{fill-rule:evenodd;clip-rule:evenodd;fill:#717171;}
	.st4{fill-rule:evenodd;clip-rule:evenodd;fill:#FEC6AD;}
	.st5{fill-rule:evenodd;clip-rule:evenodd;fill:#2E3537;}
	.st6{fill-rule:evenodd;clip-rule:evenodd;fill:#118793;}
	.st7{clip-path:url(#SVGID_00000163030633315143591450000012494782623675529394_);}
	.st8{fill-rule:evenodd;clip-rule:evenodd;fill:#F5F9FC;}
	.st9{clip-path:url(#SVGID_00000155108008603139955310000007479169239247661728_);}
	.st10{fill-rule:evenodd;clip-rule:evenodd;}
	.st11{fill-rule:evenodd;clip-rule:evenodd;fill:#69658D;}
	.st12{fill-rule:evenodd;clip-rule:evenodd;fill:#535170;}
	.st13{fill-rule:evenodd;clip-rule:evenodd;fill:#3C3A51;}
	.st14{fill-rule:evenodd;clip-rule:evenodd;fill:#B3CEDB;}
	.st15{clip-path:url(#SVGID_00000093867274710373280570000006245729722318356108_);}
	.st16{fill-rule:evenodd;clip-rule:evenodd;fill:#FD9C71;}
	.st17{fill-rule:evenodd;clip-rule:evenodd;fill:#AFAFAF;}
	.st18{fill-rule:evenodd;clip-rule:evenodd;fill:#CDDDE8;}
	.st19{fill-rule:evenodd;clip-rule:evenodd;fill:#74ABE1;}
	.st20{clip-path:url(#SVGID_00000129893664066157732280000002722250577820832641_);}
	.st21{fill-rule:evenodd;clip-rule:evenodd;fill:#386C81;}
	.st22{clip-path:url(#SVGID_00000146457939105823751600000000533692653488536743_);}
	.st23{fill-rule:evenodd;clip-rule:evenodd;fill:#DBE8EE;}
	.st24{clip-path:url(#SVGID_00000078015479778903130790000003944843674922596026_);}
	.st25{clip-path:url(#SVGID_00000110447513574984085380000012604042072923490211_);}
	.st26{fill-rule:evenodd;clip-rule:evenodd;fill:#FD905F;}
	.st27{fill-rule:evenodd;clip-rule:evenodd;fill:#16110D;}
	.st28{fill-rule:evenodd;clip-rule:evenodd;fill:#0B1E64;}
	.st29{fill-rule:evenodd;clip-rule:evenodd;fill:#303D5C;}
	.st30{fill-rule:evenodd;clip-rule:evenodd;fill:#FE9E70;}
	.st31{fill-rule:evenodd;clip-rule:evenodd;fill:#FEAB83;}
	.st32{fill-rule:evenodd;clip-rule:evenodd;fill:#1394A1;}
	.st33{fill-rule:evenodd;clip-rule:evenodd;fill:#E28F8B;}
	.st34{clip-path:url(#SVGID_00000023262019482092196420000015699762947817967014_);}
	.st35{fill-rule:evenodd;clip-rule:evenodd;fill:#013D61;}
	.st36{fill-rule:evenodd;clip-rule:evenodd;fill:#16ACBB;}
	.st37{fill-rule:evenodd;clip-rule:evenodd;fill:#F4A37C;}
	.st38{clip-path:url(#SVGID_00000155134358681005374850000009694099399803080863_);}
	.st39{clip-path:url(#SVGID_00000001627791414813277320000009699160086977133953_);}
	.st40{fill-rule:evenodd;clip-rule:evenodd;fill:#3F3D55;}
	.st41{fill-rule:evenodd;clip-rule:evenodd;fill:#12909D;}
	.st42{fill-rule:evenodd;clip-rule:evenodd;fill:#128F9B;}
	.st43{clip-path:url(#SVGID_00000093136467358957618100000003810713435020861614_);}
	.st44{fill-rule:evenodd;clip-rule:evenodd;fill:#372710;}
	.st45{clip-path:url(#SVGID_00000063601116055891153150000011664364166575175580_);}
	.st46{fill-rule:evenodd;clip-rule:evenodd;fill:#206ADE;}
	.st47{fill-rule:evenodd;clip-rule:evenodd;fill:#F4F0ED;}
	.st48{fill-rule:evenodd;clip-rule:evenodd;fill:#BDD3D8;}
</style>
<g id="Groupe_1" transform="translate(-309.64 -136.401)">
	<path id="Tracé_422" class="st0" d="M312.5,335.6c-33,79.6,225.6,153.8,226.6,154.1c13.2,3.5,26.8,5.5,40.4,6.1
		c39.7,2,71.9-13.7,92-48.7c21.7-37.8,27.2-83.9,25.9-126.8C695,237,633.3,97.5,526.7,146.6c-51.3,23.6-73.7,79-115.1,114.2
		C380.2,287.4,329.7,294.3,312.5,335.6L312.5,335.6z"/>
	<path id="Tracé_423" class="st1" d="M565.5,285.1c0,0,0.5,2.7-3.6,7.4c-4.1,4.7-5.6,5.6-6.3,12l12.6-2.2l2.7-21.1L565.5,285.1z"/>
	<path id="Tracé_424" class="st2" d="M545.1,348c-2.9-1.1-5.7-2.3-8.4-3.8c-0.7-0.8,1.2-1.3,1.2-2.9c5.5-8.1,16.6-49.2,29.9-50.6
		c3.3-0.3,9.9,2.4-1.7,26.4c0,0-6.8,21.8-16.1,30C548.6,348.4,546.7,348.7,545.1,348L545.1,348z"/>
	<path id="Tracé_425" class="st3" d="M544.7,371.9h34.4c0,0,0,0.6,0,1.7c0,1.9,0,5.1-0.4,9.2c0,0.2,0,0.4,0,0.6
		c-0.4,4.8-1.1,9.6-2.2,14.4c0,0.2-0.1,0.4-0.1,0.6c-0.6,2.7-1.4,5.4-2.3,8.1c-0.3,1-0.7,2.2-1.1,3.4h-30.7
		C543,397,543.8,384.3,544.7,371.9L544.7,371.9z"/>
	<path id="Tracé_426" class="st4" d="M544.7,371.9h34.4c0,0,0,0.6,0,1.7c0,1.9,0,5.1-0.4,9.2c0,0.2,0,0.4,0,0.6
		c-0.4,4.8-1.1,9.6-2.2,14.4c0,0.2-0.1,0.4-0.1,0.6c-0.6,2.7-1.4,5.4-2.3,8.1c-0.3,1-0.7,2.2-1.1,3.4h-30.7
		C543,397,543.8,384.3,544.7,371.9L544.7,371.9z"/>
	<path id="Tracé_427" class="st5" d="M544.7,371.9h34.4c0,0,0,0.6,0,1.7c0,1.9,0,5.1-0.4,9.2c0,0.2,0,0.4,0,0.6
		c-0.4,4.8-1.1,9.6-2.2,14.4c0,0.2-0.1,0.4-0.1,0.6c-0.6,2.7-1.4,5.4-2.3,8.1c-0.3,1-0.7,2.2-1.1,3.4h-31
		C542.8,397.2,543.7,384.6,544.7,371.9L544.7,371.9z"/>
	<path id="Tracé_428" class="st4" d="M583,381.8c2.2,7.7,1.5,17,0,28.1h-25.7c-2.1-19.7-3.4-35-3.6-37.6c0-0.2,0-0.4,0-0.4
		l25.3,1.4c0.1,0.1,0.1,0.2,0.2,0.3c1.7,2.4,2.9,5.1,3.7,8C583,381.6,583,381.7,583,381.8z"/>
	<path id="Tracé_429" class="st1" d="M583,381.7c2.3,7.7,2,17,0.8,28.1h-32c-4-21.6-7.1-38-7.1-38l34.3,1.4
		c0.1,0.1,0.1,0.2,0.2,0.3c1.7,2.4,2.9,5.1,3.8,8C583,381.6,583,381.7,583,381.7L583,381.7z"/>
	<path id="Tracé_430" class="st6" d="M543.2,373.2c0,0-5.6,15.6,37.6,3.3c-0.4-3.5-1.2-6.7-1.8-10c-0.5-3.1-1-6.3-1.3-9.5
		c1-11.2,2.9-22.3,5.7-33.2c0,0,10.4-16.8,3.6-27.9c-1.4-2.3-5.5-4.7-8.3-6.3c0,0-8.7-0.7-12.9,1.3c-2.9,1.4-15.5,11.4-20.9,43
		C545,334,541.1,362.9,543.2,373.2L543.2,373.2z"/>
	<path id="Tracé_431" class="st2" d="M571.5,289.6c0,0-7.6,3.7-10.5,19.8c-2,11.5-13,74.6-9.9,96.4c0,0-7.5,3.6-10.8-4.5
		c0,0-0.2-24.4,2.6-53c1.6-16.2,5.1-31.5,9.6-41C562.1,287.4,571.5,289.6,571.5,289.6L571.5,289.6z"/>
	<g id="Groupe_40">
		<g>
			<defs>
				<path id="SVGID_1_" d="M571.5,289.6c0,0-7.6,3.7-10.5,19.8c-2,11.5-13,74.6-9.9,96.4c0,0-7.5,3.6-10.8-4.5c0,0-0.2-24.4,2.6-53
					c1.6-16.2,5.1-31.5,9.6-41C562.1,287.4,571.5,289.6,571.5,289.6L571.5,289.6z"/>
			</defs>
			<clipPath id="SVGID_00000078004686305892576320000002204299428939099300_">
				<use xlink:href="#SVGID_1_"  style="overflow:visible;"/>
			</clipPath>
			<g id="Groupe_39" style="clip-path:url(#SVGID_00000078004686305892576320000002204299428939099300_);">
				<path id="Tracé_432" class="st8" d="M570.6,289.2c0,0-7,0.6-9.6,6.4c-1.7,3.9-3.1,8-4.1,12.2l2.6,2.1l-2.4,0.9
					c0,0-1.9,11.9,2.8,21.4L570.6,289.2L570.6,289.2z"/>
			</g>
		</g>
	</g>
	<path id="Tracé_434" class="st2" d="M576.4,289.3c0.3,0.7,0.5,1.6,0.5,2.4c0.1,2.1-1.3,5.9-3.7,10.9c-4.8,10.1-8.9,14.4-9.5,24
		c-0.6,9.6-10.4,63.9-6.2,82.2c0,0,21,4.6,31.8-5.5c0,0-2.4-24.3-4.9-36.1c-4.2-19.5,4.5-28.5,6.7-42c2.2-13.5,1.7-24.7-2.7-30.4
		C583.8,289,576.4,289.3,576.4,289.3L576.4,289.3z"/>
	<g id="Groupe_42">
		<g>
			<defs>
				<path id="SVGID_00000016772835898376089730000015874328016488948140_" d="M576.4,289.3c0.3,0.7,0.5,1.6,0.5,2.4
					c0.1,2.1-1.3,5.9-3.7,10.9c-4.8,10.1-8.9,14.4-9.5,24c-0.6,9.6-10.4,63.9-6.2,82.2c0,0,21,4.6,31.8-5.5c0,0-2.4-24.3-4.9-36.1
					c-4.2-19.5,4.5-28.5,6.7-42c2.2-13.5,1.7-24.7-2.7-30.4C583.8,289,576.4,289.3,576.4,289.3L576.4,289.3z"/>
			</defs>
			<clipPath id="SVGID_00000139995720163866633950000001144092163335984028_">
				<use xlink:href="#SVGID_00000016772835898376089730000015874328016488948140_"  style="overflow:visible;"/>
			</clipPath>
			<g id="Groupe_41" style="clip-path:url(#SVGID_00000139995720163866633950000001144092163335984028_);">
				<path id="Tracé_435" class="st8" d="M575.4,289c3.5-0.1,6.4,2.7,6.5,6.2c0,0.1,0,0.2,0,0.4c0.2,3.7-0.8,7.4-3,10.5l-5.5,1.3
					l2.8,1.5c0,0-8.6,13.2-13.2,21C559.2,317.8,567.4,301.2,575.4,289L575.4,289z"/>
			</g>
		</g>
	</g>
	<path id="Tracé_437" class="st10" d="M569.9,290.1c0,0-2.8,0.3-6.2,4.7c-3.6,4.6-7.7,13.5-9.6,30.7l-1.2-0.1
		c3.9-35.4,17.1-36.4,17.1-36.4L569.9,290.1L569.9,290.1z"/>
	<path id="Tracé_438" class="st11" d="M553.7,323.4c-1.6,0-3,1.3-3,3c0,1.6,1.3,3,3,3c1.6,0,3-1.3,3-3
		C556.6,324.7,555.3,323.4,553.7,323.4z"/>
	<path id="Tracé_439" class="st12" d="M553.7,324.1c-0.9,0-1.7,0.8-1.7,1.7s0.8,1.7,1.7,1.7c0.9,0,1.7-0.8,1.7-1.7
		C555.3,324.9,554.6,324.1,553.7,324.1z"/>
	<path id="Tracé_440" class="st13" d="M553.7,324.4c-0.8,0-1.5,0.6-1.5,1.5c0,0.8,0.6,1.5,1.5,1.5c0.8,0,1.5-0.6,1.5-1.5
		c0,0,0,0,0,0C555.1,325,554.5,324.4,553.7,324.4z"/>
	<path id="Tracé_441" class="st14" d="M583.1,381.7c-1.4,1.3-5,1.9-11.3,2.9c0,0,0.5,11.9,4.6,13.1c3.7,1,4.2,0.2,5.9-0.8
		c-0.3,0.6-0.9,1.1-1.5,1.4c-10.3,3.5-10.1-15-10.1-15c4.2,0.4,8.5-0.1,12.4-1.7C583,381.6,583,381.6,583.1,381.7L583.1,381.7z"/>
	<path id="Tracé_442" class="st4" d="M570,280.1l-0.6,10.5c-11.6,19.3,0.2,17.6,7.4,0l0.1-14.6L570,280.1L570,280.1z"/>
	<g id="Groupe_44">
		<g>
			<defs>
				<path id="SVGID_00000023282037233829561930000008652700522360334762_" d="M570,280.1l-0.6,10.5c-11.6,19.3,0.2,17.6,7.4,0
					l0.1-14.6L570,280.1L570,280.1z"/>
			</defs>
			<clipPath id="SVGID_00000112620366948654297590000010342781090671881380_">
				<use xlink:href="#SVGID_00000023282037233829561930000008652700522360334762_"  style="overflow:visible;"/>
			</clipPath>
			<g id="Groupe_43" style="clip-path:url(#SVGID_00000112620366948654297590000010342781090671881380_);">
				<path id="Tracé_443" class="st16" d="M577.2,281.9c-0.2,0.1-0.3,0.4-0.4,0.6c-0.3,0.5-0.6,1-1,1.4c-1.5,1.8-3.3,3.2-5.3,4.4
					c-0.5,0.3-1.6,1.2-2.3,1c-0.4-0.1-0.4-0.7-0.4-1c0-1.1,0.2-2.2,0.4-3.2c0.3-1.5,0.7-3,1.2-4.4c0.2-0.7,0.6-1.2,1.2-1.6
					c1-0.3,2-0.4,3-0.3"/>
			</g>
		</g>
	</g>
	<path id="Tracé_445" class="st10" d="M576.6,288.1c0,0,2.2,0.5,3.1,3.8c0.9,2.9,1,8.4-1.9,18.6l-1.1-0.3c2.8-9.9,2.7-15.2,1.9-18
		c-0.7-2.5-1.9-3-1.9-3L576.6,288.1L576.6,288.1z"/>
	<path id="Tracé_446" class="st17" d="M580,322.5c0,0-1.9,8.4-6.2,14c-2.9,3.8-6.9,6.4-12.2,4.3c-0.2-0.1-0.3-0.3-0.2-0.5
		c0.1-0.2,0.3-0.3,0.5-0.2l0,0c4.9,1.9,8.6-0.5,11.4-4.1c4.2-5.5,6.1-13.8,6.1-13.8c0.1-0.2,0.3-0.3,0.4-0.2
		C579.9,322.2,580,322.4,580,322.5L580,322.5z"/>
	<path id="Tracé_447" class="st17" d="M568.7,320.4c0,0-2.6,8.2-1.9,14.9c0.4,4.4,2.3,8.1,7.2,8.5c0.2,0,0.3,0.2,0.3,0.4
		c0,0.2-0.2,0.3-0.4,0.3c-5.3-0.4-7.4-4.4-7.8-9.1c-0.7-6.9,1.9-15.2,1.9-15.2c0.1-0.2,0.3-0.3,0.4-0.2
		C568.7,320,568.8,320.2,568.7,320.4L568.7,320.4z"/>
	<path id="Tracé_448" class="st13" d="M574,343.6c-0.3,0-0.6,0.3-0.6,0.6c0,0.3,0.3,0.6,0.6,0.6s0.6-0.3,0.6-0.6
		C574.5,343.9,574.3,343.6,574,343.6z"/>
	<path id="Tracé_449" class="st13" d="M561.8,340c-0.3,0-0.6,0.3-0.6,0.6c0,0.3,0.3,0.6,0.6,0.6s0.6-0.3,0.6-0.6
		C562.3,340.3,562.1,340,561.8,340z"/>
	<path id="Tracé_450" class="st10" d="M567.8,320.5c0.5-2.7,1.5-5.3,3-7.6c1.5-2.2,3.8-3.8,6.8-2.8c2.5,0.7,4.1,3,4.1,5.6
		c0,2.4-0.5,4.8-1.4,7.1l-1.1-0.5c0.9-2.1,1.3-4.3,1.3-6.5c0.1-2.1-1.3-3.9-3.2-4.5c-2.5-0.8-4.3,0.6-5.5,2.4
		c-1.4,2.2-2.3,4.6-2.8,7.2L567.8,320.5L567.8,320.5z"/>
	<path id="Tracé_451" class="st1" d="M543.4,327.1l-29.2-2l17.7,41.9l29.2,2L543.4,327.1L543.4,327.1z"/>
	<path id="Tracé_452" class="st4" d="M519.6,322c0,0-5.8-5.3-9-5.1c0,0-2.4,0.3-1.7,1.5c0,0-1.4,1-0.8,1.9c0,0-1,1.4-0.1,2.3
		s-0.9,1.6,0.6,2.3c0,0,11.1,1.4,12.7,0.3L519.6,322L519.6,322z"/>
	<path id="Tracé_453" class="st2" d="M561.6,328.7c18.5-1.7,4.3,11.8,3.9,11.8c-12.4-1.9-32.8-8.5-48.5-14.9c0.1-1.6,1.1-3,2.6-3.6
		C519.7,322,559.7,328.9,561.6,328.7L561.6,328.7z"/>
	<path id="Tracé_454" class="st2" d="M560.2,338c-1.8-1.7-3.5-6-2.9-6.9c4.1-5.6,11.6-17.7,25.2-25.9c6.6-3.9,14.2,5.5,6.8,13.2
		c-2.9,3-14.2,16.4-23.6,22C565,341,562,339.7,560.2,338L560.2,338z"/>
	<path id="Tracé_455" class="st4" d="M523.1,347c0.1-0.1,0.2,0.1,0.3,0.1c0.2,0.1,0.4,0.1,0.7,0.2c1.1,0.2,2.2-0.1,3,1
		c0.4,0.5,0.6,1.1,1,1.7c0.6,0.9,1.2,1.6,1.7,2.5c0.4,0.6,0.7,1.3,0.7,2c-0.2,0.6-0.6,1-1.1,1.3c-0.8,0.3-1.6,0.3-2.4,0
		c-0.7-0.5-1.4-1.1-2-1.8C524.3,353.2,522.9,348.7,523.1,347L523.1,347z"/>
	<path id="Tracé_456" class="st1" d="M574.8,281.5c0,0,1.7,1.4,1.3,7.3c-0.4,5.6-1.2,11.1-2.5,16.5c-0.8,2.6-1.4,5.7,3.1,5.2
		s10.3-2.3,11-10.3c0.6-8,0.3-10.6,0.8-15s4.6-19.8-7.3-28c-11.9-8.2-22.4,4.6-22.9,7.5c-0.6,2.9,1,6.1,3.8,6.8
		C564.7,272.2,574.8,281.5,574.8,281.5L574.8,281.5z"/>
	<path id="Tracé_457" class="st4" d="M561.6,264.9c0,0-4.5,11-3.2,17.8s7.6,7,17.3,0s6.7-17.8-0.8-20.2
		C570.3,261.1,565.4,262,561.6,264.9L561.6,264.9z"/>
	<path id="Tracé_458" class="st1" d="M576.8,265.1c0,0-9.3,5.9-15.7,1.2c0,0-3.3-4.7,5.6-6.2c8.9-1.4,22.3,4.6,14.2,19.2
		c-2.1,3.7-4.5,3.9-4.5,3.9c-2.5-2-4-5.1-3.9-8.3C572.5,269.4,576.8,265.1,576.8,265.1L576.8,265.1z"/>
	<path id="Tracé_459" class="st4" d="M578.9,277.7c0,0,0.1-2.9,1.5-4.3c0.6-0.6,2.5-0.7,2.1,1.3
		C582.3,275.6,580.9,276.8,578.9,277.7z"/>
	<path id="Tracé_460" class="st18" d="M452.2,280.4c6.1-0.8,27.8,46.3,27.2,54.2c0.5,6-3.1,6.3-5.6,4.9c0,0-21.9-33.6-23.6-44
		C450.2,295.4,446.9,281.2,452.2,280.4z"/>
	<path id="Tracé_461" class="st5" d="M469,421h-28.1c-0.7-3.2-1.5-6.3-2.6-9.4c-3.3-9.1-6.5-19.6-8.8-27.8c0-0.1,0-0.1-0.1-0.2
		c-0.2-0.8-0.4-1.5-0.6-2.2c-1.2-4.2-2-7.5-2.5-9.3v0c-0.2-0.9-0.4-1.5-0.4-1.5l43.7,6.1L469,421L469,421z"/>
	<path id="Tracé_462" class="st1" d="M426.1,372.2l33.9,0.1l-0.6,3.1c-1.4,7.1-4.8,25.2-8.7,45.6H422c0.4-18.6,1.3-37.1,3.6-47.1
		C425.8,373.3,425.9,372.8,426.1,372.2C426.1,372.2,426.1,372.2,426.1,372.2z"/>
	<path id="Tracé_463" class="st19" d="M442.3,342c0,0-10.7-47.8-3-57.8c7.7-10,23.1,1,21.8,21.2s-2.4,21.1-4,30
		C455.8,342.7,451.4,345,442.3,342z"/>
	<g id="Groupe_46">
		<g>
			<defs>
				<path id="SVGID_00000071539950408511038060000005032957505622041492_" d="M442.3,342c0,0-10.7-47.8-3-57.8
					c7.7-10,23.1,1,21.8,21.2s-2.4,21.1-4,30C455.8,342.7,451.4,345,442.3,342z"/>
			</defs>
			<clipPath id="SVGID_00000023273891990926471440000004710640967298687650_">
				<use xlink:href="#SVGID_00000071539950408511038060000005032957505622041492_"  style="overflow:visible;"/>
			</clipPath>
			<g id="Groupe_45" style="clip-path:url(#SVGID_00000023273891990926471440000004710640967298687650_);">
				<path id="Tracé_464" class="st21" d="M456.1,310.2c-0.3,1.1-0.8,2.2-1.3,3.3c-1.2,3.5-2.2,7-3,10.6c-0.8,3.6-1.9,8-0.2,11.6
					c0.9,1.9,2.3,2.1,4.1,2.8c0.5,0.2,0.7,0.5,0.4,1c-1,1.3-2.3,2.3-3.7,2.9c-4.6,2.5-11,3.2-13.8-2.1c-2.8-5.3-0.9-12,1-17.3
					c1.6-4.1,3.6-8.1,6-11.7c2-3,4.2-5.6,5.1-9"/>
			</g>
		</g>
	</g>
	<path id="Tracé_466" class="st6" d="M423,285.6c4.1-3.4,8.7-6.1,13.8-7.8c3.5-1.1,6.6-2.2,10.6-0.2c12.5,6.3,17.3,18.2,17.9,33
		c1.5,38.7,7.4,45.1,4.2,71.4c2.2,6.1-45.2,12.6-46.3-1.9c0,0,3.8-31.5,1.4-46.5C418.8,315.2,416.6,296.6,423,285.6L423,285.6z"/>
	<path id="Tracé_467" class="st2" d="M436.2,276.8c-0.4,0.7-0.6,1.5-0.6,2.4c-0.1,2.1,1.5,5.8,4.3,10.8c5.5,10,10.4,14.3,11.1,23.9
		c0.7,9.5,7.4,75.5,6.5,97.9c0,0-30.9,6.4-43.4-3.7c0,0,3.2-25.3,6.9-48.5c4.1-25.8,0.6-33.7-2-47.1c-2.6-13.4-2-24.6,3.2-30.1
		C427.5,276.5,436.2,276.8,436.2,276.8L436.2,276.8z"/>
	<g id="Groupe_48">
		<g>
			<defs>
				<path id="SVGID_00000101074740481493635530000006134703126269917621_" d="M436.2,276.8c-0.4,0.7-0.6,1.5-0.6,2.4
					c-0.1,2.1,1.5,5.8,4.3,10.8c5.5,10,10.4,14.3,11.1,23.9c0.7,9.5,7.4,75.5,6.5,97.9c0,0-30.9,6.4-43.4-3.7c0,0,3.2-25.3,6.9-48.5
					c4.1-25.8,0.6-33.7-2-47.1c-2.6-13.4-2-24.6,3.2-30.1C427.5,276.5,436.2,276.8,436.2,276.8L436.2,276.8z"/>
			</defs>
			<clipPath id="SVGID_00000132049269093682198340000011853178773230794936_">
				<use xlink:href="#SVGID_00000101074740481493635530000006134703126269917621_"  style="overflow:visible;"/>
			</clipPath>
			<g id="Groupe_47" style="clip-path:url(#SVGID_00000132049269093682198340000011853178773230794936_);">
				<path id="Tracé_468" class="st8" d="M437.3,276.6c0,0-7.3-0.1-7.5,6.5c-0.2,3.8,1,7.5,3.4,10.4l6.4,1.3l-3.2,1.5
					c0,0,10.5,15.2,15.9,22.9C456.7,307.2,446.7,288.7,437.3,276.6L437.3,276.6z"/>
			</g>
		</g>
	</g>
	<path id="Tracé_470" class="st23" d="M445,276.9c0,0,7.6,3.8,10.3,21c2,12.2,8.3,86.2,7.6,111.9c0,0,5.3,2.5,10.7-3.7
		c0,0,0-42.6-2.6-72.9c-1.5-17.1-2.7-27.5-7.2-37.6C454.5,274.5,445.1,276.9,445,276.9L445,276.9z"/>
	<g id="Groupe_50">
		<g>
			<defs>
				<path id="SVGID_00000139990841811565418100000001604151038855278501_" d="M445,276.9c0,0,7.6,3.8,10.3,21
					c2,12.2,8.3,86.2,7.6,111.9c0,0,5.3,2.5,10.7-3.7c0,0,0-42.6-2.6-72.9c-1.5-17.1-2.7-27.5-7.2-37.6
					C454.5,274.5,445.1,276.9,445,276.9L445,276.9z"/>
			</defs>
			<clipPath id="SVGID_00000093144106736175743030000011057800288631403667_">
				<use xlink:href="#SVGID_00000139990841811565418100000001604151038855278501_"  style="overflow:visible;"/>
			</clipPath>
			<g id="Groupe_49" style="clip-path:url(#SVGID_00000093144106736175743030000011057800288631403667_);">
				<path id="Tracé_471" class="st8" d="M445.9,276.4c0,0,7,0.6,9.5,6.7c1.7,4.2,3,8.5,4,12.9l-2.6,2.3l2.3,1
					c0,0,1.9,12.6-2.9,22.7L445.9,276.4L445.9,276.4z"/>
			</g>
		</g>
	</g>
	<path id="Tracé_473" class="st14" d="M428.4,368.6c1.6,1.2,5.9,1.9,13.2,2.9c0,0-0.6,11.8-5.4,13c-4.4,1-4.9,0.2-6.9-0.8
		c0.4,0.7,1.1,1.1,1.8,1.4c12,3.5,11.8-14.9,11.8-14.9c-4.9,0.4-9.9-0.1-14.5-1.7C428.4,368.5,428.4,368.5,428.4,368.6L428.4,368.6z
		"/>
	<path id="Tracé_474" class="st4" d="M436.7,267.9c0,0,0,8-0.7,10.4c-0.7,2.2,10.8,8.1,12.2,7.3c1.2-0.7,1.8-5.5-2.2-7.9
		c-0.6-3.1-0.7-6.4-0.4-9.5L436.7,267.9L436.7,267.9z"/>
	<g id="Groupe_52">
		<g>
			<defs>
				<path id="SVGID_00000056398718236264169440000002729440538714371204_" d="M436.7,267.9c0,0,0,8-0.7,10.4
					c-0.7,2.2,10.8,8.1,12.2,7.3c1.2-0.7,1.8-5.5-2.2-7.9c-0.6-3.1-0.7-6.4-0.4-9.5L436.7,267.9L436.7,267.9z"/>
			</defs>
			<clipPath id="SVGID_00000073701895135824598760000010382457356016772530_">
				<use xlink:href="#SVGID_00000056398718236264169440000002729440538714371204_"  style="overflow:visible;"/>
			</clipPath>
			<g id="Groupe_51" style="clip-path:url(#SVGID_00000073701895135824598760000010382457356016772530_);">
				<path id="Tracé_475" class="st26" d="M436.2,269.1c0.1,0,0.1,0.2,0.2,0.3c0.1,0.2,0.3,0.5,0.5,0.7c0.5,0.8,1.1,1.6,1.8,2.3
					c1.8,2,4.2,3.4,6.9,3.9c0.5,0.1,1.1,0.3,1.6,0.4c0.3,0.1,0.6,0.1,0.9,0.1c0.2,0,0.2-0.3,0.2-0.5c0-0.6-0.1-1.1-0.1-1.7
					c-0.1-1.7-0.2-3.4-0.2-5c0-0.5,0-1,0-1.5c0-0.2,0-0.4-0.1-0.6c-0.2-0.2-0.8-0.2-1-0.3c-0.9-0.1-1.8-0.2-2.6-0.3
					c-1.8-0.3-3.6-0.6-5.4-1c-1.5-0.4-3-0.6-4.5-0.6"/>
			</g>
		</g>
	</g>
	<path id="Tracé_477" class="st27" d="M455.1,253.5c0,0,3.1-1.5,1.4-6.5c-1.6-5-0.6-4.3-2.6-5.4c-2-1-5.5-1.2-9.7-1.9
		c-3.2-0.5-5.5,2.2-7.1,2.7c-1.6,0.5-3.5-0.1-5,3.7s-3.3,9.8,1.1,18.1c1.2,2.2,2.7,4.2,4.6,5.8c3.4,2.8,6.5,2.2,9.3,1.2
		C451.2,269.8,455.3,254,455.1,253.5L455.1,253.5z"/>
	<path id="Tracé_478" class="st4" d="M455,250.1c0,0,1.6,11.9,0.7,17.8c-0.9,5.9-3.8,7.4-9.6,6c-5.8-1.5-8.9-3.9-9.4-6.2
		c-0.1-0.4-0.2-2.5-0.4-5.1c-0.3-4.9-2-11.5-0.5-13.6C437.9,245.8,452.2,239.8,455,250.1L455,250.1z"/>
	<path id="Tracé_479" class="st27" d="M437,249.9c0,0,2.8,5.5-0.2,9.9c0,0-3.9-2.3-3.7-6.3c0.2-3.9-1.7-7.2,6.4-9
		c8.1-1.9,16.9-4.5,16.2,6.9c0,0-2,0.5-4.9-1.9C447.8,247.3,440.1,247.4,437,249.9z"/>
	<path id="Tracé_480" class="st4" d="M436.8,259.9c0,0-1.8-3.6-3.2-2.5s1.9,5.7,3.2,6.4C438,264.4,436.8,259.9,436.8,259.9z"/>
	<path id="Tracé_481" class="st1" d="M466.4,318.8l31.9-2.2l-19.3,45.8l-31.9,2.2L466.4,318.8L466.4,318.8z"/>
	<path id="Tracé_482" class="st4" d="M428.9,371.5c0,0,10.5,6.1,11.7,10.1c0,0,0.8,3-1,2.7c0,0-0.6,2.1-1.9,1.8
		c0,0-1.2,1.7-2.8,1.1s-1.5,1.8-3.1,0.3c0,0-6.9-12.6-6.4-15L428.9,371.5L428.9,371.5z"/>
	<path id="Tracé_483" class="st2" d="M415.6,328.1c0,0,8.3,36.3,16.4,43c-1.8,3.9-3.8,4-7.2,4.7c0,0-22.1-33-24-43.3
		C400.8,332.6,410.4,329.4,415.6,328.1L415.6,328.1z"/>
	<path id="Tracé_484" class="st2" d="M401.8,335.3c-5.2-6.2,6.6-41.1,20.3-52.7c3-2.6,16.2-1.3,7.2,22.4
		c-10.6,17.2-9.4,18.9-12.9,27.3C413.6,335.3,405.9,337.7,401.8,335.3L401.8,335.3z"/>
	<path id="Tracé_485" class="st10" d="M445.8,277.1c2.9,0.8,5.5,2.6,7.3,5.1c3.6,4.5,7.6,13.4,9.5,30.5l1.2-0.1
		c-3.7-36.3-18.1-36.5-18.1-36.5L445.8,277.1L445.8,277.1z"/>
	<path id="Tracé_486" class="st28" d="M463.1,310.6c1.6,0,2.9,1.3,2.9,2.9c0,1.6-1.3,2.9-2.9,2.9c-1.6,0-2.9-1.3-2.9-2.9l0,0
		C460.1,312,461.5,310.7,463.1,310.6z"/>
	<path id="Tracé_487" class="st12" d="M463.1,311.4c0.9,0,1.7,0.7,1.7,1.7c0,0.9-0.7,1.7-1.7,1.7c-0.9,0-1.7-0.7-1.7-1.7
		c0,0,0,0,0,0C461.4,312.1,462.1,311.4,463.1,311.4z"/>
	<path id="Tracé_488" class="st28" d="M463.1,311.6c0.8,0,1.4,0.6,1.4,1.4s-0.6,1.4-1.4,1.4c-0.8,0-1.4-0.6-1.4-1.4c0,0,0,0,0,0
		C461.6,312.2,462.3,311.6,463.1,311.6z"/>
	<path id="Tracé_489" class="st10" d="M436.2,276.8c0,0-2.2,0.5-3.1,3.7c-0.9,2.9-1,8.4,1.9,18.5l1.1-0.3
		c-2.8-9.8-2.7-15.1-1.9-17.9c0.7-2.4,1.9-3,1.9-3L436.2,276.8L436.2,276.8z"/>
	<path id="Tracé_490" class="st17" d="M432.8,311c0,0,1.9,8.3,6.2,13.9c2.9,3.8,6.9,6.4,12.1,4.3c0.2-0.1,0.3-0.3,0.2-0.5
		c-0.1-0.2-0.3-0.3-0.5-0.2c-4.9,1.9-8.6-0.5-11.3-4.1c-4.2-5.5-6-13.7-6-13.7c0-0.2-0.2-0.3-0.4-0.3
		C432.9,310.7,432.8,310.8,432.8,311L432.8,311z"/>
	<path id="Tracé_491" class="st17" d="M444.1,308.9c0,0,2.6,8.1,1.9,14.8c-0.4,4.3-2.2,8.1-7.1,8.4c-0.2,0-0.3,0.2-0.3,0.4
		c0,0.2,0.2,0.3,0.4,0.3c5.3-0.4,7.3-4.4,7.8-9.1c0.7-6.8-1.9-15.1-1.9-15.1c-0.1-0.2-0.3-0.3-0.4-0.2
		C444.1,308.5,444,308.7,444.1,308.9L444.1,308.9L444.1,308.9z"/>
	<path id="Tracé_492" class="st13" d="M438.8,332c0.3,0,0.6,0.2,0.6,0.6c0,0.3-0.2,0.6-0.6,0.6c-0.3,0-0.6-0.2-0.6-0.6c0,0,0,0,0,0
		C438.3,332.2,438.5,332,438.8,332z"/>
	<path id="Tracé_493" class="st13" d="M450.9,328.4c0.3,0,0.6,0.3,0.6,0.6c0,0.3-0.3,0.6-0.6,0.6c-0.3,0-0.6-0.3-0.6-0.6
		C450.4,328.6,450.6,328.4,450.9,328.4z"/>
	<path id="Tracé_494" class="st10" d="M445,309c-0.5-2.7-1.5-5.3-2.9-7.6c-1.5-2.2-3.7-3.7-6.8-2.8c-2.4,0.7-4.1,3-4,5.5
		c0,2.4,0.5,4.8,1.4,7l1.1-0.5c-0.9-2.1-1.3-4.3-1.3-6.5c-0.1-2,1.2-3.9,3.2-4.5c2.5-0.8,4.2,0.6,5.5,2.4c1.3,2.2,2.3,4.6,2.8,7.1
		L445,309L445,309z"/>
	<path id="Tracé_495" class="st4" d="M488.5,340.7c-0.1-0.1-0.2,0.1-0.3,0.1c-0.2,0.1-0.5,0.1-0.7,0.2c-1.2,0.2-2.4-0.1-3.2,1.1
		c-0.4,0.6-0.7,1.2-1,1.8c-0.6,0.9-1.3,1.8-1.9,2.8c-0.4,0.6-0.7,1.4-0.8,2.1c0.2,0.6,0.6,1.1,1.2,1.5c0.8,0.4,1.8,0.3,2.6,0
		c0.8-0.6,1.5-1.2,2.1-2C487.2,347.4,488.9,342.5,488.5,340.7L488.5,340.7z"/>
	<path id="Tracé_496" class="st29" d="M362,276.1c-0.1,0.6,0.9-0.9,1.2-1.5c0.6-1.2,0.7-2.6,0.3-3.9c-1.1-3.7-3.7-6.8-7.2-8.5
		c-8.1-4.5-17.7,0.1-21.5,8c-1.9,4-2.2,8.6-1,12.8c0.2,0.7,15.1,28.2,21.6,6.3l-4.8-6L362,276.1L362,276.1z"/>
	<path id="Tracé_497" class="st6" d="M387.8,338.4c1-2.4,4.7-4.2,3.9-5.1c-7-8.5-26.8-45.6-37.7-32c-2.2,2.8-7.6,15.9-1,21.4
		c0,0,18.9,17.2,31.8,20.5C385.8,343.5,386.5,341.7,387.8,338.4L387.8,338.4z"/>
	<path id="Tracé_498" class="st30" d="M356.7,378.9l24.4,2.8c1.8,12.9,1.5,28.3,0.2,43.5h-17.7c-2.2-17.5-5.8-40-6.6-45.1v0
		C356.7,379.3,356.7,378.9,356.7,378.9L356.7,378.9z"/>
	<path id="Tracé_499" class="st6" d="M356.7,378.9l24.4,2.8c1.8,12.9,1.5,28.3,0.2,43.5h-17.7c-2.2-17.5-5.8-40-6.6-45.1v0
		C356.7,379.3,356.7,378.9,356.7,378.9L356.7,378.9z"/>
	<path id="Tracé_500" class="st31" d="M343.2,425.2c-2.8-9.1-4.6-19-3.9-28.6c0.4-5.7,1.8-11.3,4.3-16.5l21.6-0.2l0,0
		c0.1,1.1,2.8,23.1,4.9,45.2H343.2z"/>
	<path id="Tracé_501" class="st32" d="M343.6,380.1l28.9-0.2c0,0,0.1,0.3,0.4,0.8c1.9,4.8,3,9.9,3.2,15.1c0.3,8.6,0.4,19,0.4,29.3
		h-33c-2.6-9.6-4.8-19.1-4.2-28.6C339.6,390.9,341.1,385.2,343.6,380.1z"/>
	<path id="Tracé_502" class="st33" d="M368.1,380.1c2.8-0.2,8.6-3.5,8.7-4.8c0.5-12.1-2.6-73.7-19.3-78.8
		c-3.8-1.2-11.2,11.7-5.4,42.6c0,0,1.1,26.9,9.1,39.1C361.7,379.1,365.1,380.3,368.1,380.1L368.1,380.1z"/>
	<path id="Tracé_503" class="st6" d="M342,384.1c1.9-7.5,5.7-18.3,3.6-25.6c-3.2-11.2-6.4-22.2-6.4-22.2s-12.3-30.3,8-39.9
		c0,0,11.6-1.7,15.1,2.5c7.1,8.4,30.9,33.4,17.6,46c0,0,0.5,18.7,1.2,36.8C375.8,387.7,366.3,391,342,384.1z"/>
	<g id="Groupe_54">
		<g>
			<defs>
				<path id="SVGID_00000044856463407068167310000002237283100954552992_" d="M342,384.1c1.9-7.5,5.7-18.3,3.6-25.6
					c-3.2-11.2-6.4-22.2-6.4-22.2s-12.3-30.3,8-39.9c0,0,11.6-1.7,15.1,2.5c7.1,8.4,30.9,33.4,17.6,46c0,0,0.5,18.7,1.2,36.8
					C375.8,387.7,366.3,391,342,384.1z"/>
			</defs>
			<clipPath id="SVGID_00000061443271956292325360000006937150500954681522_">
				<use xlink:href="#SVGID_00000044856463407068167310000002237283100954552992_"  style="overflow:visible;"/>
			</clipPath>
			<g id="Groupe_53" style="clip-path:url(#SVGID_00000061443271956292325360000006937150500954681522_);">
				<path id="Tracé_504" class="st35" d="M382.8,342.5c0.3,0.2-7.5,3.2-7.7,3.3c-1.7,0.6-3.4,1.3-5.1,1.9c-0.3,0.1-0.6,0.2-0.9,0.3
					c-6.6,2.5-18.8,5.6-25.1,8.7c-5,2.5-3.2-6.1,1.7-11.9C349.5,340.3,375.8,342.6,382.8,342.5L382.8,342.5z"/>
			</g>
		</g>
	</g>
	<path id="Tracé_506" class="st36" d="M374.9,385.8c0,0,3.7-25.7,1.5-45.2c-0.5-4.6-1.8-9.1-3.8-13.2l0.3-0.2
		c2.3,4.1,3.8,8.6,4.2,13.3c0.9,8.3,1.2,23.9-0.7,45L374.9,385.8L374.9,385.8z"/>
	<path id="Tracé_507" class="st35" d="M348.2,366c1.7,0.8,5.8,1,13,1c0,0,0.3,9.2-4.2,10.6c-4.1,1.2-4.8,0.6-6.8,0
		c0.5,0.5,1.1,0.8,1.8,0.9c11.8,1.6,10.3-12.6,10.3-12.6c-4.7,0.8-9.5,0.8-14.2,0.1C348.2,365.9,348.2,365.9,348.2,366L348.2,366z"
		/>
	<path id="Tracé_508" class="st35" d="M377.4,334.6c0,0,1.7-0.7,1.9-4c0.2-2-3.5-10.6-3.5-10.6s3,5.9,4.4,9.7
		c0.7,1.7,1.2,3.5,1.6,5.3L377.4,334.6L377.4,334.6z"/>
	<path id="Tracé_509" class="st37" d="M389.1,330.7c6.3,0.3,7,5.2,6.2,8.3c-1,3.7-4.5,5.6-7.8,5.8c-2.3,0.1-22-3.8-37.5-4.7
		c0-1.2-2.7-2.7-0.9-3.9C349.1,336.2,387.3,330.7,389.1,330.7L389.1,330.7z"/>
	<path id="Tracé_510" class="st6" d="M389.1,330.7c6.3,0.3,7,5.2,6.2,8.3c-1,3.7-4.5,5.6-7.8,5.8c-1.4,0.1-9-1.3-18.3-2.6
		c-6.1-0.9-2.9-3.2-9-3.6c-0.2-2.7-3.6-3.9-1.8-5.1C358.3,333.5,387.3,330.7,389.1,330.7L389.1,330.7z"/>
	<g id="Groupe_56">
		<g>
			<defs>
				<path id="SVGID_00000081630422722278228470000017076859823335008163_" d="M389.1,330.7c6.3,0.3,7,5.2,6.2,8.3
					c-1,3.7-4.5,5.6-7.8,5.8c-1.4,0.1-9-1.3-18.3-2.6c-6.1-0.9-2.9-3.2-9-3.6c-0.2-2.7-3.6-3.9-1.8-5.1
					C358.3,333.5,387.3,330.7,389.1,330.7L389.1,330.7z"/>
			</defs>
			<clipPath id="SVGID_00000168081728129456689830000017023641773230454663_">
				<use xlink:href="#SVGID_00000081630422722278228470000017076859823335008163_"  style="overflow:visible;"/>
			</clipPath>
			<g id="Groupe_55" style="clip-path:url(#SVGID_00000168081728129456689830000017023641773230454663_);">
				<path id="Tracé_511" class="st35" d="M379.9,343.8c0.9-0.4,1.8-1,2.7-1.5c2.3-1.4,4.7-2.6,7.2-3.5c1.2-0.3,2.6-0.3,3.8,0.1
					c0.2,0.1,1.2,0.4,1.3,0.1c0.3-0.8-0.6-1-1.2-1.3c-1.5-0.5-3-0.9-4.5-1.2c-5.4-0.9-9.2,4-13.4,6.6"/>
			</g>
		</g>
	</g>
	<path id="Tracé_513" class="st6" d="M339.5,355.3c-1.4-8.4,6.5-16.5,9.4-16.7c1.9-4.1,2.1-2.9,5.2-15.3
		c3.8-15.3,1.7-21.1-5.7-23.2c-3.8-1.1-10-2-13.2,11c0,0-5.5,22.2-2.3,36.4C333.6,351,336.6,354.5,339.5,355.3z"/>
	<path id="Tracé_514" class="st37" d="M353.5,284.9l3.2,11.5c6.8,8.5,4.1,7.2,3.8,10.8c-2.4-1.1-7-2.1-11.9-10.8l-2-17.3
		L353.5,284.9L353.5,284.9z"/>
	<g id="Groupe_58">
		<g>
			<defs>
				<path id="SVGID_00000124133187521887997760000010656456259973644462_" d="M353.5,284.9l3.2,11.5c6.8,8.5,4.1,7.2,3.8,10.8
					c-2.4-1.1-7-2.1-11.9-10.8l-2-17.3L353.5,284.9L353.5,284.9z"/>
			</defs>
			<clipPath id="SVGID_00000120532258843212066000000012884862753829183899_">
				<use xlink:href="#SVGID_00000124133187521887997760000010656456259973644462_"  style="overflow:visible;"/>
			</clipPath>
			<g id="Groupe_57" style="clip-path:url(#SVGID_00000120532258843212066000000012884862753829183899_);">
				<path id="Tracé_515" class="st40" d="M346.6,289.2c1.2,5.6,15.6,8.4,12.3,3.8c-1.8-2-3.7-3.9-5.8-5.8c-0.7-0.7-1.6-1.1-2.6-1.3
					C349.2,285.7,347.9,289,346.6,289.2z"/>
			</g>
		</g>
	</g>
	<path id="Tracé_517" class="st37" d="M360.6,271.7c3,6.3,7.6,33.5-14.6,16.4l-3.9-18.1C342.2,270,349.4,260.8,360.6,271.7
		L360.6,271.7z"/>
	<path id="Tracé_518" class="st29" d="M345.3,270.3c-0.1,0.1,0.2,0,0.3,0.1c0.6,0.5,1.1,1.1,1.5,1.7c1.2,1.5,2,3.3,2.4,5.2
		c0.3,2.1,0,4.2-1,6c-0.7,1.4-1,3-2,4.2c-2,2.5-0.4,4-2,5.7c-3.5,3.8-9.7-8.9-6-14.4c1.6-2.4-0.6-5.8,0.2-8.6
		c0.4-1.3,5.8-4.9,6.6-5.1c5.4-1,12.7-1.5,15.9,3.6c0.5,0.7,1.6,2.3,1.5,3.2c-0.9,0.5-1.8,0.9-2.8,1.2c-3.7,1.5-7.2,0.7-10.5-1
		C348.3,271.6,345.3,270.3,345.3,270.3L345.3,270.3z"/>
	<path id="Tracé_519" class="st29" d="M337.9,266.6c0.2-0.1-0.4-1.7-0.5-1.8c-0.7-1.8-2.3-3.2-4.3-3.4c-2.3-0.1-4,1.9-4.9,3.8
		c-1.6,3.5-2.2,8.7-0.1,12.1c1.5,2.5,4.1,2.8,6.3,1c2.2-2,3.7-4.8,4.2-7.8"/>
	<path id="Tracé_520" class="st37" d="M342.7,279.3c0,0-3-1.1-1.8,1.6c1.2,2.8,2.8,2.8,2.8,2.8C344.2,282.9,344,281.5,342.7,279.3z
		"/>
	<path id="Tracé_521" class="st36" d="M353,301.9c0.4,0.5,13,14.3,13,14.3s-4.5-15.1-4.4-14.9c1.7,2.4,3.2,4.8,4.6,7.4
		c1,1.8,4,8.2,4.7,10.1c0.8,2.1,1.4,4.4,1.7,6.6c0,0.3,0.5,1.6,0.3,1.9c-0.1,0.1-0.4-0.3-0.5-0.3c-0.5-0.4-3.4-3.5-3.8-3.8
		c-1.2-1-12.3-11.9-14.3-16.8c-0.4-1.1-0.7-2.2-1-3.3C353.1,302.7,353,302.3,353,301.9L353,301.9z"/>
	<path id="Tracé_522" class="st35" d="M348.8,340.1c-0.1-0.1-2.2-17.2-2.5-17.1c-0.1,0,0.3,3.1,0.4,3.2c0.2,2.2,0.4,4.4,0.4,6.6
		c0,2.7-0.2,5.3-0.7,7.9c-0.2,0.8-0.4,1.7-0.4,2.6c0.1,0.1,0.2-0.1,0.2-0.1C347.6,342.2,347.5,341.2,348.8,340.1L348.8,340.1z"/>
	<path id="Tracé_523" class="st36" d="M373,327.5c-1.4-1.1-2.9-2.2-4.5-3.1c-3.3-2.1-12.2-8.8-12.2-8.8l0.4-2.4
		c0,0-4.7-2.2-4.9-2.3l-3.3-14.6C353.1,300.8,361.6,317.9,373,327.5L373,327.5z"/>
	<path id="Tracé_524" class="st36" d="M365.9,316.2c0,0-8-3.8-11.7-9l-5.7-11C355,302.8,361.7,311.7,365.9,316.2L365.9,316.2z"/>
	<path id="Tracé_525" class="st10" d="M348.5,295.3c0,0-1.7,0.8-1.9,3.7c-0.2,2.6,0.7,7.2,5.1,15.1l0.9-0.5
		c-4.2-7.7-5.1-12-4.9-14.5c0.1-2.2,1-2.8,1-2.8L348.5,295.3L348.5,295.3z"/>
	<path id="Tracé_526" class="st10" d="M356.5,295.6c0,0,2.3-0.2,5.9,2.9c3.8,3.2,8.6,10,12.9,24l0.9-0.3
		c-9-28.9-20.1-27.6-20.1-27.6L356.5,295.6z"/>
	<path id="Tracé_527" class="st28" d="M375.4,320.8c1.4-0.3,2.7,0.6,2.9,2c0.3,1.4-0.6,2.7-2,2.9c-1.4,0.3-2.7-0.6-2.9-2
		C373.1,322.3,374,321,375.4,320.8z"/>
	<path id="Tracé_528" class="st12" d="M375.5,321.4c0.8-0.1,1.5,0.4,1.7,1.1c0.1,0.8-0.4,1.5-1.1,1.7c-0.8,0.1-1.5-0.4-1.7-1.1
		C374.2,322.3,374.7,321.5,375.5,321.4C375.5,321.4,375.5,321.4,375.5,321.4z"/>
	<path id="Tracé_529" class="st28" d="M375.5,321.5c0.7-0.1,1.3,0.3,1.4,1c0.1,0.7-0.3,1.3-1,1.4c-0.7,0.1-1.3-0.3-1.4-1
		c0,0,0,0,0,0C374.4,322.3,374.9,321.7,375.5,321.5z"/>
	<path id="Tracé_530" class="st17" d="M352.1,324.4c0,0,3.2,6.6,7.8,10.5c3.1,2.6,6.9,4,10.9,1.3c0.1-0.1,0.2-0.3,0.1-0.4
		c-0.1-0.1-0.3-0.2-0.4-0.1c-3.7,2.5-7.2,1.2-10.2-1.3c-4.5-3.8-7.6-10.3-7.6-10.3c-0.1-0.1-0.2-0.2-0.4-0.1
		C352.1,324.1,352,324.3,352.1,324.4L352.1,324.4z"/>
	<path id="Tracé_531" class="st17" d="M361.1,320.6c0,0,3.7,6.3,4.3,12c0.4,3.7-0.4,7.2-4.4,8.4c-0.2,0-0.3,0.2-0.2,0.3
		s0.2,0.3,0.3,0.2c0,0,0,0,0.1,0c4.3-1.3,5.3-5,4.8-9c-0.7-5.8-4.4-12.2-4.4-12.2c-0.1-0.1-0.3-0.2-0.4-0.1
		C361,320.2,361,320.4,361.1,320.6L361.1,320.6z"/>
	<path id="Tracé_532" class="st13" d="M361,340.8c0.3-0.1,0.5,0.1,0.6,0.4s-0.1,0.5-0.4,0.6c-0.3,0.1-0.5-0.1-0.6-0.4c0,0,0,0,0,0
		C360.6,341.1,360.8,340.8,361,340.8z"/>
	<path id="Tracé_533" class="st13" d="M370.4,335.5c0.3-0.1,0.5,0.1,0.6,0.4s-0.1,0.5-0.4,0.6c-0.3,0.1-0.5-0.1-0.6-0.4
		c0,0,0,0,0,0C370,335.8,370.2,335.6,370.4,335.5z"/>
	<path id="Tracé_534" class="st10" d="M361.8,320.5c-0.9-2.1-2.2-4.1-3.9-5.8c-1.7-1.6-3.8-2.4-6.2-1.1c-1.9,1-2.9,3.2-2.3,5.4
		c0.4,2,1.3,3.9,2.5,5.6l0.8-0.6c-1.1-1.5-1.9-3.3-2.3-5.2c-0.4-1.7,0.3-3.5,1.8-4.3c1.9-1.1,3.6-0.3,5,0.9c1.5,1.6,2.8,3.4,3.6,5.4
		L361.8,320.5L361.8,320.5z"/>
	<path id="Tracé_535" class="st36" d="M373,327.5c0,0-11.9-26.9-16.3-31.1c0,0,10.6,7.6,12.6,11.1l-1.7,3.1l2.5,1.2
		C370.2,311.7,372.8,325.1,373,327.5L373,327.5z"/>
	<path id="Tracé_536" class="st36" d="M365.9,316.2c-1.5-5.1-8.4-17.9-9.2-19.8c0,0,6,5.3,8,8.7C364.7,305,367.6,312.3,365.9,316.2
		L365.9,316.2z"/>
	<path id="Tracé_537" class="st37" d="M386.4,332.1c0,0,8.5-3.5,12-2c0,0,3.7,2.7,1.3,2.3c0,0,1.2,1.7,0.1,2.4c0,0,0.5,1.9-0.9,2.6
		s0.4,2.1-1.6,2.3c0,0-12.8-2.9-14.1-4.8L386.4,332.1L386.4,332.1z"/>
	<path id="Tracé_538" class="st6" d="M340.8,340c-10.2,2.2-1.9,15.4-1.4,15.3c14.1-4.7,32.8-6.7,49.8-17.3c-0.4-1.5-0.3-6.3-3-7.1
		C386.2,330.9,343.1,339.5,340.8,340L340.8,340z"/>
	<path id="Tracé_539" class="st37" d="M350.1,336c-0.8,0.1-1.6,0.4-2.3,0.9c-2.2,1.6-3.4,3.7-1.7,6c1,1.3,4,2.1,5.3,1.2
		c1.4-0.9,0.7-2.4,3.4-5.5c1-1.2,4.7-2,2.1-2.8L350.1,336L350.1,336z"/>
	<path id="Tracé_540" class="st41" d="M643.5,290.2c-6-0.8-27.3,45.4-26.7,53.1c-0.5,5.8,3.1,6.2,5.5,4.8c0,0,21.5-33,23.2-43.2
		C645.5,304.9,648.7,291,643.5,290.2z"/>
	<path id="Tracé_541" class="st42" d="M669.2,378.8c0,0-5.8,22.9-12.1,40.1c-1.6,4.9-2.9,10-3.7,15.1c-4,21.5-26.3,4.7-26.3,4.7
		l-0.8-53.9L669.2,378.8L669.2,378.8z"/>
	<path id="Tracé_542" class="st32" d="M669.1,380.2l-33.2,0.1c0,0,3.7,18.5,7.9,41.4c-2.6,0.4,13.2-2.3,29.1-3.9
		C672.4,402.3,671.2,387.9,669.1,380.2L669.1,380.2z"/>
	<path id="Tracé_543" class="st19" d="M653.2,350.7c0,0,10.5-46.9,2.9-56.7c-7.6-9.8-22.7,1-21.4,20.8c1.3,19.8,2.4,20.7,4,29.5
		C640,351.4,644.3,353.6,653.2,350.7z"/>
	<g id="Groupe_60">
		<g>
			<defs>
				<path id="SVGID_00000036209399928405055900000009167179875849800378_" d="M653.2,350.7c0,0,10.5-46.9,2.9-56.7
					c-7.6-9.8-22.7,1-21.4,20.8c1.3,19.8,2.4,20.7,4,29.5C640,351.4,644.3,353.6,653.2,350.7z"/>
			</defs>
			<clipPath id="SVGID_00000075130239349513869360000012396539896041019063_">
				<use xlink:href="#SVGID_00000036209399928405055900000009167179875849800378_"  style="overflow:visible;"/>
			</clipPath>
			<g id="Groupe_59" style="clip-path:url(#SVGID_00000075130239349513869360000012396539896041019063_);">
				<path id="Tracé_544" class="st21" d="M639.6,319.5c0.3,1.1,0.7,2.2,1.2,3.3c1.2,3.4,2.2,6.8,3,10.4c0.7,3.6,1.8,7.9,0.2,11.4
					c-0.9,1.9-2.3,2.1-4,2.7c-0.5,0.2-0.7,0.5-0.4,1c1,1.2,2.2,2.2,3.6,2.9c4.5,2.4,10.8,3.1,13.5-2.1c2.7-5.2,0.9-11.8-1-16.9
					c-1.5-4-3.5-7.9-5.9-11.5c-1.9-3-4.1-5.5-5-8.8"/>
			</g>
		</g>
	</g>
	<path id="Tracé_546" class="st6" d="M672.2,295.3c-4-3.3-8.6-5.9-13.5-7.7c-3.5-1.1-6.5-2.2-10.4-0.2c-12.2,6.2-17,17.9-17.6,32.4
		c-1.5,38-7.3,44.2-4.1,70c-2.2,6,44.4,12.3,45.4-1.9c0,0-3.7-30.9-1.3-45.6C676.2,324.3,678.4,306.1,672.2,295.3L672.2,295.3z"/>
	<path id="Tracé_547" class="st44" d="M637.5,255.4c-0.3,0.5-0.5,1.1-0.5,1.8c-0.1,1.8-1.1,4.1-0.1,5.5c0.2,0.3,0.5,0.7,0.6,0.7
		l0,0l17.2,15.3c0,0,0.6-0.3,0.7-0.3c0.6-0.4,0.2-0.3,0.8-0.7c1.5-1,4.4-5,5.5-11.8c0.7-4.5-0.6-9.1-3.5-12.6
		c-1.3-1.5-6.3-2.6-9.7-3C635,248.6,636.4,254.1,637.5,255.4L637.5,255.4z"/>
	<path id="Tracé_548" class="st31" d="M649.5,280.9l-0.4,6.1c0,0-7.3,10.1,8.5,0.6l-1.7-14.6L649.5,280.9L649.5,280.9z"/>
	<g id="Groupe_62">
		<g>
			<defs>
				<path id="SVGID_00000082329861514731529540000003300150331771727268_" d="M649.5,280.9l-0.4,6.1c0,0-7.3,10.1,8.5,0.6l-1.7-14.6
					L649.5,280.9L649.5,280.9z"/>
			</defs>
			<clipPath id="SVGID_00000141419254052909169240000004820836873264088758_">
				<use xlink:href="#SVGID_00000082329861514731529540000003300150331771727268_"  style="overflow:visible;"/>
			</clipPath>
			<g id="Groupe_61" style="clip-path:url(#SVGID_00000141419254052909169240000004820836873264088758_);">
				<path id="Tracé_549" class="st40" d="M657,273.7c-0.1-0.1,0.1,0.3,0,0.5c0,0.3-0.1,0.7-0.2,1c-0.2,1-0.5,1.9-0.9,2.8
					c-1.1,2.8-2.8,5.4-5.1,7.4c-0.5,0.4-2.3,1.8-3.1,1.2c-0.5-0.4-0.4-1.5-0.3-2c0.1-2.2,0.5-4.5,0.8-6.7c0.5-3,1-6,1.7-9
					c0.2-1,0.5-2.7,1.7-3.1c1.6-0.5,4.3,0.8,6,1"/>
			</g>
		</g>
	</g>
	<path id="Tracé_551" class="st31" d="M638.6,257.8c0,0-3.4,26.1,4.4,26.7c8.3,0.7,13.9-9.5,13.9-9.5l-0.8-6.7
		c-1.9-2.8-2.4-6.4-1.2-9.5l-0.5-4L638.6,257.8L638.6,257.8z"/>
	<path id="Tracé_552" class="st31" d="M656.8,266.5c0.4-0.9,3.4-2.2,2.3,1.6c-1,3.4-2.9,3.7-2.9,3.7c-0.5-0.9-0.6-2-0.2-3
		C656.2,268.1,656.5,267.3,656.8,266.5L656.8,266.5z"/>
	<path id="Tracé_553" class="st44" d="M643.9,256l-0.3-0.7c3.7-1,9.2-4.4,12.7-2.6c1.2,0.6,1.4,5,1.7,6.4c0.1,0.5,0.2,1.5-0.4,1.7
		c-0.9,0.3-1.8-1.1-2.4-1.5c-1.3-0.8-2.8-1.3-4.3-1.4c-4.6-0.2-6.9,1.6-7.2,1.3c-0.6-0.5-2.2,0.1-2.8-0.1c-1.4-0.6-3.7,0.6-4.6,2.3
		l0.4-3.5l2.4-1.8C639.7,256,643.5,256.1,643.9,256L643.9,256z"/>
	<path id="Tracé_554" class="st1" d="M629.5,327.9l-31.3-2.1l18.9,44.9l31.3,2.1L629.5,327.9L629.5,327.9z"/>
	<path id="Tracé_555" class="st31" d="M635.6,358.6c0,0-11.6-2.5-15.2-0.5c0,0-2.6,1.6-1,2.6c0,0-1,1.9,0.2,2.5
		c0,0-0.3,2.1,1.3,2.6c1.6,0.5-0.1,2.3,2,2.3c0,0,13.4-4.5,14.5-6.7L635.6,358.6L635.6,358.6z"/>
	<path id="Tracé_556" class="st41" d="M673.9,335.9c0,0-30,20.8-40.3,20.3c-1.3,4,0.1,5.4,2.1,8.2c0,0,37.8-9.3,46-15.5
		C681.7,348.9,676.9,340.3,673.9,335.9z"/>
	<path id="Tracé_557" class="st41" d="M679.8,350.5c6.3-4.8,2.6-40.7-8-54.9c-2.3-3.1-15.2-4.7-11.8,19.9
		c6.4,18.8,4.9,20.1,6.4,28.9C668.5,348,675.4,351.9,679.8,350.5L679.8,350.5z"/>
	<path id="Tracé_558" class="st31" d="M607.8,349.3c0.1-0.1,0.2,0.1,0.3,0.1c0.2,0.1,0.5,0.1,0.7,0.2c1.2,0.2,2.4-0.1,3.2,1.1
		c0.4,0.6,0.6,1.2,1,1.8c0.6,0.9,1.3,1.7,1.8,2.7c0.4,0.6,0.7,1.4,0.8,2.1c-0.2,0.6-0.6,1.1-1.2,1.4c-0.8,0.4-1.7,0.3-2.5,0
		c-0.8-0.5-1.5-1.2-2.1-1.9C609.1,355.9,607.5,351.1,607.8,349.3L607.8,349.3z"/>
	<path id="Tracé_559" class="st46" d="M642.1,309l-8.9-0.1l-0.7,4.6l8.9,0.1L642.1,309L642.1,309z"/>
	<path id="Tracé_560" class="st47" d="M641.2,309.4l-7.7-0.1l-0.6,3.9l7.7,0.1L641.2,309.4L641.2,309.4z"/>
	<path id="Tracé_561" class="st1" d="M502.8,405.6c87.6,0,162.1-1,174.8,5c0,0.7,0.1,7,0,7.4c0,6.9-78.3,12.4-174.8,12.4
		S328,424.8,328,418c-0.1-0.7,0.1-7.5,0-7.4C344.9,404.9,418.9,405.6,502.8,405.6L502.8,405.6z"/>
	<path id="Tracé_562" class="st1" d="M502.9,430.6c83.4,0,154.4-0.9,166.5,4.7c0,0.6,0.1,6.6,0,7.1c0,6.5-74.6,11.8-166.5,11.8
		s-166.5-5.3-166.5-11.8c-0.1-0.7,0.1-7.2,0-7.1C352.5,430,423,430.6,502.9,430.6L502.9,430.6z"/>
	<path id="Tracé_563" class="st1" d="M669.4,410.5h-333v31.9h333V410.5z"/>
	<path id="Tracé_564" class="st48" d="M502.8,398.1c96.5,0,174.8,5.6,174.8,12.4c0,6.9-78.3,12.4-174.8,12.4S328,417.4,328,410.5
		S406.3,398.1,502.8,398.1z"/>
</g>
</svg>
