<svg xmlns="http://www.w3.org/2000/svg" width="49" height="49" viewBox="0 0 49 49">
  <g id="Groupe_1619" data-name="Groupe 1619" transform="translate(-156 -23.904)">
    <g id="Groupe_1180" data-name="Groupe 1180" transform="translate(171.168 37.535)">
      <path id="Tracé_405" data-name="Tracé 405" d="M20.834,1278H5.229A2.233,2.233,0,0,0,3,1280.229v15.6a2.233,2.233,0,0,0,2.229,2.229h15.6a2.233,2.233,0,0,0,2.229-2.229v-15.6A2.233,2.233,0,0,0,20.834,1278Z" transform="translate(-3 -1275.771)" fill="none" stroke="#fff" stroke-linecap="round" stroke-linejoin="round" stroke-width="2"/>
      <path id="Tracé_406" data-name="Tracé 406" d="M16,1276v4.458" transform="translate(-1.51 -1276)" fill="none" stroke="#fff" stroke-linecap="round" stroke-linejoin="round" stroke-width="2"/>
      <path id="Tracé_407" data-name="Tracé 407" d="M8,1276v4.458" transform="translate(-2.427 -1276)" fill="none" stroke="#fff" stroke-linecap="round" stroke-linejoin="round" stroke-width="2"/>
      <path id="Tracé_408" data-name="Tracé 408" d="M3,1284H23.063" transform="translate(-3 -1275.083)" fill="none" stroke="#fff" stroke-linecap="round" stroke-linejoin="round" stroke-width="2"/>
    </g>
    <g id="Ellipse_22" data-name="Ellipse 22" transform="translate(156 23.904)" fill="none" stroke="#fff" stroke-width="2">
      <circle cx="24.5" cy="24.5" r="24.5" stroke="none"/>
      <circle cx="24.5" cy="24.5" r="23.5" fill="none"/>
    </g>
  </g>
</svg>
