<svg xmlns="http://www.w3.org/2000/svg" width="1023.717" height="779.46" viewBox="0 0 1023.717 779.46">
  <g id="Groupe_5" data-name="Groupe 5" transform="translate(-1391.099 -237.758)">
    <path id="Tracé_50" data-name="Tracé 50" d="M1766.833,255.231c308.64-119.26,907.38,435.893,521.633,711.115C2109.073,1094.337,1987.7,935,1802.286,943.917,1635,951.964,1476.093,964.923,1476.093,657.6a404.161,404.161,0,0,1,37.422-169.92c23.714-51.673,58.856-99.2,102.037-138.822a481.517,481.517,0,0,1,151.281-93.631Z" fill="#eaedf9" stroke="#dbe7ea" stroke-linecap="round" stroke-linejoin="round" stroke-width="1.81" fill-rule="evenodd"/>
    <path id="Tracé_51" data-name="Tracé 51" d="M2326.073,736.8c-32.282,247.57-299.211,312.079-420.965,130.88-112.751-167.8-115.575-116.3-239.776-200.573-83.412-56.6-39.706-239.11,192.613-327.7,251.5-95.9,500.41,149.83,468.128,397.4Z" fill="#118793" fill-rule="evenodd"/>
    <path id="Tracé_52" data-name="Tracé 52" d="M2305.1,702.36c-32.282,247.57-299.211,312.08-420.965,130.88-112.751-167.8-115.575-116.3-239.776-200.573-83.413-56.6-39.706-239.11,192.613-327.7,251.5-95.9,500.409,149.827,468.128,397.4Z" fill="#dbe7ea" fill-rule="evenodd"/>
    <path id="Tracé_53" data-name="Tracé 53" d="M1782.945,443.891c25.773,16.384,26.067,62.146.652,102.127s-66.968,59.142-92.741,42.758-26.071-62.142-.656-102.123,66.968-59.142,92.745-42.762Z" fill="#118793" fill-rule="evenodd"/>
    <path id="Tracé_54" data-name="Tracé 54" d="M1845.525,359.8c4.626-24.781,35.392-39.858,68.662-33.65s56.528,31.362,51.905,56.144-35.388,39.858-68.658,33.651-56.531-31.367-51.909-56.145Z" fill="#118793" fill-rule="evenodd"/>
    <path id="Tracé_55" data-name="Tracé 55" d="M2029.809,399.993c16.448-19.1,50.624-16.677,76.27,5.408s33.111,55.525,16.662,74.623-50.627,16.677-76.27-5.408-33.114-55.525-16.662-74.623Z" fill="#118793" fill-rule="evenodd"/>
    <path id="Tracé_56" data-name="Tracé 56" d="M2158.437,514.8c22.378-11.609,53.2,3.359,68.781,33.4s10.071,63.858-12.3,75.467-53.2-3.363-68.782-33.4-10.071-63.858,12.3-75.467Z" fill="#118793" fill-rule="evenodd"/>
    <path id="Tracé_57" data-name="Tracé 57" d="M2162.951,698.628c24.018-7.652,51.854,12.322,62.128,44.572s-.894,64.639-24.912,72.288-51.858-12.322-62.128-44.571.891-64.64,24.912-72.289Z" fill="#118793" fill-rule="evenodd"/>
    <path id="Tracé_58" data-name="Tracé 58" d="M1897.112,669.629s111.369-19.855,166.427,67.761c27.112,43.148,67.937,45.613,67.937,45.613s-202.361,90.425-260.354-23.148c9.824-71.344,25.99-90.226,25.99-90.226Z" fill="#f99325" fill-rule="evenodd"/>
    <path id="Tracé_59" data-name="Tracé 59" d="M1902.469,677.3,1404.644,543.169,1391.1,584.045l489.087,177.6,22.284-84.339Z" fill="#373f41" fill-rule="evenodd"/>
    <path id="Tracé_60" data-name="Tracé 60" d="M1911.787,664.634a7.71,7.71,0,0,0-5.2-9.586c-4.623-1.371-10.556-3.13-15.178-4.5a7.717,7.717,0,0,0-9.586,5.2c-6.479,21.85-25.506,85.975-31.985,107.829a7.709,7.709,0,0,0,5.2,9.585l15.175,4.5a7.711,7.711,0,0,0,9.585-5.2c6.483-21.849,25.506-85.975,31.989-107.828Z" fill="#373f41" fill-rule="evenodd"/>
  </g>
</svg>
