<svg xmlns="http://www.w3.org/2000/svg" width="939.631" height="805.649" viewBox="0 0 939.631 805.649">
  <g id="Groupe_2" data-name="Groupe 2" transform="translate(-1432.691 -1500.125)">
    <path id="Tracé_10" data-name="Tracé 10" d="M1724.336,1543.792c308.64-119.264,907.38,435.893,521.633,711.111-179.393,127.991-300.767-31.345-486.18-22.425-167.289,8.047-326.193,21-326.193-286.317a404.177,404.177,0,0,1,37.422-169.92c23.714-51.67,58.855-99.2,102.036-138.821a481.491,481.491,0,0,1,151.282-93.628Z" fill="#eaedf9" stroke="#dbe7ea" stroke-linecap="round" stroke-linejoin="round" stroke-width="1.81" fill-rule="evenodd"/>
    <path id="Tracé_11" data-name="Tracé 11" d="M2216.557,1970.849H1563.3v175.407h653.258V1970.849Z" fill="#118793" fill-rule="evenodd"/>
    <path id="Tracé_12" data-name="Tracé 12" d="M2104.4,1747.467H1679.124v205.872H2104.4V1747.467Z" fill="#118793" fill-rule="evenodd"/>
    <path id="Tracé_13" data-name="Tracé 13" d="M2317.635,2184.366h-852.76V2240.7h852.76v-56.336Z" fill="#bdd3d8" fill-rule="evenodd"/>
    <path id="Tracé_14" data-name="Tracé 14" d="M1705.364,1747.467c0-67.717,83.521-122.7,186.4-122.7s186.394,54.978,186.394,122.7Z" fill="#bdd3d8" fill-rule="evenodd"/>
    <path id="Tracé_15" data-name="Tracé 15" d="M2263.811,2146.256h-744.1v38.11h744.1v-38.11Z" fill="#b4cdd3" fill-rule="evenodd"/>
    <path id="Tracé_16" data-name="Tracé 16" d="M1679.124,1970.849h-53.892v175.407h53.892V1970.849Z" fill="#bdd3d8" fill-rule="evenodd"/>
    <path id="Tracé_17" data-name="Tracé 17" d="M1759.257,1748.933h-53.893v204.406h53.893V1748.933Z" fill="#bdd3d8" fill-rule="evenodd"/>
    <path id="Tracé_18" data-name="Tracé 18" d="M1997.009,1970.849h-53.893v175.407h53.893V1970.849Z" fill="#bdd3d8" fill-rule="evenodd"/>
    <path id="Tracé_19" data-name="Tracé 19" d="M2077.146,1748.933h-53.893v204.406h53.893V1748.933Z" fill="#bdd3d8" fill-rule="evenodd"/>
    <path id="Tracé_20" data-name="Tracé 20" d="M2155.954,1970.849h-53.893v175.407h53.893V1970.849Z" fill="#bdd3d8" fill-rule="evenodd"/>
    <path id="Tracé_21" data-name="Tracé 21" d="M1838.068,1970.849h-53.893v175.407h53.893V1970.849Z" fill="#bdd3d8" fill-rule="evenodd"/>
    <path id="Tracé_22" data-name="Tracé 22" d="M1918.2,1748.933h-53.893v175.408H1918.2V1748.933Z" fill="#bdd3d8" fill-rule="evenodd"/>
    <path id="Tracé_23" data-name="Tracé 23" d="M2250.24,1964.058,2027.832,1919.6h-251.5l-244.058,44.455v58.037l246.762-44.455H2026.2l224.044,44.455v-58.037Z" fill="#b4cdd3" fill-rule="evenodd"/>
    <path id="Tracé_24" data-name="Tracé 24" d="M2130.333,1744.7l-148.118-27.732h-167.5L1652.178,1744.7V1780.9l164.338-27.732h164.606l149.211,27.732V1744.7Z" fill="#b4cdd3" fill-rule="evenodd"/>
    <path id="Tracé_25" data-name="Tracé 25" d="M1995.685,1629.087l-65.52-16.688h-74.091l-71.9,16.688v21.788l72.694-16.687h72.813l66,16.688v-21.788Z" fill="#b4cdd3" fill-rule="evenodd"/>
    <path id="Tracé_26" data-name="Tracé 26" d="M1895.921,1500.61h-9.332V1612.4h9.332V1500.61Z" fill="#118793" fill-rule="evenodd"/>
    <path id="Tracé_27" data-name="Tracé 27" d="M1886.589,1500.61s14.132-4.115,48.072,11.638,42.993,13.162,58.352,8.214c0,0-26.085,43.359-58.352,36.043s-48.072,0-48.072,0v-55.9Z" fill="#f99325" fill-rule="evenodd"/>
  </g>
</svg>
