<svg xmlns="http://www.w3.org/2000/svg" xmlns:xlink="http://www.w3.org/1999/xlink" width="1062.823" height="779.458" viewBox="0 0 1062.823 779.458">
  <defs>
    <clipPath id="clip-path">
      <path id="Tracé_65" data-name="Tracé 65" d="M96.546,517.065c0,153.642,124.74,278.375,278.382,278.375S653.306,670.707,653.306,517.065,528.569,238.684,374.928,238.684,96.546,363.421,96.546,517.065Z" fill="none"/>
    </clipPath>
    <clipPath id="clip-path-2">
      <path id="Tracé_67" data-name="Tracé 67" d="M331.446,623.07c-8.358,20.466-37.129,20.246-56.329,20.028-9.324-.112-16.39-.217-17.77,2.042q117.246,26.9,233.34,2.32s-1.433-.691-54.345-4.955c-28.752-2.317-20.007-82.378-18.522-88.452l-84.438-1.621s4.533,54.794-1.936,70.638Z" fill="none"/>
    </clipPath>
    <clipPath id="clip-path-4">
      <path id="Tracé_82" data-name="Tracé 82" d="M901.7,646.66c-8.46,20.72-35.547,20.5-53.661,20.268-8.8-.109-15.475-.214-16.872,2.07l236.207,2.35s3.124-.7-50.436-5.021c-29.111-2.342-24.832-83.384-23.33-89.526l-85.472-1.648s.109,55.467-6.436,71.507Z" fill="none"/>
    </clipPath>
    <clipPath id="clip-path-5">
      <path id="Tracé_97" data-name="Tracé 97" d="M594.871,742.058c-8.558,20.963,37.7,30.208,73.059,25.784,35.178-4.4,59.435-22.4,56.995-31.174-9.5-34.175-6.509-84.031-5.158-89.544L603.62,644.89s.148,75.373-8.749,97.168Z" fill="none"/>
    </clipPath>
  </defs>
  <g id="Groupe_16" data-name="Groupe 16" transform="translate(-96.546 -237.759)">
    <path id="Tracé_61" data-name="Tracé 61" d="M511.386,255.234c308.64-119.264,907.38,435.889,521.633,711.111C853.625,1094.336,732.252,935,546.839,943.92c-167.289,8.043-326.193,21-326.193-286.317a404.184,404.184,0,0,1,37.425-169.92c23.711-51.673,58.852-99.2,102.033-138.821a481.525,481.525,0,0,1,151.282-93.628Z" fill="#eaedf9" stroke="#dbe7ea" stroke-linecap="round" stroke-linejoin="round" stroke-width="1.81" fill-rule="evenodd"/>
    <g id="Groupe_7" data-name="Groupe 7">
      <g id="Groupe_6" data-name="Groupe 6" clip-path="url(#clip-path)">
        <path id="Tracé_62" data-name="Tracé 62" d="M325.889,450.511c.29-.145.587-.366.887-.525.634-.329,1.289-.612,1.944-.873a18.569,18.569,0,0,1,6.505-1.411c4.315-.026,8.094,2.164,12.293,2.725,1.644.218,4.076-.094,4.011-2.6-.076-2.99-3.008-4.836-5.039-5.944-5.14-2.813-11.424-3.906-17.107-1.647-6.581,2.617-8.551,12.876-3.494,10.277" fill="#373f41" fill-rule="evenodd"/>
        <path id="Tracé_63" data-name="Tracé 63" d="M383.814,320.29c-8.575-.63-27.88.633-28.745.811-.7.141-1.386.3-2.081.456s-1.419.333-2.132.506c-23.881,5.865-46.555,17.477-61.259,37.72-37.31,51.38-14.552,122.452-27.649,180.837-5.571,24.839-18.675,108.741-23.246,118.561-.185.4,266.045-11.909,274.917-10.7.627.083-9.676-10.3-14.052-26.338-6.157-22.552-11.269-40.633-14.422-63.768-5.741-42.16,1.759-54.573.862-89.157-1.5-57.733-14.353-142.478-102.193-148.928" fill="#373f41" fill-rule="evenodd"/>
        <path id="Tracé_64" data-name="Tracé 64" d="M333.382,552.432s4.533,54.794-1.936,70.638c-12.413,30.4-69.874,15.152-74.1,22.07q117.246,26.9,233.34,2.32s-1.433-.691-54.345-4.955c-28.752-2.317-20.007-82.378-18.522-88.452l-84.438-1.621Z" fill="#fec6ad" fill-rule="evenodd"/>
      </g>
    </g>
    <g id="Groupe_9" data-name="Groupe 9">
      <g id="Groupe_8" data-name="Groupe 8" clip-path="url(#clip-path-2)">
        <path id="Tracé_66" data-name="Tracé 66" d="M333.274,568.475c.543.152,1.231,1.347,1.578,1.73,1.463,1.6,3.03,3.095,4.6,4.586a161.029,161.029,0,0,0,17.2,14.259c18.164,12.985,37.476,18.154,59.564,19.251,4.37.217,8.75.293,13.123.322,2.168.018,4.81.311,6.9-.449,1.846-.677,1.3-2.94.988-4.424-.891-4.184-2.306-8.282-3.49-12.387-3.525-12.235-6.447-24.658-9.14-37.1-.782-3.606-1.4-7.273-2.5-10.806-.388-1.245-.757-3.1-1.922-3.9-2.064-1.423-6.281-.67-8.554-.529-6.99.424-13.937,1.047-20.945,1.227-14.4.38-28.832.522-43.243.522-11.793,0-24.4-.453-36.039,2.005" fill="#fd9161" fill-rule="evenodd"/>
      </g>
    </g>
    <path id="Tracé_68" data-name="Tracé 68" d="M417.255,613.784s-5.73,28.609-41.082,28.746c-21.958.083-35.623-6.219-42.548-30.555,0,0-114.807,32.72-130.225,50.786-13.892,16.275-39.029,132.56-39.029,132.56l421.11.119s-31.993-121.881-44.955-131.774c-17.282-13.187-66.472-34.207-109.128-47.329a83.694,83.694,0,0,0-14.143-2.553" fill="#f99325" fill-rule="evenodd"/>
    <path id="Tracé_69" data-name="Tracé 69" d="M317.926,795.364l.528-179.027C286.8,625.9,215.343,648.767,203.4,662.761c-13.892,16.275-39.029,132.56-39.029,132.56l153.555.043Z" fill="#dbe8ee" fill-rule="evenodd"/>
    <path id="Tracé_70" data-name="Tracé 70" d="M431.926,795.364,431.4,616.337c31.659,9.564,103.111,32.43,115.053,46.424,13.894,16.275,39.03,132.56,39.03,132.56l-153.555.043Z" fill="#dbe8ee" fill-rule="evenodd"/>
    <path id="Tracé_71" data-name="Tracé 71" d="M318.454,616.337c-7.464,11.283-25.389,32.81-36.227,81.385l24.108,26.385-25.6,13.955s2.078,31.771,12.524,57.295l24.67.007.528-179.027Z" fill="#f5f9fc" fill-rule="evenodd"/>
    <path id="Tracé_72" data-name="Tracé 72" d="M431.4,616.337c7.464,11.283,25.389,32.81,36.227,81.385l-24.108,26.385,25.607,13.955s-2.082,31.771-12.528,57.295l-24.67.007L431.4,616.337Z" fill="#f5f9fc" fill-rule="evenodd"/>
    <path id="Tracé_73" data-name="Tracé 73" d="M295.28,459.137s.279,123.441,79.843,126.927S454.369,465.49,454.369,465.49L428.777,354.87,337.748,352.3,295.28,459.137Z" fill="#fec6ad" fill-rule="evenodd"/>
    <path id="Tracé_74" data-name="Tracé 74" d="M349.878,447.582s-10.222-8.637-23.449,5.539c-3.653,3.916,4.221-1.1,12-2.244,8.387-1.232,16.713,1.093,11.446-3.3" fill="#cc632c"/>
    <path id="Tracé_75" data-name="Tracé 75" d="M415.546,363.428c-1-.615-.268,2.327-.329,3.5-.127,2.4-.112,4.789-.065,7.189.137,6.787.34,13.575.937,20.344,2.227,25.212,10.976,56.644,34.505,70.692,6.063,3.616,13.093,5.22,19.862,7.012.662.174,5.828,1.969,6.327,1.194.562-.876-.228-3.051-.376-3.952-.677-4.153-1.513-8.257-2.57-12.334-4.224-16.271-10.4-32.061-16.67-47.641-3.949-9.824-8.217-19.51-12.318-29.27-6.212-14.787-12.517-30.855-27.945-38.269-12.883-6.193-25.694-3.779-39.33-2.838-16.518,1.133-34.725-1.6-49.4,7.613-11.055,6.939-17.574,19.04-22.226,30.812-7.924,20.047-13.792,41.379-12.894,62.993.253,6.056-1.893,14.613.033,20.39,1.314,3.946,10.056,5.977,13.1,6.661,13.824,3.092,29.48-.257,41.933-6.606,9.661-4.927,17.436-12.474,24.918-20.177,15.874-16.333,28.406-34.374,35.609-56.177,2.563-7.764,6.708-17.535,6.708-25.929" fill="#373f41" fill-rule="evenodd"/>
    <g id="Groupe_11" data-name="Groupe 11">
      <g id="Groupe_10" data-name="Groupe 10" clip-path="url(#clip-path)">
        <path id="Tracé_76" data-name="Tracé 76" d="M302.585,511.458c.152-1.918,4.228-12.814,2.729-23.326-1.806-12.717-9.321-25.26-10.034-25.719-.811-.514-1.521-.974-1.683-1.039a14.743,14.743,0,0,0-3.027-.862,11.1,11.1,0,0,0-8.249,1.944c-6.925,4.713-9.017,14.921-8.887,22.726.177,10.588,3.873,22.581,11.855,29.99,6.143,5.7,15.395,4.825,17.3-3.714" fill="#fec6ad" fill-rule="evenodd"/>
        <path id="Tracé_77" data-name="Tracé 77" d="M450.181,511.458c-.155-1.918-4.232-12.814-2.737-23.326,1.814-12.717,9.325-25.26,10.042-25.719.811-.514,1.52-.974,1.68-1.039a14.682,14.682,0,0,1,3.03-.862,11.1,11.1,0,0,1,8.245,1.944c6.925,4.713,9.021,14.921,8.891,22.726-.181,10.588-3.877,22.581-11.859,29.99-6.143,5.7-15.395,4.825-17.292-3.714" fill="#fec6ad" fill-rule="evenodd"/>
      </g>
    </g>
    <path id="Tracé_79" data-name="Tracé 79" d="M1043.122,486.843c-.058-4.459-.572-9.513-.3-12.126a95.707,95.707,0,0,0,.261-15.341c-1.191-21.864-5.528-44.561-14.14-64.767a144.314,144.314,0,0,0-29.194-43.493c-.908-.941-10.023-11.069-11.75-9.259-1.828,1.915,1.567,6.186,1.1,8.431-.214,1.028-9.409-7.573-10.19-8.3-6.6-6.147-13.387-12.467-20.76-17.694-1.517-1.075-6.035-4.814-8.257-4.148-.7.21,1.422,3.6,1.56,3.858.84,1.557,7.732,13.5,5.868,14.7-1.441.937-10.458-3.848-12.022-4.4-11.334-3.982-24.467-5.742-36.387-6.675-11.942-.934-24.325.249-36.235,1.353-2.019.185-11.778,2.61-13.469.923-.9-.9,2.523.384,3.743.735a39.346,39.346,0,0,1,7.16,2.777c4.637,2.378,20.5,10.783,19.218,17.675-.9,4.83-14.422,9.922-18.041,12.79-9.8,7.764-22.878,24.636-24.2,37.82-.141,1.43,14.95-8.409,15.823-4.919,1.495,5.983-3.436,16.542-4.38,22.5a304.6,304.6,0,0,0-3.588,47.887c0,7.66-1.523,19.138,5.593,24.561,9.122,6.946,24.593,8.872,35.232,11.732a233.645,233.645,0,0,0,30.042,6.23,293.693,293.693,0,0,0,46.323,2.45c22.968-.615,52.376-2.255,70.927-17.56" fill="#373f41" fill-rule="evenodd"/>
    <path id="Tracé_80" data-name="Tracé 80" d="M908.137,575.153s.109,55.467-6.436,71.507C889.133,677.44,835.447,662,831.172,669l236.2,2.35s3.128-.7-50.432-5.017c-29.111-2.346-24.832-83.388-23.33-89.53l-85.472-1.648Z" fill="#fec6ad" fill-rule="evenodd"/>
    <g id="Groupe_13" data-name="Groupe 13">
      <g id="Groupe_12" data-name="Groupe 12" clip-path="url(#clip-path-4)">
        <path id="Tracé_81" data-name="Tracé 81" d="M908.028,591.4c.551.152,1.242,1.361,1.6,1.752,1.481,1.618,3.063,3.135,4.652,4.641a163.39,163.39,0,0,0,17.4,14.435c18.392,13.141,37.943,18.375,60.3,19.486,4.423.221,8.858.293,13.285.326,2.2.018,4.872.311,6.982-.456,1.868-.684,1.318-2.976,1-4.478-.9-4.235-2.338-8.38-3.533-12.539-3.569-12.387-6.526-24.962-9.252-37.556-.793-3.653-1.423-7.363-2.53-10.94-.395-1.259-.771-3.138-1.944-3.949-2.089-1.433-6.364-.677-8.662-.535-7.074.434-14.107,1.06-21.2,1.248-14.581.381-29.187.529-43.771.525-11.942,0-24.706-.459-36.481,2.031" fill="#fd9161" fill-rule="evenodd"/>
      </g>
    </g>
    <path id="Tracé_83" data-name="Tracé 83" d="M994.894,631.352s-8.343,29.654-42.8,29.781c-21.4.075-29.487-14.415-46.6-32.5,0,0-110.355,32.539-119.437,39.214-16.981,12.478-38.041,126.8-38.041,126.8l410.434.112s-31.7-121.16-46.432-126.706c-41.263-15.529-65.646-26.725-117.128-36.705" fill="#f99325" fill-rule="evenodd"/>
    <path id="Tracé_84" data-name="Tracé 84" d="M889.947,795.364l1.267-162.6c-30.515,8.818-100.143,26.769-111.654,39.677-13.39,15.012-37.618,122.96-37.618,122.96l148.005-.033Z" fill="#d3e3ea" fill-rule="evenodd"/>
    <path id="Tracé_85" data-name="Tracé 85" d="M1010.449,795.364l-1.267-162.6c30.515,8.818,100.143,26.769,111.655,39.677,13.389,15.012,37.617,122.96,37.617,122.96l-148.005-.033Z" fill="#d3e3ea" fill-rule="evenodd"/>
    <path id="Tracé_86" data-name="Tracé 86" d="M891.214,632.76c-7.192,10.4-25.227,27.12-35.674,71.923l23.236,24.333L854.1,741.884s2,29.929,12.069,53.473l23.779.007,1.27-162.6Z" fill="#f5f9fc" fill-rule="evenodd"/>
    <path id="Tracé_87" data-name="Tracé 87" d="M1009.182,632.76c7.2,10.4,25.231,27.12,35.674,71.923l-23.236,24.333,24.68,12.868s-2,29.929-12.069,53.473l-23.778.007-1.271-162.6Z" fill="#f5f9fc" fill-rule="evenodd"/>
    <path id="Tracé_88" data-name="Tracé 88" d="M869.564,480.715s.173,64.893,31.456,102.254c11.631,13.889,26.259,18.9,48.09,19.858,19.53.855,38.041-3.25,49.22-13.947,34.917-33.419,32.278-101.733,32.278-101.733,10.356-31.409-4.847-52.752-27.066-94.308l-98.511-.811C869.459,419,856.42,432.922,869.564,480.715" fill="#fec6ad" fill-rule="evenodd"/>
    <path id="Tracé_89" data-name="Tracé 89" d="M1033.45,491.361c-.247-2.527-2.444.684-2.842-1.825-1.188-7.413-.8-20.539-2.585-27.829-1.129-4.637-2.429-9.223-3.859-13.781-5.375-17.194-12.98-48.278-36.151-45.3-8.514,1.09-16.025,5.56-22.762,10.639-4.358,3.28-10.182,8.543-15.974,8.59-7.768.062-16.369-9.564-22.834-13.1-5.358-2.928-11.33-5.7-17.553-5.835-11.884-.253-22.07,10.233-28.829,19.142-11.981,15.8-12.984,41.867-10.5,59.88.749,5.412,6.621,20.419,0,23.54-5.108,2.407-13.944-12.163-13.792-15.95.405-9.842-2.541-15.065-.586-40.079A117.275,117.275,0,0,1,866.2,407.369c20.684-42.457,83.949-60.607,125.143-40.246,42.385,20.949,64.111,78.939,44.669,122.689" fill="#373f41" fill-rule="evenodd"/>
    <path id="Tracé_90" data-name="Tracé 90" d="M876.959,533.677c.156-1.94,4.282-12.97,2.769-23.612-1.835-12.869-9.44-25.567-10.164-26.034-.818-.522-1.539-.985-1.7-1.05a15.318,15.318,0,0,0-3.066-.876,11.235,11.235,0,0,0-8.347,1.973c-7.012,4.767-9.129,15.1-8.995,23,.177,10.721,3.92,22.859,12,30.359,6.218,5.774,15.583,4.887,17.505-3.761" fill="#fec6ad" fill-rule="evenodd"/>
    <path id="Tracé_91" data-name="Tracé 91" d="M1026.365,533.677c-.155-1.94-4.282-12.97-2.769-23.612,1.836-12.869,9.441-25.567,10.165-26.034.821-.522,1.538-.985,1.7-1.05a15.336,15.336,0,0,1,3.066-.876,11.244,11.244,0,0,1,8.351,1.973c7.008,4.767,9.126,15.1,8.995,23-.18,10.721-3.923,22.859-12,30.359-6.219,5.774-15.583,4.887-17.506-3.761" fill="#fec6ad" fill-rule="evenodd"/>
    <path id="Tracé_92" data-name="Tracé 92" d="M1030.608,487.147s-24.13,106.29-47.6,93.972-34.472-16.666-56.5-.655-57.5-98.518-57.5-98.518,4.561,106.619,55.3,120.99c9.437,2.671,18.248,5.723,26.436,5.422,39.058-1.444,64.017-27.308,72.524-64.657,10.277-45.118,7.341-56.554,7.341-56.554" fill="#373f41" fill-rule="evenodd"/>
    <path id="Tracé_93" data-name="Tracé 93" d="M783.158,495.187c-2.929-23.942-13.405-56.984-26.19-71.981-3.96-4.644-6.559-10.327-10.653-14.831-12.127-13.335-31.4-22.8-48.115-29.4-18.494-7.3-37.882-10.878-57.708-11.7-19-.785-60.231,20.2-60.416,20.449-1.111,1.539-31.247,29.43-31.489,32.963-.188,2.823-4.836,26.667-4.014,33.74.763,6.531-2.545,13.716-3,20.264-.908,13.343.308,26.791,2.049,40.018.514,3.935,1.4,17.987,5.853,20.416,13.977,7.627,36.905,6.414,52.025,7.269,42.588,2.418,84.451.879,126.587-5.654,13.795-2.14,37.223,2.034,50.37-2.864,5.224-1.947,6.871-20.951,4.7-38.689" fill="#18101c" fill-rule="evenodd"/>
    <path id="Tracé_94" data-name="Tracé 94" d="M558.878,407.587c-2.012-9.818,7.815-7.794,12.051-13.886,2.809-4.04,4.554-7.845,9.393-9.864,3.186-1.325,7.935-.6,10.617-2.715,4.062-3.193,5.832-8.8,10.346-12.109,10.863-7.971,17.618-5.053,29.592-6.132,5.347-.485,10.433-2.175,15.888-2.106,7.182.09,13.585,5.292,20.6,5.114,10.077-.25,17.94-6.334,28.589-3.08,10.013,3.058,11.729,12.155,19.164,17.607,6.125,4.492,15.192,4.539,21.625,8.608,3.348,2.117,2.635,7.366,5.017,8.85,3.341,2.074,7.627.485,10.95,3.642,4.358,4.141,1.223,12.467,4.731,15.855,2.816,2.719,9.817-2.27,14.389,6.194,4.413,8.173-4.431,16.477-1.738,23.514,1.557,4.062,9.557,5.2,11.772,10.36,2.686,6.252-1.632,11.833-.155,17.806,1.028,4.17,5.879,5.894,7.109,10.02.8,2.686-1.328,4.8-.945,7.388.572,3.91,4.945,6.165,5.213,10.375.279,4.4-3.475,5.372-4.622,8.818-.982,2.946.5,6.993-.127,10.2-1.423,7.3-6.505,9.984-11.569,14L661.042,468.277,547.454,538.81c-4.789-4.014-9.589-6.7-10.936-14-.59-3.211.808-7.258-.119-10.2-1.086-3.443-4.634-4.417-4.369-8.818.257-4.21,4.384-6.466,4.93-10.375.362-2.588-1.651-4.7-.9-7.388,1.162-4.127,3.971-7.084,4.945-11.258,1.4-5.969-4.489-13.719-1.951-19.97,2.092-5.155,3.7-9.224,5.169-13.285,2.548-7.038-2.02-13.532,2.154-21.705,4.318-8.463,6.773,1.915,7.6-11.037.127-1.958,2.208-2.7,4.9-3.185" fill="#373f41" fill-rule="evenodd"/>
    <path id="Tracé_95" data-name="Tracé 95" d="M603.62,644.89s.148,75.373-8.749,97.168c-8.558,20.963,37.7,30.208,73.059,25.784,35.178-4.4,59.435-22.4,56.995-31.174-9.5-34.175-6.509-84.031-5.158-89.544L603.62,644.89Z" fill="#feb99b" fill-rule="evenodd"/>
    <g id="Groupe_15" data-name="Groupe 15">
      <g id="Groupe_14" data-name="Groupe 14" clip-path="url(#clip-path-5)">
        <path id="Tracé_96" data-name="Tracé 96" d="M603.472,672.383c.745.188,1.69,1.669,2.171,2.143,2.013,1.987,4.163,3.844,6.324,5.694a218.123,218.123,0,0,0,23.649,17.687c24.988,16.108,51.554,22.522,81.928,23.883,6.009.272,12.04.359,18.052.4,2.987.022,6.621.384,9.488-.561,2.541-.836,1.792-3.645,1.357-5.484-1.223-5.194-3.171-10.273-4.8-15.37-4.847-15.182-8.868-30.591-12.571-46.03-1.075-4.478-1.933-9.024-3.435-13.4-.536-1.55-1.047-3.852-2.65-4.84-2.838-1.763-8.641-.829-11.761-.655-9.622.532-19.175,1.295-28.814,1.524-19.815.47-39.663.651-59.478.648-16.228,0-33.575-.565-49.574,2.49" fill="#fd9161" fill-rule="evenodd"/>
      </g>
    </g>
    <path id="Tracé_98" data-name="Tracé 98" d="M721.9,724.582s-11.449,41.07-59.5,41.244c-29.853.109-39.554-20.018-63.42-45.245,0,0-157.157,50.787-169.822,60.1-23.681,17.405-51.381,171.368-51.381,171.368l572.431-.8s-42.128-164.78-62.678-172.512C829.977,757.066,793.7,738.5,721.9,724.582" fill="#118793" fill-rule="evenodd"/>
    <path id="Tracé_99" data-name="Tracé 99" d="M749.594,951.243l-1.665-222.35c40.083,12.1,131.542,36.745,146.659,54.464,17.589,20.6,55.612,167.828,55.612,167.828l-200.606.058Z" fill="#d3e3ea" fill-rule="evenodd"/>
    <path id="Tracé_100" data-name="Tracé 100" d="M747.929,728.893c9.452,14.28,33.14,37.226,46.859,98.728l-30.522,33.4,32.419,17.665s-2.632,40.227-15.859,72.542l-31.232.011-1.665-222.35Z" fill="#f5f9fc" fill-rule="evenodd"/>
    <path id="Tracé_101" data-name="Tracé 101" d="M569.336,952.1,571,728.893c-40.08,12.1-131.539,36.745-146.659,54.464-17.586,20.6-49.411,168.787-49.411,168.787l194.408-.044Z" fill="#d3e3ea" fill-rule="evenodd"/>
    <path id="Tracé_102" data-name="Tracé 102" d="M571,728.893c-9.448,14.28-33.137,37.226-46.856,98.728l30.523,33.4-32.42,17.665s2.625,41.085,15.852,73.4l31.232.01L571,728.893Z" fill="#f5f9fc" fill-rule="evenodd"/>
    <path id="Tracé_103" data-name="Tracé 103" d="M557.163,527.161s4.372,173.095,106.3,171.234c93.762-1.708,105.972-162.752,105.972-162.752,13.65-41.4-6.386-69.534-35.674-124.31l-129.848-1.072c-46.892,35.555-64.083,53.908-46.754,116.9" fill="#feb99b" fill-rule="evenodd"/>
    <path id="Tracé_104" data-name="Tracé 104" d="M579.345,463.4c-.054-.054-.112-.116-.163-.177-.047.126-.1.26-.141.4l.3-.224Zm-24.832,72.057c-1.969,2.921-3.877,5.357-4.67,5.14-.839-.228-1.64-5.19-1.814-5.875a112.468,112.468,0,0,1-2.91-21.331c-1.762-30.444,4.825-63.4,17.249-91.246a83.9,83.9,0,0,1,15.493-23.276c50.678-53.965,138.351-17.839,176.74,32.64,16.669,21.922,38.2,69.845,23.858,97.273l-4.753,2.031c.073,1.835.431,7.6-1.122,8.441-.5.272-2.1-4.188-2.555-4.586-1.293-1.137-2.907-1.455-3.961-2.961-1.491-2.129-1.267-4.909-2.566-7.1-1.093-1.854-2.816-2.871-3.577-5.035-.825-2.371-.275-4.833-.926-7.146-1.379-4.916-4.492-9.357-6.6-13.955-.721-1.578-.246-3.409-.923-4.941-.924-2.084-4.344-2.508-5.553-4.662-1.582-2.82.735-5.832.083-8.811-.59-2.707-3.45-4.029-4.061-6.476-.381-1.527.673-2.975.553-4.5-.173-2.187-2.092-3.758-2.566-5.875-.76-3.388.239-6.729-1.2-9.415-2.114,2.928-8.655,1.361-11.377,3.486-2.19,1.705-3.75,4.4-6.415,5.437-2.9,1.129-5.838.68-8.821.579-.337.116-.673.224-1.006.336a123.205,123.205,0,0,1-17.481,4.333c-1.111,1.669-2.114,3.57-3.851,4.42-3.537,1.73-10.708.807-14.679.84-3.363.033-6.613-1.886-9.972-1.629-2.838.225-4.268,2.588-7.414,1.857a16.526,16.526,0,0,1-5.452-2.523l-.4,0a.342.342,0,0,1-.054.072c-1.361,1.741-4.507,1.256-6.393,1.108-4.159-.326-7.019,2.946-10.841,2.313-4.21-.7-9.383-.391-13.4-1.817-1.343-.478-2.592-1.731-3.881-2.69-3.913-.355-7.815-.818-11.7-1.426-7.858.018-16.2.116-23.142-2.842a9.317,9.317,0,0,1-2.606-1.748c-.4,3.457.93,6.617.93,10.157,0,2.125-1.972,3.32-2.132,5.307-.137,1.716,1.56,2.823.88,4.681-.463,1.259-2.154,1.907-2.4,3.171-.449,2.345,1.419,4.38.872,6.9-.771,3.545-3.359,4.989-4.879,7.91-.366.706.311,2.19-.048,2.639-.608.76-1.773-.938-2.208,1.057-.59,2.715.264,5.538-.514,8.257-1.147,4-4.434,7.92-5.944,11.909-.658,1.738,1.687,3.46.6,5.267-1.282,2.125-4.022.977-5.854,1.976-1.165.637-.908,3.07-2.142,3.265a3.194,3.194,0,0,1-2.5-.948" fill="#373f41" fill-rule="evenodd"/>
    <path id="Tracé_105" data-name="Tracé 105" d="M566.911,596.974c.206-2.559,5.643-17.1,3.649-31.127-2.415-16.967-12.438-33.7-13.4-34.313-1.083-.688-2.028-1.3-2.245-1.386a19.468,19.468,0,0,0-4.04-1.151,14.8,14.8,0,0,0-11,2.595c-9.238,6.288-12.029,19.906-11.859,30.32.239,14.136,5.173,30.128,15.819,40.018,8.2,7.612,20.543,6.443,23.077-4.956" fill="#feb99b" fill-rule="evenodd"/>
    <path id="Tracé_106" data-name="Tracé 106" d="M761.055,596.974c-.206-2.559-5.644-17.1-3.649-31.127,2.415-16.967,12.438-33.7,13.4-34.313,1.079-.688,2.027-1.3,2.241-1.386A19.581,19.581,0,0,1,777.087,529a14.811,14.811,0,0,1,11.005,2.595c9.238,6.288,12.032,19.906,11.855,30.32-.236,14.136-5.169,30.128-15.819,40.018-8.2,7.612-20.543,6.443-23.073-4.956" fill="#feb99b" fill-rule="evenodd"/>
  </g>
</svg>
