<svg xmlns="http://www.w3.org/2000/svg" width="939.632" height="779.454" viewBox="0 0 939.632 779.454">
  <g id="Groupe_3" data-name="Groupe 3" transform="translate(-157.689 -1512.761)">
    <path id="Tracé_28" data-name="Tracé 28" d="M449.338,1530.232c308.64-119.26,907.38,435.893,521.633,711.111C791.578,2369.338,670.2,2210,484.787,2218.918c-167.285,8.047-326.193,21.006-326.193-286.317a404.193,404.193,0,0,1,37.426-169.92c23.714-51.67,58.855-99.2,102.033-138.822a481.613,481.613,0,0,1,151.285-93.627Z" fill="#eaedf9" stroke="#dbe7ea" stroke-linecap="round" stroke-linejoin="round" stroke-width="1.81" fill-rule="evenodd"/>
    <path id="Tracé_29" data-name="Tracé 29" d="M572.261,1513.685H501.087V2232.1h71.174V1513.685Z" fill="#373f41" fill-rule="evenodd"/>
    <path id="Tracé_30" data-name="Tracé 30" d="M900.155,1551.241l162.329,114.529L900.155,1780.3H387.536V1551.241Z" fill="#118793" fill-rule="evenodd"/>
    <path id="Tracé_31" data-name="Tracé 31" d="M984.73,1610.911l77.754,54.859L900.155,1780.3H387.536v-66.547c122.641,18.461,532.025,71.612,585.527-32.4,12.85-24.981,14.012-50.49,11.667-70.439Z" fill="#0f7882" fill-rule="evenodd"/>
    <path id="Tracé_32" data-name="Tracé 32" d="M266.162,1848.946l-107.568,80.567,107.568,80.567H605.846V1848.946Z" fill="#f99325" fill-rule="evenodd"/>
    <path id="Tracé_33" data-name="Tracé 33" d="M664.046,2078.735l60.962,45.9-60.962,45.9H471.535v-91.8Z" fill="#118793" fill-rule="evenodd"/>
    <path id="Tracé_34" data-name="Tracé 34" d="M208.961,1891.791l-50.367,37.722,107.568,80.568H605.846v-34.309c-153.967,14.37-351.322,18.446-386.149-49.252a105.536,105.536,0,0,1-10.736-34.729Z" fill="#e87b06" fill-rule="evenodd"/>
    <path id="Tracé_35" data-name="Tracé 35" d="M696.466,2103.144l28.542,21.491-60.962,45.9H471.535v-19.551c87.26,8.192,199.11,10.513,218.846-28.057a60.4,60.4,0,0,0,6.085-19.786Z" fill="#0f7882" fill-rule="evenodd"/>
  </g>
</svg>
