<svg xmlns="http://www.w3.org/2000/svg" width="939.627" height="916.078" viewBox="0 0 939.627 916.078">
  <g id="Groupe_4" data-name="Groupe 4" transform="translate(-2707.691 -169.911)">
    <path id="Tracé_36" data-name="Tracé 36" d="M2999.336,324c308.64-119.259,907.38,435.893,521.633,711.115-179.393,127.991-300.771-31.348-486.184-22.428-167.284,8.046-326.189,21-326.189-286.314a404.163,404.163,0,0,1,37.422-169.92c23.714-51.673,58.855-99.2,102.033-138.821A481.575,481.575,0,0,1,2999.336,324Z" fill="#eaedf9" stroke="#dbe7ea" stroke-linecap="round" stroke-linejoin="round" stroke-width="1.81" fill-rule="evenodd"/>
    <path id="Tracé_37" data-name="Tracé 37" d="M3367.433,774.995,3481.27,945.212a25.455,25.455,0,0,1-21.161,39.6H3164.677a25.454,25.454,0,0,1-21.158-39.6l113.834-170.217v-176.7h110.08v176.7Z" fill="#bdd3d8" fill-rule="evenodd"/>
    <path id="Tracé_38" data-name="Tracé 38" d="M3203.41,984.816h-21.5a25.454,25.454,0,0,1-21.158-39.6l113.834-170.217v-176.7h21.5v176.7L3182.251,945.212a25.455,25.455,0,0,0,21.159,39.6Z" fill="#fff" fill-rule="evenodd"/>
    <path id="Tracé_39" data-name="Tracé 39" d="M3383.125,578.78H3241.66v19.515h141.465V578.78Z" fill="#dee9eb" fill-rule="evenodd"/>
    <path id="Tracé_40" data-name="Tracé 40" d="M3161.307,719.144l145.591,217.7a32.554,32.554,0,0,1-27.059,50.652H2901.991a32.554,32.554,0,0,1-27.062-50.652l145.591-217.7V493.149h140.787V719.144Z" fill="#bdd3d8" fill-rule="evenodd"/>
    <path id="Tracé_41" data-name="Tracé 41" d="M3207.46,788.153l99.438,148.69a32.554,32.554,0,0,1-27.059,50.652H2901.991a32.554,32.554,0,0,1-27.062-50.652l99.441-148.69Z" fill="#118793" fill-rule="evenodd"/>
    <path id="Tracé_42" data-name="Tracé 42" d="M3055.777,818.795a35.138,35.138,0,1,1-35.141,35.138,35.157,35.157,0,0,1,35.141-35.138Z" fill="#f99325" fill-rule="evenodd"/>
    <path id="Tracé_43" data-name="Tracé 43" d="M3138.256,887.822a25.337,25.337,0,1,1-25.336,25.34,25.35,25.35,0,0,1,25.336-25.34Z" fill="#f99325" fill-rule="evenodd"/>
    <path id="Tracé_44" data-name="Tracé 44" d="M2951.529,987.495h-27.5a32.554,32.554,0,0,1-27.062-50.652l145.591-217.7V493.149h27.5V719.144l-145.591,217.7a32.554,32.554,0,0,0,27.063,50.652Z" fill="#fff" fill-rule="evenodd"/>
    <path id="Tracé_45" data-name="Tracé 45" d="M3181.376,468.19H3000.451v24.959h180.925V468.19Z" fill="#dee9eb" fill-rule="evenodd"/>
    <path id="Tracé_46" data-name="Tracé 46" d="M3143.4,393.6l-44.619,37.976a3.493,3.493,0,0,1-4.836-4.767l37.361-45.118s-.34-8.583.268-12.626a7.07,7.07,0,0,1,1.933-3.942c15.25-15.461,135.868-137.718,135.868-137.718l26.418,26.063L3160.221,390.888a7.17,7.17,0,0,1-4.713,2.074c-4.5.286-12.1.633-12.1.633Z" fill="#bdd3d8" fill-rule="evenodd"/>
    <path id="Tracé_47" data-name="Tracé 47" d="M3143.4,393.6l-44.619,37.976a3.493,3.493,0,0,1-4.836-4.767l37.361-45.118s-.34-8.583.268-12.626a7.07,7.07,0,0,1,1.933-3.942c15.25-15.461,68.965-69.907,68.965-69.907l26.422,26.067s-52.249,52.958-68.676,69.61a7.17,7.17,0,0,1-4.713,2.074c-4.5.286-12.1.633-12.1.633Z" fill="#f99325" fill-rule="evenodd"/>
    <path id="Tracé_48" data-name="Tracé 48" d="M3292.288,208.16a33.057,33.057,0,0,0,8.977-17.23,25.484,25.484,0,0,1,6.969-13.325,25.866,25.866,0,1,1,22.044,43.775,23.727,23.727,0,0,0-13.433,6.809c-6.639,6.683-15.819,15.989-15.819,15.989l-22.436-22.135s7.4-7.5,13.7-13.883Z" fill="#373f41" fill-rule="evenodd"/>
    <path id="Tracé_49" data-name="Tracé 49" d="M3315.038,249.977,3272.6,208.113,3261.371,219.5l42.432,41.867,11.236-11.388Z" fill="#dee9eb" fill-rule="evenodd"/>
  </g>
</svg>
