<svg xmlns="http://www.w3.org/2000/svg" width="939.627" height="905.226" viewBox="0 0 939.627 905.226">
  <g id="Groupe_1" data-name="Groupe 1" transform="translate(-2707.691 -1450.338)">
    <path id="Tracé_1" data-name="Tracé 1" d="M2999.336,1593.576c308.64-119.26,907.38,435.893,521.633,711.115-179.393,127.991-300.771-31.345-486.184-22.429-167.284,8.047-326.189,21.006-326.189-286.313a404.159,404.159,0,0,1,37.422-169.92c23.714-51.674,58.855-99.2,102.033-138.822a481.57,481.57,0,0,1,151.285-93.631Z" fill="#eaedf9" stroke="#dbe7ea" stroke-linecap="round" stroke-linejoin="round" stroke-width="1.81" fill-rule="evenodd"/>
    <path id="Tracé_2" data-name="Tracé 2" d="M2954.7,2151.965s29.69-15.728,40.286-19.515,17.7-46.577-29.05-57.928-29.816,37.393-20.2,51.416,8.963,26.027,8.963,26.027Z" fill="#fec6ad" fill-rule="evenodd"/>
    <path id="Tracé_3" data-name="Tracé 3" d="M3497.686,1707.855a56.028,56.028,0,1,1,56.028,56.028,56.028,56.028,0,0,1-56.028-56.028" fill="#2c3e4d" fill-rule="evenodd"/>
    <path id="Tracé_4" data-name="Tracé 4" d="M2956.484,1727.46s297.2-127.658,375.814-177.775,162.091-99.347,162.091-99.347,126.148,318.624,88.889,515.03c0,0-420.223-91.383-594.769-71.894l-32.025-166.014Z" fill="#118793" fill-rule="evenodd"/>
    <path id="Tracé_5" data-name="Tracé 5" d="M2960.44,1693.035s55.507,102.276,42.161,230.564l-24.014,9.607s7.124,33.44,3.2,44.3-16.542,6.935-16.542,6.935,82.51,137.859,109.942,156.914l-52.3,36.825s-75.213-71.764-136.632-180.4c0,0-18.617,10.165-24.843-11.949s-5.89-33.516-5.89-33.516-59.67,2.023-71.108-69.295l-28.022,2.711-11.137-68.853,26.833-6.078s-15.131-51.6,16.225-77.74c26.674-22.237,172.127-40.029,172.127-40.029" fill="#2c3e4d" fill-rule="evenodd"/>
    <path id="Tracé_6" data-name="Tracé 6" d="M3530.993,1894.126s1,32.85,2.613,62.095m-88.889-466.014s83.43,162.061,83.43,335.178" fill="none" stroke="#dbe7ea" stroke-miterlimit="10" stroke-width="7.24"/>
    <path id="Tracé_7" data-name="Tracé 7" d="M2893.745,2139.6s16.4-14.245,18.136-29.155c1.639-14.114,1.595-31.033,4.321-39.152,5.607-16.7,35.515-75.1,44.062-64.886s-1.817,27.435-3.171,40.235,3.065,16.948,7.011,26.877c2.617,6.592,5.839,34.9,5.665,58.03-.091,11.714-18.4,32.257-32.941,50.392l-43.083-42.341Z" fill="#fec6ad" fill-rule="evenodd"/>
    <path id="Tracé_8" data-name="Tracé 8" d="M3012.418,2032.625c9.618,11.32,27.96,29.357,39.4,44.47s20.144,37.071-5.967,38.8-44.473-31.062-58.8-58.794c-10.74-20.8,16.533-34.873,25.368-24.474" fill="#fec6ad" fill-rule="evenodd"/>
    <path id="Tracé_9" data-name="Tracé 9" d="M2956.484,2164.207s-.757-37.809-55.044-48.249l-143.476,135.43s21.27,16.047,93.91,84.459c35.257-49.484,71.166-115.391,104.61-171.64Z" fill="#f99325" fill-rule="evenodd"/>
  </g>
</svg>
