<svg xmlns="http://www.w3.org/2000/svg" width="19.333" height="16.055" viewBox="0 0 19.333 16.055">
  <path id="twitter" d="M19.167,2.5a9.084,9.084,0,0,1-2.617,1.275A3.733,3.733,0,0,0,10,6.275v.833a8.883,8.883,0,0,1-4.224-.945A8.883,8.883,0,0,1,2.5,3.333s-3.333,7.5,4.167,10.833A9.7,9.7,0,0,1,.834,15.833C8.334,20,17.5,15.833,17.5,6.25a3.743,3.743,0,0,0-.067-.692A6.433,6.433,0,0,0,19.167,2.5Z" transform="translate(-0.334 -1.987)" fill="none" stroke="#f4f5f4" stroke-linecap="round" stroke-linejoin="round" stroke-width="1"/>
</svg>
